<svg xmlns="http://www.w3.org/2000/svg" xmlns:xlink="http://www.w3.org/1999/xlink" viewBox="0 0 106 106"><defs><style>.cls-1,.cls-7{fill:none;}.cls-2{fill:#1d1e1c;}.cls-3{fill:#fff;}.cls-4{fill:#b8e0f4;}.cls-5{fill:#bdd9e5;}.cls-6{opacity:0.6;}.cls-7{stroke:#6f6f6e;stroke-miterlimit:10;stroke-width:0.59px;}.cls-8{fill:#58cab9;}.cls-9{font-size:2px;fill:#1d1d1b;font-family:PaytoneOne-Regular, Paytone One;}.cls-10{fill:#6f6f6e;opacity:0.55;}.cls-11{clip-path:url(#clip-path);}.cls-12{fill:#61beb2;fill-rule:evenodd;}</style><clipPath id="clip-path"><rect class="cls-1" x="1.24" y="119.76" width="106.08" height="27.76" rx="4.5"/></clipPath></defs><title>webIcons</title><g id="Icon_Cam_1" data-name="Icon Cam 1"><path d="M47.54,73.26a1.65,1.65,0,0,0-.32-.06,3.18,3.18,0,0,1-1.37-.52l-1.25-.8-.16-.11a.67.67,0,0,1-.24-.7.65.65,0,0,1,.51-.51.59.59,0,0,1,.5.08l.35.22c.35.22.7.44,1,.68A2,2,0,0,0,49.33,71l.59-1c.42-.73.84-1.45,1.27-2.17q1.25-2.15,2.51-4.29L55.16,61c.61-1,1.21-2.07,1.82-3.11a1,1,0,0,1,.15-.2.7.7,0,0,1,.9,0,.65.65,0,0,1,.2.83,1.64,1.64,0,0,1-.16.29L56.2,62Q55,64,53.82,66l-1.54,2.64-1.71,2.91A3.33,3.33,0,0,1,48.82,73a4.17,4.17,0,0,1-.85.19.25.25,0,0,0-.15,0Z"/><path class="cls-2" d="M67,79.32a1.2,1.2,0,0,0-.54-.32,1,1,0,0,0-.38,0,1,1,0,0,0-.67.27,1.31,1.31,0,0,0-.37.57,1.39,1.39,0,0,0-.09.45,1.87,1.87,0,0,0,.06.44,1.24,1.24,0,0,0,.35.62,1,1,0,0,0,.52.28,1.4,1.4,0,0,0,.36,0,1.06,1.06,0,0,0,.38-.1,1.17,1.17,0,0,0,.38-.27,1.1,1.1,0,0,0,.3-.67c0-.19-.06-.28-.12-.28s-.1.11-.15.25a2.68,2.68,0,0,1-.24.48.93.93,0,0,1-.38.32.75.75,0,0,1-.49,0,.86.86,0,0,1-.5-.29,1,1,0,0,1-.16-.27,2,2,0,0,1-.09-.34,1.37,1.37,0,0,1,0-.57,1.09,1.09,0,0,1,.41-.55l.11-.06a.38.38,0,0,0,.11,0l.17,0a.84.84,0,0,1,.44.07.33.33,0,0,1,.1.06.83.83,0,0,1,.16.12.76.76,0,0,1,.08.11,2.12,2.12,0,0,1,.25.51c0,.13.1.22.17.22s.1-.12.08-.32A1.08,1.08,0,0,0,67,79.32Z"/><path class="cls-2" d="M65.22,25.22a3,3,0,0,0-.41.08c-.12,0-.15,0-.26,0H63.06c-.16,0-.29,0-.45,0l-.41,0H62l-.56-.1a.93.93,0,0,0-.45,0,.25.25,0,0,0-.16.24c0,.08.07.16.19.2a.81.81,0,0,0,.42,0l.4-.07c.15,0,.26,0,.41,0s.32,0,.47,0a2.58,2.58,0,0,0,.5,0h.42a5.34,5.34,0,0,1,.54,0h.09a.2.2,0,0,0,.11,0h.78l.11,0a1.06,1.06,0,0,0,.45,0,.24.24,0,0,0,.16-.23c0-.08-.08-.16-.19-.19A.83.83,0,0,0,65.22,25.22Z"/><circle class="cls-2" cx="69.15" cy="25.44" r="0.89"/><rect class="cls-3" x="50.4" y="23.9" width="31.26" height="58.2" rx="5.09"/><path d="M76.58,82.54H55.49A5.53,5.53,0,0,1,50,77V29a5.53,5.53,0,0,1,5.52-5.53H76.58A5.53,5.53,0,0,1,82.1,29V77A5.52,5.52,0,0,1,76.58,82.54ZM55.49,23.9A5.1,5.1,0,0,0,50.4,29V77a5.1,5.1,0,0,0,5.09,5.08H76.58A5.09,5.09,0,0,0,81.67,77V29a5.09,5.09,0,0,0-5.09-5.09Z"/><path d="M76.58,82.68H55.49A5.67,5.67,0,0,1,49.83,77V29a5.67,5.67,0,0,1,5.66-5.67H76.58A5.68,5.68,0,0,1,82.25,29V77A5.68,5.68,0,0,1,76.58,82.68ZM55.49,23.61A5.39,5.39,0,0,0,50.11,29V77a5.39,5.39,0,0,0,5.38,5.37H76.58A5.38,5.38,0,0,0,82,77V29a5.38,5.38,0,0,0-5.38-5.38ZM76.58,82.25H55.49A5.24,5.24,0,0,1,50.26,77V29a5.24,5.24,0,0,1,5.23-5.24H76.58A5.24,5.24,0,0,1,81.81,29V77A5.23,5.23,0,0,1,76.58,82.25ZM55.49,24A5,5,0,0,0,50.55,29V77A5,5,0,0,0,55.49,82H76.58a5,5,0,0,0,5-4.94V29a5,5,0,0,0-5-4.95Z"/><path class="cls-4" d="M79.71,30.49V74.83a3.28,3.28,0,0,1-3.28,3.27H56a3.28,3.28,0,0,1-3.28-3.27V30.49A3.28,3.28,0,0,1,56,27.21H76.43A3.28,3.28,0,0,1,79.71,30.49Z"/><path class="cls-5" d="M79.71,30.34h-27v-.8A2.48,2.48,0,0,1,55.17,27H77.25a2.48,2.48,0,0,1,2.46,2.51Z"/><path d="M76.43,78.5H56a3.68,3.68,0,0,1-3.68-3.67V30.49A3.68,3.68,0,0,1,56,26.81H76.43a3.68,3.68,0,0,1,3.68,3.68V74.83A3.68,3.68,0,0,1,76.43,78.5ZM56,27a3.46,3.46,0,0,0-3.46,3.46V74.83A3.46,3.46,0,0,0,56,78.28H76.43a3.46,3.46,0,0,0,3.46-3.45V30.49A3.46,3.46,0,0,0,76.43,27Z"/><path d="M76.43,78.68H56a3.86,3.86,0,0,1-3.86-3.85V30.49A3.86,3.86,0,0,1,56,26.63H76.43a3.86,3.86,0,0,1,3.86,3.86V74.83A3.86,3.86,0,0,1,76.43,78.68ZM56,27.21a3.28,3.28,0,0,0-3.28,3.28V74.83A3.28,3.28,0,0,0,56,78.1H76.43a3.28,3.28,0,0,0,3.28-3.27V30.49a3.28,3.28,0,0,0-3.28-3.28Z"/><path class="cls-2" d="M81.67,37.16a1,1,0,0,1,1,1v4.63a1,1,0,0,1-1,1h0"/><path class="cls-2" d="M50.11,34.83a.51.51,0,0,1-.51-.51v-2a.51.51,0,0,1,.51-.51h0"/><path class="cls-2" d="M50.11,41a.51.51,0,0,1-.51-.51V36.79a.5.5,0,0,1,.51-.5h0"/><path class="cls-2" d="M50.11,46.42h0a.5.5,0,0,1-.51-.5V42.24a.51.51,0,0,1,.51-.51h0"/><g class="cls-6"><line class="cls-7" x1="58.15" y1="38.45" x2="74.08" y2="38.45"/><line class="cls-7" x1="58.15" y1="40.98" x2="74.08" y2="40.98"/><line class="cls-7" x1="58.15" y1="43.5" x2="74.08" y2="43.5"/></g><path class="cls-3" d="M43.34,37.81,24.81,55.91l-.63,2.68,14,13.74H40.3L57.56,55.07l4.57-4.86s.76-9.48.63-10,.54-5.11-1.89-5.33l-10.5-.41-3.25.44Z"/><path d="M60.45,33.3l.22.06a3.37,3.37,0,0,1,2.62,2.88,2.44,2.44,0,0,1,0,.27V47.12c0,.18,0,.36,0,.54a6.44,6.44,0,0,1-.84,3.05A8.28,8.28,0,0,1,61.53,52c-.21.24-.43.46-.65.68L44.61,68.94l-3.16,3.18a4.78,4.78,0,0,1-.54.47,3.32,3.32,0,0,1-1.54.57,3.33,3.33,0,0,1-2.74-.94l-.1-.09q-6-6-12.07-12.07a3.6,3.6,0,0,1-.74-1,3.56,3.56,0,0,1-.28-.91.59.59,0,0,0-.07-.26v-.5a.55.55,0,0,0,.07-.25,3.26,3.26,0,0,1,.7-1.6c.11-.13.23-.25.35-.37,1.79-1.8,3.58-3.6,5.39-5.39,3.85-3.83,7.68-7.68,11.53-11.51l.14-.14c.05-.06,0-.09,0-.11l-.09,0c-.82-.17-1.64-.34-2.47-.48-.56-.09-1.12-.18-1.69-.25l-.93-.1c-.27,0-.53,0-.8-.06h-.11c-.37,0-.74,0-1.11,0a3.4,3.4,0,0,0-.64.08s0,0,0,.07a.12.12,0,0,0,.05,0l.21.17a10.16,10.16,0,0,0,1.22.74,25.46,25.46,0,0,0,2.33,1,1.63,1.63,0,0,1,.19.09A.65.65,0,0,1,38,40a.67.67,0,0,1-.44.59.77.77,0,0,1-.52,0l-.59-.24a22.26,22.26,0,0,1-2.21-1A8.79,8.79,0,0,1,33,38.47a3.9,3.9,0,0,1-.48-.42,2.59,2.59,0,0,1-.32-.42,1.11,1.11,0,0,1,.32-1.49,1.65,1.65,0,0,1,.46-.23,4.74,4.74,0,0,1,1-.2,10,10,0,0,1,1.34,0c.32,0,.63,0,1,.06l.5,0,1.49.19c1.41.21,2.8.49,4.19.82s2.7.68,4,1.09,2.67.86,4,1.38a24.16,24.16,0,0,1,2.69,1.23,8.56,8.56,0,0,1,1.25.8,2.87,2.87,0,0,1,.56.54,2.83,2.83,0,0,1,.2.28,1.11,1.11,0,0,1-.33,1.49,1.69,1.69,0,0,1-.4.21,3.24,3.24,0,0,1-.83.19l-.23,0a.71.71,0,0,1-.71-.45.67.67,0,0,1,.31-.83.75.75,0,0,1,.33-.1l.39-.06s.06-.05,0-.09a1.16,1.16,0,0,0-.24-.2A10.66,10.66,0,0,0,52,41.47l-.26-.13c-.06,0-.09,0-.13,0a2.3,2.3,0,0,0-.27.76,2.5,2.5,0,0,0,.19,1.55,2.56,2.56,0,0,0,2,1.52,2.47,2.47,0,0,0,1.88-.42A2.63,2.63,0,0,0,56,41a2.53,2.53,0,0,0-1.66-1A3,3,0,0,0,54,40a.65.65,0,0,1-.58-.37.67.67,0,0,1,.4-1,.92.92,0,0,1,.37,0,6.1,6.1,0,0,1,.84.13,4,4,0,0,1,2.9,3A3.84,3.84,0,0,1,58,42.81a4,4,0,0,1-3.16,3.73,3.68,3.68,0,0,1-.93.1A4.06,4.06,0,0,1,50,43.3a3.9,3.9,0,0,1,.19-2c0-.14.11-.27.17-.4s.05-.14-.07-.19l-.67-.27q-1.38-.54-2.79-1c-1.15-.36-2.3-.69-3.47-1l-.09,0a.11.11,0,0,0-.11,0l-.14.14L39.65,42c-4.73,4.69-9.42,9.41-14.14,14.11l-.15.16A2,2,0,0,0,25.31,59l.14.14L37.51,71.15a1.83,1.83,0,0,0,.77.51,2,2,0,0,0,2.14-.46l5.27-5.28c2-2,4-4,6-6,2.82-2.84,5.66-5.67,8.49-8.5a8.13,8.13,0,0,0,1-1.15,4.88,4.88,0,0,0,.8-2.25c0-.25,0-.51,0-.76,0-3.53,0-7.07,0-10.6a2.15,2.15,0,0,0-.09-.66,2,2,0,0,0-1.53-1.35H48.91a4.91,4.91,0,0,0-2.83,1,6.93,6.93,0,0,0-.83.71l-.2.17a.69.69,0,0,1-.9-1,9.36,9.36,0,0,1,.81-.73,6.85,6.85,0,0,1,1.87-1.08,6.34,6.34,0,0,1,1.3-.32l.43-.07Z"/><path class="cls-8" d="M42.55,45.39a.68.68,0,0,1,.42.14,1.54,1.54,0,0,1,.19.17l7.77,7.77a2.09,2.09,0,0,1,.2.22.68.68,0,0,1,0,.8l-.13.14q-5.25,5.25-10.49,10.49l-.13.12a.67.67,0,0,1-.86,0l-.15-.13L31.52,57.3a.93.93,0,0,1-.13-.15.67.67,0,0,1,0-.86l.12-.13L42,45.68l.14-.14A.76.76,0,0,1,42.55,45.39Z"/><path class="cls-8" d="M39.91,63.69l.05,0,.13-.12,9.3-9.31.11-.11a.1.1,0,0,0,0-.14l-.11-.11-6.67-6.67c-.17-.17-.14-.17-.32,0-.95.94-1.9,1.89-2.84,2.84l-6.48,6.47c-.19.2-.19.18,0,.38.47.48.95,1,1.43,1.43l5.18,5.18.16.15Z"/><path class="cls-3" d="M41.3,55.83a.7.7,0,0,0,0,.13v0a.08.08,0,0,1,0,0s0,.07,0,.13,0,.15-.05.19a.76.76,0,0,0,0,.11l0,.11-.06.18L41,56.9,41,57,41,57a.58.58,0,0,0-.07.14l-.09.17-.1.17a1.94,1.94,0,0,1-.26.31,1,1,0,0,1-.34.21l-.1,0a.73.73,0,0,1-.09.08.3.3,0,0,1-.21.07l-.22-.06a.92.92,0,0,1-.27-.16,1.52,1.52,0,0,1-.22-.22,3,3,0,0,1-.18-.25l-.14-.2-.09-.19a1.41,1.41,0,0,1-.06-.22,1.94,1.94,0,0,1-.05-.2.5.5,0,0,0,0-.16c0-.09-.07-.18-.1-.26L38.24,56l-.09-.4c0-.13,0-.26-.08-.4a1.24,1.24,0,0,0,0-.16l0-.18-.07.05s0,0,0,0l-.07.08a.08.08,0,0,1-.1,0s-.06-.05-.07-.09v0a.49.49,0,0,0,0,.12l0,.11a.77.77,0,0,1,0,.37,2.14,2.14,0,0,1-.06.35c0,.09,0,.17,0,.25a.63.63,0,0,0,0,.27.36.36,0,0,1,0,.29.45.45,0,0,1-.24.18.2.2,0,0,0-.16.2.81.81,0,0,1,0,.16c0,.06,0,.11,0,.16a.41.41,0,0,0,0,.11s0,.07,0,.1a.2.2,0,0,1,0,.07s0,0,0,0a.15.15,0,0,0-.1.09L37,58l-.06.1a.61.61,0,0,0,0,.12.27.27,0,0,1-.16.18l-.23.08a.1.1,0,0,1-.09,0l-.11,0a.81.81,0,0,0,.15-.33l.06-.31c0-.14,0-.28,0-.42l0-.42a.62.62,0,0,0,0-.24.84.84,0,0,1-.08-.34c0-.12,0-.23,0-.36l0-.51a4.56,4.56,0,0,0,0-.52,1.27,1.27,0,0,0,0-.34c0-.12,0-.23-.05-.35s0-.31,0-.46,0-.31,0-.47l0-.38c0-.12,0-.25,0-.37a.3.3,0,0,0,0-.1l-.07-.09s0-.09,0-.12a.28.28,0,0,1,.09-.1l.22-.14.22-.14a.78.78,0,0,1,.23-.08h.24a.77.77,0,0,1,.23.06.36.36,0,0,1,.16.14,1,1,0,0,1,.15.4c0,.17,0,.34,0,.5s0,.33,0,.5,0,.33,0,.5,0,.34,0,.51,0,.07,0,.09a.17.17,0,0,1,.1-.07.13.13,0,0,1,.12,0,.84.84,0,0,1,.35.13.11.11,0,0,0,.15,0,1.56,1.56,0,0,0,.27-.4c.07-.14.14-.28.2-.43s.19-.47.29-.7.19-.46.29-.69a.72.72,0,0,1,.12-.21l.15-.19a.29.29,0,0,1,.18-.11.6.6,0,0,1,.23,0,.62.62,0,0,1,.22.1.49.49,0,0,1,.14.15.1.1,0,0,1,0,.09.19.19,0,0,1-.05.09.15.15,0,0,1-.24,0l0,0a.08.08,0,0,0,0,0,.22.22,0,0,0-.17-.09.26.26,0,0,0-.16.1,1.82,1.82,0,0,0-.32.69.75.75,0,0,1,0,.16.61.61,0,0,0-.07.14l-.24.5c-.08.17-.16.34-.25.51a1.2,1.2,0,0,1-.16.27c-.06.09-.12.17-.18.27a1,1,0,0,1,.23.23,2,2,0,0,1,.17.27,2.1,2.1,0,0,1,.15.3c0,.1.09.21.14.3s.08.2.13.33l.12.41c0,.14.07.27.1.4a2.74,2.74,0,0,0,.11.34l.09.29.09.28a.86.86,0,0,0,.35-.15,1,1,0,0,0,.25-.26,1,1,0,0,1,.14-.2l.09-.13.09-.14a1.2,1.2,0,0,0,.1-.22,1.66,1.66,0,0,0,.11-.27l0-.12s0-.08,0-.14l.06-.29a1.18,1.18,0,0,1,.07-.2l.07-.21c.06,0,.09,0,.07.08A.61.61,0,0,0,41.3,55.83Zm-3.44-1,.07,0,.07-.05-.09-.08a.1.1,0,0,0-.07-.06.09.09,0,0,0-.08,0,.19.19,0,0,0,0,.09.29.29,0,0,1,0,.09h.16Z"/><path class="cls-3" d="M44.13,56.1s0,0,0,0a.13.13,0,0,0,0,.06l-.13.23a1.58,1.58,0,0,1-.15.24.36.36,0,0,0,0,.09.22.22,0,0,1-.05.08l-.17.21-.21.18s-.05,0-.08.06a.16.16,0,0,1-.08.06l-.13,0-.14,0H42.7l-.07,0-.06,0-.12,0-.08,0-.16,0-.18,0-.12,0h-.08s0,0-.07,0h0a.19.19,0,0,1-.15,0l-.14-.07,0,0h0a.09.09,0,0,1-.07,0l0-.06s0,0,0-.07.05,0,.07,0l.14.08a.33.33,0,0,0,.14,0l.09,0a.2.2,0,0,0,.16,0l.1-.09a.07.07,0,0,1,0,0,.48.48,0,0,0,.2-.14l.12-.2s0-.07,0-.11a.27.27,0,0,0,0-.12c0-.08,0-.16,0-.24a.84.84,0,0,0-.07-.26,1.94,1.94,0,0,0-.2-.33,1.14,1.14,0,0,0-.11-.11l-.12-.11-.15-.15-.15-.14-.07-.06-.07-.07a1.3,1.3,0,0,1-.15-.2.9.9,0,0,1-.11-.22.53.53,0,0,1,0-.39.2.2,0,0,1,.06-.07l.06-.07.07,0,.06,0a.42.42,0,0,1,.27-.12.41.41,0,0,1,.34.11l0,.05,0,.08a.2.2,0,0,1,0,.07l0,0s0,0,0,.06l0,.12L42,54.7a.1.1,0,0,1,0,0l0,0a.15.15,0,0,0,0,.13.48.48,0,0,0,.1.15,1.3,1.3,0,0,0,.22.19l.24.18.21.15.19.18.1.1L43,56a.6.6,0,0,1,.08.08l.08.08a.6.6,0,0,1,.09.15.83.83,0,0,0,0,.15.31.31,0,0,1,0,.08.15.15,0,0,1,0,.07.41.41,0,0,1,0,.22l-.1.17-.12.12a.47.47,0,0,0-.1.09l-.06,0,.08,0a.3.3,0,0,0,.18-.07l.14-.12a1.55,1.55,0,0,0,.37-.4c.1-.15.2-.29.29-.44l0,0,0-.07s0,0,0,0Z"/><path class="cls-3" d="M45,53.87c0,.19,0,.38,0,.56s0,.38,0,.57l.09-.07.09-.06.14-.12.14-.1a.18.18,0,0,1,.13,0l.19,0a.44.44,0,0,1,.19.07.62.62,0,0,1,.22.17,1.93,1.93,0,0,1,.17.21.59.59,0,0,0,0,.08.3.3,0,0,1,0,.08.49.49,0,0,1,0,.19.13.13,0,0,1,0,.06s0,0,0,.06v.38s0,.06,0,.09v.11s0,.1,0,.15a.92.92,0,0,1,0,.16.14.14,0,0,1,0,.07l0,.07,0,.12a.49.49,0,0,1,0,.11.83.83,0,0,1-.07.13l-.08.12-.06,0,0,0a0,0,0,0,0,0,0l.06,0s.05,0,.06,0l.25-.09a1.63,1.63,0,0,0,.29-.23,3.25,3.25,0,0,0,.23-.29,4,4,0,0,0,.31-.51,2.4,2.4,0,0,0,.11-.23l.11-.24v0h0s0,0,0,0c-.1.23-.17.42-.24.56s-.12.28-.19.41a.7.7,0,0,1-.14.23,1.21,1.21,0,0,1-.16.16l-.16.15-.08.08-.08.06-.07,0-.09,0h-.13a.33.33,0,0,1-.22,0l-.2-.1a.41.41,0,0,1-.15-.14c0-.06,0-.12-.07-.19s0-.2-.06-.32a2.18,2.18,0,0,1,0-.25v-.25a2.09,2.09,0,0,1,0-.25c0-.09,0-.17,0-.26a.34.34,0,0,0,0-.1v-.62s0-.07,0-.1l-.08,0-.07,0a1,1,0,0,0-.2.15l-.17.17a.21.21,0,0,0-.07.2,1.08,1.08,0,0,1,0,.18v.34a1,1,0,0,1,0,.17l0,.52v.19a.2.2,0,0,1,0,.11.13.13,0,0,1-.11.07s0,0,0,0a.14.14,0,0,1,0,.06.49.49,0,0,1,0,.11l0,.12s0,0,0,0a.22.22,0,0,1-.22.21l-.17,0a.26.26,0,0,0-.15.07H44s0-.07,0-.1a.34.34,0,0,0,0-.1c0-.11,0-.22,0-.33l0-.34a2.45,2.45,0,0,0,0-.27v-.27c0-.1,0-.2,0-.31s0-.2,0-.3a2.18,2.18,0,0,0,0-.25,1.9,1.9,0,0,1,0-.25,2.64,2.64,0,0,1,0-.29l0-.29s0-.09,0-.14a.71.71,0,0,1,0-.14l0-.2a.58.58,0,0,1,0-.19v-.07a1.11,1.11,0,0,0,0-.17l0-.16,0-.11,0-.1a.61.61,0,0,1,.05-.12l.06-.11c0-.05.05-.09.07-.13l.08-.12a.2.2,0,0,1,0-.08.43.43,0,0,1,0-.07.31.31,0,0,1,.18-.09.24.24,0,0,1,.2,0,.09.09,0,0,1,.06,0l0,.06.06.1.06.12a.75.75,0,0,0,.07.12l.06.13a.54.54,0,0,1,0,.24.78.78,0,0,1-.14.43A.19.19,0,0,1,45,53.87Zm0,0s0,0,.06-.1a.53.53,0,0,0,.06-.19,1.48,1.48,0,0,0,0-.21.47.47,0,0,0,0-.18c0,.11-.06.23-.08.34A1,1,0,0,0,45,53.84Z"/><path class="cls-3" d="M47.84,56.68a.9.9,0,0,1,.25,0,.71.71,0,0,1,.21.11.23.23,0,0,1,.06.13.68.68,0,0,1,0,.19.27.27,0,0,0-.06.1.3.3,0,0,1,0,.1.22.22,0,0,1-.32.1l-.12-.07-.11-.06c0-.05-.08-.07-.11-.07s-.08,0-.09-.05a.38.38,0,0,1,0-.14v-.12a.81.81,0,0,1,0-.11.18.18,0,0,1,.1-.11.47.47,0,0,1,.17,0Z"/><rect class="cls-5" x="61.35" y="65.99" width="9.53" height="3.41" rx="1.71"/><text class="cls-9" transform="translate(64.09 68.43)">Sell</text><rect class="cls-10" x="70.05" y="46.55" width="4.03" height="10.38"/></g><g id="BUTTONS-3" data-name="BUTTONS"><g class="cls-11"><path class="cls-12" d="M1.15,79.29c0-.05.05-.1,0-.16s-.11-.06-.19,0a1,1,0,0,1-.51.1A1.49,1.49,0,0,1,1.29,79l.05.08s0,0,0-.09a.43.43,0,0,1,.23-.14,5.21,5.21,0,0,1,1.71-.2c.1.06.21,0,.32,0a.07.07,0,0,0,.06-.07.21.21,0,0,0-.09-.13.78.78,0,0,0-.37,0c-.07,0-.05,0-.05-.07l.06,0,.14,0,.08,0h0l-.08,0h.07a.13.13,0,0,0,0-.06h.21c.28,0,.58,0,.79-.28h.06c.09,0,.23,0,.22-.15s-.13-.08-.21,0-.5.09-.72.21-.25,0-.36.07h0v.13H3.23a.25.25,0,0,0-.24.07H3c-.14,0-.28,0-.37.15l0,.06a.34.34,0,0,0-.2,0,.09.09,0,0,0-.07,0c-.09-.07-.22,0-.32-.16s-.28-.08-.43,0-.12.12,0,.2-.06.15-.11.21l-.21.08-.05,0h0L1,78.87H1a3.78,3.78,0,0,0-1,.2v.21c.16.23.4.22.65.21H.8A.27.27,0,0,0,1.15,79.29Z"/><path class="cls-12" d="M.15,97a2.49,2.49,0,0,1,.07-.77c-.11,0-.14.07-.21.08v.07a.08.08,0,0,1,0,.14v.55C.09,97.12.13,97.07.15,97Z"/><path class="cls-12" d="M44.51,40.78c.08.06.16.1.22,0l.12-.31H44.5C44.6,40.55,44.51,40.66,44.51,40.78Z"/><path class="cls-12" d="M.23,82.11s0,0,0-.07H0v.14C.09,82.18.18,82.19.23,82.11Z"/><path class="cls-12" d="M87.6,47c.08-.09.18-.16.09-.29s-.12-.06-.15,0S87.48,46.88,87.6,47Z"/><path class="cls-12" d="M98.3,68.49l-.09.1c.06.12.13.22.28.13l0,0s0-.07,0-.1,0-.11,0-.14S98.34,68.41,98.3,68.49Z"/><path class="cls-12" d="M50.93,49.55h0c-.09-.13,0-.33-.21-.42l-.07-.07c-.09,0-.23,0-.17.12a1,1,0,0,0,.37.45C50.91,49.66,50.92,49.59,50.93,49.55Z"/><path class="cls-12" d="M105.29,92.66h0a.12.12,0,0,1-.06.06c-.12.1-.26.19-.3.35a.11.11,0,0,0-.06,0s-.06,0-.06.06h0l-.05.06a1.3,1.3,0,0,1-.51.42,1.67,1.67,0,0,0-.44.55l-.37.33a.18.18,0,0,1-.06.09h0a.09.09,0,0,0,0,.15h.05l.08,0,0,0,.08,0,.08-.05.41-.38a4.19,4.19,0,0,1,.54-.49,3.13,3.13,0,0,1,.25-.26.54.54,0,0,0,.07-.13.34.34,0,0,0,0-.2c.1,0,.16,0,.23-.09a.47.47,0,0,0,.1-.1c.14-.12.21-.31.36-.43h0a.25.25,0,0,1,.12-.23.71.71,0,0,0,.26-.31c0-.07,0-.09-.09-.08l-.2.15C105.65,92.27,105.38,92.4,105.29,92.66Z"/><path class="cls-12" d="M50.29,42.1s-.13-.08-.11,0a1.63,1.63,0,0,0,.11.31c.09.06.12.2.26.2a0,0,0,0,1,0,0C50.47,42.44,50.5,42.2,50.29,42.1Z"/><path class="cls-12" d="M3.37,83.69h.07c.08,0,.24-.06.09-.21l.05-.08v-.06h0a.16.16,0,0,0-.09,0c-.07,0-.14,0-.2,0h0c-.06.05,0,.12,0,.19v0a.61.61,0,0,1-.36-.09c-.12-.07-.29.08-.44,0l0,0H2.31l-.17.09c0,.06.13,0,.16.11s.23.09.36.07H2.8c.15-.11.32,0,.48-.06A.47.47,0,0,0,3.37,83.69Z"/><path class="cls-12" d="M105.67,76.31c.06.1.17.11.27.14a.51.51,0,0,1,.21.2.35.35,0,0,0,.32.18l0,0v-.34c-.13,0-.27,0-.35-.11s-.23-.13-.35-.18S105.61,76.18,105.67,76.31Z"/><path class="cls-12" d="M106.42,81.87a.14.14,0,0,0,0,.09,1.55,1.55,0,0,1,0,.31s0,0,0,.08.26.3-.09.3a.13.13,0,0,0,0-.06.07.07,0,0,0-.06-.07h0v-.07a.46.46,0,0,1-.09-.2c-.08-.07-.07-.19-.13-.28a.14.14,0,0,0-.15.14.33.33,0,0,0,0,.22.53.53,0,0,1,0,.22.3.3,0,0,1,0,.08c-.15.13-.19.24.06.31.08-.07.14-.16.26-.14h0c0,.13.06.25.23.26l0,.05a.47.47,0,0,0,.08.33,1.66,1.66,0,0,1,.21.59h0l0-.07a.39.39,0,0,0-.1-.08.11.11,0,0,0-.08,0,.16.16,0,0,0-.05.11s0,0,0,.08l0,.07,0,.12.06.11.09.15c.06.07.08.2.21.14l.13.1a.16.16,0,0,0-.23.1s0,0,0,.07.16.1.28.08a1.62,1.62,0,0,1,0-.22h0a.31.31,0,0,1,.21.07v-.42h-.06c0-.07,0-.15-.08-.2h0c-.05-.14-.09-.28-.14-.42s0-.22-.14-.27a.13.13,0,0,1,0-.06.08.08,0,0,1,0-.09v0a.3.3,0,0,1-.08-.22.57.57,0,0,0,0-.13c0-.1-.12-.22,0-.29s0-.23,0-.35-.09-.21-.07-.33,0-.14-.07-.21S106.48,81.76,106.42,81.87Z"/><path class="cls-12" d="M.91,82.32s0,0-.07,0a.06.06,0,0,0-.06.06s0,0,.07,0S.92,82.36.91,82.32Z"/><path class="cls-12" d="M83.28,49.1c-.15.11-.31,0-.47,0l-.09,0-.18,0h-.05l0,0s-.09.08,0,.15h0c.17.08.34.12.5.21l.07.07c.15,0,.34-.06.44.13.1,0,.2,0,.29,0s.2,0,.28-.08,0-.17-.07-.24h-.07c-.12-.09-.3-.11-.41-.22A.2.2,0,0,0,83.28,49.1Z"/><path class="cls-12" d="M83.54,49c0,.14.11.15.21.17a.12.12,0,0,0,.09,0s.15,0,.07-.14a.24.24,0,0,0-.08-.06h0C83.73,48.93,83.62,48.89,83.54,49Z"/><path class="cls-12" d="M8,62.88a.55.55,0,0,0-.08-.43c-.06,0-.13-.06-.14.06a1.36,1.36,0,0,0,.08.49C7.89,63,7.94,63,8,62.88Z"/><path class="cls-12" d="M7.88,60.17c-.14-.07,0-.24-.15-.38v.52c0,.11.08.09.15.07Z"/><path class="cls-12" d="M13.05,54.07a.83.83,0,0,0,0-.22c0-.12,0-.26-.15-.36a.13.13,0,0,0-.1,0s-.07.06-.1.1h0l.21.83C13.08,54.35,13,54.19,13.05,54.07Z"/><path class="cls-12" d="M13.25,55.53a.39.39,0,0,0-.08-.47L13,55a1.42,1.42,0,0,0,.08.68.17.17,0,0,1,.07.13C13.29,55.74,13.23,55.63,13.25,55.53Z"/><path class="cls-12" d="M13.81,61.62h0c-.24,0-.25,0-.15.21l.08.06h0C13.93,61.84,13.85,61.72,13.81,61.62Z"/><path class="cls-12" d="M11.74,41.18c0,.19,0,.37,0,.56.09-.07.05-.18.06-.27s0-.2.07-.27a.17.17,0,0,0,0-.21C11.76,41,11.74,41.08,11.74,41.18Z"/><path class="cls-12" d="M21.4,43.34a2.17,2.17,0,0,0,0,.26l.06.07a.2.2,0,0,0,.14-.13h0l-.07-.06h0s0-.1,0-.14.07-.1,0-.14S21.39,43.25,21.4,43.34Z"/><path class="cls-12" d="M19.9,42.36V42.3h0a.1.1,0,0,0,0,0s-.05.09,0,.11S19.89,42.4,19.9,42.36Z"/><path class="cls-12" d="M16,44.22c0,.07,0,.13.09.12a.11.11,0,0,0,.11-.14c0-.07,0-.14-.11-.13S16,44.16,16,44.22Z"/><path class="cls-12" d="M103.87,73.42v.06a.66.66,0,0,1,.21.35.12.12,0,0,0,.13-.13h0s0-.09,0-.14a.34.34,0,0,0-.06-.2s-.11,0-.15-.07a0,0,0,0,0-.07,0S103.91,73.38,103.87,73.42Z"/><path class="cls-12" d="M104.36,74.31c.07,0,.12,0,.15-.07a.13.13,0,0,1,0-.06.47.47,0,0,1-.14-.14h0C104.24,74.13,104.32,74.22,104.36,74.31Z"/><path class="cls-12" d="M99.43,70.93s0,0,0-.06c-.18-.18-.19-.18-.28,0v0l0,0a.09.09,0,0,0,.06,0l.07,0h0Z"/><path class="cls-12" d="M98.07,69.76c0,.06,0,.08.06.08l.23.24s.09.09.15.06,0-.12.07-.18a4,4,0,0,0-.51-.41C98,69.62,98.09,69.69,98.07,69.76Z"/><path class="cls-12" d="M102.86,70.38a.25.25,0,0,1,0,.11h0a.15.15,0,0,0-.09,0c-.15,0-.11-.2-.25-.18s.07.3.05.45v0a.5.5,0,0,0,0,.12.25.25,0,0,0,0,.07.35.35,0,0,0,.11.13c.31,0,0-.27.2-.33s.08.08.12.12l0,0,.08.06a.15.15,0,0,0,.17,0,.11.11,0,0,0,0-.08,0,0,0,0,1,0-.06.09.09,0,0,0,0-.07.17.17,0,0,0,0-.15.07.07,0,0,0,0-.05.51.51,0,0,0-.15-.16c.07,0,.12-.1.08-.19h0a.16.16,0,0,0-.07-.07h0C103,70.16,102.87,70.2,102.86,70.38Z"/><path class="cls-12" d="M5.24,79.22s0,.08,0,.13a.15.15,0,0,0,.21,0h0C5.43,79.21,5.34,79.2,5.24,79.22Z"/><path class="cls-12" d="M13.1,82.94l0,0c.07,0,.14,0,.17,0s0-.09-.07-.12h0c-.08,0-.17,0-.22,0S13.09,82.89,13.1,82.94Z"/><path class="cls-12" d="M12,82.34s-.05,0-.06,0a0,0,0,0,0,0,.06s.05,0,.05,0A.05.05,0,0,0,12,82.34Z"/><path class="cls-12" d="M10.66,77.62c.05,0,.13-.05.08-.14-.26-.1-.35-.06-.36.14h.28Z"/><path class="cls-12" d="M4.52,83.48a1.72,1.72,0,0,0,.64-.06.69.69,0,0,1,.51,0,.53.53,0,0,0,.22,0,2.68,2.68,0,0,1,.8.06A.22.22,0,0,0,7,83.42h.21s0,0,0-.06h.51c.11,0,.08-.08.06-.14a1.63,1.63,0,0,1-.38,0,.8.8,0,0,0-.57,0H6.67l-.15,0H6.38c0-.08,0-.17-.15-.07a1.17,1.17,0,0,1-.2.06c-.16,0-.28,0-.3-.19-.07,0-.14-.26-.21,0,.08.13.1.23-.12.24l-.17,0c-.24-.08-.47,0-.71,0A.15.15,0,0,0,4.52,83.48Z"/><path class="cls-12" d="M55.51,49.48a.35.35,0,0,1,0-.08l-.08-.06c-.13,0-.14,0-.08.13h0c.06.09,0,.19,0,.29s-.08.36.06.51.15.1.24,0,0,0,0,0,0-.25-.06-.36a.15.15,0,0,1,0-.07c-.08-.1,0-.24-.07-.34Z"/><path class="cls-12" d="M51.36,44.72c-.12,0-.21-.11-.34-.09a.42.42,0,0,0,.06.36,1.23,1.23,0,0,1,0,.47c0,.07,0,.15.09.17s.15-.07.16-.14A1.54,1.54,0,0,0,51.36,44.72Z"/><path class="cls-12" d="M80.4,44.23c0,.06-.09.12,0,.18a.09.09,0,0,0,.15,0s.1-.12.06-.18-.12,0-.18,0Z"/><path class="cls-12" d="M81.2,47.61h.06c.15,0,.33.06.42-.13h0l-.07,0a.11.11,0,0,1-.08,0h0A.31.31,0,0,0,81.2,47.61Z"/><path class="cls-12" d="M83.12,48.92c.08,0,.16,0,.22,0s0-.07-.08-.1S83,48.74,83.12,48.92Z"/><path class="cls-12" d="M1.23,96.39c.08,0,.14,0,.13-.13S1.15,96.24,1.23,96.39Z"/><path class="cls-12" d="M101.22,103.91c.1,0,.21,0,.2-.13h-.2Z"/><path class="cls-12" d="M101.21,103.21l-.06,0a.3.3,0,0,0-.12.42c.17,0,.17-.22.32-.23a.13.13,0,0,0,0-.06c.09-.08.13-.18,0-.25S101.23,103.12,101.21,103.21Z"/><path class="cls-12" d="M103.69,77.86s0,0,0,.08l.1.08s.08.12.17.1h.14a.67.67,0,0,1-.07-.34l-.06,0c-.1-.11-.19-.08-.28,0A.36.36,0,0,0,103.69,77.86Z"/><path class="cls-12" d="M105.44,78c.07,0,.14.09.21,0s.23-.05.25.14.11,0,.17,0l.07-.07a.23.23,0,0,1,.14-.07v-.25l-.13,0c-.21-.13-.39,0-.57.07S105.31,77.89,105.44,78Z"/><path class="cls-12" d="M104.66,77.62h0a.09.09,0,0,0,.12,0c.06,0,0-.12.09-.16h0s0-.09,0-.14h-.21A.2.2,0,0,0,104.66,77.62Z"/><path class="cls-12" d="M55.58,42.22c0-.06,0-.13,0-.2V42c0-.11,0-.23,0-.35A.63.63,0,0,0,55.58,42.22Z"/><path class="cls-12" d="M1.08,78.52a.12.12,0,0,0-.06.12C1.18,78.67,1.1,78.58,1.08,78.52Z"/><path class="cls-12" d="M96.26,58.44c.13.1.17-.06.25-.11l0,0c.1-.16,0-.17-.13-.18a.17.17,0,0,1-.15.06C96.24,58.26,96.14,58.36,96.26,58.44Z"/><path class="cls-12" d="M103.86,74.18h-.07c-.09,0-.07.14-.07.22s0,.22,0,.33.1.18.12.28a.13.13,0,0,0,.09,0c.13,0,.22-.09.14-.24h0a.17.17,0,0,1,0-.21l.06-.07c0-.08,0-.16-.06-.21S103.92,74.24,103.86,74.18Z"/><path class="cls-12" d="M102.79,73.65c-.08-.06-.19-.14-.22,0l.21.27c.13,0,.29.08.29-.14h0A.9.9,0,0,1,102.79,73.65Z"/><path class="cls-12" d="M102.79,74.31a.15.15,0,0,0,0,.07c.08.05-.06.22.13.21h0a1.77,1.77,0,0,0,0-.23C102.92,74.25,102.85,74.3,102.79,74.31Z"/><path class="cls-12" d="M101.5,72.72c.18.09.14,0,.14-.12S101.5,72.63,101.5,72.72Z"/><path class="cls-12" d="M99.57,71.28c0,.18.17,0,.22.13s.06-.08.06-.13a.21.21,0,0,0-.28,0Z"/><path class="cls-12" d="M96.5,68.16l.12.1,0,0h0a.1.1,0,0,0-.05,0c0,.16.06.25.18.32l.15.07,0,.06.09.14a1.19,1.19,0,0,0,.22.23l.16.16.07,0,.09,0c.15,0,.16,0,.1-.16a1.19,1.19,0,0,0-.15-.18.62.62,0,0,1-.14-.28.29.29,0,0,1-.21-.14.78.78,0,0,0-.29-.28l-.15-.13a.47.47,0,0,0-.2-.22C96.48,68,96.5,68.08,96.5,68.16Z"/><path class="cls-12" d="M105.23,75.89h0s0,0,.06.08l.07.07s.06.11.14.07l.08-.07c0-.09-.14-.16-.15-.27l-.07-.07A.17.17,0,0,0,105.23,75.89Z"/><path class="cls-12" d="M105,75.69a.31.31,0,0,0-.17-.38C104.87,75.45,104.86,75.59,105,75.69Z"/><path class="cls-12" d="M1.88,83.53s0,0-.07,0-.05,0-.08.06h.1Z"/><path class="cls-12" d="M6.66,78.53a.93.93,0,0,0-.8.19,2,2,0,0,0,.8-.13S6.69,78.55,6.66,78.53Z"/><path class="cls-12" d="M8.65,83.15l-.06-.07a.15.15,0,0,0-.15.06l0,.13c.08,0,.14,0,.2-.06A.13.13,0,0,0,8.65,83.15Z"/><path class="cls-12" d="M11.05,83c.18.07.2-.09.32-.17a.61.61,0,0,0-.34,0h0C11.05,82.87,10.93,83,11.05,83Z"/><path class="cls-12" d="M12.26,82.87c-.06,0-.1,0-.12.09a.08.08,0,0,0,.09.08.14.14,0,0,0,.12-.1S12.31,82.87,12.26,82.87Z"/><path class="cls-12" d="M11.43,77.19a.1.1,0,0,0-.12,0,.93.93,0,0,0-.36.14l.09.08.31,0A.1.1,0,0,0,11.43,77.19Z"/><path class="cls-12" d="M12.92,77.27l.33,0,.13-.15c0-.18-.17,0-.21-.13h-.06C13.12,77.13,13,77.2,12.92,77.27Z"/><path class="cls-12" d="M5.38,93.08s0-.08,0-.09-.26-.06-.37.09H5a.45.45,0,0,0,.36,0Z"/><path class="cls-12" d="M8.66,87.77c0,.19-.26.27-.28.48a.13.13,0,0,0-.06.07s0,0,0,.06.14-.06.22-.06.17-.13.24-.21A.75.75,0,0,0,8.83,88a.08.08,0,0,0,0-.08c0-.08.13-.17,0-.24S8.73,87.75,8.66,87.77Z"/><path class="cls-12" d="M9.6,86.39h0a.11.11,0,0,1-.15,0H9.38c0,.14.06.29-.06.42l-.08.07c-.05.08,0,.13.07.14l0,0a.1.1,0,0,0,.05,0l0,0,.05,0,0,0a.12.12,0,0,1,.05-.05l0-.06c0-.05.1-.09.06-.17v-.2s0,0,0,0A0,0,0,0,0,9.6,86.39Z"/><polygon class="cls-12" points="9.66 86.39 9.66 86.39 9.67 86.39 9.66 86.39"/><path class="cls-12" d="M79.41,48.17l-.12.06c-.08.09-.07.16,0,.21s.38.05.62,0c-.17,0-.3-.07-.26-.23h0a.15.15,0,0,0-.14-.05l-.08,0Z"/><path class="cls-12" d="M78.49,46.53c0,.07,0,.1.1.11s.15,0,.16-.1-.06-.1-.15-.1A.1.1,0,0,0,78.49,46.53Z"/><path class="cls-12" d="M80.47,47.58v0l-.15-.08h0c0,.11,0,.22.13.2a.46.46,0,0,0,.07-.07Z"/><path class="cls-12" d="M100.51,90.23l.06,0c.05,0,.13,0,.11-.09a.1.1,0,0,0-.13-.08C100.47,90.11,100.5,90.18,100.51,90.23Z"/><path class="cls-12" d="M97.13,94.8l-.14.07a.59.59,0,0,0-.36.07c0,.19,0,.19.22.14L97,95l.43-.13s.11,0,.14-.07h0C97.42,94.67,97.27,94.75,97.13,94.8Z"/><path class="cls-12" d="M102.44,95.5c0,.17.17.1.27.06l0-.2-.09-.08-.06,0C102.57,95.39,102.47,95.42,102.44,95.5Z"/><path class="cls-12" d="M100.78,97a.42.42,0,0,1-.27.18c-.09.18-.34.12-.44.28a1.17,1.17,0,0,0-.43.48l-.78.62c-.07.07,0,.13,0,.17a.44.44,0,0,0,.35-.2,1.62,1.62,0,0,1,.6-.4,2.18,2.18,0,0,0,.25-.28c.08-.09.2-.13.27-.23a.47.47,0,0,1,.1-.1.86.86,0,0,0,.38-.35,1.06,1.06,0,0,0,.36-.4c0-.07,0-.1-.08-.08A1.28,1.28,0,0,0,100.78,97Z"/><path class="cls-12" d="M100.23,101.37c0,.06,0,.14-.09.16a.12.12,0,0,0-.11.12.19.19,0,0,0,0,.08c0,.06,0,.11,0,.16l0,.08a.3.3,0,0,1,0,.08c.08.12.1.28.27.34a.17.17,0,0,0,.08-.14c0-.18-.16-.36,0-.55a.47.47,0,0,1-.07-.28,0,0,0,0,0,0-.06h0C100.36,101.26,100.29,101.24,100.23,101.37Z"/><path class="cls-12" d="M100.57,100.11V100C100.49,100,100.49,100.07,100.57,100.11Z"/><path class="cls-12" d="M100.79,104h0a.16.16,0,0,0-.24,0C100.63,104,100.71,104,100.79,104Z"/><path class="cls-12" d="M104.07,75.42h.08s0-.14,0-.15.1,0,.15.09l0,.06c.13,0,.12-.12.21-.15V75.2l0,0c-.15-.09-.29-.18-.44,0A.37.37,0,0,0,104.07,75.42Z"/><path class="cls-12" d="M105.08,76.73h.06l.08-.06c.06,0,.07-.09,0-.14s-.14,0-.19,0S105,76.71,105.08,76.73Z"/><path class="cls-12" d="M104.69,76.06s0,0,0,0,0-.16,0-.24A.15.15,0,0,0,104.69,76.06Z"/><path class="cls-12" d="M104.93,79.08a.79.79,0,0,0,.36.48c.07,0,.15.21.22,0-.17-.27-.21-.6-.44-.83s-.23,0-.34,0C104.67,78.91,104.85,79,104.93,79.08Z"/><path class="cls-12" d="M69.3,44.42l-.11.12,0,0c-.07.09-.15.05-.24,0s-.2,0-.24.11l.06.06a.18.18,0,0,0,.2,0,.2.2,0,0,1,.23.06.19.19,0,0,0,.26,0h0c0,.16.19.11.3.12s.22,0,.3.06-.11.1-.11.17a.08.08,0,0,0,0,.07c.06,0,.15,0,.2.05h0c.21.1.17-.16.29-.2v.06l.07-.07h0c.15-.08.28.13.43,0l0,0a.25.25,0,0,0,.22,0h.58c-.13-.18-.35-.07-.46-.2h0c-.08-.1-.19-.05-.29-.07s-.19-.1-.23-.2-.08,0-.1,0a.16.16,0,0,0,0,.08c0,.07-.1.05-.15,0l-.1,0a1.4,1.4,0,0,1-.28-.06c-.18,0-.34-.15-.53-.11a.11.11,0,0,0,0,0c-.09-.06-.11-.18-.22-.23Z"/><path class="cls-12" d="M11,76.17h0c-.06-.08-.28-.13-.06-.27h0a.13.13,0,0,1-.07-.08s0,0,0-.06a.49.49,0,0,0-.26-.1.12.12,0,0,0-.09,0c-.09,0-.15,0-.15.14.15,0,.31.06.3.27s.06.12.13.15S10.9,76.25,11,76.17Z"/><path class="cls-12" d="M105.5,81.29c.09-.05.07-.13.08-.22a.13.13,0,0,0-.15.15Z"/><path class="cls-12" d="M105.57,80.73a.14.14,0,0,0,.08-.14s-.09,0-.12,0S105.52,80.69,105.57,80.73Z"/><path class="cls-12" d="M105.69,81.13c0,.1.11.19.17.29h.06a.05.05,0,0,0,0-.08v-.14c-.06,0,0-.15-.07-.2h-.07C105.72,81,105.64,81,105.69,81.13Z"/><path class="cls-12" d="M96.5,59.89h.06c.2,0,.15-.13.21-.21v0C96.5,59.62,96.5,59.62,96.5,59.89Z"/><path class="cls-12" d="M18.54,59.75h0c-.13,0-.12.06-.08.14h0c.05,0,0,.11.07.15s.15.31.23.47a.17.17,0,0,1,.07.14l.13.07a.53.53,0,0,1,0,.13c.08-.05.06-.09,0-.13v-.21a5.24,5.24,0,0,1-.28-.69S18.57,59.8,18.54,59.75Z"/><path class="cls-12" d="M33.28,57.88c0,.06.06.07.11.07a.07.07,0,0,0,.07-.07c0-.05,0-.08-.09-.09S33.28,57.83,33.28,57.88Z"/><path class="cls-12" d="M47.06,46.79,47,46.65c-.16-.09-.15.08-.21.13s-.13.17,0,.18S47.06,47,47.06,46.79Z"/><path class="cls-12" d="M101.35,74.87a.13.13,0,0,0,.07-.14h0l-.06-.08-.07-.13c-.12-.18-.34-.12-.5-.2s-.07.07-.07.13.3.1.42.21h0a.1.1,0,0,0,.06.09h0a.08.08,0,0,0,0,0s.11,0,.13.08Z"/><path class="cls-12" d="M101.11,75s.06,0,.07-.06,0-.09-.08-.1A.07.07,0,0,0,101,75,.12.12,0,0,0,101.11,75Z"/><path class="cls-12" d="M100.42,74.18a.29.29,0,0,0,.1,0s0-.06,0-.09-.05-.06-.08,0a.25.25,0,0,0,0,.09Z"/><path class="cls-12" d="M8,74.45A.46.46,0,0,1,8,74.38a.71.71,0,0,0-.14-.1.11.11,0,0,0-.08,0v.14a.13.13,0,0,1,0,.06l.14.08C8,74.58,8.1,74.62,8,74.45Z"/><path class="cls-12" d="M21.37,78.85c.09,0,.11-.12,0-.2s-.16,0-.22-.06h0a.38.38,0,0,0,0,.48.46.46,0,0,0,.07-.07C21.25,78.93,21.31,78.89,21.37,78.85Z"/><path class="cls-12" d="M16.1,76.79h0s.11,0,.15-.06h.21a.74.74,0,0,0,.65-.33c.12-.19,0-.15-.14-.15-.32.11-.71-.07-1,.21a2,2,0,0,1-.34.14,1.45,1.45,0,0,0-.22.09l0,0c.11.13.26.09.39,0A.42.42,0,0,1,16.1,76.79Z"/><path class="cls-12" d="M50.08,55.49c0,.17.14.22.33.25a.93.93,0,0,0-.17-.33.1.1,0,0,0-.12,0A.11.11,0,0,0,50.08,55.49Z"/><path class="cls-12" d="M58,47.64a.12.12,0,0,0-.18,0c-.11.11.06.14.09.2h0C58,47.77,58.11,47.74,58,47.64Z"/><path class="cls-12" d="M57.72,47.13c-.11-.08,0-.24-.14-.4v.41s0,.12.1.1S57.73,47.18,57.72,47.13Z"/><path class="cls-12" d="M57.66,46.1V46s-.11,0-.12,0a.16.16,0,0,0,.05.23h0C57.63,46.19,57.61,46.13,57.66,46.1Z"/><path class="cls-12" d="M50.38,62.42c0,.08.12.11.2,0s.08-.17.16-.16.17-.13.26-.19c-.07-.12-.18-.05-.27-.06h0l-.07.06a1.88,1.88,0,0,0-.24.14A.13.13,0,0,0,50.38,62.42Z"/><path class="cls-12" d="M50.06,56.86c0-.1-.13,0-.2,0l.07.13C50,57,50.11,57,50.06,56.86Z"/><path class="cls-12" d="M46.15,52.48c-.14,0-.14.08-.15.17a2.82,2.82,0,0,0-.57.15.14.14,0,0,1-.14.06c-.15.1-.29,0-.44,0s-.05.13-.07.2l.09.09.42-.16h.06c.17.08.33,0,.49,0a.14.14,0,0,0,0-.06,3.29,3.29,0,0,1,.68-.14c.18,0,.35-.19.3-.27s-.22,0-.34,0Z"/><path class="cls-12" d="M46.29,52.16l-.14,0C46.2,52.24,46.25,52.23,46.29,52.16Z"/><path class="cls-12" d="M42.92,53.27l-.06.08c-.13-.05-.31.13-.4-.09l-.11.08s0,.09,0,.14a.12.12,0,0,0,0,.13h.28a.25.25,0,0,1,.22-.13h.22l0-.09c0-.07,0-.13,0-.17A.12.12,0,0,0,42.92,53.27Z"/><path class="cls-12" d="M43.71,52.72h0s0,0,0,.07.19,0,.28,0C44,52.56,43.82,52.68,43.71,52.72Z"/><path class="cls-12" d="M45,52.65s0,0,0,0l0,0s0,0,0,0S45,52.69,45,52.65Z"/><path class="cls-12" d="M48.65,48.57c.08,0,.07-.11.05-.18C48.5,48.4,48.61,48.5,48.65,48.57Z"/><path class="cls-12" d="M45.28,50.09V49.9h-.2S45,50,45,50a.16.16,0,0,0,0,.07h0A.2.2,0,0,0,45.28,50.09Z"/><path class="cls-12" d="M43.29,51.9a.43.43,0,0,0,.06.27l0,0a.31.31,0,0,0,.17,0l.08,0h0c.07-.08.19-.15.07-.27a.65.65,0,0,0-.22.11C43.39,52,43.35,51.93,43.29,51.9Z"/><path class="cls-12" d="M47.17,47.28c-.06-.11-.16-.05-.24,0s0,.23.14.27S47.24,47.4,47.17,47.28Z"/><path class="cls-12" d="M61.75,47.12c.07.06,0,.17.12.21l.05-.06c-.06-.08,0-.17-.06-.26A.13.13,0,0,0,61.75,47.12Z"/><path class="cls-12" d="M76.83,47.27s-.11.06-.1.13a.18.18,0,0,0,.1.14c.12.06.19-.13.23-.1s.14-.06.2-.11h0c-.09-.06-.21,0-.3-.06h-.13Z"/><path class="cls-12" d="M76.9,46.1A.1.1,0,0,0,77,46c0-.07,0-.12-.1-.12s-.18,0-.28,0A.3.3,0,0,0,76.9,46.1Z"/><path class="cls-12" d="M97.79,93.85v.05c0,.08.1.15.2.07h0C98,93.83,97.91,93.82,97.79,93.85Z"/><path class="cls-12" d="M99.22,97.78c.15-.2.37-.36.42-.63a1.61,1.61,0,0,0-.5.35C99.13,97.6,99.05,97.73,99.22,97.78Z"/><path class="cls-12" d="M95.92,95.35l.08-.06v-.14h-.15C95.81,95.23,95.72,95.34,95.92,95.35Z"/><path class="cls-12" d="M98.41,93.5a.32.32,0,0,0-.27.06c0,.2.12.1.21.07Z"/><path class="cls-12" d="M95.55,90.86a.11.11,0,0,0-.06-.13c-.09,0-.16.14-.28.14l.07.14C95.41,91,95.48,91,95.55,90.86Z"/><path class="cls-12" d="M74.71,46.15c0,.08.09.09.11.14a.14.14,0,0,0,.21,0c.09-.11,0-.14-.07-.2h-.07C74.83,46.11,74.74,46.07,74.71,46.15Z"/><path class="cls-12" d="M70,44.65l.08.07c.1,0,.22,0,.21-.14a.45.45,0,0,0-.28-.07A.11.11,0,0,0,70,44.65Z"/><path class="cls-12" d="M75.19,46.38c.08.26.13,0,.2,0V46.3c0-.07,0-.14-.12,0A.43.43,0,0,0,75.19,46.38Z"/><path class="cls-12" d="M103.79,77.14c0,.15.12.13.21.14h0a.11.11,0,0,0,0-.14l-.08-.06C103.85,77,103.82,77.08,103.79,77.14Z"/><path class="cls-12" d="M103.53,77.17c-.18,0-.37,0-.31.25h0c.08.07.2,0,.29.06h0a.23.23,0,0,0,.07.07h0l.12,0c.06,0,.15.06.15-.06s-.06-.09-.12-.09-.15,0-.15-.14Z"/><path class="cls-12" d="M103.66,78.1a.19.19,0,0,0-.16-.06s0,.06-.07,0,0,0,0-.08a.36.36,0,0,0,0-.1s-.05,0-.08-.06-.11-.14-.17-.21-.09-.08-.15,0,0,.1,0,.15a.63.63,0,0,1,.19.49h0a.15.15,0,0,0,.11,0c.06,0,.07.07.1.1s0-.19.21-.17S103.69,78.14,103.66,78.1Z"/><path class="cls-12" d="M72.38,46.88s0-.07-.06-.07-.12.06-.15.12a.07.07,0,0,1,0,0,0,0,0,0,0,0,0s0,0,0,0S72.39,47,72.38,46.88Z"/><path class="cls-12" d="M11,74.62s0,0-.06.06,0,.1.12.11l0-.05S11,74.63,11,74.62Z"/><path class="cls-12" d="M105.79,82.45l-.14-.13-.07-.07c-.09,0-.07.13-.07.2l.07.14h.29s0,0,0-.06S105.82,82.47,105.79,82.45Z"/><path class="cls-12" d="M82.6,62.8c.05.09.11.17.23.13a.15.15,0,0,0,.14-.06l-.15-.15h-.14C82.62,62.71,82.6,62.75,82.6,62.8Z"/><path class="cls-12" d="M87.19,63.89c0,.11.12.13.22.07s-.1-.14-.21-.13S87.17,63.87,87.19,63.89Z"/><path class="cls-12" d="M77.11,53.54l.07-.06c0-.09.13-.19-.06-.2S77,53.45,77.11,53.54Z"/><path class="cls-12" d="M17.39,70.73c-.05-.07-.1-.14-.14-.21s-.18.14-.28.28C17.13,70.76,17.28,71,17.39,70.73Z"/><path class="cls-12" d="M17.44,71.2c0-.06-.05-.1-.12-.11s-.1.09-.1.15,0,.16.1.14S17.44,71.28,17.44,71.2Z"/><path class="cls-12" d="M19,72.46a.19.19,0,0,0-.17-.22c-.05,0-.1,0-.1.08s.11.25.2.24S19,72.5,19,72.46Z"/><path class="cls-12" d="M14.81,66.72c0,.08.09,0,.14,0S14.85,66.66,14.81,66.72Z"/><path class="cls-12" d="M16.16,64.11h0c0-.07,0-.14,0-.21s-.13-.16-.15-.27a.38.38,0,0,1-.13-.15.23.23,0,0,1-.07-.07h0v-.07a.2.2,0,0,0-.13,0l0,0h0c0-.12-.06-.11-.14-.07l-.07,0a1,1,0,0,0,.42.61h0a.06.06,0,0,0,0,.06h0l.08.1v0l.09.13C16.08,64.24,16.16,64.25,16.16,64.11Zm-.55-.69h0Z"/><path class="cls-12" d="M11.82,68.31h0s0,.08.09,0Z"/><path class="cls-12" d="M19.17,64.51c0-.13,0-.27,0-.4-.22.16-.23.28-.06.47h0l.08-.07Z"/><path class="cls-12" d="M32.1,54.85a.75.75,0,0,0-.7.21l-.28.07c-.08,0-.1,0-.14.07a1.8,1.8,0,0,1-.64.14l-.09.06h-.06l-.07.07h0c-.13,0-.29,0-.39.11.11.07.22,0,.32,0l.07-.06.15,0a.19.19,0,0,0,.16,0h0l.12,0a.15.15,0,0,0,.15-.06c.14,0,.28-.07.42,0s.17-.16.32-.17a3.58,3.58,0,0,0,.45-.09,1,1,0,0,0,.37-.08C32.34,54.89,32.21,54.87,32.1,54.85Z"/><path class="cls-12" d="M37.48,53.82c.2-.22,0-.24-.15-.24s-.25,0-.33.12-.28.15-.43.2-.14.21.07.17.47-.12.7-.18h0Z"/><path class="cls-12" d="M34.4,54.09c0,.1-.39,0-.13.22h.07a1.11,1.11,0,0,1,.39-.2c.11,0,.18-.08.18-.21a.1.1,0,0,0-.14,0,.36.36,0,0,1-.29.14Z"/><path class="cls-12" d="M36.19,53.14h0s-.07,0-.08.06a.1.1,0,0,0,.16,0S36.21,53.17,36.19,53.14Z"/><path class="cls-12" d="M41.07,53.07a.84.84,0,0,1-.43.14,2.24,2.24,0,0,1-.57.13,0,0,0,0,0,0,.06.1.1,0,0,0,0,.05c0,.07,0,0-.07.06-.21.15-.48.18-.66.37h-.07s-.07,0-.08.07l.09.08c.09,0,.21,0,.26.08s.1.06.15,0a.44.44,0,0,0,.15-.18l0,0,0,0c.2-.12.41,0,.62-.06s.1-.41.39-.41l.06,0a.37.37,0,0,0,.2-.14h.06a.23.23,0,0,1,.07-.07h0C41.26,53.06,41.22,53,41.07,53.07Z"/><path class="cls-12" d="M41.15,54s0,.09,0,.14.13.07.21.06,0-.27,0-.41a.15.15,0,0,0-.14.07C41.15,53.92,41.18,54,41.15,54Z"/><path class="cls-12" d="M46.21,48.37a.66.66,0,0,0,0-.14l-.07-.07c-.18,0-.14.11-.08.21h0c.06,0,0,.18.13.15h0s0,0,0,.06.12.27.2,0C46.35,48.52,46.33,48.4,46.21,48.37Z"/><path class="cls-12" d="M100.64,77.46s0,.07.07.1h.06c.06,0,.11,0,.16,0s0-.12-.06-.14h-.1S100.65,77.38,100.64,77.46Z"/><path class="cls-12" d="M96.85,74.59a4.18,4.18,0,0,0,.8.27.18.18,0,0,0,.19,0,.15.15,0,0,1-.13-.08l-.08-.07c-.13-.06-.32,0-.42-.14l-.08-.06h-.06a.17.17,0,0,0-.22,0h0A.1.1,0,0,0,96.85,74.59Z"/><path class="cls-12" d="M100.19,77.5c-.16,0-.28,0-.38.12C100,77.61,100.07,77.67,100.19,77.5Z"/><path class="cls-12" d="M99.93,77.28a.15.15,0,0,0,.07-.13c-.15,0-.15,0-.14.06l.07.07Z"/><path class="cls-12" d="M102,77.14c-.11,0-.24-.14-.29.07s0,.15.07.21c-.11,0-.22,0-.26.12l0,0,.14.06.08-.06v-.14c.12.14.23.09.35,0s.11,0,.18-.1l-.18-.1A.13.13,0,0,1,102,77.14Z"/><path class="cls-12" d="M100.53,76.33a0,0,0,0,0,0,0c.09,0,.08,0,.09-.1S100.52,76.25,100.53,76.33Z"/><path class="cls-12" d="M94.78,72.31h0s0,0,0,0h0a.23.23,0,0,0,.07-.07v-.06C94.81,72.17,94.7,72.15,94.78,72.31Z"/><path class="cls-12" d="M95.34,73.25v0h0s0,.06.07.08l.09,0h0s0,0,0,0,0,0,0,0,.12,0,.11-.06-.17-.21-.32-.19S95.33,73.22,95.34,73.25Z"/><path class="cls-12" d="M21.26,77.49s0,0,0,.06.09.16.2.14S21.42,77.47,21.26,77.49Z"/><path class="cls-12" d="M13.67,75.69c0,.1,0,.2.15.21a.06.06,0,0,0,.07,0s0-.06.07-.09H14c.09-.1,0-.15-.07-.2h-.13s-.11,0-.15.06Z"/><path class="cls-12" d="M14.25,76.59h0a.38.38,0,0,0-.36,0A1.45,1.45,0,0,0,14.25,76.59Z"/><path class="cls-12" d="M14.39,76.45c0,.07.08.07.13.07A.12.12,0,0,0,14.39,76.45Z"/><path class="cls-12" d="M60.37,62.1s-.08,0-.11,0l-.13.24a.14.14,0,0,0,.24.13l.08-.13C60.44,62.28,60.48,62.17,60.37,62.1Z"/><path class="cls-12" d="M54.87,58.37s0-.1-.08-.13h0a.08.08,0,0,0-.13,0h0a.45.45,0,0,0-.08.27c.15.13.25,0,.36-.06Z"/><path class="cls-12" d="M52.46,59.24c.08-.09,0-.17,0-.24C52.29,59.05,52.35,59.13,52.46,59.24Z"/><path class="cls-12" d="M59.31,47.68c.11,0,.14.19.3.18s0-.26-.1-.38S59.3,47.45,59.31,47.68Z"/><path class="cls-12" d="M48.94,64.14a.12.12,0,0,0,.12.14c.13,0,.07-.11.08-.17h0C49.08,64.13,49,64,48.94,64.14Z"/><path class="cls-12" d="M49.94,65.39a.11.11,0,0,0,0,.08c0,.08.12.1.17.15h0a.46.46,0,0,1,.07.07.32.32,0,0,1,.15.13c.09,0,.13,0,.13-.13l-.29-.34c0-.1-.14-.09-.2-.15h0c-.06,0-.07.08-.08.14Z"/><path class="cls-12" d="M97.92,100.89c-.09,0-.17,0-.12.11.16.22,0,.26-.16.29l-.07.07c0,.07-.11.09-.09.17a1.44,1.44,0,0,0,.53-.22C98.11,101.22,98.05,100.92,97.92,100.89Z"/><path class="cls-12" d="M98.72,100.87h0a.11.11,0,0,1,0,.15h0a.08.08,0,0,0,0,.14h0c.1,0,.19.08.16-.1a.1.1,0,0,1,0-.11c0-.11,0-.21-.07-.32C98.66,100.59,98.65,100.61,98.72,100.87Z"/><path class="cls-12" d="M97.35,100.12c0,.06,0,.11.1.12s.1-.06.12-.13S97.42,100.1,97.35,100.12Z"/><path class="cls-12" d="M98.49,98.87l.08.13.07,0a.66.66,0,0,0,0-.14s0-.1-.06-.09S98.52,98.84,98.49,98.87Z"/><path class="cls-12" d="M99.11,97.89l0,0S99.12,97.87,99.11,97.89Z"/><path class="cls-12" d="M94.7,100.8v-.06c-.1,0-.2,0-.2.13s.12.16.16,0C94.66,100.83,94.69,100.82,94.7,100.8Z"/><path class="cls-12" d="M94.46,100.13a.09.09,0,0,0,0,0s0-.06,0,0,0,0,0,0Z"/><path class="cls-12" d="M94.85,90.8h0c0-.06-.06-.13-.13-.16a.08.08,0,0,0-.08,0,.19.19,0,0,0-.08.28h.54C95,90.85,94.89,90.89,94.85,90.8Z"/><path class="cls-12" d="M98.84,99.36a.48.48,0,0,0,.09.19.15.15,0,0,0,0-.23S98.87,99.32,98.84,99.36Z"/><path class="cls-12" d="M73.53,46.79l.22.07c.08-.08.17-.17-.06-.16,0,0-.06,0-.09-.05S73.5,46.72,73.53,46.79Z"/><path class="cls-12" d="M103.42,76.56c-.07.12.1.08.13.14l0,0h0c.07-.06.11-.13,0-.19S103.44,76.51,103.42,76.56Z"/><path class="cls-12" d="M102.79,77.42s.1,0,.14.07h0c.08-.06.11-.14,0-.18s-.15,0-.15.12Z"/><path class="cls-12" d="M104.5,79.28c-.1-.06-.14,0-.15.08a.13.13,0,0,1,0,.06s.06.06,0,.08-.06.21.08.25.22,0,.23-.19S104.51,79.42,104.5,79.28Z"/><path class="cls-12" d="M70.29,56.61a.66.66,0,0,0,0,.58l0,0a.13.13,0,0,0,.13,0,.19.19,0,0,0,0-.13s-.08,0,0-.07l.08,0c.21-.38.2-.52-.05-.65h0a.09.09,0,0,0-.13,0A.73.73,0,0,1,70.29,56.61Z"/><path class="cls-12" d="M69.63,55.89s-.07,0-.1.07a.46.46,0,0,1-.07.07c0,.06,0,.16.11.09a.28.28,0,0,0,.09-.16S69.68,55.88,69.63,55.89Z"/><path class="cls-12" d="M69.32,55.48v.06l.07.08.14-.08a0,0,0,0,0,0-.06h0l-.06-.07h0C69.38,55.37,69.35,55.42,69.32,55.48Z"/><path class="cls-12" d="M104.72,80.12h0c0-.08,0-.18-.12-.23C104.56,80,104.56,80.09,104.72,80.12Z"/><path class="cls-12" d="M82.67,61.12a.14.14,0,0,0,0,.06.15.15,0,0,0,0,.07l0,0h.14l.07-.07v-.13h-.18Z"/><path class="cls-12" d="M85.22,63.16h0s0,0,0,0,0,0,0,0Z"/><path class="cls-12" d="M85.7,67a.12.12,0,0,0,0,.09.19.19,0,0,0,.06.07.36.36,0,0,0,.12.08c.22.12.46.22.68.35l.3.17c.08,0,.18.1.25,0s.09-.19,0-.26h0a.36.36,0,0,0-.2-.11.56.56,0,0,0-.22,0l-.29-.21s-.11,0-.14-.06h0a.34.34,0,0,0-.42-.15Z"/><path class="cls-12" d="M75.68,57.68c0-.08,0-.15-.07-.2S75.59,57.63,75.68,57.68Z"/><path class="cls-12" d="M80.27,56.59a.06.06,0,0,0,0,.06s.1.08.15,0,0-.12,0-.18h-.06A.12.12,0,0,0,80.27,56.59Z"/><path class="cls-12" d="M24.52,72.8c.05-.15,0-.2-.25-.2h0a.21.21,0,0,0,.15.26S24.5,72.86,24.52,72.8Z"/><path class="cls-12" d="M21.67,75.06a2.77,2.77,0,0,1,.26-.1c.12,0,.22-.07.16-.21s-.17-.06-.25,0-.25.12-.37.19C21.4,75.18,21.59,75,21.67,75.06Z"/><path class="cls-12" d="M16.57,76.05l-.26,0h0C16.38,76.12,16.45,76.13,16.57,76.05Z"/><path class="cls-12" d="M16,76.24v-.13h-.07C15.84,76.19,15.8,76.26,16,76.24Z"/><path class="cls-12" d="M21.12,75.22c.05.08.13,0,.21.06h.05C21.31,75.18,21.21,75.22,21.12,75.22Z"/><path class="cls-12" d="M20.81,62.72l0,0,0,0s0,0,0,0S20.81,62.75,20.81,62.72Z"/><path class="cls-12" d="M35.79,54.86l-.09,0-.06.06v0a.56.56,0,0,0,.62,0c.15-.09,0-.11,0-.17h-.14A.64.64,0,0,1,35.79,54.86Z"/><path class="cls-12" d="M33.9,54.28l-.14,0H33.7l-.08,0c-.1,0-.2,0-.28.07h-.07a1.08,1.08,0,0,0-.66.27l-.12.07-.07.05-.06,0,0,0,.14.13h.07a.46.46,0,0,1,.43-.21l.44-.2h0l.06,0a.2.2,0,0,0,.22,0h0c.14,0,.3,0,.44-.06S34.09,54.2,33.9,54.28Z"/><path class="cls-12" d="M35.29,54.14c0-.06-.1,0-.16,0a1.66,1.66,0,0,1-.45.12c-.11,0-.07.08,0,.14h.14c.08-.07.2,0,.28-.07h0a.19.19,0,0,1,.14-.07S35.31,54.18,35.29,54.14Z"/><path class="cls-12" d="M32.49,54.46c-.06.06-.15,0-.22.06l-.07.13h0a.15.15,0,0,0,.21,0C32.42,54.58,32.61,54.58,32.49,54.46Z"/><path class="cls-12" d="M35.49,58.93a.25.25,0,0,1,.14.13.14.14,0,0,0,.06.12l.1.09c.08.08.2.11.28.19l-.19,0a.19.19,0,0,0-.1,0l0,0c0-.07,0-.13-.07-.18h0c-.07,0-.09.13-.13.19s0,.15.14.14h.08a11.21,11.21,0,0,0,1.42,0c.07,0,.22,0,.14.12s0,.22-.13.29l-.08.07h0a.26.26,0,0,1-.14.2c0,.09.12.06.19.06s.06-.28.22-.34l0,0a.25.25,0,0,0,0-.07v0a.28.28,0,0,1,.1-.21l.06,0a.22.22,0,0,0,.16-.15c0-.12-.06-.17-.19-.12a2.39,2.39,0,0,1-.84-.06v-.06a.14.14,0,0,0-.1-.07h-.11c-.14,0-.31,0-.38-.13s-.17-.06-.26-.09L35.84,59h0s-.1,0-.14-.08h0a.27.27,0,0,1-.07-.08h0a.12.12,0,0,0-.15,0Z"/><path class="cls-12" d="M34.49,59.82h.16s0,0,.05,0l.08,0c.16,0,.34,0,.49-.09-.13-.13-.29,0-.43-.06h-.28C34.4,59.63,34.42,59.72,34.49,59.82Z"/><path class="cls-12" d="M33.19,59.75s0,0,0,.08h0a.29.29,0,0,1,.14.13h0c.24.08.17-.12.21-.22s-.17-.13-.28-.06,0,.05-.07.06Z"/><path class="cls-12" d="M38.92,53.61a.12.12,0,0,0-.14-.13c0,.08,0,.15.06.2l.08-.06Z"/><path class="cls-12" d="M40.85,53.62h0L41,53.5C40.82,53.5,40.82,53.5,40.85,53.62Z"/><path class="cls-12" d="M102.53,76.63a.06.06,0,0,0-.06.07.14.14,0,0,0,.13.09h0s0,0,0-.06S102.6,76.63,102.53,76.63Z"/><path class="cls-12" d="M94.54,74.17a.18.18,0,0,0,.07,0,1.8,1.8,0,0,1,.21.08.8.8,0,0,0,.16.08.51.51,0,0,1,.3.24.11.11,0,0,0,.08,0c.27,0,.15.21.24.31a.46.46,0,0,0,.24.17c.2,0,.26-.06.24-.21h0l.13.06c.1.05.15.16.27.17h0c0,.22.17.23.34.25l0,0,0,0v0a.1.1,0,0,0,.06,0l.07,0h0s0,0,0,0h.17a.31.31,0,0,0,0,.08.14.14,0,0,0,.15,0h0s0,0,0,0c.06.26.29.34.49.45s.28.33.54.27h.21c.09,0,.24,0,.29-.11a.29.29,0,0,0-.28-.09.47.47,0,0,1-.45-.2.33.33,0,0,0-.13-.13.24.24,0,0,1-.09-.08.21.21,0,0,1,0-.06.55.55,0,0,1,0-.18.12.12,0,0,0,0-.07.25.25,0,0,0-.22,0l-.17.06a.26.26,0,0,0-.09-.14c.13-.1.18-.21.07-.35h-.07c-.1-.11-.19-.24-.37-.11s-.11,0-.17,0-.35-.11-.54-.15l-.14-.08c-.06,0-.07-.06-.09-.11a1.38,1.38,0,0,1-.41-.49.56.56,0,0,0-.22-.28h-.06c-.18,0-.14.13-.14.24s.12.12.18.19A2.22,2.22,0,0,1,95,74c-.15-.07-.22-.22-.34-.31l-.09,0a.46.46,0,0,0-.2,0,.21.21,0,0,0-.08.06.2.2,0,0,0,0,.13c0,.08.08.12.15.17A.39.39,0,0,1,94.54,74.17Z"/><path class="cls-12" d="M89.75,69.61a.35.35,0,0,0,.16.36,5.39,5.39,0,0,0,1,.46.13.13,0,0,0,.12-.07.1.1,0,0,0,0-.09L91,70.2c-.12-.07-.08-.21-.16-.3s-.21-.1-.3-.05-.26,0-.33-.17-.11-.17-.22-.18a.24.24,0,0,0-.2,0A.2.2,0,0,0,89.75,69.61Z"/><path class="cls-12" d="M91.42,70a.12.12,0,0,0,.14-.13l-.07-.07a.18.18,0,0,0-.15.07s0,.1.08.13Z"/><path class="cls-12" d="M93.35,71.83a1.48,1.48,0,0,1,.29.27c.09.06.2.07.28.14h.14v-.06a.46.46,0,0,0-.07-.07h0a2.36,2.36,0,0,0-.57-.35C93.35,71.73,93.33,71.76,93.35,71.83Z"/><path class="cls-12" d="M88.81,104.6a.05.05,0,0,0,0,0l-.08,0-.06.06c-.12,0-.12.07-.08.15h0a.31.31,0,0,1,.09.14.88.88,0,0,0,.07.14.34.34,0,0,0-.15.07v.13c.07.21.07.21.24.09l.1,0,.09-.06c0-.08,0-.1-.08-.14h0l-.1,0a.65.65,0,0,0,.11-.15h0A.23.23,0,0,1,89,105a.6.6,0,0,1,.35-.08v-.13a.15.15,0,0,0-.13,0C89.06,104.71,89,104.54,88.81,104.6Z"/><path class="cls-12" d="M89.06,105.35s.1,0,.09-.08-.05,0-.08,0S89,105.31,89.06,105.35Z"/><path class="cls-12" d="M24.26,78.18a.14.14,0,0,0-.14.06h0l.06.08.07.07c.1,0,.23,0,.15-.15l0,0a.13.13,0,0,0-.08,0Z"/><path class="cls-12" d="M21.68,82.45c.08-.06.17,0,.25,0s.06,0,.07,0v0h0s0,0,0-.06,0,0,0,0a.14.14,0,0,1,0-.1l.06-.05c.1-.09.23-.16.23-.33a.17.17,0,0,0-.15-.07h0c-.05,0-.11,0-.15.07h0a.46.46,0,0,0-.07.07.58.58,0,0,0-.23.18.28.28,0,0,1-.33.1s0,0,0,.06a.17.17,0,0,1-.13.2.38.38,0,0,0,0,.42C21.45,82.74,21.51,82.54,21.68,82.45Z"/><path class="cls-12" d="M21,83.42l.08-.14c-.08-.1-.18-.06-.28-.06l0,0C20.8,83.34,20.77,83.52,21,83.42Z"/><polygon class="cls-12" points="21.25 82.8 21.25 82.8 21.25 82.8 21.25 82.8 21.25 82.8"/><path class="cls-12" d="M21.24,82.82v0S21.22,82.82,21.24,82.82Z"/><path class="cls-12" d="M24.29,80.28c0-.09.09-.24-.11-.25h-.07a.46.46,0,0,1-.07.07h0c0,.09,0,.2.07.27h0C24.16,80.33,24.27,80.37,24.29,80.28Z"/><path class="cls-12" d="M9.61,89.45a.26.26,0,0,0-.3,0,.41.41,0,0,0,.28.15h0C9.61,89.57,9.69,89.5,9.61,89.45Z"/><path class="cls-12" d="M65.49,69.87v0c.11-.18,0-.38.06-.56l0-.08h0a.08.08,0,0,1,0-.08c0-.06,0-.12,0-.17h0c-.1-.09-.21-.16-.35-.06s0,.26.07.39a.18.18,0,0,1,0,.22.06.06,0,0,1,0,.06c-.06.13-.08.25.05.34l.09,0h.1S65.53,69.89,65.49,69.87Z"/><path class="cls-12" d="M53.72,66.86h0c.05.08.13.07.21.06V66.8h-.07S53.76,66.82,53.72,66.86Z"/><path class="cls-12" d="M66.78,71c-.06-.08-.14-.06-.22,0a.16.16,0,0,0-.15.11s0,.08,0,.08a.31.31,0,0,0,.29-.06S66.79,71,66.78,71Z"/><path class="cls-12" d="M66.67,63.06c.1.07,0,.2.1.3.06-.08,0-.18.11-.22s0,0,0-.06-.07-.18-.18-.17S66.67,63,66.67,63.06Z"/><path class="cls-12" d="M54.51,66.72h-.07c.07.1.18.07.27.06S54.58,66.74,54.51,66.72Z"/><path class="cls-12" d="M50.87,66.51s.08.1.12.1.08-.09.08-.15L51,66.31c-.09-.06-.13,0-.14.08Z"/><path class="cls-12" d="M39.47,62.49a.49.49,0,0,1,.24,0h.06c.08-.21-.11-.16-.21-.21s-.13,0-.2,0a.51.51,0,0,0-.13.09l0,0A.18.18,0,0,0,39.47,62.49Z"/><path class="cls-12" d="M42.75,59.09c-.09-.12-.18,0-.32,0,.13.08.22.12.32,0A.06.06,0,0,0,42.75,59.09Z"/><path class="cls-12" d="M43.09,58.38c-.11,0-.29,0-.29-.08s-.12-.11-.2-.13a.15.15,0,0,1-.12-.07c-.07,0-.14-.1-.22,0a.18.18,0,0,0,0,.23.77.77,0,0,0,.13.12c.13,0,.19.11.29.18a.4.4,0,0,0,.49,0,.17.17,0,0,0,.06-.16A.11.11,0,0,0,43.09,58.38Z"/><path class="cls-12" d="M14.8,92.67a.2.2,0,0,1-.06-.14c0-.1-.05-.13-.14-.14s-.24,0-.12.18l.12.16C14.68,92.73,14.76,92.75,14.8,92.67Z"/><path class="cls-12" d="M98.85,82.82a3.24,3.24,0,0,1-.52-.07.35.35,0,0,0-.2,0c-.06.11-.47.06-.17.34l.09,0a.51.51,0,0,1,.21.1c.11.12.24.09.38.05s.52-.17.8-.14c0-.1.19-.14.19-.27h0a.28.28,0,0,0-.28,0c-.13,0-.28,0-.41,0Z"/><path class="cls-12" d="M85.63,103.15l.09,0c.16.1.18.09.2-.09,0,0,0-.06,0-.1h-.07C85.66,102.91,85.64,102.92,85.63,103.15Z"/><path class="cls-12" d="M87.06,103.66c0-.06,0-.12-.1-.12a.05.05,0,0,0,0,.07.11.11,0,0,0,.09.12S87.05,103.69,87.06,103.66Z"/><path class="cls-12" d="M93.79,102.22c-.06-.13-.22,0-.3-.1s-.12-.26-.29-.28-.17,0-.2.09.07.11.13.13a.24.24,0,0,1,.18.23c0,.2.14.17.26.18l.14-.14S93.8,102.28,93.79,102.22Z"/><path class="cls-12" d="M95.12,101.7v-.13a.07.07,0,0,0-.06-.07c-.06-.06-.12-.11-.21-.07h0c-.11.07-.09.14,0,.21s0,0,0,.06h.07v.06h.21S95.12,101.72,95.12,101.7Z"/><path class="cls-12" d="M93,96h.13a1.09,1.09,0,0,0,.17-.13s0-.1,0-.12S93,95.8,93,96Z"/><path class="cls-12" d="M94,95a0,0,0,0,1,0,0l0,0s0,0,0,0S93.94,95,94,95Z"/><path class="cls-12" d="M92.48,88.74c.15,0,.16.16.17.3a2.26,2.26,0,0,1,.16-.21l0-.17C92.68,88.68,92.56,88.63,92.48,88.74Z"/><path class="cls-12" d="M92.13,91.44s0,.09.08.09l0,0a.09.09,0,0,0,0-.11l-.08-.05h0Z"/><path class="cls-12" d="M21.25,99.29a.31.31,0,0,0,.22-.21h0a.12.12,0,0,0,0-.09c-.13-.16-.22-.1-.3,0l-.09,0-.08.07-.06.07c-.06.15,0,.18.15.15Z"/><path class="cls-12" d="M15.82,97.7l.15.13.33-.07C16.15,97.65,16,97.72,15.82,97.7Z"/><path class="cls-12" d="M13.6,95.15c-.1,0-.15,0-.14.14A.12.12,0,0,0,13.6,95.15Z"/><path class="cls-12" d="M71.82,51.27l.07.06.14.14h0l.07-.06h0c.1-.15,0-.2-.14-.27l-.31,0C71.68,51.2,71.79,51.19,71.82,51.27Z"/><path class="cls-12" d="M70.53,56.1c.09,0,.16,0,.15-.09s0-.19-.15-.12Z"/><path class="cls-12" d="M69.25,59.27c.07,0,.15,0,.19-.06l-.06-.07C69.3,59.14,69.15,59.09,69.25,59.27Z"/><path class="cls-12" d="M82.79,61.64a.14.14,0,0,0,0-.22C82.77,61.49,82.73,61.56,82.79,61.64Z"/><polygon class="cls-12" points="82.76 61.41 82.76 61.41 82.76 61.41 82.76 61.41"/><path class="cls-12" d="M87.41,67.83v0l0,0,.07,0,.11,0,0,0,.07,0a.1.1,0,0,0,.07,0s0,0,0,0a.58.58,0,0,0,.4.25,4,4,0,0,0,.39.16.37.37,0,0,0,.23,0c.08,0,.16,0,.22-.06s0,0-.07-.07l-.15-.07a.38.38,0,0,0-.21-.07c-.09-.06-.21-.1-.25-.18s-.29-.2-.48-.18l-.13,0c-.06-.06-.16,0-.22-.07h0C87.49,67.77,87.43,67.77,87.41,67.83Z"/><path class="cls-12" d="M88.5,67.92s0,.08.1.07a.11.11,0,0,0,.09-.12c0-.05,0-.08-.08-.06A.12.12,0,0,0,88.5,67.92Z"/><path class="cls-12" d="M85.08,66.54a.38.38,0,0,0,.4.25.13.13,0,0,0,.14-.07l-.07-.07-.07-.06h-.06a.24.24,0,0,1-.08-.06h-.06a.18.18,0,0,1-.09-.06h0s0,0,0,0a.07.07,0,0,0-.06,0A.22.22,0,0,0,85.08,66.54Z"/><path class="cls-12" d="M84.56,65.75l.2.09.08,0h0a.23.23,0,0,0,.07.07h0A.11.11,0,0,0,85,66v0l0,0,.06.07c.07.05.12.12.19.18h0a1.51,1.51,0,0,1,.36.06h.06c.08,0,.14,0,.08-.12a1.7,1.7,0,0,0-.15-.22L85.48,66v-.13h0s0,0,0,0-.1-.08-.17-.07h0c-.1-.06-.18-.14-.32-.11S84.62,65.58,84.56,65.75Z"/><path class="cls-12" d="M76.06,52.81a.12.12,0,0,0,.09.09.08.08,0,0,0,.1-.06c0-.07,0-.11-.1-.11A.07.07,0,0,0,76.06,52.81Z"/><path class="cls-12" d="M80.07,58.27l0,0h0Z"/><path class="cls-12" d="M25.91,72.25c.07-.07.18,0,.25-.08a.22.22,0,0,0,.1-.09l0,0h0a.1.1,0,0,0,.09,0l.12-.07c.1-.09.28-.12.3-.29h0l0,0c.13-.19.13-.19-.07-.21l-.07.07h0a.93.93,0,0,0-.43.22l-.07.06h0s0,0,0,0h-.08a.06.06,0,0,0-.06,0h0a.13.13,0,0,1,0,.06h0c-.13,0-.19.08-.27.14l-.07.07a.13.13,0,0,0,.14.07Z"/><path class="cls-12" d="M20.39,65.55h0l0,0s0,0-.05,0l0,0a.17.17,0,0,0,0-.17h0c-.08,0-.11-.16-.23-.13a.13.13,0,0,1,0,.06c.1.08.07.24.21.28h0a.38.38,0,0,0,.08.27C20.54,65.73,20.42,65.64,20.39,65.55Z"/><path class="cls-12" d="M21.76,65.62a.51.51,0,0,1-.16-.13h-.06a.05.05,0,0,0-.08,0,.18.18,0,0,0,0,.14c0,.12.15.16.24.21h0l.08.06h0s0,.11.07.14h0c.09.08,0,.25.22.27s.13.12.14.21,0,.26.25.26c0-.13,0-.26-.05-.39A6.51,6.51,0,0,0,21.76,65.62Z"/><path class="cls-12" d="M38.35,58.59l.06-.08a.12.12,0,0,0-.07-.14l-.28.22c-.08.18.07.12.15.14A.38.38,0,0,0,38.35,58.59Z"/><path class="cls-12" d="M39.58,53.43l-.09,0h0l.07.05Z"/><path class="cls-12" d="M96,77.76l-.22-.13a2.16,2.16,0,0,0-.67,0,.16.16,0,0,0-.07.07.38.38,0,0,0,0,.1c.1.11.24.09.37.12s.18,0,.23.09S95.86,77.84,96,77.76Z"/><polygon class="cls-12" points="94.99 76.8 94.99 76.8 94.99 76.8 94.99 76.8"/><path class="cls-12" d="M95.09,76.82l-.1,0S95,76.88,95.09,76.82Z"/><path class="cls-12" d="M95.86,75.69s0-.08-.06-.1a.1.1,0,0,0-.09,0l-.08.13C95.75,75.88,95.82,75.84,95.86,75.69Z"/><polygon class="cls-12" points="94.56 76.73 94.56 76.73 94.56 76.73 94.56 76.73"/><path class="cls-12" d="M94.42,76.52v.06s0,.06,0,.08a.19.19,0,0,0,.14.07h0c0,.1-.21,0-.26.16a.84.84,0,0,0,.47,0c0-.06.13-.06.16-.13-.16,0-.12-.21-.23-.27S94.51,76.52,94.42,76.52Z"/><path class="cls-12" d="M95.92,76.18l.07.07s.05,0,.07,0h.07v-.13h-.07a.14.14,0,0,0-.15,0h0A.06.06,0,0,0,95.92,76.18Z"/><path class="cls-12" d="M96.58,75.43a.75.75,0,0,0-.4-.24s0,.06,0,.08h0c.09.06,0,.2.13.24a.11.11,0,0,0,.08,0h.14S96.61,75.46,96.58,75.43Z"/><path class="cls-12" d="M91.92,72a2.11,2.11,0,0,0,.55.25s.07.06.1.09.25.08.2-.13,0-.22-.21-.21h0l-.09-.08c-.18-.08-.33-.22-.55-.16S91.81,71.9,91.92,72Z"/><path class="cls-12" d="M88,103.84l-.08-.2h0l-.14-.14h-.07c-.07,0-.06.12-.06.2h.06c.07.05,0,.13,0,.19a.09.09,0,0,0,.06.06l.08,0a.14.14,0,0,0,.09,0A.09.09,0,0,0,88,103.84Z"/><path class="cls-12" d="M22.58,82.11c-.08-.09-.15,0-.21.08l-.05,0h-.06c-.11.1-.22.18-.22.34a.57.57,0,0,0-.22.07.1.1,0,0,0-.05,0s-.08.06-.06.1.08,0,.13,0h.06l.06,0,.08,0,0-.06a.22.22,0,0,0,0-.08l0,0a.05.05,0,0,0,.08,0l.05,0a1.25,1.25,0,0,1,.3-.26C22.54,82.26,22.69,82.22,22.58,82.11Z"/><path class="cls-12" d="M25.41,79.71l0,0a.2.2,0,0,0,0-.08.47.47,0,0,0,0-.17.2.2,0,0,0,0-.08s0,0,0,0,0,0-.05,0h-.07v.07l-.06.07-.09.12h0c-.29.18-.24.52-.48.77l.26-.07h0a.46.46,0,0,0,.07-.07c.1-.09.16-.21.29-.27a.51.51,0,0,0,0-.21s0,0,0-.06A.07.07,0,0,0,25.41,79.71Z"/><path class="cls-12" d="M24.61,79.63l-.06.07-.08.06c0,.18.12.11.21.07S24.7,79.67,24.61,79.63Z"/><path class="cls-12" d="M83.61,103.36h0a.12.12,0,0,1-.08-.06h0c-.06,0-.07.08-.08.14s.12.19.26.18S83.61,103.44,83.61,103.36Z"/><path class="cls-12" d="M66.86,72.88c.16.06.29,0,.37.13a.26.26,0,0,0,.16-.15.44.44,0,0,1,.07-.27c.1-.18.07-.27-.14-.4,0,.13-.06.26-.08.4S67.2,72.86,66.86,72.88Z"/><path class="cls-12" d="M73.26,71.77V71.1l-.16.11v.48c0,.16-.06.34.08.49A.25.25,0,0,0,73.26,71.77Z"/><path class="cls-12" d="M69.38,74.44a2.44,2.44,0,0,0,0-.27h0c-.08,0-.11,0-.14.08a.52.52,0,0,1-.07.27C69.28,74.58,69.36,74.56,69.38,74.44Z"/><path class="cls-12" d="M62.6,74.79c.06,0,.13,0,.11.09s.07.13.1.19a.74.74,0,0,0,.21,0c.07-.11,0-.2-.07-.28a.79.79,0,0,1-.15-.25C62.5,74.52,62.48,74.55,62.6,74.79Z"/><polygon class="cls-12" points="41.71 62.73 41.71 62.72 41.71 62.73 41.71 62.73"/><path class="cls-12" d="M41.33,62.32h0c-.06,0,0,.09,0,.13h0a.46.46,0,0,0,.07.07h0l.21.15s.11,0,.15.06l.08-.08a.07.07,0,0,1,0,0C41.69,62.4,41.48,62.4,41.33,62.32Z"/><path class="cls-12" d="M15.1,93.23l-.14.13a.13.13,0,0,0,0,.06C15.17,93.41,15.18,93.4,15.1,93.23Z"/><path class="cls-12" d="M16.66,94.74l0,0c-.09-.12-.21,0-.31,0l-.06,0v.14a.34.34,0,0,0,.31.11C16.67,94.91,16.74,94.86,16.66,94.74Z"/><path class="cls-12" d="M93.91,84.15s0-.07,0-.08-.07,0-.06.09a.36.36,0,0,1,0,.09h0A.1.1,0,0,0,93.91,84.15Z"/><path class="cls-12" d="M95.49,86.87h0c.1-.15,0-.23-.11-.31C95.31,86.72,95.47,86.77,95.49,86.87Z"/><path class="cls-12" d="M96.63,101.43h0l-.08-.06c-.06-.05-.12-.12-.21,0s0,.15,0,.21.11.18.24.18S96.63,101.53,96.63,101.43Z"/><path class="cls-12" d="M83.94,101.63c.09,0,.1-.07.11-.14a.19.19,0,0,0-.21-.12s0,.08,0,.12S83.85,101.62,83.94,101.63Z"/><path class="cls-12" d="M22.35,99.27a.08.08,0,0,0,.06.11c.07,0,.1,0,.13-.09a.72.72,0,0,1,0-.21c.11-.24,0-.46,0-.7a.1.1,0,0,0-.12-.09c-.06,0-.07.06-.07.1s0,.23,0,.35A.75.75,0,0,1,22.35,99.27Z"/><path class="cls-12" d="M23.7,97.17a.2.2,0,0,0-.09-.11c-.12,0-.22-.14-.35,0h0a.09.09,0,0,0,0,.06.09.09,0,0,0,0,.07s.05.09.08.14h.07a.24.24,0,0,0,.2,0A.19.19,0,0,0,23.7,97.17Z"/><path class="cls-12" d="M70.82,58.1c0,.07-.13.14,0,.21a.27.27,0,0,1,.19-.08.1.1,0,0,0,.08-.13C71.07,58,71,58,71,58A.52.52,0,0,0,70.82,58.1Z"/><path class="cls-12" d="M85,66.44c0-.13-.06-.19-.13-.27s0,.13-.07.2a.16.16,0,0,0,.07.07h0A.08.08,0,0,0,85,66.44Z"/><path class="cls-12" d="M25.57,78.14a.09.09,0,0,0-.07-.09.08.08,0,0,0-.09.08s0,.09.07.09A.09.09,0,0,0,25.57,78.14Z"/><path class="cls-12" d="M28.82,76c.07.08.12,0,.17,0l.06,0c0-.16-.12-.11-.2-.08A.1.1,0,0,0,28.82,76Z"/><polygon class="cls-12" points="29.05 75.97 29.05 75.97 29.05 75.97 29.05 75.97"/><path class="cls-12" d="M29.13,75.71c.05.23.18.07.28.05h.06c.12.07.16-.06.25-.08a.32.32,0,0,0,.14-.12.11.11,0,0,0,0-.13.2.2,0,0,1-.15-.07.57.57,0,0,0-.43.27h0A.2.2,0,0,1,29.13,75.71Z"/><path class="cls-12" d="M28.62,76.29c-.06,0,0,.08,0,.11l.07-.08S28.65,76.26,28.62,76.29Z"/><path class="cls-12" d="M27.82,69.79s0-.07-.06-.07-.1,0-.12.09a.06.06,0,0,0,.07.07C27.78,69.9,27.82,69.86,27.82,69.79Z"/><path class="cls-12" d="M27.55,67.9c-.11,0-.05-.2-.18-.23s0,.27-.1.37a.55.55,0,0,0,0,.31c.13,0,0-.12.11-.14s0,.22.21.17A1.15,1.15,0,0,1,27.55,67.9Z"/><path class="cls-12" d="M38.2,59.55v-.14h-.13C38,59.59,38.12,59.54,38.2,59.55Z"/><path class="cls-12" d="M91.91,76.39h0c-.09.17-.33.1-.46.27h.39c.1,0,.18-.07.3,0s.06,0,.06-.09l-.07-.06C92.07,76.39,92,76.45,91.91,76.39Z"/><path class="cls-12" d="M93.63,73.35c0,.19,0,.21.22.27.05,0,.14,0,.08-.09s-.08-.17.08-.16,0-.05,0-.08L94,73.22C93.86,73.23,93.67,73.09,93.63,73.35Z"/><path class="cls-12" d="M93.35,72.93h0s0,0,0,0v0c.1.15.2.19.31,0a.48.48,0,0,1,.11-.09c0-.08,0-.15-.13-.09S93.44,72.93,93.35,72.93Z"/><path class="cls-12" d="M89.13,69.27h0c.1,0,.18.14.33.1C89.35,69.26,89.29,69.12,89.13,69.27Z"/><path class="cls-12" d="M19.3,87.21l.1.14a.26.26,0,0,0,.28.17c.05,0,.1,0,.14,0h0A.42.42,0,0,0,19.3,87.21Z"/><path class="cls-12" d="M20.39,87.21c.22-.06,0-.13,0-.2s-.21,0-.19.11S20.32,87.23,20.39,87.21Z"/><path class="cls-12" d="M21.46,87.08l0,.06.12.07s.11.05.14.1a.11.11,0,0,0,.08,0,.15.15,0,0,0,.11-.2.16.16,0,0,0,0-.07.94.94,0,0,0-.15-.06h0a.09.09,0,0,0-.07,0h0C21.52,87,21.39,86.92,21.46,87.08Z"/><path class="cls-12" d="M78.76,84.82a.11.11,0,0,0,0,.08s0,.07.06.11a.13.13,0,0,0,0,.06h0a.57.57,0,0,1,.07.36c0,.14,0,.22.17.25h.05a.21.21,0,0,0,.06.1h0v.13l0,0h0c0,.1,0,.23.12.28a.39.39,0,0,0,0-.51h0l0,0c0-.11,0-.22-.06-.31a.81.81,0,0,1-.12-.14h0l-.06-.08c-.05-.11-.1-.22-.16-.33S78.82,84.77,78.76,84.82Z"/><path class="cls-12" d="M86.91,105.85l-.15.13s-.18.09,0,.15a.36.36,0,0,0,.29,0h0c.07-.12.14,0,.22,0l0,0v-.06a.11.11,0,0,1,0,0,.91.91,0,0,0,0-.33h0l-.3.13Z"/><path class="cls-12" d="M64.84,81.32c0-.09-.09-.1-.16-.1s-.21,0-.23.15,0,.12.11.11A.36.36,0,0,0,64.84,81.32Z"/><path class="cls-12" d="M71.06,94.71c-.12.06-.07.19-.17.23l-.07.07-.08.06a.1.1,0,0,0,0,.09.24.24,0,0,0,.1.1h.1c.18,0,.1-.19.18-.26h0C71.09,94.92,71.15,94.8,71.06,94.71Z"/><path class="cls-12" d="M62.73,82.52c-.08-.18-.09-.18-.35-.06,0,.13.14.17.18.31C62.61,82.65,62.63,82.56,62.73,82.52Z"/><path class="cls-12" d="M67.55,88.17c0,.08,0,.17-.09.22a2.44,2.44,0,0,0,0,.27h0c0,.08,0,.17.06.21s.16.1.27.07c0-.2,0-.41.14-.57-.14-.07-.22.09-.32,0S67.64,88.23,67.55,88.17Z"/><path class="cls-12" d="M68,88c-.06.22.1.41.05.63.14,0,.12-.1.13-.2s0-.29.07-.42,0-.25-.18-.23S68,87.89,68,88Z"/><path class="cls-12" d="M73.91,86.62a.08.08,0,0,0,.1.07c.1,0,.12-.1.12-.18s0-.05-.08-.05S73.9,86.52,73.91,86.62Z"/><path class="cls-12" d="M84.34,101.08l.07.07c.1-.16.09-.2-.07-.27h0l-.07.07V101Z"/><path class="cls-12" d="M73.61,81.76a.84.84,0,0,1,.07.35c0,.11.1.23.25.15s.11-.18,0-.29,0,0,0-.07,0-.1-.07-.14,0,0,0,0,0,0,0,0a1.1,1.1,0,0,0,0-.18s0-.11,0-.15h0c-.09-.06-.18,0-.27,0s-.16.07-.15.18S73.51,81.72,73.61,81.76Z"/><path class="cls-12" d="M73,94.19c-.1,0-.13.06-.14.15s0,.19-.07.25a2.18,2.18,0,0,0-.21.7l0,.12h0l0,0a.44.44,0,0,0-.07.35c0,.1,0,.19.2.12a.46.46,0,0,0,.07-.07,1.11,1.11,0,0,1,.09-.4l0,0H73a.11.11,0,0,0,0-.13h0a1.4,1.4,0,0,1,0-.5A2,2,0,0,0,73,94.19Z"/><path class="cls-12" d="M67.39,90.19a.21.21,0,0,1-.07.14c.05.13.05.13.18,0s0,0,0,0a.14.14,0,0,0,0,.12c.11,0,.16.18.28.22s.06,0,.07,0,.11-.22,0-.33-.14-.31-.36-.21C67.43,90,67.45,90.18,67.39,90.19Z"/><path class="cls-12" d="M72.35,96.79c-.22.07-.18.28-.24.43s0,.2.07.27a.33.33,0,0,0,.21-.07,2.26,2.26,0,0,1,0-.26C72.42,97,72.49,96.9,72.35,96.79Z"/><path class="cls-12" d="M68,94.45l0-.12-.13.06s0,.09,0,.13,0,.28.16.35h0A.61.61,0,0,0,68,94.45Z"/><path class="cls-12" d="M70.31,91.91h0s.12.18.15,0,0-.16-.06-.16S70.32,91.84,70.31,91.91Z"/><path class="cls-12" d="M66.5,77.59c.07.06.12,0,.17,0h0c-.06,0-.07-.13-.16-.07A.07.07,0,0,0,66.5,77.59Z"/><path class="cls-12" d="M67.24,73.14s0,.1.05.07S67.27,73.15,67.24,73.14Z"/><path class="cls-12" d="M71.17,64s.1,0,.15-.05.11-.13.05-.22-.09,0-.13,0a.61.61,0,0,0,0,.12C71.17,63.92,71.11,64,71.17,64Z"/><path class="cls-12" d="M67.32,61.76l0-.09,0,0,.06.07Z"/><path class="cls-12" d="M39.78,71.14a.08.08,0,0,0,.06,0H40l.07,0a.17.17,0,0,0,.1-.06l.08-.06c0-.08,0-.14-.08-.14l-.06,0a.58.58,0,0,1-.29.12Z"/><path class="cls-12" d="M44.07,69.35l-.16.05h-.13c-.09.12-.27,0-.36.13a.27.27,0,0,1-.07.08h0c0,.06.1.07.16.08a3.42,3.42,0,0,1,.63-.16C44.17,69.46,44.27,69.36,44.07,69.35Z"/><polygon class="cls-12" points="93.56 82.25 93.56 82.25 93.56 82.25 93.56 82.25"/><path class="cls-12" d="M93.4,82a1.87,1.87,0,0,0-.46-.09.17.17,0,0,0-.16,0c0,.11,0,.19.14.2s.16,0,.22,0l.06,0h.36C93.65,82.07,93.5,82.06,93.4,82Z"/><path class="cls-12" d="M93.76,83.11a0,0,0,0,0,0,0c0,.08.06.08.11.09h0S93.85,83.1,93.76,83.11Z"/><path class="cls-12" d="M92.49,81.89l-.37,0c.11.18.37.06.44.26.1,0,.16,0,.09-.14a1.1,1.1,0,0,0-.09-.14Z"/><path class="cls-12" d="M91.68,81.88c0,.08.06.14.16.17s0,0,.07.06c.24-.06,0-.14,0-.21S91.74,81.77,91.68,81.88Z"/><path class="cls-12" d="M93.87,81.8c.13.21,0,.33-.16.44h0c0,.05.1,0,.14.08a.18.18,0,0,1,.15.06h0a.11.11,0,0,1,.15,0h0a.16.16,0,0,0,.09,0,.11.11,0,0,0,.1,0,.16.16,0,0,0,.1.11h0a10,10,0,0,0,1.24.11c-.07-.12-.2-.08-.26-.17l-.2-.08a3.18,3.18,0,0,0-.43-.06h-.28a.13.13,0,0,1,0-.06.73.73,0,0,0-.43-.13c-.11-.15,0-.37-.21-.5A.13.13,0,0,0,93.87,81.8Z"/><path class="cls-12" d="M93.57,89s0,.08.09.07,0-.06,0-.09a.06.06,0,0,0,0-.06A.08.08,0,0,0,93.57,89Z"/><path class="cls-12" d="M17.47,95.91a.18.18,0,0,1-.15-.07l-.29.07h0C17,96,17,96,17,96s.21,0,.29.07A.37.37,0,0,0,17.6,96,.12.12,0,0,0,17.47,95.91Z"/><path class="cls-12" d="M79.69,64.94h0a.87.87,0,0,0,0,.22s0,.08.08.1.08,0,.09,0c0-.18.26-.33.09-.57C79.81,64.75,79.81,64.89,79.69,64.94Z"/><path class="cls-12" d="M86.27,68.44l.07.07a.23.23,0,0,0,.29-.13h0s-.05,0-.06-.07h0C86.29,68.25,86.29,68.25,86.27,68.44Z"/><path class="cls-12" d="M86.56,70.45h0l-.07-.07h-.14s0,0,0,0a0,0,0,0,1,0,0l-.08,0c0-.07-.12,0-.18,0s-.17,0-.24,0h0a.06.06,0,0,0-.08,0h-.06a.24.24,0,0,1-.23,0h-.28l-.07,0c-.08,0-.14-.15-.24,0a.11.11,0,0,0,0,.06c.06.11.17,0,.26.07v.07l.12.07a.56.56,0,0,1,.18.07,2.82,2.82,0,0,0,1,.19C86.44,70.64,86.57,70.63,86.56,70.45Z"/><path class="cls-12" d="M82.13,68.66a.46.46,0,0,1,.07-.07c0-.06,0-.11,0-.17,0-.21-.08-.07-.14,0a.13.13,0,0,0,0,.06C82,68.53,82,68.64,82.13,68.66Z"/><path class="cls-12" d="M82.91,68.52h.14v-.14C83,68.37,82.9,68.42,82.91,68.52Z"/><path class="cls-12" d="M84.34,70a.18.18,0,0,0-.07,0l-.15-.08a1.13,1.13,0,0,0-.27-.13l-.12,0-.07,0a.34.34,0,0,0-.12,0h-.08a.34.34,0,0,1-.2,0,.24.24,0,0,0-.12,0s-.06.06-.1,0l-.08,0c-.19,0-.16.12-.08.22a.31.31,0,0,0,.18.09c.09,0,.19,0,.27,0a2.32,2.32,0,0,1,.38.07,1.37,1.37,0,0,0,.49.13s.1,0,.13.08h0C84.49,70.18,84.42,70.11,84.34,70Z"/><path class="cls-12" d="M84.26,69.83h0c.12.06.26,0,.36.14h0a.12.12,0,0,0,.14-.13.49.49,0,0,0-.49-.14S84.22,69.78,84.26,69.83Z"/><path class="cls-12" d="M80.34,67.13c.06,0,.13.09.17,0s.1-.23-.1-.25l-.06.08Z"/><path class="cls-12" d="M88.4,69c.18-.13-.07-.2,0-.31s-.1-.1-.17-.12c-.24,0-.24,0-.19.14l.06.06C88.17,68.86,88.2,69.06,88.4,69Z"/><path class="cls-12" d="M87.55,68.11c-.11,0-.15,0-.14.13l.08.06C87.69,68.3,87.59,68.19,87.55,68.11Z"/><path class="cls-12" d="M73.46,61.55a.15.15,0,0,1,.14-.07.51.51,0,0,1,.13-.24s.1-.09,0-.14a.12.12,0,0,0-.18,0c-.1.17-.31.24-.42.41,0,0,0,0,0,.05s-.17,0-.09.15.11,0,.18,0S73.37,61.61,73.46,61.55Z"/><path class="cls-12" d="M73.68,60.72h0s0,.05,0,.07h0l.08.06h.06l.09-.13a.14.14,0,0,1,0-.06C73.78,60.57,73.73,60.65,73.68,60.72Z"/><path class="cls-12" d="M72.62,59.63c0,.06,0,.15.06.17s.12-.06.13-.13,0-.21-.13-.12Z"/><path class="cls-12" d="M29.84,72c.08,0,.06-.12,0-.18l-.11-.22s-.05,0-.08-.06-.18.09-.06.33l.06.05C29.72,71.93,29.76,72,29.84,72Z"/><path class="cls-12" d="M28.41,77.6c.05.16.25,0,.38,0h.1a.41.41,0,0,0,.3-.1c.11-.19.32-.29.43-.48h0a.09.09,0,0,0,.07,0c0-.09,0-.2-.07-.27,0-.23,0-.24-.22-.15s-.25.27-.42.35l-.22.34C28.6,77.34,28.36,77.4,28.41,77.6Z"/><path class="cls-12" d="M28.33,71.69l-.07-.07h0a.1.1,0,0,0-.14,0,.32.32,0,0,0,.07.27C28.35,71.9,28.34,71.79,28.33,71.69Z"/><path class="cls-12" d="M28.48,69.35s.07-.1,0-.15-.11,0-.16,0l-.08.07a.16.16,0,0,0,.16.15S28.46,69.38,28.48,69.35Z"/><path class="cls-12" d="M27.89,70.89s0,0,0,0,0,.12.1.13A.09.09,0,0,0,28,71C28,71,28,70.89,27.89,70.89Z"/><path class="cls-12" d="M94.18,81.79l.38.19c.08,0,.17,0,.24,0a.3.3,0,0,0-.17-.18C94.5,81.89,94.34,81.71,94.18,81.79Z"/><path class="cls-12" d="M94,77.7h-.14v.13h.06c.12,0,.26,0,.37-.08h0C94.19,77.69,94.07,77.77,94,77.7Z"/><path class="cls-12" d="M91.35,76.79c-.23-.08-.42.08-.64.07a.17.17,0,0,0-.14,0,.12.12,0,0,0-.06.06c0,.07,0,.13,0,.17s.14.18.21,0,.44,0,.65-.06h0Z"/><path class="cls-12" d="M88.62,72.25s-.1,0-.14-.08h0l-.07-.06h0a.06.06,0,0,0-.09,0,.2.2,0,0,0,0,.08,1.82,1.82,0,0,0,.08.52.13.13,0,0,0,.06.07.11.11,0,0,0,.13,0c.06-.17,0-.37.07-.54Z"/><path class="cls-12" d="M92.41,72.94c-.07,0-.15,0-.2.06s.06.15.17.16S92.41,73,92.41,72.94Z"/><path class="cls-12" d="M93,73.17l-.09,0h0S93,73.23,93,73.17Z"/><path class="cls-12" d="M22.44,84.93c0-.05-.06-.05-.1-.05l-.07.12h.05C22.37,85,22.44,85,22.44,84.93Z"/><path class="cls-12" d="M77.22,81.91c.09.16.2.21.36.1a1.63,1.63,0,0,1-.11-.17c-.07,0-.06-.12-.09-.17s-.2-.17-.33,0C77.11,81.72,77.17,81.81,77.22,81.91Z"/><path class="cls-12" d="M86.37,105.55c0,.08.06.08.11.09h0s0-.12-.1-.12Z"/><path class="cls-12" d="M71.82,99.36v.34h.07c0-.06.08-.12.06-.2S71.92,99.36,71.82,99.36Z"/><path class="cls-12" d="M66.31,91.07a.42.42,0,0,1-.21.08.92.92,0,0,0-.14.14s-.1.12,0,.18.1,0,.16,0,.27-.11.29-.28Z"/><path class="cls-12" d="M66.38,89.84a0,0,0,0,0,0,.06h.2c0-.14,0-.2-.19-.12C66.39,89.79,66.38,89.81,66.38,89.84Z"/><path class="cls-12" d="M67.81,84.66v-.13c0-.07,0-.15-.12,0S67.68,84.66,67.81,84.66Z"/><path class="cls-12" d="M72,96.18a.32.32,0,0,1-.14.14c0,.15.11.14.21.13a.09.09,0,0,0,.07-.06l.08-.14C72.2,96.15,72.13,96.14,72,96.18Z"/><path class="cls-12" d="M68.38,85c0-.05,0-.1,0-.16s-.18-.12-.2.06v.2C68.29,85.21,68.36,85.17,68.38,85Z"/><path class="cls-12" d="M68.38,84.66h.07v-.13s0-.1-.07-.14h0c-.16-.07-.22,0-.29.14l-.06.15c0,.12,0,.13.13.07S68.34,84.75,68.38,84.66Z"/><path class="cls-12" d="M72.32,96.25a.2.2,0,0,0,.21.14c0-.12,0-.24-.06-.33A.21.21,0,0,1,72.32,96.25Z"/><path class="cls-12" d="M73.74,71.35h0c.07,0,.16.12.19,0s-.05-.11-.12-.11S73.73,71.29,73.74,71.35Z"/><path class="cls-12" d="M74.11,63.34h0c-.06.06,0,.15-.07.21h0c0,.1,0,.19,0,.28v.06a.43.43,0,0,0,0,.35l0,0a.11.11,0,0,0-.09,0c-.07.15-.14.29,0,.45s-.08.26-.1.41,0,.43-.09.63a1.78,1.78,0,0,0-.08.76h.07l0,0,.06-.06a.16.16,0,0,0,0-.09,1.51,1.51,0,0,1,.07-.37,6.45,6.45,0,0,0,.18-1.38c0-.1,0-.21,0-.31a.1.1,0,0,0,0-.05h.06a2.43,2.43,0,0,0,.08-.47c.06-.06,0-.15.07-.21a1.34,1.34,0,0,1,0-.2c0-.06,0-.12-.08-.15h0S74.15,63.3,74.11,63.34Z"/><path class="cls-12" d="M72.24,62.75s0,0,0,0,0,0,0,0,0,0,0,0S72.22,62.77,72.24,62.75Z"/><path class="cls-12" d="M33.08,73.72l.11,0,.08,0c.09,0,.1-.14.13-.22a4.31,4.31,0,0,1,.51-.62.13.13,0,0,0,.06-.07h0a.14.14,0,0,0-.13-.06h0l-.08,0-.15.08c-.08,0-.17.06-.2.15s-.22.23-.3.37l-.09.13,0,0-.06.06-.06,0-.1.08a.22.22,0,0,0,0,.08.13.13,0,0,0,.07.09h.09l.11,0Z"/><path class="cls-12" d="M35,73.49a.15.15,0,0,0-.13-.07.2.2,0,0,1-.16.06c-.19,0-.25.13-.33.24s.05.1.11.11a.62.62,0,0,1,.43-.14A.15.15,0,0,0,35,73.49Z"/><path class="cls-12" d="M22,102.33v-.07a2.53,2.53,0,0,1,0-.28l0,0s0,0,0,0H22s0,0,0-.07a.53.53,0,0,1-.08-.27h-.13c0,.19,0,.37,0,.56h-.06c0,.25,0,.28.21.27Z"/><path class="cls-12" d="M21.93,105.24a1.79,1.79,0,0,1,.63-.17l.07-.06c-.05-.15.11-.05.13-.11a.12.12,0,0,0,.06-.06c0-.18-.09-.18-.21-.1a.42.42,0,0,0-.24.12.33.33,0,0,1-.4,0v0a.22.22,0,0,0-.06-.13h0c.27-.06.12-.28.15-.42a8.9,8.9,0,0,1,0-.9,1,1,0,0,0,0-.24v0c0-.12-.15-.21-.07-.34s0,0,0-.06a.17.17,0,0,1-.06-.15c-.07,0-.11,0-.09.1s.06.27-.05.39a1.84,1.84,0,0,1-.11.9.2.2,0,0,0,0,.2.78.78,0,0,1,0,.34v.21c-.06.11.05.22,0,.34a.31.31,0,0,0-.06.13.34.34,0,0,0,0,.14.13.13,0,0,0,.1.1.13.13,0,0,0,.07-.06A.47.47,0,0,0,21.93,105.24Zm-.09-.67Z"/><path class="cls-12" d="M23.47,95.91h0a.16.16,0,0,0,.06-.08v-.12a.14.14,0,0,0-.22,0c-.06.08.05.11.09.16Z"/><path class="cls-12" d="M24,97.28a.14.14,0,0,1,.14-.06v-.07l0-.05a.16.16,0,0,0-.17,0l0,0C24,97.15,24,97.23,24,97.28Z"/><path class="cls-12" d="M75.19,61.56v.13C75.26,61.65,75.26,61.6,75.19,61.56Z"/><polygon class="cls-12" points="73.03 62.1 73.03 62.1 73.03 62.1 73.03 62.1"/><path class="cls-12" d="M72.6,62a.2.2,0,0,0,0,.25c.06.06.15,0,.22,0A.25.25,0,0,0,73,62.1a1.19,1.19,0,0,1-.3-.46A2.84,2.84,0,0,1,72.6,62Z"/><path class="cls-12" d="M25.94,79c-.11,0-.12.08-.19.1h0s-.07.13,0,.11A.17.17,0,0,0,25.94,79Z"/><path class="cls-12" d="M30.05,74.93h0c.08.12.15,0,.22,0v-.06s0,0-.07,0h-.06Z"/><path class="cls-12" d="M27.26,78.52h0c-.06-.07-.13-.11-.18,0s.06.07.11.08h0Z"/><path class="cls-12" d="M32.92,79.28s0,.1,0,.13c.31-.13.5-.41.8-.55,0-.09.22-.18,0-.27H33.7A4.28,4.28,0,0,0,32.92,79.28Z"/><path class="cls-12" d="M34.19,78.23l-.06,0a.23.23,0,0,0-.07.07h0l-.07.06h0l-.07.06a.6.6,0,0,1,.08.08c.11,0,.22,0,.21-.15A.76.76,0,0,0,34.19,78.23Z"/><polygon class="cls-12" points="33.91 78.45 33.91 78.45 33.91 78.45 33.91 78.45"/><path class="cls-12" d="M31.16,75.46l0,.07v0c.07.08.12,0,.17,0s.05-.1.11-.13h0s.11,0,.13-.07h0a.23.23,0,0,0,.07-.07c.12-.09.13-.27.29-.33a.14.14,0,0,1,.13-.08.27.27,0,0,0,.08-.07h0c.05-.07.06-.16.11-.23s0-.17-.17-.1-.19.28-.35.34a.59.59,0,0,0-.31.17l0,.09a.4.4,0,0,1-.09.2l0,.07-.06.1Z"/><path class="cls-12" d="M30.69,75.89c0-.1.23-.18.08-.33h0l-.11.06-.11.08h0c-.06.1-.09.18.08.21Z"/><path class="cls-12" d="M30.84,68.51l-.14,0-.07.06c-.05.07-.13.07-.21.08a.28.28,0,0,0,.41,0A1.48,1.48,0,0,0,30.84,68.51Z"/><path class="cls-12" d="M93.05,81.64c-.1,0-.21,0-.13.12C93,81.76,93.06,81.73,93.05,81.64Z"/><path class="cls-12" d="M88.55,71.56s0,0,0,.06l.55.08c.17,0,.13-.12.08-.21H89C88.84,71.51,88.67,71.42,88.55,71.56Z"/><path class="cls-12" d="M23.68,85.77l-.16,0c-.06,0-.12,0-.16,0s0,.1.05.15.21,0,.28-.07S23.68,85.79,23.68,85.77Z"/><path class="cls-12" d="M26.34,83.86c-.13,0-.24.08-.14.24s.16,0,.19,0,.29.09.44.05C26.76,83.94,26.52,83.92,26.34,83.86Z"/><path class="cls-12" d="M28,83.91c.07.1.15,0,.22,0a1.14,1.14,0,0,0,.35-.27c.23-.22.31-.55.55-.77,0-.1.09-.2,0-.35-.13.16-.24.3-.36.43a.29.29,0,0,1-.1.18,2.14,2.14,0,0,0-.41.44h0l-.07.06a.24.24,0,0,1-.11.13C28,83.79,28,83.85,28,83.91Z"/><path class="cls-12" d="M78.39,104.61c-.08,0-.06.13-.06.2C78.52,104.79,78.45,104.7,78.39,104.61Z"/><path class="cls-12" d="M66.53,91.84c0-.12,0-.23,0-.34s-.13-.08-.18,0a.44.44,0,0,0,.11.47h0a.09.09,0,0,0,0-.11l0,0,0,0A.06.06,0,0,0,66.53,91.84Zm-.08,0h0Z"/><path class="cls-12" d="M77.69,75.38s0,.07,0,.07.1,0,.1-.11,0-.08,0-.08S77.7,75.31,77.69,75.38Z"/><path class="cls-12" d="M67.09,98a.31.31,0,0,0,0-.1.22.22,0,0,0,0-.14,1.25,1.25,0,0,0-.24-.16.09.09,0,0,0-.09,0,.29.29,0,0,0-.07.18,1.3,1.3,0,0,0,0,.34,1,1,0,0,1-.06.55l0,.13a.14.14,0,0,0,0,.09.18.18,0,0,0,0,.07h0c.06,0,.11,0,.09.11a1.15,1.15,0,0,0,0,.37c0,.13.11.12.21.08s0,0,.06-.08h0c0-.07,0-.09-.06-.14s0,0,0-.06A2.6,2.6,0,0,1,67.09,98Z"/><path class="cls-12" d="M70,102.11a.33.33,0,0,0,.1,0v-.06L70,102s-.09,0-.11,0S70,102.11,70,102.11Z"/><path class="cls-12" d="M69.84,102.41l0,0h0c0-.07,0-.15,0-.19a1.21,1.21,0,0,0,0,.19h0Z"/><path class="cls-12" d="M69.82,101.35c.11,0,.21,0,.22-.13s-.15,0-.22,0Z"/><path class="cls-12" d="M67,93.63c.09,0,0,.24.19.14,0,0,0-.09,0-.14S67,93.51,67,93.63Z"/><path class="cls-12" d="M62,85.29c0,.08,0,.11.12.11s.09-.15.07-.25A.16.16,0,0,0,62,85.29Z"/><path class="cls-12" d="M47.43,78.24a.33.33,0,0,0,.3.06.16.16,0,0,0,.08-.06.1.1,0,0,0,0-.13h0a3.6,3.6,0,0,1-.5-.29h0a.13.13,0,0,1-.07-.06l-.08-.07a.46.46,0,0,1-.07-.07h0c-.13.06-.12.15,0,.24s.16.09.19.18h0l.08.06.08.07s0,0,.06.07Z"/><path class="cls-12" d="M55.3,77.22a.09.09,0,0,0,0,0h.08C55.39,77.19,55.34,77.22,55.3,77.22Z"/><path class="cls-12" d="M32.4,74.38s0,0,0-.07,0-.1.08-.13h0a.24.24,0,0,0-.22-.15l-.21.07a.16.16,0,0,1-.07.07h0a.14.14,0,0,0,.14.07s0,0,0,0h.05s.06,0,.06,0S32.32,74.37,32.4,74.38Z"/><path class="cls-12" d="M90.92,81.21c-.06,0-.11,0-.16,0a.07.07,0,0,0,0,.11h0s.1.07.14,0v-.14Z"/><path class="cls-12" d="M82.83,81.77h0c.06-.06.16,0,.22-.06v-.08H82.7A.23.23,0,0,0,82.83,81.77Z"/><path class="cls-12" d="M23.57,93.85c0-.06-.09-.14-.18-.12s-.06.11-.06.17a1.05,1.05,0,0,0,0,.18l.12-.08C23.5,94,23.63,94,23.57,93.85Z"/><path class="cls-12" d="M80.19,69.21a.36.36,0,0,0,0,.1c0,.06,0,.14,0,.17s.13,0,.17-.08,0-.08,0-.12A.24.24,0,0,0,80.19,69.21Z"/><polygon class="cls-12" points="28.9 83.42 28.9 83.42 28.9 83.42 28.9 83.42"/><path class="cls-12" d="M28.89,83.45v0S28.86,83.44,28.89,83.45Z"/><path class="cls-12" d="M32.91,68c0-.09,0-.13-.14-.13a.46.46,0,0,0-.07.07C32.75,68.05,32.83,68,32.91,68Z"/><path class="cls-12" d="M89.75,77h0s0,0,0,0h0Z"/><path class="cls-12" d="M90.35,76.94l0,0,0,0Z"/><path class="cls-12" d="M90.82,80.51c0-.05-.07-.05-.12-.05v.13C90.76,80.58,90.83,80.58,90.82,80.51Z"/><path class="cls-12" d="M24.62,84.52c-.06,0-.07-.11-.13-.09s0,.11,0,.15.07,0,.1.08h.05A.65.65,0,0,1,24.62,84.52Z"/><path class="cls-12" d="M63.38,93.42c0,.06,0,.12.09.11l0,0C63.5,93.43,63.44,93.43,63.38,93.42Z"/><path class="cls-12" d="M79.25,81s0,0,0,0c.19,0,.2,0,.14-.13S79.28,80.94,79.25,81Z"/><path class="cls-12" d="M66.69,96.54a.07.07,0,0,0,.06.07,0,0,0,0,0,.06,0s0-.07-.06-.07S66.69,96.5,66.69,96.54Z"/><path class="cls-12" d="M60.79,88.75h-.11c-.09.08-.11.22-.23.26-.19.26-.16.32.13.34,0,0,0-.14.05-.16C60.87,89.11,60.81,88.92,60.79,88.75Z"/><path class="cls-12" d="M61.87,87.84l-.07-.07c-.08,0-.18,0-.18.08s.05.19.17.18S61.87,87.92,61.87,87.84Z"/><path class="cls-12" d="M57,83.89l-.06-.13c-.1,0-.15,0-.14.14Z"/><path class="cls-12" d="M49.43,79.14c0,.1,0,.16.1.14s.49-.19.73,0l0-.09c-.13-.06,0-.2-.07-.27a.57.57,0,0,1-.36-.14c0,.11-.08.23-.25.2S49.44,79,49.43,79.14Z"/><path class="cls-12" d="M88.34,80h.06c.1-.1,0-.14-.06-.19h0C88.17,79.84,88.22,79.91,88.34,80Z"/><path class="cls-12" d="M83.33,81.15h-.07c-.07.08,0,.19-.06.27l.07.07h.13l.07-.07C83.64,81.22,83.4,81.23,83.33,81.15Z"/><path class="cls-12" d="M84.13,79.47c.05,0,.11,0,.08-.09s-.1,0-.15,0v0Z"/><path class="cls-12" d="M25.54,97s0,0,0,0,0,0,0,0,0,0,0,0S25.58,97,25.54,97Z"/><path class="cls-12" d="M38.5,93.92a.48.48,0,0,0-.16-.35,3.76,3.76,0,0,1-.36-.89c-.09.12,0,.26-.13.34s.18.32.23.51a1.46,1.46,0,0,0,.27.58C38.5,94.12,38.48,94,38.5,93.92Z"/><path class="cls-12" d="M39.19,96.2a.3.3,0,0,1-.06-.22.9.9,0,0,0,0-.28c0-.25-.17-.44-.21-.67l-.07,0h0l0-.11h-.06a.09.09,0,0,0-.15,0,.21.21,0,0,0,0,.31.63.63,0,0,1,.15.48.65.65,0,0,0,.08.27s0,0,0,.08l.09.2c.06,0,.07.07.08.12A.15.15,0,0,0,39.19,96.2Z"/><path class="cls-12" d="M37.7,95.22h-.11c-.05,0-.13,0-.14.06s0,.1.09.14.26,0,.37-.07S37.74,95.3,37.7,95.22Z"/><path class="cls-12" d="M36.47,82.67h-.12c0,.11-.06.25.14.27S36.5,82.76,36.47,82.67Z"/><path class="cls-12" d="M27.91,89.42a.13.13,0,0,0,.14-.14.39.39,0,0,0-.29-.13c0,.13.06.2.15.27Z"/><path class="cls-12" d="M62,101.4a.14.14,0,0,0,0,.23l.08-.13.06-.08h0C62.11,101.36,62,101.34,62,101.4Z"/><path class="cls-12" d="M66.67,98.12c0-.09-.1-.14-.2-.07s0,.09-.07.14S66.63,98.29,66.67,98.12Z"/><path class="cls-12" d="M80.26,73.69c0,.1,0,.14.14.14A.13.13,0,0,0,80.26,73.69Z"/><path class="cls-12" d="M48.32,80.65s0,.06,0,.09a.36.36,0,0,0,.07.1l0,0,.14-.06c.1,0,.26,0,.28-.14h0c-.14-.09-.38-.09-.34-.35-.07,0-.12,0-.17,0S48.32,80.55,48.32,80.65Z"/><path class="cls-12" d="M49.29,81l0,0c0,.08.06.07.11.09h0S49.37,81,49.29,81Z"/><path class="cls-12" d="M47.32,79.69h.1a.56.56,0,0,0-.05-.08s-.09-.06-.12,0S47.27,79.68,47.32,79.69Z"/><path class="cls-12" d="M48.37,79.28c0,.19.17.16.28.2.17-.14,0-.18-.08-.27l-.15-.13a.14.14,0,0,0-.06.13A.15.15,0,0,0,48.37,79.28Z"/><path class="cls-12" d="M87.77,79.85h-.06s0,0,0,0a.08.08,0,0,0,.09,0S87.8,79.86,87.77,79.85Z"/><path class="cls-12" d="M27.54,102.8a1,1,0,0,0,0-.34c0-.06,0-.06-.09-.06-.12.16-.07.39-.22.54h0a.14.14,0,0,0,0,.21c.08.06.15,0,.2-.07a.4.4,0,0,0,.07-.24Z"/><path class="cls-12" d="M85.69,76.25a1.14,1.14,0,0,1-.57-.28h0l-.08,0c-.05-.13-.26,0-.3-.16a.4.4,0,0,1-.06-.22c0-.06,0-.15-.13-.23,0,.23-.07.34-.29.38.19.23.5.19.65.4a4.66,4.66,0,0,0,1,.56c.07,0,.15,0,.2-.06L86,76.53c0-.07-.14-.08-.2-.15A.37.37,0,0,1,85.69,76.25Z"/><path class="cls-12" d="M29.61,95.14l.08-.06c0-.13.14-.21.14-.34s0-.16-.14-.08-.41.21-.28.49h0A.15.15,0,0,0,29.61,95.14Z"/><path class="cls-12" d="M29.05,97.22l-.15.06a.09.09,0,0,0-.14,0c0,.06,0,.1.08.12h.21A.17.17,0,0,0,29.05,97.22Z"/><path class="cls-12" d="M38.7,94.52s0,0,0,0c-.18-.11-.2-.1-.21.12a.21.21,0,0,1,.07.13C38.66,94.68,38.61,94.56,38.7,94.52Z"/><path class="cls-12" d="M38.34,88.89c-.08,0-.12-.17-.22-.1s0,.16,0,.25v0h.13A.19.19,0,0,0,38.34,88.89Z"/><path class="cls-12" d="M37.45,84.57l0,.06,0,.05a.09.09,0,0,0,0-.05S37.46,84.59,37.45,84.57Z"/><path class="cls-12" d="M48.43,94.63c0,.06,0,.13-.07.18l0,0a.58.58,0,0,0,0,.26c0,.13,0,.29.15.36a.16.16,0,0,0,.09,0c0-.12-.12-.23,0-.35s0-.28.07-.41,0-.09-.07-.11S48.44,94.59,48.43,94.63Z"/><path class="cls-12" d="M57.44,99.7c0-.07.11-.14,0-.21h-.13l-.18,0-.08,0-.21,0h-.59l.19.13c.14,0,.24,0,.22.2a.12.12,0,0,0,.07.14h.14v-.1l0,0,0,0a.12.12,0,0,1,.09,0c.07,0,0,.07,0,.1s-.09.17,0,.25h.19c.14,0,.34,0,.41-.11S57.43,99.85,57.44,99.7Z"/><path class="cls-12" d="M57.62,97.24a.36.36,0,0,0,0,.09s.07.14.14.08.06-.17,0-.26v-.07h0l0-.07-.09-.2c-.11.07-.06.18-.06.27S57.6,97.19,57.62,97.24Z"/><path class="cls-12" d="M52.61,99.1c-.14,0,0,.17,0,.25h0l.07.07h0c.08,0,.11,0,.14-.07v-.06C52.69,99.26,52.75,99.05,52.61,99.1Z"/><path class="cls-12" d="M59.66,97.21a.12.12,0,0,0,.1,0,.31.31,0,0,0,.09-.07l0,0c0-.08,0-.16-.07-.21a1.07,1.07,0,0,0-.29.27A.13.13,0,0,0,59.66,97.21Z"/><path class="cls-12" d="M61.9,102c0,.08.06.11.12.14h0l.07-.06h0c0-.07,0-.14-.12-.13S61.9,102,61.9,102Z"/><path class="cls-12" d="M61.29,102.66c0,.19.11,0,.16,0h0a.17.17,0,0,0-.08-.14h0a.27.27,0,0,1-.08.07S61.29,102.64,61.29,102.66Z"/><path class="cls-12" d="M62.25,101.71c0,.15.07.08.13.06A.1.1,0,0,0,62.25,101.71Z"/><path class="cls-12" d="M61.17,102.81c-.05,0,0,.1-.08.13h0A.27.27,0,0,1,61,103H61c-.05,0-.09.06-.08.11s0,0,.08,0h.28c0-.08,0-.16.08-.21v-.06c0-.12-.05-.12-.14-.07Z"/><path class="cls-12" d="M49.86,85.9l0,0a.06.06,0,0,0-.05,0,.14.14,0,0,0-.15.14.09.09,0,0,0,0,.07s0,0,0,.06l.13,0A.28.28,0,0,0,49.86,85.9Z"/><path class="cls-12" d="M28.41,92.18a.09.09,0,0,0-.15,0s0,0,0,.06.1,0,.16,0Z"/><path class="cls-12" d="M47.64,101.71h0a3.66,3.66,0,0,0,.21.55v.06c.22.31.22.31.23.48s.13.33.36.33a.24.24,0,0,0,.19-.17.23.23,0,0,0-.1-.23.08.08,0,0,0-.09,0h0a.18.18,0,0,0,.06-.17l0-.09a.26.26,0,0,0-.29-.21h0v-.1l0,0c0-.09-.06-.15-.1-.21s-.11-.37-.37-.37C47.61,101.58,47.59,101.63,47.64,101.71Z"/><path class="cls-12" d="M41,101c0,.31,0,.35,0,.36s.06,0,.06,0A.25.25,0,0,0,41,101Z"/><path class="cls-12" d="M26.79,104.63c-.05.1-.1.2,0,.31l0,0c.06,0,.12,0,.17,0h0l.07-.06c0-.07.29-.06.07-.2s-.16.08-.21-.05S26.81,104.57,26.79,104.63Z"/><path class="cls-12" d="M45.42,97.85c.07,0,.24,0,.14-.14s-.29,0-.42-.09h-.06a.14.14,0,0,0-.09,0h-.13v0a.29.29,0,0,0-.24,0,.5.5,0,0,0,.24,0,.16.16,0,0,1,.14.07l.07.06h.06a.24.24,0,0,0,.2,0A.32.32,0,0,0,45.42,97.85Z"/><path class="cls-12" d="M46.86,99.63l0,0a.35.35,0,0,1-.12-.19s0-.06,0-.08a.32.32,0,0,0-.25-.25h0a.15.15,0,0,0-.14.06l.22.41c.06.06,0,.15.07.21h0l.08.06C46.81,99.86,46.87,99.78,46.86,99.63Z"/><path class="cls-12" d="M43.15,97.83h.05l.07-.07v-.05l-.06-.08v-.14a.2.2,0,0,0,.21-.06.16.16,0,0,1-.15-.12l-.08,0,0,0c-.08,0-.15-.11-.24,0h0l.06.25.06,0A.41.41,0,0,0,43.15,97.83Z"/><path class="cls-12" d="M42,89.2h0c0-.07,0-.14-.07-.19A.2.2,0,0,1,41.7,89c-.11.09-.09.18,0,.26v.07h.07v.06a.49.49,0,0,1,.15.27s0,0,.07.08h0c0,.1,0,.21.13.28s.07.11.15.13a.64.64,0,0,1,.08.33c0,.07,0,.16.06.22h0s0,.11.06.16.05.1.06.16a.07.07,0,0,0,.07,0,.21.21,0,0,1,.29-.1h0a.28.28,0,0,0,0,.09,1.23,1.23,0,0,0,.17.32l.07.11a.25.25,0,0,0,0,.07.38.38,0,0,0,.17.24c.15,0,.22.11.29.21s.16.09.2,0-.14-.29-.21-.43l-.06-.08c-.13-.14-.17-.33-.29-.48h0l-.06-.06c-.07,0-.13-.1-.22-.09s.07-.12,0-.15c-.21-.21-.34-.49-.61-.64h0a.54.54,0,0,0-.08-.35A.88.88,0,0,0,42,89.2Z"/><path class="cls-12" d="M48.32,96.5c.08.09.13,0,.18,0v-.14a.11.11,0,0,1,0-.14V96c-.11-.06,0-.21-.14-.27C48.14,96,48.29,96.25,48.32,96.5Z"/><path class="cls-12" d="M54.37,101.77l.06-.07c0-.23-.17-.11-.28-.07a.16.16,0,0,1,0,.07C54.2,101.79,54.28,101.78,54.37,101.77Z"/><path class="cls-12" d="M58.5,97.88c.07,0,.07-.06.09-.11s-.09-.14-.15-.21-.18,0-.18.12S58.4,97.84,58.5,97.88Z"/><path class="cls-12" d="M58,99.43c.05.07.08.16.17,0l0-.09c0-.05,0-.11-.06-.15h0C58,99.27,58,99.36,58,99.43Z"/><path class="cls-12" d="M58.87,98.05h0L58.79,98a.09.09,0,0,0-.12.09.11.11,0,0,0,0,.06c.05,0,.08,0,.12-.06Z"/><path class="cls-12" d="M57.57,98.41s0,0,.08,0,.07,0,.07-.1,0-.06-.07,0A.12.12,0,0,0,57.57,98.41Z"/><path class="cls-12" d="M57.8,99h0c.05.06.11.1.17,0a.06.06,0,0,0,0-.11C57.87,98.88,57.86,99,57.8,99Z"/><path class="cls-12" d="M56.88,100.47a.13.13,0,0,1,0,.06h0s0,.1.07.13.07.06.12.06,0-.07,0-.12,0-.13-.07-.2a0,0,0,0,0,0,0s0,0-.05,0S56.89,100.44,56.88,100.47Z"/><path class="cls-12" d="M46.15,97.42H46v.06l.07.07.21.14s0-.09,0-.14A.27.27,0,0,0,46.15,97.42Z"/><polygon class="cls-12" points="46.28 97.7 46.28 97.7 46.28 97.7 46.28 97.7"/><path class="cls-12" d="M45.21,95.56h0c.15,0,.21,0,.15-.15h0C45.26,95.43,45.21,95.47,45.21,95.56Z"/><path class="cls-12" d="M44.63,94.4c0,.14.15.18.22.27s.14.22.28.29c0-.12-.07-.2-.06-.3a.09.09,0,0,0,0-.13h0c-.17-.06-.17-.25-.29-.34h0l-.07-.06h0a.47.47,0,0,0-.06-.09.13.13,0,0,0-.09,0c-.16.14,0,.27,0,.41Z"/><path class="cls-12" d="M43.85,94.67H44s0,0,0,0-.16-.15-.14-.27l-.08-.07C43.61,94.47,43.82,94.55,43.85,94.67Z"/><path class="cls-12" d="M46.21,97.84l-.21-.1a.13.13,0,0,0-.15.05c0,.06.07.07.09.12S46.18,98.08,46.21,97.84Z"/><path class="cls-12" d="M47.94,100.45l-.07-.07a.09.09,0,1,0,.07.07Z"/><path class="cls-12" d="M48.43,98.52a2.52,2.52,0,0,0,0,.55l.14-.06a1.27,1.27,0,0,1,0-.2C48.45,98.74,48.54,98.59,48.43,98.52Z"/><path class="cls-12" d="M48.57,98.18h-.06c-.12.11,0,.13.06.14S48.63,98.23,48.57,98.18Z"/><path class="cls-12" d="M44,92.63a.08.08,0,0,0,.05-.07s0-.08-.09-.1-.21-.25-.36-.34c0,.16.07.28.14.41l.07.06h0A.19.19,0,0,0,44,92.63Z"/><path class="cls-12" d="M41.27,88.47c.07.11.15.22.22.34.07,0,.08-.09.09-.15s-.07-.28-.22-.35S41.23,88.38,41.27,88.47Z"/><path class="cls-12" d="M42.63,90.05c.08.08.12.21.27.25,0-.18-.07-.27-.12-.39h-.06C42.65,89.93,42.64,90,42.63,90.05Z"/><path class="cls-12" d="M51.08,101.21h0a0,0,0,0,0,0,0s0,0,0,0h.07c.12,0,.25.06.34-.06a.86.86,0,0,0-.14-.13C51.11,101,51.11,101,51.08,101.21Z"/><path class="cls-12" d="M53,101.17s.07,0,.12,0v-.1c0-.06,0-.14-.09-.12S53,101.11,53,101.17Z"/><path class="cls-12" d="M58.16,99.84l.14.07s0,0,0-.06a.33.33,0,0,0-.09-.21C58,99.65,58.18,99.77,58.16,99.84Z"/><path class="cls-12" d="M60.37,103.07a.66.66,0,0,0,.46-.06.38.38,0,0,1-.31-.14h-.07C60.43,102.94,60.34,103,60.37,103.07Z"/><polygon class="cls-12" points="59.84 100.72 59.85 100.7 59.83 100.7 59.84 100.72"/><path class="cls-12" d="M48.64,105.51h-.11c-.06,0-.13,0-.14.06s.06.06.1.08l.09,0C48.66,105.65,48.65,105.58,48.64,105.51Z"/><path class="cls-12" d="M48.92,102.6c-.08-.06-.05-.16-.07-.24s-.1-.1-.16,0,0,.08,0,.12a1.65,1.65,0,0,1,.14.48l.15-.13C48.93,102.74,48.93,102.67,48.92,102.6Z"/><path class="cls-12" d="M48.55,101.56a.3.3,0,0,0,.1.07.15.15,0,0,0,.15-.06.28.28,0,0,0,.09-.19.11.11,0,0,0,0-.08,1.18,1.18,0,0,0-.11-.19l0,0c-.15.11,0,.31-.14.42h0A.09.09,0,0,0,48.55,101.56Z"/><path class="cls-12" d="M48.28,101.77v.07s0,.1.06.1.09,0,.09-.11v-.13h-.07A.1.1,0,0,0,48.28,101.77Z"/><path class="cls-12" d="M48.58,99.49a.13.13,0,0,0,0-.06c-.13.15,0,.32,0,.48A1.21,1.21,0,0,0,48.58,99.49Z"/><path class="cls-12" d="M49,98.25c-.07,0,0,.09,0,.14s.16,0,.16-.06S49.06,98.26,49,98.25Z"/><path class="cls-12" d="M51.94,104.26h0s-.18,0-.13.11.17.06.27,0h0C52.08,104.3,52,104.26,51.94,104.26Z"/><path class="cls-12" d="M53.17,103.77s0-.1,0-.14v-.06c-.13,0-.19.09-.29.13h0c0,.08,0,.13,0,.17a.12.12,0,0,0,.1,0h0S53.15,103.81,53.17,103.77Z"/><path class="cls-12" d="M58.24,100.11l.1.17.09-.17C58.37,100,58.3,100,58.24,100.11Z"/><path class="cls-12" d="M58.79,101.57c-.1-.1,0-.23-.06-.35a.13.13,0,0,1,0-.06h0s0-.08,0-.12a.86.86,0,0,1-.1-.16h0l-.08.08a.18.18,0,0,0,0,.2.13.13,0,0,1,0,.06s0,.11.07.15v.13a4.19,4.19,0,0,1,.21.9v0a.3.3,0,0,0,0,.21l0,0c.08,0,.16,0,.12-.12a.26.26,0,0,1,.09-.36.21.21,0,0,0,.06-.19C58.84,101.94,58.84,101.94,58.79,101.57Z"/><path class="cls-12" d="M49.36,100.81v-.06a.15.15,0,0,0,0-.16c0-.06-.1-.16-.15,0s0,.11-.07.15a.13.13,0,0,1,0,.06s0,0,0,.07v.07C49.32,101,49.3,100.87,49.36,100.81Z"/><path class="cls-12" d="M59.1,105.36a.21.21,0,0,0-.25,0c0,.1.06.17.1.25S59.08,105.46,59.1,105.36Z"/><path class="cls-12" d="M53.18,104.17s-.09,0-.13,0a.24.24,0,0,0-.06.08s0,0,.07,0,.16,0,.16.14-.08.12,0,.21a.92.92,0,0,0,.31-.38.94.94,0,0,1,0-.16c0-.09,0-.11-.1-.12S53.36,104.22,53.18,104.17Z"/><path class="cls-12" d="M53,105.63s0,0,0-.06l.07-.07h0a1.59,1.59,0,0,1,.13-.13c-.06-.07-.14,0-.21,0s-.21.37-.39.51l.12.06.2-.15S53,105.67,53,105.63Z"/><path class="cls-12" d="M49.17,101.31h0s0,0,0,0,0,0,0,0Z"/></g></g></svg>