<svg xmlns="http://www.w3.org/2000/svg" width="382" height="404" fill="none"><path fill="#B5310F" d="M113.283 336.961a395.314 395.314 0 0 1-22.342.472c5.082 6.919 16.563 4.678 22.342-.472ZM216.885 316.478a373.924 373.924 0 0 1-9.289 7.981c.049.098.098.196.138.304 0 .01 0 .02.009.03.03.049.069.088.089.157.108.305.206.61.314.914 8.178-2.034 14.125-7.519 16.396-15.814.108-.403.472-.521.786-.443.089-.383.157-.776.226-1.169-.914.874-1.818 1.769-2.742 2.634-1.937 1.818-3.971 3.636-5.927 5.406Z"/><path fill="#C6D7E3" d="M76.964 366.821c-3.264 3.136-7.077 5.563-11.373 6.851-.825.246-1.17-1.032-.354-1.278 14.007-4.207 22.647-21.171 23.797-34.961h-.157A373.75 373.75 0 0 1 74.339 337c-.01.05-.02.089-.02.138-.157 2.015-.088 3.99.109 5.907h.01l8.522.521a1.43 1.43 0 0 1 1.337 1.425v.924c0 .59-.364 1.121-.915 1.327l-1.543.59a1.494 1.494 0 0 1-.658.088l-7.146-.757c-.01 0-.01-.009-.02-.009v.009c-.256.325-.315.688-.226 1.072v.01c.02 0 .03-.01.049 0l8.444 2.083a1.197 1.197 0 0 1 .737 1.779l-1.465 2.408a1.195 1.195 0 0 1-1.425.502l-7.677-2.792c-.03-.01-.04-.039-.059-.059l-.01.01c-.275.305-.51.639-.59 1.052v.01c.01 0 .02 0 .03.01.796.501 4.325 2.693 5.347 3.332a.775.775 0 0 1 .364.501c.344 1.572-.275 2.85-1.386 3.99a.83.83 0 0 1-1.11.079l-5.879-4.62c-.02-.019-.02-.039-.04-.059l-.009.01a2.616 2.616 0 0 0-1.042.885v.01c.01.01.02.01.03.019l4.669 5.141c.363.393.52.934.432 1.464l-.098.6a.942.942 0 0 1-.462.658l-2.762 1.544a.408.408 0 0 1-.57-.187c-1.12-2.398-2.694-4.492-4.836-6.605-1.809.432-3.854 1.012-5.937 1.877 2.644 6.733-7.883 6.438-7.078 9.534.236 1.769 2.045 2.123 3.765 1.691 10.095-2.752 10.026 2.536 8.385 5.642.933-.089 1.857-.197 2.771-.305.01-.325.217-.678.63-.728 10.34-1.277 20.877-3.508 31.346-2.86 3.695.226 7.381.973 11.077 1.711 3.165-9.78 8.463-17.162 16.435-21.231-.305-1.111-.757-2.044-1.514-2.634-16.552 13.122-32.653 22.754-47.387 14.114Z"/><path fill="#072EEC" d="M82.871 359.528c-1.7 2.674-3.676 5.151-5.907 7.283 14.734 8.64 30.834-.982 47.397-14.114-.01 0-.01 0-.02-.01-.255-1.189-.658-2.221-1.297-2.988-10.931 7.922-30.933 12.935-40.173 9.829Z"/><path fill="#F85704" d="M88.631 346.682c-1.287 4.452-3.234 8.875-5.76 12.846 9.25 3.106 29.243-1.907 40.183-9.829.078-.924.039-1.779-.295-2.467-10.026 5.563-28.28 8.846-34.128-.55Z"/><path fill="#C6D7E3" d="M90.233 338.701a47.285 47.285 0 0 1-1.612 7.981c5.849 9.396 24.102 6.113 34.128.55.511-1.671 1.003-5.877 1.484-10.605.01-.108-.01-.216-.029-.324-2.988.216-5.967.403-8.935.55-5.741 6.369-18.961 9.229-25.036 1.848Z"/><path fill="#F85704" d="M109.45 376.562c5.986 1.189 11.972 2.368 17.987 1.317.403-.069.689.187.787.491.236-.059.472-.118.708-.187 4.531-8.275 2.722-15.804-3.048-22.852-7.981 4.069-13.269 11.451-16.434 21.231ZM63.615 378.744c1.642-3.106 1.71-8.394-8.384-5.642-1.72.432-3.529.079-3.765-1.691-.806-3.096 9.721-2.801 7.077-9.534-5.347.315-8.758-.57-11.893.059-11.176 2.222-12.258 11.127-6.655 15.884 8.483 1.71 16.219 1.622 23.62.924Z"/><path fill="#C6D7E3" d="M127.791 379.157c-9.338 1.631-18.626-1.897-27.856-2.851-10.95-1.13-22.097 1.396-32.919 2.733-.432.049-.639-.266-.629-.6-.924.108-1.848.216-2.772.305-7.401.698-15.137.786-23.62-.924-.403.619-.658 1.228-.737 1.838-.167 1.307.767 2.487 2.045 2.811 15.176 3.843 39.475-1.465 52.518-1.651 13.014-.177 21.988 4.432 33.961 1.582a2.007 2.007 0 0 0 1.513-1.632c.148-.894.059-1.759-.363-2.585-.226.069-.462.128-.708.187.108.334 0 .718-.433.787Z"/><path fill="#322A15" d="M67.016 379.039c10.823-1.337 21.97-3.853 32.92-2.733 9.229.954 18.518 4.482 27.856 2.851.442-.079.54-.462.432-.787-.098-.304-.383-.56-.786-.491-6.026 1.051-12.012-.128-17.988-1.317-3.696-.737-7.382-1.484-11.078-1.711-10.468-.648-21.005 1.593-31.346 2.861-.412.049-.619.403-.629.727-.02.344.187.659.62.6ZM90.941 337.433c-.629 0-1.268 0-1.897-.01-1.15 13.8-9.79 30.765-23.797 34.961-.815.246-.471 1.524.354 1.278 4.306-1.287 8.11-3.715 11.373-6.851 2.221-2.142 4.197-4.609 5.907-7.283 2.526-3.971 4.473-8.394 5.76-12.846a48.468 48.468 0 0 0 1.612-7.981c6.075 7.381 19.286 4.521 25.036-1.848-.669.039-1.327.079-1.996.108-5.789 5.15-17.27 7.391-22.352.472ZM58.996 384.327a9.463 9.463 0 0 0-9.466 9.465 9.463 9.463 0 0 0 9.466 9.465 9.463 9.463 0 0 0 9.465-9.465 9.463 9.463 0 0 0-9.465-9.465Zm.314 12.62a3.16 3.16 0 0 1-3.155-3.155 3.159 3.159 0 0 1 3.155-3.155 3.158 3.158 0 0 1 3.155 3.155c-.01 1.739-1.415 3.155-3.155 3.155Z"/><path fill="#C6D7E3" d="M59.31 390.637a3.159 3.159 0 0 0-3.155 3.155 3.159 3.159 0 0 0 3.155 3.155 3.158 3.158 0 0 0 3.155-3.155 3.165 3.165 0 0 0-3.155-3.155Z"/><path fill="#322A15" d="M108.575 383.491a9.463 9.463 0 0 0-9.466 9.465 9.464 9.464 0 0 0 9.466 9.466 9.465 9.465 0 0 0 9.466-9.466 9.464 9.464 0 0 0-9.466-9.465Zm.167 11.982a3.159 3.159 0 0 1-3.155-3.156 3.159 3.159 0 0 1 3.155-3.155 3.159 3.159 0 0 1 3.155 3.155 3.165 3.165 0 0 1-3.155 3.156Z"/><path fill="#C6D7E3" d="M108.742 389.172a3.16 3.16 0 0 0-3.155 3.155 3.159 3.159 0 0 0 3.155 3.155 3.159 3.159 0 0 0 3.156-3.155 3.16 3.16 0 0 0-3.156-3.155Z"/><path fill="#322A15" d="M75.028 361.15a.83.83 0 0 0 1.11-.079c1.111-1.14 1.73-2.427 1.386-3.99a.821.821 0 0 0-.363-.501c-1.032-.639-4.551-2.841-5.348-3.332-.01-.01-.02-.001-.03-.01-.088-.04-.196-.03-.264.049a22.78 22.78 0 0 0-2.409 2.919c-.059.088-.039.197.01.275.01.02.02.049.04.059l5.868 4.61ZM80.11 355.007c.53.196 1.13-.02 1.424-.501L83 352.097a1.192 1.192 0 0 0-.737-1.779l-8.444-2.083c-.02 0-.03.01-.049 0-.098 0-.187.029-.226.118-.54 1.051-.944 2.26-1.268 3.568-.02.088.02.177.088.235.02.02.04.05.06.059l7.686 2.792ZM81.18 347.911c.226.019.443-.01.659-.089l1.543-.59c.55-.206.914-.737.914-1.327v-.924a1.43 1.43 0 0 0-1.337-1.425l-8.522-.521h-.01a.254.254 0 0 0-.245.167c-.393 1.131-.472 2.389-.364 3.726.01.108.099.196.197.216.01 0 .01.01.02.01l7.145.757ZM69.877 366.792l2.762-1.543a.926.926 0 0 0 .462-.659l.098-.599a1.765 1.765 0 0 0-.432-1.465l-4.67-5.14c-.01-.01-.019-.01-.029-.02-.098-.089-.236-.128-.363-.089-1.298.413-2.29 1.249-3.244 2.192-.148.148-.118.374.02.521 2.133 2.104 3.715 4.197 4.836 6.605a.398.398 0 0 0 .56.197ZM210.86 379.943a9.018 9.018 0 0 0 .452 12.738c3.637 3.391 9.347 3.185 12.739-.452 3.391-3.637 3.184-9.347-.453-12.738-3.636-3.391-9.347-3.185-12.738.452Zm8.993 7.971a2.998 2.998 0 1 1-4.384-4.09 2.998 2.998 0 0 1 4.384 4.09Z"/><path fill="#C6D7E3" d="M215.47 383.825a2.998 2.998 0 0 0 .147 4.237c1.209 1.12 3.116 1.061 4.237-.148a2.997 2.997 0 0 0-4.384-4.089Z"/><path fill="#322A15" d="M242.825 348.707c-3.558 3.823-3.352 9.819.472 13.377 3.823 3.558 9.819 3.351 13.377-.472 3.559-3.823 3.352-9.819-.471-13.377-3.834-3.568-9.82-3.352-13.378.472Zm8.876 8.04a3.145 3.145 0 0 1-4.453.157 3.143 3.143 0 0 1-.157-4.453 3.144 3.144 0 0 1 4.452-.157 3.162 3.162 0 0 1 .158 4.453Z"/><path fill="#C6D7E3" d="M247.081 352.451a3.153 3.153 0 0 0 .157 4.453 3.153 3.153 0 0 0 4.453-.157 3.153 3.153 0 0 0-.157-4.453c-1.268-1.189-3.264-1.11-4.453.157Z"/><path fill="#072EEC" d="M211.774 347.566c-.187 3.411-.836 6.753-2.094 9.967 9.819 1.494 18.518-8.61 25.989-31.315a.136.136 0 0 0 .019-.059c.915-3.067 2.33-6.3 4.247-9.681-.973-1.023-1.976-1.789-3.096-1.701-10.233 22.725-15.413 27.796-25.065 32.789Z"/><path fill="#C6D7E3" d="M195.152 370.576c-1.681 2.221.708 4.777 3.362 2.113 1.671-1.681 3.037-4.344 5.15-5.917 4.856-3.273 8.827-.069 8.444 4.974.383-.364.757-.728 1.14-1.091-.226-.236-.305-.61 0-.905 7.343-7.096 14.508-14.37 21.644-21.663a69.89 69.89 0 0 1 2.458-2.349c-3.195-5.671-3.844-12.138-1.661-19.51-7.471 22.695-16.18 32.809-25.989 31.315a29.3 29.3 0 0 1-4.345 7.558c-.531.669-1.465-.275-.934-.934 8.552-10.801 6.832-24.415 2.851-36.76-.619-.029-.875-.874-.393-1.189l-.295-.885a348.967 348.967 0 0 1-11.914 9.407c.354.658.748 1.238 1.16 1.739l.01-.009c2.743-.914 5.455-2.546 8.129-4.807 2.733-.894 3.381 2.281 1.917 4.767-6.743 3.519-7.038 4.964-7.677 4.649.098.58.334 1.111.609 1.612a64.11 64.11 0 0 0 9.122-1.553.662.662 0 0 1 .777.6l.255 2.713c.079.845-.501 1.592-1.327 1.769-.992.206-1.956.285-2.899.147a3.692 3.692 0 0 0-1.534.069c-1.228.334-2.379.354-3.45.069-.059 1.179-.079 2.339.207 3.479v.01a.283.283 0 0 1 .216.02c.953.472 3.499.658 5.445 1.278.561.177.895.766.767 1.336-.216.983-.609 1.927-1.14 2.841-.197.344-.629.472-.993.334a48.425 48.425 0 0 0-4.984-1.563c-.638 1.081-1.13 2.222-1.415 3.44h.01l5.072 1.553c.757.226 1.179 1.052.894 1.789-.354.924-.757 1.71-1.209 2.379a.558.558 0 0 1-.825.108c-1.809-1.573-3.667-2.634-5.574-3.194l-.019.019c-.846.708-1.524 1.504-2.006 2.398 4.247-.009 4.306 4.04.944 7.844ZM207.734 324.793c0-.01 0-.02-.01-.03a1.667 1.667 0 0 0-.138-.304c-.039.029-.078.069-.117.098.117.039.196.128.265.236Z"/><path fill="#F85704" d="M210.82 335.762c.777 3.951 1.17 7.912.954 11.795 9.652-4.984 14.832-10.065 25.065-32.79-.472-.815-1.209-1.356-2.251-1.572-7.805 13.524-15.717 21.987-23.768 22.567Z"/><path fill="#C6D7E3" d="M225.318 309.597c.325.079.61.374.492.797-2.379 8.708-8.65 14.586-17.26 16.728.914 2.841 1.7 5.74 2.27 8.65 8.05-.59 15.963-9.043 23.768-22.558-.236-1.022-1.052-2.054-2.586-3.096a8.843 8.843 0 0 1-2.044-1.926 11.277 11.277 0 0 0-1.927-1.946c-.039-.03-.088-.049-.127-.079-.777.757-1.573 1.514-2.359 2.261-.059.393-.138.776-.227 1.169Z"/><path fill="#322A15" d="M224.533 310.04c-2.271 8.295-8.208 13.79-16.396 15.814l.413 1.268c8.601-2.142 14.882-8.02 17.26-16.728.118-.423-.157-.718-.491-.797-.315-.078-.678.04-.786.443ZM207.243 327.388c-.128-.393-.256-.796-.394-1.19-.481.315-.216 1.16.394 1.19Z"/><path fill="#F85704" d="M235.679 326.218c-2.173 7.372-1.524 13.839 1.661 19.51 4.698-4.295 9.967-8.03 14.242-12.699.335-.363.777-.196.983.118.109-.078.226-.157.335-.236-1.514-6.546-4.266-12.63-12.956-16.433-1.916 3.381-3.332 6.614-4.246 9.681 0 .02-.01.039-.019.059Z"/><path fill="#C6D7E3" d="M252.517 333.973c-5.033 5.494-11.451 9.691-16.69 15.048-7.146 7.293-14.302 14.576-21.645 21.663-.314.295-.698.206-.933-.029-.384.363-.757.727-1.141 1.091-5.524 5.258-11.294 10.408-17.25 15.057-.01 1.878.835 3.165 3.42 2.802 8.395-5.337 15.865-13.024 27.051-24.985 2.477-2.644 6.949-7.018 9.701-9.387 7.451-6.418 13.093-11.549 18.224-17.535.973-.914 1.701-2.742.934-3.833-.433-.619-.757-.894-1.298-.944-.108.069-.226.158-.334.236a.618.618 0 0 1-.039.816Z"/><path fill="#322A15" d="M213.238 369.741c-.304.294-.226.668 0 .904.236.236.629.334.934.029 7.343-7.096 14.508-14.37 21.644-21.663 5.239-5.356 11.668-9.553 16.691-15.048.245-.265.206-.589.049-.825-.217-.315-.659-.482-.983-.118-4.266 4.659-9.535 8.394-14.243 12.699a68.957 68.957 0 0 0-2.457 2.349c-7.127 7.303-14.292 14.586-21.635 21.673Z"/><path fill="#F85704" d="M203.664 366.772c-2.113 1.573-3.479 4.236-5.15 5.917-2.654 2.664-5.043.108-3.362-2.113 3.362-3.804 3.303-7.853-.963-7.853-15.285 12.374-12.769 24.592.668 24.08 5.957-4.649 11.727-9.799 17.251-15.057.373-5.043-3.588-8.247-8.444-4.974Z"/><path fill="#322A15" d="M207.822 324.94c-.02-.059-.059-.108-.088-.157a.652.652 0 0 0-.256-.236c-.305.256-.619.511-.924.767l.295.884c.128.394.265.787.393 1.19 3.981 12.345 5.701 25.958-2.85 36.76-.521.658.412 1.612.933.934a29.276 29.276 0 0 0 4.345-7.559c1.258-3.214 1.907-6.556 2.094-9.966.216-3.883-.177-7.854-.954-11.795-.57-2.909-1.356-5.799-2.27-8.65l-.413-1.267c-.089-.295-.197-.6-.305-.905ZM202.613 363.391c.452-.668.855-1.445 1.209-2.379.275-.737-.148-1.553-.895-1.788l-5.072-1.553h-.01c-1.395.383-2.182 1.484-1.631 2.614 1.907.56 3.764 1.622 5.573 3.195a.53.53 0 0 0 .826-.089Z"/><path fill="#322A15" d="M205.228 355.469c.53-.914.923-1.858 1.14-2.841a1.142 1.142 0 0 0-.767-1.336c-1.946-.62-4.492-.806-5.445-1.278a.333.333 0 0 0-.217-.02.294.294 0 0 0-.177.128c-1.012 1.396-1.464 2.772-.511 4.118 1.583.403 3.234.914 4.984 1.563.363.138.796.01.993-.334ZM203.173 346.436c.501-.137 1.022-.137 1.533-.069.944.138 1.917.069 2.9-.147.826-.177 1.406-.934 1.327-1.769l-.256-2.713a.665.665 0 0 0-.776-.6 63.918 63.918 0 0 1-9.122 1.553c-.501.914-.059 2.998.944 3.814 1.071.285 2.221.256 3.45-.069ZM205.856 336.43c1.465-2.496.816-5.671-1.917-4.767-2.673 2.261-5.376 3.893-8.129 4.807l-.009.009a.352.352 0 0 0-.236.295c-.01.816 1.248 2.978 2.349 4.119.098.088.187.157.265.196.629.305.924-1.14 7.677-4.659Z"/><path fill="#FE91E8" d="M185.008 29.798c1.141 1.936.973 4.669-.078 7.175.275 2.85.953 5.406 2.3 5.75.511.128 1.15.108 1.838-.01-2.074.305-3.185-.776-3.578-2.9-.344-1.857-.059-3.715.698-5.376.983-2.133 2.801-3.794 4.983-4.678 5.004-2.025 9.368-5.357 13.447-9.269l.01-.01c.255-.54.521-1.08.816-1.602 3.007-5.386 4.787-10.704-.148-11.333-4.639-.412-13.663 4.109-15.54 10.085-.973 4.06-2.536 9.043-4.472 10.94-.099.226-.197.658-.276 1.228ZM232.799 18.25c.246-.374.472-.758.698-1.141.039-.069.079-.138.108-.206.315-.541.58-1.052.826-1.553-.275.55-.6 1.13-.964 1.72-.235.383-.452.776-.668 1.18Z"/><path fill="#FE91E8" d="M191.171 29.779c-2.172.884-4 2.545-4.983 4.678-.757 1.661-1.042 3.519-.698 5.376.393 2.123 1.504 3.205 3.578 2.9h.01c.01 0 .019 0 .029-.01.177-.03.354-.069.531-.108 1.376-.295 2.831-.894 4.374-1.76.167-.098.344-.186.511-.294.03-.02.059-.04.098-.06.246-.147.482-.304.728-.461 3.067-1.976 6.409-4.944 9.986-8.768.148-.098.295-.176.443-.265a13.87 13.87 0 0 1 1.287-1.455c3.608-3.508 12.14-10.92 14.233-9.71.443.255.688.629.826 1.08.659-2.368 1.248-4.943 1.818-7.587 1.033-3.165 3.922-5.396 7.127-5.524-1.622-.02-3.686.236-6.262.825-7.499 1.642-13.515 5.25-20.179 11.854l-.01.01c-4.079 3.912-8.444 7.254-13.447 9.279Z"/><path fill="#FE91E8" d="M221.318 19.841c-2.103-1.199-10.625 6.202-14.233 9.711a13.87 13.87 0 0 0-1.287 1.455c-.983 1.268-1.72 2.703-2.094 4.276-.314 1.326-.364 2.545-.049 3.4.196.531.786.826 1.337.708 3.489-.717 9.505-4.747 13.781-10.124 1.366-2.064 2.437-4.993 3.371-8.344-.138-.443-.383-.826-.826-1.082ZM215.941 45.652c1.082 1.592 2.959 1.956 5.269.678.118-.069.226-.147.344-.216-2.693 1.17-4.571.924-5.613-.462ZM215.666 36.62c-.639 2.29-.845 4.285-.707 5.907-.099-1.603.127-3.598.707-5.908Z"/><path fill="#FE91E8" d="M223.962 13.345c-.57 2.643-1.16 5.219-1.818 7.587-.934 3.352-2.005 6.281-3.372 8.345-1.179 2.133-2.054 4.148-2.673 5.996 1.661-4.61 5.337-7.166 9.898-10.242 1.946-1.317 3.784-2.791 5.573-4.334.383-.826.796-1.642 1.248-2.438.217-.393.433-.796.669-1.18a26.5 26.5 0 0 0 .963-1.72c1.18-2.329 1.592-4.285.983-5.622-.02-.039-.039-.088-.059-.127-.206-.403-.521-.738-.934-1.013a.396.396 0 0 0-.088-.049 4.577 4.577 0 0 0-1.553-.58 7.591 7.591 0 0 0-1.691-.128c-3.234.108-6.114 2.33-7.146 5.505Z"/><path fill="#FE91E8" d="M216.089 35.263c-.157.432-.295.875-.413 1.346v.01c-.58 2.31-.806 4.305-.708 5.907.089 1.337.413 2.399.973 3.136 1.052 1.376 2.92 1.632 5.613.462 1.258-.55 2.693-1.396 4.305-2.595.944-.708 1.829-1.484 2.723-2.25 2.752-2.39 5.554-4.198 8.06-5.928 2.516-4.442 6.084-8.511 9.81-12.531 2.487-8.768-6.153-9.987-13.054-3.745-.609.55-1.218 1.09-1.838 1.631-1.779 1.544-3.617 3.018-5.573 4.335-4.561 3.057-8.247 5.612-9.898 10.222Z"/><path fill="#FE91E8" d="M233.359 44.286c-.531 2.34-.718 4.285-.6 5.858-.088-2.693 1.504-5.612 3.46-7.411 5.347-4.924 13.506-8.817 19.344-14.134 5.407-12.512 1.504-15.068-9.131-5.79-3.725 4.02-7.293 8.1-9.81 12.533-1.592 2.8-2.762 5.76-3.263 8.944ZM233.89 53.447c-.413-.502-.727-1.16-.943-2.006.196.826.511 1.494.943 2.005ZM268.479 46.429c-.078.147-.167.294-.245.442-4.453 9.278 2.349 13.859 12.503 6.192 7.254-4.905 12.817-10.252 18.774-17.014 1.818-2.064 3.273-4.452 4.089-7.077 2.604-8.403-3.067-10.438-15.079-4.482-3.804 1.878-7.608 4.954-11.215 9.043-1.7 3.361-3.391 6.428-5.347 9.15a20.62 20.62 0 0 1-3.48 3.746ZM278.358 14.072c1.406.059 2.497.354 3.313.835-.836-.51-1.946-.806-3.313-.835ZM283.676 19.33c.019-.265.039-.52.019-.776.02.265.01.52-.019.776ZM283.666 19.517ZM283.43 20.697c-.069.265-.167.53-.265.796.108-.266.186-.531.265-.796Z"/><path fill="#FE91E8" d="M232.76 50.134c.009.403.059.796.147 1.18.01.049.03.078.039.127.217.836.531 1.494.944 2.005.059.07.108.138.167.207.039.04.089.078.128.118 2.162 2.074 6.32.648 10.93-2.398 2.005-1.327 3.873-2.85 5.632-4.492l3.057-2.831a60.494 60.494 0 0 1 3.637-3.086c.01-.01.01-.03.01-.04l11.667-21.19c1.681-3.048 4.699-5.338 8.11-5.623-1.888.148-4.188.757-6.94 1.976-5.101 2.939-9.967 7.43-14.734 12.522-5.839 5.327-13.997 9.22-19.344 14.134-1.946 1.789-3.539 4.708-3.45 7.391Z"/><path fill="#FE91E8" d="m269.128 19.723-11.667 21.191c-.01.01-.01.03-.01.04-4.148 11.333 1.317 10.88 6.537 8.374a21.228 21.228 0 0 0 7.971-6.654c1.966-2.723 3.657-5.79 5.347-9.15 1.721-3.411 3.451-7.137 5.475-11.127.148-.295.266-.6.384-.904.098-.266.186-.531.265-.796.01-.04.02-.08.03-.128.088-.354.157-.708.196-1.062.01-.059.01-.118.02-.187.02-.265.029-.52.02-.776-.01-.275-.03-.55-.079-.816-.177-1.012-.669-1.907-1.553-2.555a4.492 4.492 0 0 0-.216-.148c-.069-.04-.128-.088-.197-.127-.816-.472-1.907-.777-3.313-.836-.049 0-.098-.01-.147-.01-.226-.01-.442 0-.658.01l-.305.03c-3.401.294-6.419 2.575-8.1 5.631Z"/><path fill="#F85704" d="M185.293 28.58c1.946-1.888 3.499-6.88 4.473-10.94a1.615 1.615 0 0 0-1.013-.472c-.747 4.423-2.162 8.109-4.059 10.96.196.215.393.363.599.451Z"/><path fill="#B5310F" d="M144.472 53.673c-.246.275-.57.216-.767.01-.088.078-.177.147-.265.216-.108.069-.207.137-.315.206v.05c9.024 5.759 26.038 3.98 33.764-1.367v.01a18.108 18.108 0 0 1 1.652-2.163 63.178 63.178 0 0 1-.964-7.371c3.352-.393 6.045-3.165 7.363-6.29 1.051-2.507 1.209-5.24.078-7.176a4.504 4.504 0 0 0-.58-.786c-1.12-1.239-2.978-1.956-5.74-1.72-1.386.413-2.428 1.327-3.254 2.575a1.857 1.857 0 0 1-1.277.226c-.01 0-.03-.01-.04-.01.01.334-.206.688-.639.708-3.686.157-7.362.314-11.048.482a11.428 11.428 0 0 1-1.366 3.332c-3.362 5.563-6.606 6.968-9.014 6.968a6.407 6.407 0 0 1-2.516-.52c-1.258-.541-2.202-1.593-2.713-3.057-.6-1.691-.58-3.844-.02-6.055-.255.61-.56 1.219-.924 1.808-1.612 2.625-3.184 4.355-4.659 5.465-.088 1.77-.029 3.293.226 4.423a.45.45 0 0 1 .443-.177c5.425.521 5.583 6.831 2.575 10.213Z"/><path fill="#B5310F" d="M147.519 25.326c.364 1.455.334 3.047-.049 4.64.226-.58.481-1.16.786-1.73 1.858-3.49 4.679-6.114 7.362-6.851 1.386-.384 2.684-.236 3.755.412 2.281 1.386 3.686 4.59 3.303 8.129l10.812-.472h.01a1.167 1.167 0 0 1-.049-.177c-.256-2.29-.049-5.514.423-9.278.019-2.36-.492-4.325-2.418-5.259-8.405.787-16.209.993-23.729.845-.953 1.671-1.857 3.745-2.683 6.016 1.199.786 2.074 2.084 2.477 3.725Z"/><path fill="#B5310F" d="M158.656 22.977a2.903 2.903 0 0 0-1.553-.423c-.354 0-.728.05-1.121.158-2.3.628-4.855 3.056-6.507 6.172-1.622 3.057-2.133 6.37-1.337 8.65.384 1.1 1.042 1.857 1.956 2.24 1.848.797 5.584 1.091 9.8-5.897 2.9-4.777 1.111-9.475-1.238-10.9ZM146.182 25.66c-.344-1.366-1.061-2.428-2.025-2.988-.609-.354-1.346-.53-2.162-.53-.108 0-.236.019-.344.029-2.349 4.678-4.148 11.382-4.413 17.387 2.496-.334 5.032-2.526 7.499-6.526 1.485-2.428 2.015-5.111 1.445-7.372Z"/><path fill="#017A06" d="M233.202 220.086s1.808 7.126 9.092 6.153c-2.29-6.203-4.423-11.599-6.566-14.429-1.809 3.155-2.792 6.035-2.526 8.276ZM269.039 193.341c.079.639.708 1.101 1.327.905a80.324 80.324 0 0 1 2.163-.767c.295-3.136-.403-5.259-.885-6.31-.845-1.013-2.074-1.465-3.568-1.475l.963 7.647Z"/><path fill="#C9D63E" d="M256.242 271.786c1.12-.688 2.27-1.386 3.44-2.074.757-2.31 2.182-4.453 3.263-6.605a19.312 19.312 0 0 0-7.097-.128c-.383.069-.648-.167-.766-.452.187 5.779.59 9.839.59 9.839.059-.03.127-.069.186-.099a.841.841 0 0 1 .384-.481Z"/><path fill="#C9D63E" d="M255.505 261.701c2.752-.462 5.435-.393 8.04.187a287.626 287.626 0 0 0 3.745-7.873c.354-.777 1.494-.098 1.15.668a308.701 308.701 0 0 1-3.578 7.539c1.357.403 2.693.924 3.991 1.622.757.403.088 1.543-.669 1.15a20.068 20.068 0 0 0-3.931-1.573c-.914 1.71-1.996 3.46-2.772 5.259 2.261-1.258 4.6-2.379 7.018-3.087a.857.857 0 0 1 .472 0c1.199-.589 2.398-1.189 3.617-1.779v-.039c-.806-4.737-.177-11.087 1.13-18.174-2.87 2.34-5.278 4.355-5.278 4.355-3.873 3.921-9.033 3.902-13.338 1.228-.158 3.853-.128 7.608-.03 10.851a.526.526 0 0 1 .433-.334Z"/><path fill="#B5310F" d="M268.45 249.946s2.408-2.005 5.278-4.354c2.949-2.409 6.37-5.161 8.169-6.458a8.49 8.49 0 0 0 1.346-1.238c1.907-2.251 7.254-6.773 9.712-8.729 1.199-.953 2.064-2.299 2.241-3.823.275-2.388-1.131-3.676-3.254-4.236a19.445 19.445 0 0 0-3.342-.354c-2.447.029-5.15.55-7.303 1.248a23.252 23.252 0 0 0-3.224 1.455l12.975-10.202c4.295-.846 8.197-1.406 11.766-1.603 2.526-3.489 3.813-7.411 3.607-11.883v-.039c-1.563-8.384-16.051-1.239-20.829.482-4.836 1.739-9.623 3.695-14.537 5.209-.816.246-1.17-1.032-.354-1.288 7.726-2.368 15.196-5.553 22.863-8.099 4.512-1.494 11.972-3.391 13.84 2.281 5.386-8.099 3.037-11.412-5.672-10.773-7.303-.029-18.715 2.31-29.203 5.947-.727.255-1.445.511-2.162.766-.619.197-1.249-.265-1.327-.904l-.973-7.647c-8.513-.01-25.812 14.753-32.339 26.125 2.143 2.831 4.276 8.227 6.566 14.429 2.113 5.73 4.364 12.139 6.871 17.83.983 2.241 2.378 4.295 4.246 5.868.551.462 1.111.865 1.701 1.228 4.305 2.664 9.465 2.684 13.338-1.238Zm11.255-20.72c1.513-4.983 7.775-6.143 12.227-6.084.856.01.856 1.337 0 1.327-3.725-.049-8.905.639-10.714 4.492-1.13 2.418.118 4.924 2.91 4.826.855-.029.855 1.297 0 1.327-3.303.108-5.367-2.742-4.423-5.888Zm12.739-18.36c1.1-1.248 2.388-2.3 3.794-3.165.727-.442 1.395.698.668 1.15a15.24 15.24 0 0 0-3.529 2.959c-.56.639-1.504-.305-.933-.944Zm-29.253 21.604c3.323-3.588 7.225-6.074 11.707-7.981.777-.334 1.455.816.669 1.15-4.375 1.867-8.188 4.275-11.442 7.775-.57.619-1.514-.325-.934-.944Z"/><path fill="#322A15" d="M293.564 196.024c-7.667 2.546-15.137 5.731-22.863 8.099-.816.256-.462 1.534.354 1.288 4.914-1.514 9.701-3.47 14.537-5.209 4.777-1.72 19.266-8.866 20.829-.482.354-.491.678-.963.983-1.415-1.868-5.671-9.328-3.775-13.84-2.281ZM293.377 211.81a15.22 15.22 0 0 1 3.529-2.959c.727-.442.059-1.592-.669-1.15a16.566 16.566 0 0 0-3.794 3.165c-.57.639.374 1.583.934.944ZM264.135 233.404c3.243-3.509 7.067-5.917 11.441-7.775.787-.334.108-1.474-.668-1.15-4.482 1.907-8.395 4.403-11.707 7.981-.59.629.354 1.573.934.944ZM284.138 235.114c.855-.03.855-1.356 0-1.327-2.792.089-4.04-2.408-2.91-4.826 1.809-3.853 6.979-4.541 10.714-4.492.855.01.855-1.317 0-1.327-4.453-.059-10.724 1.101-12.228 6.084-.953 3.146 1.111 5.996 4.424 5.888Z"/><path fill="#C9D63E" d="M278.554 295.395c1.209.432 2.409.894 3.569 1.464 2.26 1.111 4.344 2.29 6.467 3.401 1.416-3.499 2.939-6.929 4.512-10.34-3.548-.806-7.176-1.327-10.488-2.821a99.146 99.146 0 0 0-4.06 8.296ZM324.605 289.812a103.48 103.48 0 0 0-2.319 6.33c4.275 1.1 8.532 2.241 12.778 3.489 1.582-5.337 3.204-10.664 4.787-16.021-3.804-1.249-7.697-2.241-11.638-3.116-1.121 3.126-2.34 6.202-3.608 9.318ZM283.567 285.389c-.108.187-.206.383-.314.57 3.234 1.464 6.88 2.054 10.39 2.782a385.732 385.732 0 0 1 5.455-11.166c-5.141 2.447-10.331 4.846-15.57 7.116a.616.616 0 0 1 .039.698ZM345.955 256.777c.462-3.273.668-6.566.246-9.76-2.222 2.988-5.141 5.553-8.07 7.843 2.585.325 5.072.964 7.529 1.819.098.039.197.068.295.098ZM330.473 273.496c-.541 1.956-1.17 3.863-1.818 5.75 3.931.865 7.794 1.867 11.579 3.106l.029-.089c1.18-4 2.33-8.079 3.254-12.168-3.48-1.346-6.94-2.565-10.508-3.528-.924 2.329-1.897 4.639-2.536 6.929ZM323.789 264.689c-.541.325-1.091.629-1.632.954-1.454 3.853-3.636 7.479-5.563 11.136 3.283.589 6.556 1.287 9.82 1.975.344.069.678.148 1.012.217a75.052 75.052 0 0 0 1.317-4.138c.796-2.811 1.504-5.632 2.526-8.375.04-.108.089-.216.128-.324-2.349-.57-4.757-1.032-7.274-1.317a.602.602 0 0 1-.334-.128Z"/><path fill="#C9D63E" d="M349.375 239.095c.59-7.333-5.337-8.07-15.373-3.077 0 0 .265.993.629 2.517a.854.854 0 0 1 .511.53c1.583 4.384 2.448 8.699 2.585 13.358.01.481-.304.747-.668.825l-.029.325c4.256-3.273 8.404-7.175 10.232-11.952.403-1.052 2.113-.59 1.71.472a19.58 19.58 0 0 1-1.69 3.361c.756 3.991.344 7.804-.246 11.687 1.425.462 2.929.983 3.961 1.995.609.599-.324 1.533-.934.934-.757-.738-1.985-1.249-3.224-1.652-.167 1.072-.344 2.153-.501 3.244-.364 2.536-.836 5.081-1.357 7.607 1.957.767 3.913 1.563 5.908 2.369.786.315.442 1.602-.354 1.278-1.966-.796-3.902-1.582-5.819-2.339a132.49 132.49 0 0 1-2.359 9.239c-.295.993-.59 1.975-.885 2.958a71.536 71.536 0 0 1 8.857 3.716c.766.383.088 1.533-.669 1.15-2.781-1.416-5.642-2.585-8.561-3.598-1.592 5.337-3.195 10.655-4.777 15.992 2.29.688 4.58 1.405 6.861 2.162.806.266.462 1.553-.354 1.278a197.069 197.069 0 0 0-6.881-2.152c-1.435 4.865-2.84 9.73-4.138 14.645-.216.825-1.494.471-1.278-.354 1.308-4.925 2.713-9.8 4.158-14.675a393.213 393.213 0 0 0-12.817-3.469c-1.514 4.717-2.782 9.514-4.099 14.301 3.499 1.395 6.998 2.771 10.556 4.079.797.295.453 1.572-.353 1.277a484.89 484.89 0 0 1-10.567-4.059c-1.121 4.05-2.3 8.079-3.706 12.031-.285.796-1.562.452-1.277-.354 1.415-3.991 2.595-8.07 3.715-12.178-4.177-1.651-8.355-3.313-12.572-4.905-1.936 5.278-3.745 10.606-5.534 15.923 2.202.786 4.374 1.661 6.389 2.86.738.442.069 1.583-.668 1.15-1.907-1.14-3.981-2.034-6.114-2.84-.58 1.72-1.15 3.43-1.73 5.14-.275.806-1.553.462-1.278-.354.59-1.749 1.18-3.499 1.78-5.248-2.792-1.003-5.643-1.907-8.316-3.018-1.307-.54-2.556-1.16-3.784-1.789a366.56 366.56 0 0 0-1.858 8.178c-.177.835-1.455.482-1.278-.354.6-2.821 1.219-5.661 1.868-8.502-2.192-1.199-4.316-2.487-6.488-3.823-1.238-.767-2.487-1.553-3.735-2.33a121.11 121.11 0 0 0-2.182 11.647c-.118.846-1.396.482-1.278-.353.57-4.099 1.317-8.109 2.28-12.031a351.501 351.501 0 0 1-6.959-4.492c-1.12-.747-2.202-1.572-3.273-2.427-1.042 3.636-1.946 7.027-2.28 10.949-.069.845-1.396.855-1.327 0 .354-4.168 1.356-7.903 2.487-11.854-2.772-2.251-5.554-4.56-8.798-5.917-.776-.324-.432-1.612.354-1.277 3.195 1.336 6.084 3.548 8.856 5.73.914-3.342 1.465-6.723 2.654-9.967-5.357 2.005-13.692 5.121-18.263 1.937-.924-.649-.039-2.182.895-1.524 2.605 1.818 6.762.649 9.564-.01 4.659-1.091 9.2-2.732 13.663-4.442 10.596-4.05 21.034-8.709 31.267-13.643a.552.552 0 0 1 .285-.138c1.022-.491 2.035-.982 3.057-1.474 4.05-1.975 8.07-4.03 12.031-6.202l-1.121-22.764a1519.304 1519.304 0 0 0-7.499 3.323c-.561 1.828-1.259 3.764-1.976 5.671-2.428 6.448-6.35 11.922-10.518 14.252 3.814-1.534 5.161.432 4.571 2.673-.403 1.553-1.681 2.723-3.185 3.273-2.85 1.052-5.081-.324-6.182-4.098v-.01c-.325.127-.61.118-.836-.01.787 4.492-3.705 10.871-8.06 11.057-.747.03-1.445-.422-1.661-1.14-.432-1.494.393-4.275 5.239-7.499-6.31 3.057-6.733-1.327-5.239-11.353a728.613 728.613 0 0 0-6.763 3.264c-1.218.599-2.427 1.189-3.617 1.779.728.206.904 1.435-.01 1.7-4.177 1.229-8.138 3.765-11.834 6.015-.767.462-1.465-.373-1.268-1.042-.059.03-.128.069-.187.099-11.54 6.104-16.042 13.003-12.031 20.847 4.394 19.225 16.67 31.855 37.489 37.34 16.16 3.175 32.093-2.9 47.968-10.635 24.937-12.463 28.062-41.104 22.489-77.206.295-2.044-.088-3.529-2.251-3.607Zm-4.806 3.764c-.384-.137-.629-.304-.983-.521-.649-.393-1.091-.511-1.691-.599-.344 1.022-.885 2.29-.629 3.342.206.835-1.081 1.179-1.278.353-.324-1.346.148-2.624.58-3.902-.973-.196-1.926-.501-2.929-.481-.855.019-.855-1.308 0-1.327 1.16-.02 2.261.334 3.401.54.462-1.13 1.052-2.191 1.858-3.155.55-.658 1.484.285.933.934-.609.737-1.061 1.543-1.435 2.408.325.049.649.108.964.226.56.216.992.698 1.553.904.806.295.462 1.573-.344 1.278Zm-38.561 16.159c1.121.58 2.31.983 3.489 1.386 1.082-2.87 2.055-5.77 2.694-8.718.177-.836 1.454-.482 1.277.353-.648 2.988-1.631 5.927-2.732 8.817 1.396.531 2.732 1.179 3.833 2.31.531.55-.147 1.405-.806 1.042-.078-.05-.167-.089-.245-.138a.586.586 0 0 1-.266-.295c-.875-.776-1.897-1.307-2.988-1.73-.953 2.457-1.966 4.895-2.89 7.323-.304.796-1.582.442-1.278-.354.934-2.457 1.956-4.934 2.93-7.421-1.259-.432-2.536-.826-3.706-1.435-.737-.383-.069-1.533.688-1.14Zm-46.385 15.441c2.88.983 5.701 2.123 8.345 3.617.462.256.924.492 1.396.718.138-.403.265-.806.393-1.219.502-1.7.796-3.48 1.258-5.2.325-1.209.688-3.037 1.819-3.784 1.248-.825 2.143-.088 3.538.226.836.187.482 1.465-.353 1.278-1.377-.314-2.124-.845-3.057.56-.384.58-.492 1.416-.679 2.074-.354 1.278-.639 2.575-.963 3.863a32.024 32.024 0 0 1-.845 2.752c1.838.855 3.696 1.612 5.485 2.585.756.403.078 1.553-.669 1.15-1.749-.943-3.558-1.563-5.318-2.388-.894 2.349-1.877 4.668-2.388 7.194-.167.836-1.445.482-1.278-.353.531-2.674 1.622-4.984 2.556-7.411-.207-.118-.423-.226-.629-.354-2.841-1.701-5.859-2.978-8.984-4.04-.787-.265-.433-1.543.373-1.268Zm-10.055 8.148c1.651.836 3.351 1.583 5.052 2.31 1.091-3.017 2.241-6.005 4.05-8.61.481-.698 1.631-.03 1.15.668-1.77 2.556-2.91 5.495-3.991 8.453l1.956.826c1.435.609 3.313 1.179 4.354 2.408.551.649-.383 1.592-.933.934-1.18-1.386-3.686-2.025-5.289-2.693-.186-.079-.363-.158-.55-.227-.668 1.858-1.347 3.716-2.172 5.475-.364.777-1.504.098-1.15-.668.806-1.71 1.464-3.509 2.113-5.318-1.779-.756-3.539-1.543-5.269-2.418-.756-.373-.088-1.523.679-1.14Z"/><path fill="#C9D63E" d="M261.825 303.503v.01c.384.295.757.59 1.14.885 2.851 2.182 5.927 4.187 9.014 6.143a104.763 104.763 0 0 1 4.787-14.331c-3.952-1.297-8.021-2.241-11.795-4.049-1.563 3.666-2.055 7.548-3.146 11.342ZM282.073 285.349c.01-.009.01-.029.02-.039-.02.01-.029.01-.049.02.01.01.02.019.029.019ZM280.648 285.939c-4.639 1.966-9.308 3.824-14.026 5.524 3.45 1.494 7.116 2.349 10.674 3.509a103.226 103.226 0 0 1 4.129-8.453c-.167-.088-.344-.167-.521-.265a.592.592 0 0 1-.256-.315ZM289.809 300.889c1.848.934 3.745 1.799 5.819 2.477 2.438.806 4.846 1.661 7.234 2.555a289.16 289.16 0 0 1 4.325-10.988c.158-.374.315-.757.472-1.131-4.452-1.189-8.876-2.506-13.368-3.587-1.631 3.519-3.155 7.067-4.482 10.674ZM278.024 296.633a103.748 103.748 0 0 0-4.876 14.665c.963.609 1.927 1.219 2.88 1.818 2.448 1.553 4.856 2.988 7.333 4.305 1.268-5.366 2.742-10.694 4.718-15.824-1.917-1.013-3.804-2.114-5.858-3.175-1.357-.708-2.772-1.278-4.197-1.789ZM315.945 278.017c-.039.079-.078.148-.118.226-2.378 4.738-4.246 9.79-6.32 14.685.541.137 1.081.285 1.622.422 3.293.816 6.576 1.622 9.849 2.457a100.36 100.36 0 0 1 1.701-4.737c1.425-3.637 2.948-7.185 4.285-10.832-.305-.068-.609-.137-.914-.196-3.352-.708-6.713-1.425-10.105-2.025ZM289.318 302.226c-.03.088-.069.186-.099.275-1.808 5.17-3.273 10.35-4.57 15.589a85.082 85.082 0 0 0 6.752 3.115c1.77.718 3.598 1.327 5.407 1.946 1.808-5.327 3.636-10.654 5.583-15.942a245.149 245.149 0 0 0-8.188-2.909c-1.75-.58-3.342-1.298-4.885-2.074ZM308.977 294.166c-.059.128-.108.266-.167.393-1.701 3.873-3.264 7.824-4.748 11.805 4.178 1.572 8.306 3.233 12.444 4.885 1.288-4.738 2.556-9.485 4.05-14.134-3.794-.973-7.608-1.917-11.422-2.91-.049-.009-.108-.029-.157-.039ZM315.228 276.543c1.71-3.263 3.627-6.458 5.072-9.819-5.386 3.076-10.911 5.897-16.464 8.58 3.823.128 7.618.6 11.392 1.239ZM301.231 276.562c-.059.03-.128.059-.187.089-2.084 4.079-4.197 8.187-6.183 12.355.462.098.924.206 1.376.324 4.001 1.013 7.952 2.192 11.943 3.254 1.799-4.315 3.578-8.66 5.505-12.916.285-.629.589-1.258.904-1.887-4.374-.727-8.768-1.228-13.211-1.189-.059 0-.098-.02-.147-.03ZM343.773 268.788a80.06 80.06 0 0 0 .609-3.047c.442-2.497.973-5.072 1.376-7.676a50.103 50.103 0 0 1-1.317-.403c-2.103-.698-4.217-1.229-6.428-1.494-.413-.05-.629-.403-.629-.738-.59.453-1.18.895-1.75 1.327-.128.099-.265.187-.403.285.049 2.802-.767 5.564-1.779 8.286 3.509.963 6.91 2.153 10.321 3.46ZM333.874 258.035a144.345 144.345 0 0 1-8.473 5.652c2.212.304 4.365.717 6.468 1.238.924-2.27 1.838-4.384 2.005-6.89ZM278.073 223.447a24.565 24.565 0 0 1 3.224-1.455c2.428-.884 4.865-1.297 7.303-1.248 1.111.02 2.231.138 3.342.354 3.45-.963 8.896-1.022 8.896-1.022 7.293-.315 11.569 10.802 13.869 24.307l1.12 22.763.266-.147c-.01-.079-.03-.157-.01-.236.894-6.349-.079-12.669-1.052-18.95-.177-1.121 1.534-1.592 1.711-.472.196 1.239.383 2.487.56 3.725 2.536.079 5.131.059 7.637.492.983.167 1.907.481 2.821.835 1.121-3.617 2.035-7.283 2.625-11.028-1.838-.766-3.647-1.671-5.613-2.103-1.238-.275-2.477-.413-3.706-.531-.963 2.212-1.877 4.443-2.575 6.733-.246.816-1.523.462-1.278-.354.669-2.202 1.544-4.364 2.477-6.517-1.661-.176-3.302-.412-4.924-1.012-.796-.295-.452-1.573.354-1.278 1.661.619 3.381.846 5.121 1.022 1.651-3.744 3.391-7.479 4.384-11.332-1.485-.177-3.018-1.072-4.266-1.563-2.055-.796-4.679-.875-7.176-.973-.413 1.091-.658 2.211-.383 3.479.177.836-1.101 1.19-1.278.354-.295-1.386-.157-2.614.266-3.902a33.55 33.55 0 0 1-1.809-.137c-.836-.099-.845-1.426 0-1.327.757.088 1.514.157 2.261.226.924-2.359 1.661-4.404 1.789-7.067.039-.855 1.366-.855 1.327 0-.089 1.808-.217 3.587-.856 5.297-.245.649-.53 1.268-.815 1.888 1.523.118 3.057.206 4.59.314 2.054.148 4.561 2.143 6.645 2.143.029-.157.068-.305.098-.462.157-.836 1.445-.482 1.278.354 0 .019-.01.039-.01.069a.87.87 0 0 1 .108.098c.029.049.059.088.088.137.246.364-.009.856-.393.973-.019.01-.039.01-.069.01-.953 3.981-2.712 7.765-4.403 11.569 1.17.118 2.349.255 3.509.511 1.877.413 3.666 1.288 5.465 2.035.118-.914.236-1.838.305-2.762.069-.846 1.396-.855 1.327 0a59.058 59.058 0 0 1-.364 3.263c.708.255 1.425.472 2.153.619-.177-.54-.354-1.081-.551-1.622-.285-.796.57-1.248 1.19-1.002-.374-1.524-.629-2.516-.629-2.516-7.5-19.58-16.602-25.143-31.189-24.366-3.578.187-7.48.757-11.766 1.602l-12.994 10.212Zm24.259-9.573c-.148-.836 1.13-1.19 1.277-.354.118.649.138 1.268 0 1.907-.147.688-.452 1.307-.432 2.015.02.855-1.307.855-1.327 0-.029-1.229.708-2.32.482-3.568Zm-9.387 1.73a12.897 12.897 0 0 0-2.969 4.432c-.314.787-1.592.443-1.278-.353a14.527 14.527 0 0 1 3.313-5.023c.599-.59 1.543.344.934.944Z"/><path fill="#C9D63E" d="M335.958 252.413a40.022 40.022 0 0 0-1.563-9.908.616.616 0 0 1-.305.02 14.32 14.32 0 0 1-2.467-.659c-.609 3.755-1.523 7.431-2.654 11.058 1.406.629 2.792 1.307 4.276 1.769.816.256.462 1.533-.354 1.278-1.494-.462-2.899-1.18-4.325-1.818a155.517 155.517 0 0 1-2.457 6.988 144.636 144.636 0 0 0 6.035-4.02c1.553-1.101 3.224-2.28 4.885-3.558.01-.108.03-.207.03-.325-.492.099-1.081-.167-1.101-.825ZM324.527 261.593a170.945 170.945 0 0 0 2.821-7.951 13.694 13.694 0 0 0-1.661-.551c-2.625-.688-5.485-.599-8.208-.668.354 2.683.609 5.366.668 8.059 2.133.207 4.06 1.111 6.055 1.838.118-.068.236-.147.354-.216a.573.573 0 0 1-.029-.511ZM317.921 266.006a180.324 180.324 0 0 0 4.856-2.821c-1.504-.599-3.008-1.209-4.62-1.376 0 1.396-.078 2.802-.236 4.197Z"/><path fill="#F85704" d="M248.899 283.757c1.73.875 3.49 1.661 5.269 2.418.147-.413.304-.835.452-1.248-1.701-.727-3.401-1.474-5.052-2.31-.767-.393-1.435.757-.669 1.14ZM255.918 286.912c1.602.669 4.098 1.308 5.288 2.693.55.649 1.494-.294.934-.933-1.052-1.229-2.92-1.799-4.355-2.408-.649-.276-1.307-.551-1.956-.826-.147.413-.305.826-.452 1.248.177.069.354.148.541.226Z"/><path fill="#F85704" d="M252.045 291.493c-.364.766.786 1.444 1.15.668.825-1.759 1.504-3.617 2.172-5.475.147-.413.305-.825.452-1.248 1.071-2.958 2.212-5.897 3.991-8.453.491-.708-.659-1.366-1.15-.668-1.809 2.604-2.959 5.602-4.05 8.61-.147.413-.305.835-.452 1.248-.649 1.809-1.307 3.607-2.113 5.318ZM275.311 283.079c.747.403 1.425-.737.668-1.15-1.799-.973-3.656-1.73-5.485-2.585-.157.452-.324.894-.501 1.347 1.76.835 3.568 1.444 5.318 2.388Z"/><path fill="#F85704" d="M259.269 275.737c3.126 1.061 6.144 2.349 8.984 4.04.207.127.413.235.629.353.167-.442.335-.884.492-1.327-.462-.235-.934-.461-1.396-.717-2.654-1.504-5.475-2.644-8.345-3.617-.816-.285-1.17.993-.364 1.268Z"/><path fill="#F85704" d="M266.327 287.541c-.168.836 1.11 1.19 1.277.354.502-2.536 1.494-4.845 2.389-7.194.167-.443.334-.895.501-1.347.325-.904.619-1.818.846-2.752.324-1.288.599-2.585.963-3.863.187-.658.295-1.494.678-2.074.934-1.405 1.671-.875 3.057-.56.835.187 1.189-1.091.354-1.278-1.406-.314-2.29-1.051-3.539-.226-1.13.747-1.494 2.585-1.818 3.784-.452 1.72-.757 3.499-1.258 5.2-.118.413-.256.816-.393 1.219-.158.452-.315.894-.492 1.326-.944 2.428-2.035 4.738-2.565 7.411ZM306.116 269.024c-.304.796.983 1.14 1.278.354.924-2.428 1.927-4.866 2.89-7.323-.413-.157-.826-.314-1.238-.452-.974 2.487-1.996 4.964-2.93 7.421ZM313.478 252.039c.177-.835-1.101-1.189-1.278-.354-.638 2.959-1.612 5.859-2.693 8.719.423.147.836.295 1.239.452 1.101-2.89 2.093-5.829 2.732-8.817Z"/><path fill="#F85704" d="M305.34 260.168c1.16.609 2.447 1.002 3.705 1.435.423.147.836.295 1.239.452 1.081.423 2.103.953 2.988 1.73a.63.63 0 0 0 .265.295c.079.049.167.088.246.137.659.364 1.337-.491.806-1.041-1.101-1.131-2.438-1.779-3.833-2.31a56.11 56.11 0 0 0-1.239-.452c-1.179-.403-2.379-.806-3.489-1.386-.777-.403-1.445.747-.688 1.14ZM267.29 254.015a287.626 287.626 0 0 1-3.745 7.873c.442.098.875.216 1.317.344a310.471 310.471 0 0 0 3.578-7.539c.344-.776-.796-1.454-1.15-.678ZM264.253 263.421a19.15 19.15 0 0 0-1.308-.314c-1.091 2.152-2.516 4.295-3.263 6.605.59-.354 1.199-.698 1.799-1.032.776-1.789 1.858-3.549 2.772-5.259Z"/><path fill="#F85704" d="M255.858 262.979a19.103 19.103 0 0 1 7.097.128c.443.088.875.196 1.308.314 1.336.384 2.653.895 3.931 1.573.757.403 1.426-.747.669-1.15a21.692 21.692 0 0 0-5.308-1.966c-2.605-.58-5.298-.649-8.041-.187a.55.55 0 0 0-.432.325c-.069.157-.049.334.02.511.098.285.373.521.756.452ZM301.467 275.265c.786-.01 1.582.02 2.369.039 5.553-2.683 11.087-5.504 16.464-8.58.265-.61.511-1.239.737-1.858.285-.796 1.573-.452 1.278.354-.049.147-.118.285-.167.423.541-.315 1.091-.63 1.632-.954-.384-.285-.394-.914-.01-1.12a20.258 20.258 0 0 1-.993-.384 180.324 180.324 0 0 1-4.856 2.821c-.039.413-.078.826-.127 1.239-.148 1.042-1.593.697-1.691-.226l-.266.147c-3.961 2.172-7.991 4.226-12.031 6.202-1.012.501-2.034.983-3.057 1.474.285-.039.59.138.718.423ZM301.103 276.533l-.059.118c.059-.03.128-.059.187-.089-.04-.009-.089-.009-.128-.029ZM264.764 290.854a.64.64 0 0 1 .551.019c.422.207.864.393 1.297.58a270.86 270.86 0 0 0 14.027-5.524c-.207-.501.334-1.189.933-.835.148.088.315.157.462.236.02-.01.03-.01.049-.02.109-.196.217-.403.335-.599.275-.482.855-.364 1.11-.02a507.174 507.174 0 0 0 15.57-7.116c.403-.806.806-1.612 1.219-2.408.039-.079.098-.138.147-.187-10.232 4.924-20.671 9.583-31.267 13.643-4.462 1.71-9.004 3.341-13.663 4.442-2.801.659-6.959 1.819-9.564.01-.934-.649-1.818.885-.894 1.523 4.57 3.185 12.906.069 18.263-1.936.187-.521.393-1.032.619-1.543.177-.373.531-.413.806-.265ZM326.109 261.141c-.098.265-.196.541-.295.806-.226.59-.983.55-1.238.157-.118.069-.236.148-.354.216.216.079.432.158.649.226.452.148.648.767.304 1.101.079.01.158.02.236.04a144.345 144.345 0 0 0 8.473-5.652c.02-.344.04-.678.04-1.032-.02-.855 1.307-.855 1.326 0v.059c.128-.098.266-.187.403-.285a106.2 106.2 0 0 0 1.75-1.327c0-.334.207-.639.629-.59.039 0 .069.01.108.02 2.929-2.29 5.839-4.856 8.07-7.844a22.4 22.4 0 0 0-.265-1.582c-.177-.835 1.111-1.189 1.278-.354.029.118.039.246.068.364a19.168 19.168 0 0 0 1.691-3.362c.413-1.061-1.297-1.523-1.71-.471-1.828 4.767-5.986 8.669-10.233 11.952-1.661 1.277-3.332 2.457-4.885 3.558-1.985 1.376-4 2.703-6.045 4ZM303.757 327.594c.738.442 1.406-.708.669-1.15-2.015-1.209-4.188-2.074-6.389-2.86-.128.393-.266.776-.394 1.17 2.133.806 4.207 1.7 6.114 2.84ZM291.401 321.195a81.665 81.665 0 0 1-6.752-3.115c-.118.462-.226.933-.335 1.405a47.418 47.418 0 0 0 3.785 1.789c2.673 1.111 5.524 2.015 8.315 3.018.128-.384.256-.767.394-1.15-1.819-.62-3.637-1.229-5.407-1.947ZM260.685 302.629c-2.772-2.182-5.662-4.394-8.857-5.731-.786-.324-1.13.954-.353 1.278 3.243 1.357 6.025 3.666 8.797 5.917l.265-.943c.059-.167.099-.344.148-.521ZM276.029 313.116c-.954-.599-1.917-1.209-2.88-1.818-.118.452-.226.914-.335 1.366 1.249.777 2.487 1.563 3.736 2.329 2.172 1.337 4.295 2.625 6.487 3.824l.324-1.396a114.737 114.737 0 0 1-7.332-4.305ZM262.955 304.398c-.373-.285-.756-.59-1.14-.885-.147.502-.285.993-.422 1.484 1.071.856 2.152 1.691 3.273 2.428 2.28 1.514 4.62 3.008 6.959 4.492.108-.462.226-.914.344-1.376-3.077-1.956-6.163-3.961-9.014-6.143ZM304.062 306.364c-.158.432-.325.855-.482 1.287 4.207 1.593 8.385 3.254 12.572 4.905l.354-1.307c-4.138-1.652-8.267-3.313-12.444-4.885ZM327.967 317.117c.806.294 1.15-.983.353-1.278-3.548-1.307-7.057-2.684-10.556-4.079-.118.432-.236.865-.364 1.297a490.11 490.11 0 0 0 10.567 4.06ZM278.554 295.395l-.53 1.238c1.435.511 2.84 1.081 4.207 1.789 2.054 1.062 3.941 2.162 5.858 3.175.157-.403.295-.816.462-1.219.01-.039.029-.069.049-.108-2.123-1.111-4.207-2.3-6.468-3.401-1.179-.58-2.369-1.042-3.578-1.474ZM289.809 300.889a52.69 52.69 0 0 0-.491 1.337c1.553.776 3.145 1.494 4.885 2.074a259.7 259.7 0 0 1 8.188 2.909c.157-.423.314-.855.482-1.278a218.392 218.392 0 0 0-7.235-2.555c-2.084-.688-3.981-1.553-5.829-2.487Z"/><path fill="#F85704" d="M265.314 290.883a.639.639 0 0 0-.55-.019c.305.157.531.53.344.933-.059.128-.098.256-.157.374 3.774 1.808 7.844 2.752 11.795 4.049.177-.412.354-.825.531-1.248-3.568-1.16-7.235-2.015-10.675-3.509-.423-.196-.855-.373-1.288-.58ZM282.614 287.109c3.313 1.484 6.94 2.005 10.488 2.821.187-.393.364-.796.541-1.189-3.51-.728-7.156-1.318-10.39-2.782-.216.383-.433.767-.639 1.15ZM322.295 296.142c-.147.432-.285.874-.422 1.307 4.285 1.101 8.561 2.231 12.817 3.469.128-.432.246-.864.374-1.287-4.237-1.248-8.493-2.389-12.769-3.489ZM342.839 303.464c.816.275 1.16-1.012.354-1.278a223.742 223.742 0 0 0-6.861-2.162c-.128.433-.246.855-.374 1.288 2.3.678 4.591 1.386 6.881 2.152ZM294.862 289.006c-.197.403-.374.806-.561 1.219 4.482 1.081 8.906 2.398 13.368 3.587.167-.413.344-.825.511-1.238-3.981-1.062-7.942-2.241-11.942-3.254-.452-.108-.914-.206-1.376-.314ZM309.507 292.928l-.531 1.238c.05.01.109.03.158.039 3.814.983 7.617 1.937 11.421 2.91.138-.433.276-.875.423-1.308-3.273-.835-6.556-1.651-9.849-2.457-.541-.137-1.081-.285-1.622-.422ZM281.572 285.104c-.599-.354-1.14.334-.933.835a.602.602 0 0 0 .265.305c.167.098.344.177.521.265.216-.383.432-.776.649-1.159-.01-.01-.02-.01-.03-.02-.157-.079-.314-.147-.472-.226ZM328.213 280.504c3.941.865 7.834 1.867 11.638 3.116.128-.423.255-.846.373-1.268-3.784-1.249-7.647-2.241-11.579-3.106-.137.422-.285.835-.432 1.258ZM316.585 276.779c-.217.413-.433.825-.639 1.228 3.381.6 6.752 1.317 10.104 2.025.305.069.61.138.914.197.158-.423.305-.836.453-1.258-.335-.069-.679-.148-1.013-.217-3.253-.678-6.527-1.376-9.819-1.975ZM349.67 287.63c.757.383 1.435-.757.669-1.15-2.89-1.465-5.839-2.674-8.857-3.715-.127.422-.255.845-.373 1.267 2.919 1.013 5.779 2.182 8.561 3.598ZM301.467 275.265a.638.638 0 0 1-.01.58c-.118.236-.236.462-.354.698.039.019.089.019.128.029.049.01.088.03.147.03 4.443-.04 8.837.462 13.211 1.189.206-.413.423-.826.639-1.229-3.775-.648-7.569-1.12-11.392-1.238a31.627 31.627 0 0 0-2.369-.059ZM350.545 272.906c.796.325 1.14-.963.354-1.278-1.996-.806-3.961-1.602-5.908-2.368-.088.432-.167.874-.265 1.307 1.917.757 3.853 1.543 5.819 2.339ZM333 266.557c3.578.963 7.037 2.182 10.507 3.528.099-.432.177-.865.266-1.297-3.411-1.317-6.812-2.507-10.311-3.45-.148.413-.305.816-.462 1.219ZM324.851 263.854c-.344.186-.659.039-.846-.207-.078-.029-.157-.049-.226-.078-.383.206-.373.835.01 1.12a.694.694 0 0 0 .334.138c2.517.285 4.925.737 7.274 1.317.157-.413.315-.816.482-1.219a61.967 61.967 0 0 0-6.468-1.238 1.939 1.939 0 0 1-.236-.04.539.539 0 0 1-.147.108c-.069.04-.128.069-.177.099ZM338.022 256.168c2.212.265 4.325.796 6.429 1.494.393.127.845.265 1.317.403.069-.433.128-.865.196-1.298-.098-.029-.196-.069-.295-.098-2.457-.865-4.944-1.504-7.529-1.819-.039 0-.069-.009-.108-.019-.423-.049-.629.255-.629.59-.01.344.206.697.619.747ZM350.063 260.06c.609.599 1.553-.334.934-.934-1.032-1.012-2.536-1.533-3.961-1.995-.069.422-.128.855-.197 1.278 1.238.412 2.467.914 3.224 1.651Z"/><path fill="#F85704" d="M261.825 303.503c1.091-3.803 1.582-7.686 3.135-11.342.049-.128.099-.256.158-.374.177-.403-.04-.766-.344-.933-.285-.148-.63-.118-.797.255a23.087 23.087 0 0 0-.619 1.543c-1.189 3.244-1.74 6.635-2.654 9.967-.049.177-.088.354-.137.531l-.266.943c-1.13 3.951-2.133 7.686-2.487 11.854-.068.855 1.259.845 1.327 0 .335-3.922 1.239-7.313 2.281-10.95.137-.491.285-.982.422-1.484-.019 0-.019 0-.019-.01ZM278.024 296.633l.531-1.238a100.627 100.627 0 0 1 4.698-9.436c.108-.187.207-.383.315-.57a.6.6 0 0 0-.04-.688c-.255-.344-.835-.462-1.11.019-.118.197-.217.394-.335.6-.009.01-.009.029-.019.039-.216.384-.433.777-.649 1.16a98.608 98.608 0 0 0-4.128 8.453c-.177.413-.364.826-.531 1.248a105.22 105.22 0 0 0-4.787 14.331c-.118.452-.226.914-.344 1.376a122.736 122.736 0 0 0-2.28 12.03c-.118.836 1.159 1.2 1.277.354a121.11 121.11 0 0 1 2.183-11.647c.108-.452.216-.914.334-1.366a105.21 105.21 0 0 1 4.885-14.665ZM289.21 302.501c.029-.089.068-.187.098-.275.157-.443.324-.885.491-1.337 1.327-3.607 2.851-7.165 4.492-10.674.187-.403.374-.816.561-1.219 1.985-4.167 4.099-8.286 6.182-12.355l.059-.118c.118-.236.236-.462.354-.698a.636.636 0 0 0 .01-.58c-.128-.275-.442-.462-.727-.422a.516.516 0 0 0-.285.137.571.571 0 0 0-.148.187c-.413.806-.806 1.612-1.219 2.408a392.304 392.304 0 0 0-5.455 11.166c-.187.393-.364.796-.541 1.189-1.572 3.411-3.096 6.841-4.511 10.34-.01.039-.03.069-.049.108-.158.403-.305.806-.462 1.219-1.976 5.131-3.45 10.468-4.718 15.825-.109.461-.217.933-.325 1.395a566.973 566.973 0 0 0-1.867 8.502c-.177.836 1.1 1.19 1.277.354.59-2.752 1.2-5.475 1.858-8.178.108-.471.226-.933.334-1.405 1.317-5.219 2.792-10.399 4.591-15.569ZM308.809 294.559c.059-.128.108-.265.167-.393l.531-1.238c2.074-4.895 3.942-9.947 6.32-14.685.04-.078.079-.147.118-.226.207-.413.423-.826.639-1.229 1.937-3.656 4.109-7.283 5.564-11.136.049-.137.118-.285.167-.422.295-.806-.993-1.15-1.278-.354a30.795 30.795 0 0 1-.737 1.858c-1.445 3.361-3.362 6.565-5.072 9.819-.216.412-.433.815-.639 1.228a53.942 53.942 0 0 0-.904 1.887c-1.937 4.256-3.706 8.601-5.505 12.916-.167.412-.344.825-.511 1.238-.157.373-.315.757-.472 1.13a272.798 272.798 0 0 0-4.325 10.989c-.157.423-.324.855-.481 1.278-1.947 5.288-3.775 10.615-5.583 15.942-.128.384-.256.767-.394 1.15a982.823 982.823 0 0 1-1.779 5.249c-.275.806 1.003 1.16 1.278.354.58-1.711 1.16-3.421 1.73-5.141.128-.393.265-.776.393-1.169 1.789-5.318 3.588-10.655 5.534-15.923.157-.433.325-.855.482-1.288 1.494-4.01 3.057-7.961 4.757-11.834ZM324.605 289.812c1.268-3.116 2.487-6.192 3.598-9.308.147-.423.295-.836.442-1.258a90.964 90.964 0 0 0 1.819-5.75c.638-2.29 1.612-4.6 2.526-6.939.157-.403.314-.816.462-1.219 1.012-2.723 1.818-5.485 1.779-8.286v-.059c-.02-.855-1.347-.855-1.327 0 .01.354-.01.698-.039 1.032-.168 2.507-1.082 4.62-2.006 6.89a44.13 44.13 0 0 0-.481 1.219c-.04.108-.089.216-.128.324-1.022 2.743-1.74 5.564-2.526 8.375a63.89 63.89 0 0 1-1.317 4.138c-.148.422-.305.835-.452 1.258-1.327 3.636-2.861 7.194-4.286 10.831a99.996 99.996 0 0 0-1.701 4.738c-.147.432-.285.874-.422 1.307-1.504 4.659-2.762 9.396-4.05 14.134l-.354 1.307c-1.12 4.099-2.3 8.188-3.715 12.178-.285.806.992 1.15 1.277.354 1.406-3.941 2.576-7.981 3.706-12.031.118-.432.246-.865.364-1.297 1.317-4.787 2.585-9.593 4.099-14.301.137-.433.275-.875.422-1.307a104.05 104.05 0 0 1 2.31-6.33ZM345.935 245.434c.108.521.187 1.052.265 1.583.433 3.194.216 6.487-.246 9.76-.059.432-.127.865-.196 1.297-.413 2.595-.934 5.18-1.376 7.677-.177 1.012-.393 2.024-.61 3.047-.088.432-.167.865-.265 1.297-.924 4.099-2.074 8.168-3.254 12.168l-.029.089a59 59 0 0 0-.374 1.268c-1.582 5.347-3.194 10.684-4.787 16.021-.127.432-.245.865-.373 1.287-1.435 4.866-2.851 9.751-4.158 14.675-.216.825 1.062 1.179 1.278.354 1.307-4.915 2.703-9.78 4.138-14.645.128-.433.246-.855.374-1.288 1.572-5.327 3.184-10.655 4.777-15.992.127-.422.255-.845.373-1.268.295-.982.59-1.975.885-2.958a132.49 132.49 0 0 0 2.359-9.239c.098-.433.167-.875.265-1.307.521-2.526.983-5.072 1.357-7.608.157-1.091.334-2.172.501-3.244.069-.432.138-.855.197-1.277.589-3.883 1.002-7.696.245-11.687-.019-.118-.039-.246-.068-.363-.168-.836-1.445-.482-1.278.353ZM342.396 240.451c.374-.855.826-1.671 1.436-2.408.54-.649-.394-1.592-.934-.934-.806.963-1.386 2.015-1.858 3.155.236.04.462.089.698.118.226.02.442.04.658.069ZM340.578 241.532c-.432 1.278-.904 2.566-.58 3.902.207.826 1.484.482 1.278-.354-.256-1.061.275-2.319.629-3.341-.187-.03-.373-.05-.599-.079-.246-.029-.482-.079-.728-.128Z"/><path fill="#F85704" d="M344.923 241.581c-.561-.206-.993-.678-1.553-.904a4.141 4.141 0 0 0-.964-.226c-.216-.029-.432-.049-.658-.079a7.814 7.814 0 0 1-.698-.117c-1.13-.207-2.231-.561-3.401-.541-.855.02-.855 1.346 0 1.327 1.003-.02 1.956.285 2.929.481.246.05.482.099.727.128.227.03.413.049.6.079.6.088 1.042.216 1.691.599.344.207.599.374.983.521.796.305 1.14-.973.344-1.268ZM268.499 265.593c-2.418.708-4.757 1.838-7.018 3.087a53.5 53.5 0 0 0-1.799 1.032 217.005 217.005 0 0 0-3.44 2.074.814.814 0 0 0-.373.491c-.197.668.501 1.504 1.268 1.042 3.695-2.251 7.657-4.787 11.834-6.015.914-.266.727-1.494.01-1.701a.803.803 0 0 0-.482-.01ZM317.794 267.245c.059-.413.088-.826.127-1.239.148-1.405.236-2.801.236-4.207a8.4 8.4 0 0 0-.688-.059c-.855-.019-.855-1.346 0-1.326.226.009.452.029.678.049-.059-2.693-.314-5.377-.668-8.06-.206-.01-.403-.01-.609-.02-.856-.029-.856-1.356 0-1.327.137.01.285.01.422.01a240.96 240.96 0 0 0-.56-3.725c-.177-1.12-1.877-.649-1.71.472.973 6.281 1.956 12.601 1.051 18.95-.009.088 0 .157.01.236.118.953 1.563 1.288 1.711.246ZM333.432 239.527c.196.541.383 1.081.55 1.622.157.03.305.079.452.098.728.118.561 1.082-.049 1.258a40.022 40.022 0 0 1 1.563 9.908c.02.649.609.914 1.101.826.364-.069.678-.335.668-.826-.137-4.649-1.002-8.974-2.585-13.358a.854.854 0 0 0-.511-.53c-.619-.236-1.474.216-1.189 1.002ZM317.194 245.12c-.246.816 1.032 1.169 1.278.354.688-2.281 1.602-4.512 2.575-6.733-.462-.049-.914-.089-1.376-.138-.934 2.153-1.809 4.315-2.477 6.517ZM326.266 224.695c0-.019.01-.039.01-.068.157-.836-1.12-1.19-1.278-.354-.029.157-.068.304-.098.462.138 0 .265-.01.403-.02.246-.246.678-.305.963-.02ZM326.001 225.914a3.681 3.681 0 0 1-1.396.098c-.992 3.863-2.722 7.588-4.383 11.333.462.049.914.098 1.376.138 1.69-3.804 3.45-7.588 4.403-11.569Z"/><path fill="#F85704" d="M334.091 242.525c.108.02.216.01.304-.02.6-.177.777-1.14.05-1.258-.158-.019-.305-.069-.453-.098a14.41 14.41 0 0 1-2.152-.619c-.059.452-.148.894-.216 1.337.806.285 1.621.52 2.467.658ZM325.107 237.994c-1.16-.256-2.33-.393-3.51-.511-.462-.049-.914-.089-1.376-.138-1.739-.177-3.46-.413-5.121-1.022-.806-.295-1.15.983-.354 1.278 1.612.599 3.264.835 4.925 1.012.462.049.914.089 1.376.138 1.238.118 2.477.255 3.706.53 1.956.433 3.774 1.337 5.612 2.104l.207-1.347c-1.799-.756-3.588-1.621-5.465-2.044ZM332.891 255.971c.816.256 1.17-1.032.354-1.278-1.484-.462-2.87-1.14-4.275-1.769-.128.413-.266.816-.403 1.229 1.425.639 2.83 1.356 4.324 1.818ZM316.869 252.393c.197.01.403.01.61.02 2.723.069 5.583-.01 8.207.668.57.148 1.121.344 1.661.551.128-.413.266-.816.394-1.229-.905-.364-1.838-.668-2.821-.835-2.507-.433-5.092-.403-7.638-.492-.137 0-.285-.01-.422-.01-.836-.029-.836 1.298.009 1.327ZM317.479 260.423c-.855-.019-.855 1.308 0 1.327.236.01.462.03.688.059 1.612.177 3.106.787 4.62 1.376.324.128.658.256.992.384.079.029.158.059.226.078.187.246.502.384.846.207l.177-.089a.56.56 0 0 0 .147-.108c.334-.334.148-.953-.305-1.101-.216-.068-.432-.147-.648-.226-2.005-.727-3.932-1.631-6.055-1.838a5.725 5.725 0 0 0-.688-.069Z"/><path fill="#F85704" d="M324.527 261.593c-.079.206-.05.383.039.511.255.383 1.022.433 1.238-.157.099-.265.197-.541.295-.806.875-2.32 1.701-4.649 2.458-6.988.137-.413.275-.816.403-1.229 1.13-3.627 2.044-7.303 2.654-11.058.068-.442.157-.884.216-1.336a60.15 60.15 0 0 0 .363-3.263c.069-.856-1.258-.846-1.326 0a64.71 64.71 0 0 1-.305 2.761c-.059.453-.128.895-.207 1.347-.58 3.745-1.494 7.411-2.624 11.028-.128.413-.265.816-.393 1.229-.855 2.673-1.809 5.317-2.811 7.961ZM303.177 217.451c-.02-.717.285-1.336.433-2.014.137-.649.118-1.268 0-1.907-.148-.836-1.426-.482-1.278.354.226 1.248-.511 2.339-.482 3.577.02.846 1.347.846 1.327-.01ZM289.967 220.036a12.88 12.88 0 0 1 2.968-4.432c.609-.6-.324-1.534-.934-.934-1.464 1.435-2.555 3.116-3.312 5.022-.315.787.973 1.131 1.278.344ZM311.493 227.3c.177.835 1.455.482 1.278-.354-.266-1.268-.02-2.388.383-3.479-.472-.02-.934-.04-1.396-.069-.422 1.297-.55 2.526-.265 3.902ZM314.481 220.39c.639-1.71.767-3.489.855-5.297.04-.856-1.287-.856-1.327 0-.127 2.673-.865 4.708-1.789 7.066l1.445.118c.276-.619.571-1.248.816-1.887Z"/><path fill="#F85704" d="M326.001 225.914c.02-.01.039-.01.069-.01.383-.118.639-.609.393-.973-.03-.049-.059-.088-.089-.137-.029-.05-.068-.069-.108-.099-.295-.285-.717-.216-.963.02-.128.02-.265.02-.403.02-2.084-.01-4.59-2.005-6.645-2.143-1.533-.108-3.066-.197-4.59-.315-.482-.039-.963-.068-1.445-.118a82.368 82.368 0 0 1-2.261-.226c-.845-.098-.835 1.229 0 1.327.58.069 1.19.108 1.809.138.462.029.924.049 1.396.069 2.496.098 5.121.177 7.175.973 1.249.481 2.782 1.386 4.266 1.563.472.059.944.039 1.396-.089Z"/><path fill="#FE91E8" d="M306.057 238.2c-5.779-1.189-9.249 5.229-11.962 14.154.963.039 1.691.776 1.602 2.487.01 5.602-1.769 10.153-4.836 13.937-.305.364-.639.59-.944.708v.01c1.092 3.774 3.333 5.15 6.183 4.098 1.504-.55 2.782-1.72 3.185-3.273.58-2.251-.767-4.216-4.571-2.673 4.168-2.33 8.1-7.804 10.518-14.252.717-1.907 1.415-3.843 1.975-5.671 1.465-4.807 1.907-8.846-1.15-9.525Zm-2.329 11.834c-.737.914-1.465 1.838-2.202 2.752-.354.443-.845.934-1.396.806-.354-.088-.609-.422-.698-.786-.088-.354-.039-.727 0-1.091.099-.767.187-1.553.394-2.29.589-2.113 1.739-4.079 3.351-5.573.423-.393 1.062-.777 1.544-.462.137.088.235.226.324.364 1.307 2.054.01 4.629-1.317 6.28Z"/><path fill="#F85704" d="M304.73 243.39c-.491-.315-1.12.069-1.543.462-1.602 1.494-2.762 3.46-3.352 5.573-.206.747-.304 1.523-.393 2.29-.049.364-.088.737 0 1.091.089.354.334.698.698.786.551.138 1.042-.363 1.396-.806.737-.914 1.464-1.838 2.202-2.752 1.327-1.661 2.614-4.226 1.327-6.29-.099-.128-.197-.266-.335-.354Z"/><path fill="#FE91E8" d="m288.689 268.218 1.169-11.53a5.053 5.053 0 0 1 .698-1.916v-.01c-1.907-10.949-9.151-8.787-10.458 1.248a298.409 298.409 0 0 0-.737 4.551c-1.494 10.025-1.072 14.409 5.239 11.352-4.856 3.224-5.672 6.006-5.239 7.5.206.717.914 1.169 1.661 1.14 4.354-.187 8.846-6.566 8.06-11.058-.334-.196-.521-.619-.393-1.277Zm-2.556-10.311c-.108.845-.275 1.681-.403 2.516-.118.757-.393 3.244-1.74 2.517-.393-.217-.413-.757-.452-1.15-.069-.669-.265-1.308-.413-1.956-.147-.649-.157-1.239-.167-1.907 0-.364 0-.737.02-1.101.039-.649.147-1.297.432-1.877.158-.325.443-.865.796-1.013.354-.137.905-.059 1.209.158.345.245.512.658.63 1.051.255.885.206 1.858.088 2.762Z"/><path fill="#F85704" d="M285.415 254.084c-.304-.216-.855-.295-1.209-.158-.354.138-.639.689-.796 1.013-.285.58-.393 1.228-.432 1.877-.02.364-.02.737-.02 1.101 0 .668.02 1.258.167 1.907.148.649.344 1.287.413 1.956.039.403.059.943.452 1.15 1.347.727 1.622-1.76 1.74-2.516.138-.836.295-1.681.403-2.517.118-.904.177-1.887-.089-2.771-.118-.384-.285-.797-.629-1.042Z"/><path fill="#322A15" d="M295.697 254.85c.088-1.71-.639-2.447-1.602-2.486-1.16-.04-2.654.914-3.539 2.398-.344.57-.6 1.219-.698 1.917l-1.17 11.529c-.127.658.059 1.081.394 1.268.226.128.521.137.835.01.305-.118.629-.344.944-.708 3.066-3.774 4.846-8.325 4.836-13.928Z"/><path fill="#017A06" d="M348.973 178.726c1.287-2.379 2.575-4.06 3.754-5.131 1.396-4.413 1.907-8.807 1.082-14.35-1.544-10.291-10.449-3.185-12.965.304-7.146 8.876-6.104 17.968 0 27.187-4.207-1.032-7.677.963-10.734 4.689-5.239 6.949-1.268 9.465 6.458 6.85a34.968 34.968 0 0 0 2.369-1.15c.196-.462.422-.943.727-1.484l9.309-16.915Zm-6.105-12.09c.462-2.152 1.377-3.794 3.126-5.16.423-.324.963-.619 1.455-.442.491.176.639 1.071.718 1.523.334 2.044-1.327 9.387-1.937 11.932a11.105 11.105 0 0 1-.806 2.29c-.246.502-.541.983-.796 1.091-.895.394-1.435.02-1.583-.815-.039-.187-.58-4.885-.619-5.937-.039-1.278.177-3.214.442-4.482Z"/><path fill="#00B8E5" d="M343.045 177.064c.158.836.698 1.209 1.583.816.246-.108.54-.58.796-1.091.364-.727.619-1.494.806-2.29.609-2.555 2.271-9.888 1.936-11.932-.078-.462-.226-1.347-.717-1.524-.501-.177-1.042.118-1.455.443-1.749 1.356-2.664 3.007-3.126 5.16-.275 1.258-.481 3.204-.442 4.492.039 1.042.59 5.74.619 5.926Z"/><path fill="#017A06" d="M370.744 161.191c-4.659 3.194-9.072 7.971-13.053 12.473.413 1.425.088 3.705-1.347 6.506-.452.885-.992 1.72-1.572 2.526l-10.046 14.144c2.575 11.117 17.84.148 10.439-4.934 9.249-3.332 16.896-9.052 22.853-17.348 7.205-10.507 2.015-19.382-7.274-13.367Zm1.504 9.662a22.645 22.645 0 0 1-1.661 2.516c-.609.786-1.425 1.592-2.054 2.28a15.204 15.204 0 0 1-4.424 3.312c-1.041.512-2.231.905-3.332.58l-.088-.029a.81.81 0 0 1-.295-.177c-.256-.285-.098-.718.079-1.062 1.69-3.371 4.511-5.759 7.44-8.03 1.141-.884 2.615-1.73 4.011-2.113 2.732-.767.619 2.192.324 2.723Z"/><path fill="#00B8E5" d="M371.904 168.11c-1.395.384-2.87 1.229-4.01 2.114-2.929 2.28-5.75 4.668-7.441 8.03-.167.334-.324.776-.079 1.061a.693.693 0 0 0 .295.177l.089.03c1.111.334 2.3-.069 3.332-.58a15.23 15.23 0 0 0 4.423-3.312c.639-.688 1.445-1.494 2.055-2.281a20.292 20.292 0 0 0 1.661-2.516c.314-.511 2.428-3.47-.325-2.723Z"/><path fill="#322A15" d="M356.354 180.17c1.435-2.801 1.76-5.081 1.347-6.506-.57-1.956-2.536-2.281-4.964-.069-1.18 1.081-2.467 2.752-3.755 5.131l-9.308 16.905a14.62 14.62 0 0 0-.728 1.484c-2.192 5.092 1.868 5.072 4.954.905l.836-1.18 10.045-14.144c.571-.806 1.121-1.641 1.573-2.526Z"/><path fill="#F85704" d="M283.833 112.911c-.325-.884-.334-1.68-.167-2.349-4.502-11.136-8.719-15.51-12.513-14.714-3.666.767-6.084 5.593-4.905 11.077.727 3.382 2.811 6.32 5.613 8.365 4.58 3.332 8.797 6.752 12.011 10.409-2.693 3.705-3.371 8.099-2.093 13.18 1.444 7.47 4.865 4.178 5.956.826.796-2.192 1.337-4.659 1.72-7.313-.54-.531-.983-1.405-1.199-2.644a50.74 50.74 0 0 0-4.423-16.837Zm-11.658-9.563c.138-.492.669-.796 1.18-.737 2.84.304 5.209 7.489 6.9 11.971-4.158-4.305-9.318-6.88-8.08-11.234ZM295.274 130.515c2.477 3.528 5.2 3.764 6.822 2.467 1.779-1.425 2.457-7.313-5.711-14.154 5.023-6.782 8.296-16.375 5.583-30.676-.786-5.288-4.58-11.136-9.131-10.025-3.303.806-4.247 3.361-4.954 9.996-.521 7.912 2.575 16.748.786 23.265 2.546 5.651 4.06 11.303 4.472 16.955.777.629 1.514 1.327 2.133 2.172Zm-1.71-41.498c.472-2.693 1.838-1.995 2.605-.314.442.973.668 2.044.727 3.106.443 7.45.502 13.563-1.887 16.237.993-5.819-2.025-13.24-1.445-19.029Z"/><path fill="#C9D63E" d="M273.345 102.611c-.511-.059-1.042.245-1.179.737-1.229 4.354 3.932 6.929 8.07 11.234-1.671-4.482-4.05-11.667-6.891-11.971ZM295.019 108.046c2.388-2.673 2.329-8.787 1.887-16.237-.059-1.072-.285-2.133-.727-3.106-.767-1.681-2.133-2.379-2.605.314-.59 5.79 2.428 13.21 1.445 19.029Z"/><path fill="#322A15" d="M288.433 110.808c-1.297-3.224-4.177-2.516-4.767-.246-.177.669-.157 1.465.167 2.349 2.536 5.554 3.922 11.176 4.433 16.837.216 1.239.659 2.104 1.199 2.644 1.544 1.543 3.853.285 3.765-3.106-.02-.314-.049-.639-.079-.953-.413-5.652-1.926-11.303-4.472-16.955-.079-.187-.157-.373-.246-.57Z"/><path fill="#00B8E5" d="M79.52 113.55c10.33-6.556 20.926-12.63 32.014-17.83.393-.186.747.02.914.315.54-.246 1.071-.501 1.612-.747.128.334.265.669.403 1.003.57-.885.757-1.966.521-2.988l-2.379-10.37c-.678-2.949-.708-6.025.02-8.964 1.769-7.047 6.212-8.266 11.589-13.406a30.505 30.505 0 0 1 4.482-7.746c-6.724-3.086-13.81-1.13-17.261-.137-4.138 1.19-8.62 5.632-13.908 16.188-8.218 18.547-9.84 37.645-28.564 52.418 3.46-2.35 6.91-4.62 10.34-6.812-.157-.295-.147-.698.216-.924ZM52.666 163.55c4.905 8.305 16.523 11.549 33.282 4.216a35.687 35.687 0 0 1-2.791.905c-16.396 5.573-26.147 2.113-30.491-5.121Z"/><path fill="#C9D63E" d="M330.247 60.474c-3.243 5.298-1.995 8.689-1.199 9.033 2.133.934 8.837-4.924 10.645-11.874-.265-.265-.373-.825-.176-1.769.442-4.02.049-8.826 1.612-12a7.74 7.74 0 0 1 .501-.807c.196-.285.373-.58.56-.875-2.153-16.777-6.861-16.01-10.635-9.79-4.02 7.992-1.023 15.766 3.47 23.502-1.986.904-3.834 3.057-4.778 4.58Zm4.296-15.186c-.039.03-.108 0-.108-.049 0-.03.039-.039.118-.059 0-.01 0-.01-.01-.02a1.618 1.618 0 0 1-.551-.274 1.7 1.7 0 0 1-.432-.522c-.069-.137-.118-.294-.167-.442-.354-1.14-.305-2.545 0-3.695.196-.777.157-1.455.295-2.241.078-.443.167-.895.393-1.288.108-.187.246-.354.432-.462.148-.079.315-.118.482-.147.226-.04.462-.06.688 0 .865.255 1.071 1.572 1.209 2.329.275 1.445.334 3.017.206 4.482-.058.668-.147 1.465-.756 1.887-.295.207-.649.295-1.003.344-.088.01-.56.01-.786.05.019.039.029.088-.01.107Z"/><path fill="#F85704" d="M336.341 44.787c.61-.422.698-1.209.757-1.887a16.707 16.707 0 0 0-.206-4.482c-.148-.757-.344-2.064-1.209-2.33-.216-.068-.462-.039-.688 0-.167.03-.334.06-.482.148a1.146 1.146 0 0 0-.432.462c-.226.393-.315.845-.393 1.288-.138.786-.089 1.474-.295 2.24-.295 1.15-.344 2.556 0 3.696.049.148.098.305.167.443.098.206.255.383.432.52.167.128.354.227.551.276.01 0 .01.01.01.02.226-.04.697-.04.786-.05.344-.04.708-.137 1.002-.344ZM334.435 45.25c.01.048.069.078.108.048.029-.02.029-.069 0-.108-.069.01-.118.03-.108.06Z"/><path fill="#C9D63E" d="M346.662 41.455a53.885 53.885 0 0 1-4.639 14.793c-.374.884-1.14 1.513-1.74 1.582-.354 4.492 3.637 8.256 5.908 7.401 2.172-1.268 3.764-6.182 1.356-11.087 8.729-5.563 15.127-12.856 19.649-21.554.531-1.013.914-2.114 1.062-3.254.678-5.416-3.903-7.175-9.102-4.118-5.682 4.236-10.39 8.718-12.71 13.78l-.088.265c.334.482.462 1.278.304 2.192Zm7.756-4.727c.54-1.023 1.405-1.839 2.3-2.576.56-.462 1.15-.884 1.897-.953 1.032-.098 2.084.629 1.985 1.72-.088.983-.52 1.897-1.11 2.693-.482.659-1.062 1.238-1.671 1.789-.433.393-.914.884-1.465 1.13-.118.05-.236.099-.364.128-.638.157-1.444.05-1.769-.57-.511-1.052-.344-2.34.197-3.361Z"/><path fill="#F85704" d="M356 40.64c.128-.03.246-.07.364-.129.55-.255 1.042-.737 1.464-1.13.6-.55 1.19-1.13 1.671-1.789.58-.796 1.013-1.71 1.111-2.693.098-1.08-.953-1.818-1.985-1.72-.738.069-1.337.492-1.898.954-.894.737-1.759 1.553-2.3 2.575-.54 1.022-.707 2.31-.186 3.342.314.639 1.12.747 1.759.59Z"/><path fill="#322A15" d="M341.118 43.873c-1.553 3.165-1.169 7.971-1.612 12.001-.196.944-.078 1.504.177 1.77a.68.68 0 0 0 .59.186c.6-.069 1.357-.698 1.74-1.582a53.885 53.885 0 0 0 4.639-14.793c.158-.914.03-1.71-.304-2.182-.561-.796-1.691-.717-3.028 1.13-.147.207-.373.57-.57.924-.177.295-.373.58-.56.875-.187.295-.364.59-.56.875-.197.265-.394.56-.512.796Z"/><path fill="#00B8E5" d="M167.316 67.06c1.789.117 3.45-.925 4.089-2.595 1.68-4.364 3.401-8.522 5.484-11.657v-.01c-7.725 5.356-24.74 7.126-33.763 1.366-.01-.01-.02-.02-.04-.02-5.504 3.647-7.912 7.775-8.954 12.729a.876.876 0 0 0 .53.992.889.889 0 0 0 .983-.206l4.198-4.453a4.476 4.476 0 0 1 1.612-1.08c5.632-2.173 8.64.953 10.242 4.629.039 0 .069.01.108.01a164.13 164.13 0 0 1 15.511.294Z"/><path fill="#072EEC" d="M172.388 77.42c-.521 1.68-.885 4.334-.109 6.005a.64.64 0 0 1 0 .57c.03 0 .059-.01.089 0 1.926.442 3.214-2.074 3.922-3.342.875-1.573 1.425-3.47 1.111-5.288-.6-3.49-4.463.295-5.013 2.054ZM192.429 124.804c-.049 0-.098.01-.157.01-.029 0-.059-.01-.088-.01h-.03c-.118-.01-.226-.039-.344-.059-.118-.019-.236-.029-.354-.059a6.05 6.05 0 0 1-.403-.098c-.118-.029-.226-.049-.344-.088a7.691 7.691 0 0 1-.413-.138c-.108-.039-.226-.069-.334-.118-.137-.049-.275-.118-.413-.177-.108-.049-.216-.088-.324-.147-.138-.069-.275-.148-.413-.217-.108-.059-.206-.108-.314-.167a10.668 10.668 0 0 1-.443-.275c-.088-.059-.186-.108-.275-.177a15.464 15.464 0 0 1-.482-.344c-.078-.059-.157-.108-.235-.167a17.678 17.678 0 0 1-.708-.57 14.21 14.21 0 0 1-.855-.776 15.002 15.002 0 0 1-.993-1.092c.098.118.197.246.305.364-4.433 9.013-8.218 22.371-10.822 33.094l19.186 2.89c1.229-6.989 2.645-13.879 4.148-19.923-2.093-4.856-3.784-8.866-4.904-11.746.019 0 .019-.01.009-.01ZM86.45 167.589c-1.288 2.703-2.3 4.777-2.93 5.976.983-2.015 2.693-4.452 4.954-6.762-.708.285-1.386.551-2.025.786ZM191.338 167.983c.403-2.743.836-5.534 1.308-8.335a434.95 434.95 0 0 0-1.308 8.187v.148ZM183.2 118.307a18.303 18.303 0 0 1-.678-1.15c.255.472.53.934.806 1.367-.04-.069-.079-.148-.128-.217ZM182.128 116.351c-.108-.226-.226-.452-.334-.678.226.501.452.983.698 1.445-.128-.246-.236-.511-.364-.767ZM181.411 114.72c-.118-.295-.236-.58-.344-.885.177.501.373.983.57 1.455-.079-.187-.147-.383-.226-.57ZM128.096 146.693c-6.989 3.873-14.921 8.178-22.342 11.962 4.04.079 8.306 1.573 12.552 5.219 2.654 2.28 5.387 4.521 8.011 6.939.383-8.02.973-16.021 1.75-24.021 0-.04.019-.069.029-.099Z"/><path fill="#072EEC" d="M171.404 64.455c-.639 1.67-2.3 2.713-4.089 2.595a167.32 167.32 0 0 0-15.501-.295c4.581.236 7.058 2.447 7.775 5.986.069.334.344.58.679.6 7.136.47 9.072 6.88 6.91 11.4-3.391 9.535-3.342 17.506-10.262 13.909-2.114 2.476-4.217 11.46-7.117 20.139 3.618 8.659 3.686 16.355-1.386 16.355 0 0-8.443 4.934-19.432 11.048.245.069.432.265.403.6 0 .029-.01.068-.01.098l23.266 3.499c.157-2.595.364-5.19.639-7.785-.01-.009-.02-.019-.02-.029-.324-.374-.137-.845.177-1.042.285-.599 1.337-.531 1.249.226-.02.138-.03.275-.04.423 2.615 3.096 4.925 6.438 7.421 9.632l4.463.668c3.755-14.91 8.453-29.201 14.194-39.649.059.186.127.354.186.54-.078-.216-.137-.442-.216-.668-.098-.315-.206-.609-.295-.934a34.117 34.117 0 0 1-.275-1.081c-.079-.315-.167-.619-.246-.953-.069-.315-.128-.649-.196-.973-.079-.394-.167-.777-.236-1.17-.049-.256-.079-.531-.128-.796-.079-.482-.167-.964-.236-1.455-.039-.295-.069-.609-.108-.904-.059-.482-.128-.954-.177-1.445-.029-.315-.059-.639-.079-.963a68.91 68.91 0 0 1-.127-1.484c-.02-.285-.03-.59-.05-.875-.029-.55-.068-1.101-.098-1.661l-.029-1.003c-.02-.54-.04-1.071-.049-1.612 0-.236 0-.481-.01-.717-.01-.659-.02-1.308-.02-1.976 0-.187.01-.383.01-.57.01-.727.01-1.455.029-2.192 0-.196.01-.393.02-.59.02-.737.039-1.474.069-2.22v-.02a.935.935 0 0 1 .393-.748c.069-.049.138-.108.206-.167.05-.039.109-.078.158-.127.068-.06.127-.128.186-.197l.148-.147c.059-.07.118-.148.177-.217.049-.059.098-.118.137-.177.059-.078.109-.167.168-.245.039-.06.078-.118.117-.187.059-.088.099-.187.158-.275.029-.06.069-.118.098-.187.049-.098.098-.197.138-.295l.088-.177c.049-.118.089-.236.138-.344.019-.049.039-.088.049-.137.059-.158.108-.325.157-.482.098-.334.197-.688.305-1.042l.088-.305c.069-.255.148-.52.226-.786.03-.118.069-.236.099-.364.069-.255.147-.52.216-.786.02-.059.039-.128.049-.187.138-.491.275-1.002.423-1.523.059-.226.128-.452.186-.678.03-.099.059-.207.089-.305.088-.314.177-.62.265-.944.04-.147.089-.294.128-.452.079-.265.148-.54.226-.816.049-.186.108-.373.167-.56.069-.236.138-.481.207-.727.059-.187.108-.383.167-.57.069-.246.147-.492.216-.737.049-.177.108-.364.167-.54l.236-.768c.059-.196.118-.393.187-.59.078-.235.147-.48.226-.717.069-.206.128-.413.196-.619.079-.236.148-.462.227-.698.068-.197.127-.393.196-.59.079-.235.157-.481.236-.717.069-.207.138-.403.206-.6l.236-.678c.069-.206.148-.403.226-.61.079-.225.168-.442.246-.668.079-.196.148-.393.226-.59.089-.216.167-.442.256-.658.078-.197.157-.383.236-.57l.265-.649c.079-.186.157-.373.246-.56l.265-.62c.089-.186.167-.373.256-.55.088-.196.187-.393.275-.59l.265-.53c.099-.187.187-.383.285-.57a8.36 8.36 0 0 1 .276-.511c.098-.177.196-.364.295-.54.088-.168.186-.325.285-.483.098-.167.196-.343.304-.51.099-.158.197-.305.295-.453.108-.157.207-.324.315-.481.098-.148.196-.285.295-.423.108-.147.216-.305.324-.442.098-.138.206-.256.315-.384.108-.137.216-.275.334-.403l.324-.353c.118-.128.226-.246.344-.364.108-.108.216-.207.334-.315l.354-.324c.108-.098.226-.187.344-.275.118-.099.246-.187.364-.275.118-.079.236-.158.354-.227.128-.078.246-.157.373-.225.118-.07.246-.118.364-.177l.383-.177c.128-.05.246-.089.374-.128.128-.04.265-.089.393-.118.128-.03.256-.05.383-.079.099-.02.187-.049.285-.059h.079l.167-.03c-.776-5.051-15.058-3.321-16.887-1.975-.707.502-1.366 1.11-2.005 1.819-.58.648-1.12 1.376-1.651 2.162-2.104 3.145-3.824 7.313-5.505 11.667Zm-4.256 10.713a38.28 38.28 0 0 1 1.878-6.487c.304-.786 1.592-.442 1.277.354a36.364 36.364 0 0 0-1.877 6.487c-.157.846-1.435.482-1.278-.354Zm10.37 12.69c-2.742 2.516-7.49 3.174-10.468.737-.659-.541.285-1.475.934-.934 2.398 1.966 6.438 1.248 8.6-.737.629-.58 1.563.353.934.933Zm.57-14.459c1.661 2.25.452 6.045-.806 8.178-1.189 2.025-2.595 4.315-5.268 3.686-.443-.109-.541-.521-.413-.846a.525.525 0 0 1-.472-.334c-1.17-2.516-.717-6.762.934-8.983 1.15-1.534 4.394-3.902 6.025-1.7ZM133.64 253.297c-5.17-17.918-7.107-36.465-7.677-55.061-.01-.393.266-.6.561-.629-.03-.826-.079-1.661-.099-2.487-18.4 23.472-30.451 118.36-27.787 142.293 4.855-.059 9.741-.216 14.645-.452.659-.029 1.327-.069 1.996-.108 2.968-.157 5.947-.334 8.935-.55.747-.05 1.494-.099 2.241-.158a1.683 1.683 0 0 0 1.533-1.818c-2.329-26.656 1.671-53.813 6.556-80.302-.029-.098-.059-.197-.078-.295-.334.088-.708-.03-.826-.433Z"/><path fill="#072EEC" d="M95.502 269.859c2.428-13.043 3.765-27.157 7.175-39.217 5.112-18.105 12.779-34.215 23.66-46.963.01-.462.019-.904.019-1.366a.597.597 0 0 1-.452-.609c.079-3.637.226-7.264.403-10.891-2.624-2.427-5.347-4.659-8.011-6.939-4.246-3.646-8.512-5.14-12.552-5.219-6.477 3.312-12.562 6.232-17.29 8.148-2.26 2.32-3.97 4.757-4.954 6.762C60.421 217.52 54.2 270.891 59.556 333.197a3.344 3.344 0 0 0 3.057 3.047c3.883.314 7.785.55 11.707.747 4.826.235 9.672.383 14.537.432-.707-13.554 1.003-37.143 6.645-67.564Z"/><path fill="#322A15" d="M176.585 86.914c-2.163 1.975-6.193 2.703-8.601.737-.659-.54-1.602.393-.934.934 2.988 2.447 7.726 1.779 10.469-.737.629-.57-.305-1.504-.934-.934ZM172.073 75.1c-1.652 2.22-2.104 6.477-.934 8.983.108.226.285.324.472.334-.128.334-.03.747.413.846 2.673.619 4.069-1.662 5.268-3.686 1.258-2.133 2.467-5.927.806-8.178-1.641-2.202-4.885.167-6.025 1.7Zm5.327.265c.315 1.808-.236 3.715-1.11 5.288-.708 1.268-1.996 3.794-3.922 3.342-.03-.01-.059 0-.089 0a.675.675 0 0 0 0-.57c-.776-1.671-.413-4.325.108-6.006.551-1.76 4.414-5.543 5.013-2.054ZM168.426 75.522a38.278 38.278 0 0 1 1.878-6.487c.314-.796-.973-1.14-1.278-.354a36.198 36.198 0 0 0-1.877 6.487c-.158.836 1.12 1.2 1.277.354Z"/><path fill="#F85704" d="M126.337 183.679c-10.881 12.749-18.548 28.868-23.659 46.963-3.411 12.06-4.748 26.174-7.176 39.217-5.642 30.421-7.352 54.01-6.625 67.564h.157c.63.01 1.268.01 1.897.01 2.556.02 5.122.01 7.697-.02-2.664-23.933 9.387-118.821 27.788-142.293a277.498 277.498 0 0 1-.079-11.441Z"/><path fill="#072EEC" d="M151.726 173.044c.394-7.548.462-15.116.915-22.655l-23.267-3.499c-1.12 11.578-1.887 23.176-2.142 34.814-.01.511-.502.717-.875.609-.01.452-.02.904-.02 1.366-.049 3.745-.029 7.588.089 11.441.029.836.068 1.661.098 2.487.354-.039.747.167.767.629.049 1.484.098 2.968.167 4.443 2.821-9.023 12.591-17.054 23.63-20.956-.128-2.879.501-5.976.638-8.679ZM171.68 163.795c.226.227.452.453.678.669.216-.325.658-.482.983-.108 1.995 2.26 4.138 4.315 6.792 5.799.02.01.029.029.059.049.049.029.088.069.128.108.019.03.039.059.059.079.019.039.039.078.049.118.01.049.019.088.019.137 0 .03.01.049.01.079-.088 3.273.01 6.536.256 9.799.098 1.327.393 2.782.54 4.227 1.613 1.376 3.048 3.037 4.276 5.003v-8.611l5.809-13.357v.059a320.72 320.72 0 0 1 1.308-8.187c.177-1.052.354-2.104.54-3.165l-19.187-2.89a387.726 387.726 0 0 0-2.319 10.192ZM165.654 156.031c.285-1.19.58-2.369.875-3.549l-4.463-.668c1.141 1.455 2.31 2.87 3.578 4.207 0 0 0 .01.01.01Z"/><path fill="#F85704" d="M184.34 119.919c-.069-.088-.138-.196-.206-.285l-.02-.019c-.226-.295-.452-.59-.659-.905l-.118-.177a20.855 20.855 0 0 1-.825-1.405c-.246-.462-.472-.954-.698-1.445-.059-.128-.108-.246-.167-.373a27.879 27.879 0 0 1-.57-1.455 6.424 6.424 0 0 1-.158-.462c-.059-.177-.127-.354-.186-.541-5.741 10.439-10.449 24.74-14.194 39.65-.295 1.18-.59 2.369-.875 3.548.344.374.138.846-.196 1.042a102.276 102.276 0 0 0 6.231 6.723c.61-2.85 1.386-6.349 2.32-10.192 2.605-10.724 6.389-24.081 10.822-33.094-.108-.118-.206-.246-.304-.364-.079-.098-.138-.167-.197-.246Z"/><path fill="#072EEC" d="M207.478 324.547c.04-.029.079-.069.118-.098 3.126-2.605 6.242-5.249 9.289-7.981-21.87-27.619-38.472-57.283-47.712-84.647-4.757-14.104-7.568-27.639-8.158-40.062a.667.667 0 0 1-.079-.03c-.068.344-.354.619-.766.452-3.342-1.386-7.028-3.292-8.404-6.88-.433-1.12-.62-2.329-.669-3.578-11.038 3.893-20.809 11.923-23.63 20.956.728 16.984 2.733 33.88 7.461 50.255.118.413-.138.698-.462.786.029.098.059.197.078.295 8.916 30.637 24.839 60.074 47.467 87.231a2.42 2.42 0 0 0 3.204.374 343.071 343.071 0 0 0 9.426-6.9 350.546 350.546 0 0 0 11.913-9.406c.315-.246.62-.501.924-.767Z"/><path fill="#072EEC" d="M185.539 200.703v-10.959c-1.229-1.966-2.664-3.627-4.276-5.003.167 1.641.148 3.263-.58 4.678-2.103 4.148-7.814 4.315-11.795 4.325.649 10.841 2.959 22.361 6.851 34.332 8.552 26.391 24.79 55.072 47.073 82.986.924-.865 1.828-1.76 2.743-2.634.786-.757 1.582-1.504 2.359-2.261a320.783 320.783 0 0 0 6.556-6.595 2.061 2.061 0 0 0 .206-2.575c-19.216-28.091-30.795-52.025-41.676-84.558-.865-2.585-2.31-7.146-3.165-10.537l-4.296-1.199Z"/><path fill="#F85704" d="M168.229 193.066a26.658 26.658 0 0 1-7.214-1.297c.589 12.433 3.401 25.968 8.158 40.062 9.24 27.364 25.851 57.027 47.712 84.647 1.956-1.77 3.991-3.588 5.917-5.416-22.283-27.914-38.521-56.595-47.073-82.985-3.892-11.972-6.202-23.492-6.851-34.333h-.02c-.432.01-.638-.344-.629-.678Z"/><path fill="#072EEC" d="M164.701 156.955c-3.795-4.011-6.773-8.67-10.252-12.945-.669 6.89-.865 13.79-1.072 20.709-.128 4.256-.295 8.502-.599 12.748-.118 1.642-.472 3.372-.295 5.013.511 4.62 4.089 6.792 8.02 8.424.374.157.482.52.413.835.03.01.059.02.079.029 2.32.767 4.807 1.2 7.215 1.298.01-.324.216-.639.639-.639 2.241 0 5.052.187 7.096-.826 5.289-2.604 3.903-5.592 3.549-9.573-.315-3.637-.472-7.283-.393-10.93-2.595-1.513-4.738-3.558-6.724-5.799-.236-.275-.196-.589-.039-.825-.226-.217-.452-.443-.678-.669a102.016 102.016 0 0 1-6.232-6.723c-.206.118-.491.118-.727-.127Z"/><path fill="#322A15" d="M172.407 165.289c1.986 2.241 4.129 4.296 6.724 5.8v-.374c.019-.599.668-.767 1.051-.531-.019-.01-.029-.029-.059-.049-2.654-1.474-4.787-3.538-6.792-5.799-.324-.373-.766-.206-.983.108-.147.256-.186.57.059.845Z"/><path fill="#322A15" d="M179.13 170.715v.374a98.886 98.886 0 0 0 .393 10.929c.344 3.981 1.73 6.969-3.548 9.574-2.045 1.012-4.856.815-7.097.825-.413 0-.629.315-.639.639-.01.344.197.688.639.688h.02c3.99-.01 9.691-.177 11.795-4.325.717-1.415.747-3.046.58-4.678-.148-1.445-.442-2.9-.541-4.227-.245-3.263-.354-6.526-.255-9.799 0-.029-.01-.049-.01-.079 0-.049-.01-.088-.02-.137a.59.59 0 0 0-.049-.118c-.02-.03-.039-.059-.059-.079a.704.704 0 0 0-.128-.108c-.413-.246-1.061-.078-1.081.521ZM154.193 141.641c.157.177.305.364.452.541.02-.138.03-.275.04-.423.088-.757-.964-.825-1.249-.226.226-.147.521-.167.757.108ZM160.514 190.904c-3.932-1.632-7.51-3.804-8.021-8.424-.177-1.641.177-3.371.295-5.012.305-4.247.462-8.493.599-12.749.217-6.919.403-13.819 1.072-20.709a53.896 53.896 0 0 0-1.18-1.415 174.27 174.27 0 0 0-.639 7.784c-.452 7.539-.521 15.107-.914 22.656-.137 2.703-.766 5.789-.639 8.679.049 1.248.246 2.447.669 3.577 1.376 3.598 5.062 5.495 8.404 6.881.413.176.698-.099.767-.453a.705.705 0 0 0-.413-.815Z"/><path fill="#322A15" d="M164.701 156.955c.236.245.521.245.747.108.335-.197.541-.669.197-1.042 0 0 0-.01-.01-.01-1.268-1.337-2.447-2.762-3.578-4.207-2.496-3.184-4.806-6.526-7.421-9.632-.147-.177-.295-.364-.452-.541a.554.554 0 0 0-.757-.108c-.314.207-.501.669-.177 1.042.01.01.02.02.02.03.403.462.786.933 1.179 1.415 3.48 4.276 6.458 8.934 10.252 12.945Z"/><path fill="#00B8E5" d="M212.521 52.13c-3.883-2.527-8.011-2.183-11.795-1.062-.01 0-.02.01-.02.01 3.627-.885 8.178-1.18 11.815 1.051ZM235.728 211.82c6.527-11.373 23.826-26.136 32.339-26.126 1.494 0 2.722.452 3.568 1.475-3.067-9.662-17.172-43.198-29.292-75.545-9.013-24.042-17.988-48.702-27.905-57.99 9.387 9.435 7.44 46.215-11.697 64.261-2.93 2.761-6.272 5.091-10.036 6.811a1.367 1.367 0 0 1-.285.088s0 .01.01.01c0 .01.009.01.009.02 1.121 2.88 2.802 6.89 4.905 11.745 8.395 19.452 23.473 52.732 35.858 83.517-.266-2.241.717-5.121 2.526-8.266Z"/><path fill="#00B8E5" d="M196.902 50.871c-.128.02-.256.05-.383.079-.138.03-.266.079-.393.118-.128.04-.256.079-.374.128-.128.049-.256.118-.383.177-.118.059-.246.118-.364.177-.128.068-.246.147-.374.226-.118.068-.235.147-.353.226-.118.088-.246.177-.364.275a8.369 8.369 0 0 0-.344.275 5.316 5.316 0 0 0-.354.324 9.738 9.738 0 0 0-.334.315c-.118.118-.226.236-.344.364-.108.118-.216.226-.325.353-.108.128-.226.266-.334.404-.108.127-.206.255-.314.383l-.325.442c-.098.138-.196.275-.295.423-.108.157-.206.314-.314.481-.098.148-.197.295-.295.453-.098.167-.206.334-.305.51-.098.158-.186.325-.285.482-.098.177-.196.364-.295.54-.088.168-.186.335-.275.512-.098.187-.187.373-.285.57l-.265.53c-.089.197-.187.394-.276.59-.088.187-.167.364-.255.55l-.265.62c-.079.187-.168.374-.246.56l-.266.649c-.078.187-.157.383-.236.57-.088.216-.167.442-.255.659-.079.196-.148.393-.226.59-.079.216-.167.442-.246.668-.079.206-.147.403-.226.61l-.236.677c-.069.197-.137.403-.206.6-.079.236-.158.472-.236.717-.069.197-.128.394-.197.59-.078.236-.147.462-.226.698a14.75 14.75 0 0 0-.196.62c-.079.235-.148.48-.227.717-.058.196-.117.393-.186.59l-.236.766c-.059.177-.108.364-.167.54-.069.246-.148.492-.217.738-.058.187-.108.383-.167.57-.068.246-.137.482-.206.727-.059.187-.108.374-.167.56-.079.276-.157.541-.226.816-.04.148-.089.295-.128.453l-.265.943c-.03.098-.059.206-.089.305-.059.226-.128.452-.187.678-.147.511-.285 1.022-.422 1.523a1.17 1.17 0 0 0-.049.187c-.079.266-.148.521-.217.787-.029.117-.068.245-.098.363-.079.266-.147.53-.226.787-.03.098-.059.206-.088.304-.099.354-.197.708-.305 1.042-.049.157-.098.315-.157.482-.02.049-.04.088-.05.137a3.53 3.53 0 0 1-.137.344l-.089.177c-.049.099-.088.197-.137.295-.03.059-.069.128-.099.187-.049.088-.098.187-.157.275-.039.059-.079.118-.118.187-.059.088-.108.167-.167.246a2.345 2.345 0 0 0-.138.176c-.059.07-.117.148-.176.217-.05.059-.099.098-.148.147-.059.069-.128.138-.187.197-.049.049-.108.078-.157.127-.069.05-.128.109-.197.158-.255.167-.393.462-.403.766-.029.747-.049 1.484-.068 2.222-.01.196-.01.393-.02.59-.02.736-.02 1.464-.029 2.191 0 .187-.01.383-.01.57 0 .669.01 1.317.019 1.976 0 .236 0 .481.01.717.01.55.03 1.082.049 1.612l.03 1.003c.019.56.059 1.11.098 1.661.02.295.03.59.049.875.04.501.089.992.128 1.484.03.324.049.649.079.963.049.492.118.963.177 1.445.039.305.068.609.108.904.069.502.157.973.236 1.455.039.265.078.531.127.796.069.403.158.786.236 1.17.069.324.128.658.197.973.079.324.167.629.246.953.088.364.177.728.275 1.081.088.325.196.62.295.934.069.226.137.452.216.668.049.158.108.315.157.462.108.305.226.59.344.885.079.187.148.393.226.58.05.128.108.246.167.373.109.236.217.453.335.679.127.255.236.521.373.766.01.01.02.03.02.04.216.403.442.776.678 1.15.049.068.089.147.128.216l.118.177c.206.314.432.609.658.904l.02.02c.069.098.138.196.206.285.059.078.128.147.187.226.315.383.649.747.993 1.091.128.128.256.245.383.363.158.148.315.285.472.413.236.197.472.393.708.57.078.059.157.108.236.167.157.118.324.236.481.344.089.059.187.118.276.177.147.099.294.187.442.276.108.059.206.108.314.167.138.078.276.147.413.216l.325.147c.137.059.275.128.412.177.109.04.227.079.335.118.137.049.275.098.413.138.117.029.226.059.344.088.137.03.265.069.403.099l.353.058c.118.02.227.04.344.059h.03c.079.01.157 0 .236-.009.098-.02.196-.04.285-.089 3.765-1.72 7.107-4.039 10.036-6.811 19.128-18.046 21.074-54.826 11.697-64.262-.01-.01-.02-.03-.04-.039a10.14 10.14 0 0 0-1.887-1.464c-3.637-2.231-8.188-1.927-11.815-1.052-.383.088-.757.187-1.12.295a.996.996 0 0 1-.61-.02l-1.317-.472a1.115 1.115 0 0 0-.403-.059h-.079c-.078.02-.176.05-.265.06Zm.197 4.305c-12.317 17.516-14.066 44.25-6.635 63.829.305.796-.983 1.14-1.278.354-7.549-19.894-5.74-47.08 6.763-64.851.491-.688 1.641-.03 1.15.668Z"/><path fill="#072EEC" d="M195.948 54.508c-12.503 17.77-14.321 44.967-6.762 64.851.304.786 1.582.452 1.277-.354-7.431-19.579-5.691-46.323 6.635-63.829.492-.698-.658-1.356-1.15-.668Z"/><path fill="#FE91E8" d="M171.463 14.75c1.927.934 2.438 2.9 2.418 5.259-.471 3.754-.678 6.988-.422 9.278.01.059.029.118.049.177.413-.01.619.295.629.61.01 0 .02.01.039.01.423.078.855.019 1.278-.227.826-1.248 1.868-2.162 3.254-2.575 2.762-.236 4.177.364 5.042 1.09.285.08.796 0 .963-.245 1.897-2.85 3.313-6.536 4.06-10.959-.275-7.598-3.735-12.699-12.69-10.094-10.596-13.653-36.388-3.893-35.071 7.293.069.59.57 1.042 1.17 1.061 1.838.07 3.696.128 5.563.157 7.51.158 15.314-.049 23.718-.835Z"/><path fill="#017A06" d="M149.8 118.789a104.596 104.596 0 0 1-2.212 6.035c-1.337 3.322-3.273 6.33-5.426 7.519 2.123 1.288 4.227 2.251 6.252 2.801 5.072.01 5.003-7.696 1.386-16.355Z"/><path fill="#B5310F" d="M112.635 73.97c-.738 2.938-.698 6.014-.02 8.963l2.379 10.37a3.904 3.904 0 0 1-.521 2.988c6.035 14.871 17.142 29.624 27.699 36.052 2.153-1.189 4.089-4.197 5.426-7.519a101.226 101.226 0 0 0 2.211-6.035c2.9-8.679 5.004-17.662 7.117-20.14 6.92 3.598 6.871-4.363 10.262-13.907 2.162-4.531.226-10.94-6.91-11.402a.732.732 0 0 1-.679-.6c-.707-3.538-3.184-5.75-7.775-5.985-.039 0-.068-.01-.108-.01-1.602-3.676-4.61-6.802-10.242-4.63-.609.236-1.17.6-1.612 1.082l-4.197 4.452a.88.88 0 0 1-.983.207.884.884 0 0 1-.531-.993c1.032-4.954 3.44-9.092 8.955-12.728.01-.01.029-.02.039-.03.108-.069.206-.137.315-.206.098-.07.177-.148.265-.217-.206-.206-.295-.55-.049-.825 1.563-1.76 2.231-4.807 1.061-6.674-2.506 3.597-8.02 7.588-12.129 3.863-.551-.502.265-1.307.816-.816 3.607 3.273 8.542-.914 10.517-3.912-.511-.383-1.179-.639-2.015-.727-.393-.04-.57-.394-.54-.698-1.18.088-2.556.501-4.158 1.376-3.49 2.221-6.281 4.757-8.503 7.549-1.907 2.398-3.401 4.973-4.482 7.745-5.406 5.14-9.839 6.35-11.608 13.406Zm11.5-10.4c-2.831 6.094-4.571 12.866-5.318 19.55-.078.727-1.228.737-1.15 0 .777-6.91 2.546-13.83 5.475-20.13.315-.668 1.308-.078.993.58Zm38.118 23.324c.354-.648 1.347-.069.993.58l-5.662 10.556c-.353.65-1.346.07-.992-.58l5.661-10.556Zm-9.406-6.84c1.739-2.31 3.686-5.308 6.33-6.655.658-.334 1.238.659.58.993-2.743 1.386-4.836 4.747-6.586 7.136a117.935 117.935 0 0 0-3.696 5.356c-.403.62-1.396.04-.993-.58a106.293 106.293 0 0 1 4.365-6.25Zm-15.472.56c1.209-3.047 3.834-5.849 5.967-8.267 1.789-2.034 4.58-5.69 7.568-5.897.737-.049.737 1.101 0 1.15-2.673.187-5.573 4.197-7.165 6.035-1.848 2.143-4.207 4.61-5.259 7.293-.275.669-1.386.374-1.111-.314Zm-10.871-3.952a64.37 64.37 0 0 1 5.504-6.605c.511-.54 1.327.276.816.816-1.907 2.015-3.705 4.118-5.327 6.37-.433.599-1.426.019-.993-.58Z"/><path fill="#322A15" d="M141.907 44.6c.835.08 1.504.344 2.015.728.039-.05.078-.108.108-.157.393-.63 1.386-.05.993.58a6.153 6.153 0 0 1-.305.442c1.17 1.867.511 4.914-1.062 6.674-.245.275-.167.619.049.825.207.197.521.266.767-.01 3.008-3.38 2.851-9.69-2.575-10.232a.481.481 0 0 0-.443.177.516.516 0 0 0-.098.266c-.029.304.148.668.551.707ZM157.584 98.03l5.662-10.556c.354-.649-.639-1.238-.993-.58l-5.661 10.556c-.354.65.639 1.229.992.58ZM149.475 86.884a117.935 117.935 0 0 1 3.696-5.356c1.75-2.399 3.843-5.75 6.586-7.136.658-.334.078-1.327-.58-.993-2.654 1.347-4.6 4.344-6.33 6.654a114.44 114.44 0 0 0-4.365 6.251c-.403.63.6 1.2.993.58ZM123.142 62.99c-2.929 6.3-4.698 13.23-5.475 20.13-.078.737 1.072.727 1.15 0 .757-6.684 2.487-13.456 5.318-19.55.315-.658-.678-1.248-.993-.58ZM127.497 77.242c1.621-2.25 3.42-4.354 5.327-6.369.511-.54-.305-1.356-.816-.816-1.976 2.084-3.833 4.276-5.504 6.605-.433.6.56 1.18.993.58ZM138.486 80.918c1.062-2.683 3.411-5.15 5.259-7.293 1.592-1.838 4.492-5.848 7.165-6.035.738-.049.738-1.199 0-1.15-2.988.207-5.77 3.873-7.568 5.898-2.133 2.418-4.768 5.219-5.967 8.266-.275.698.836.992 1.111.314Z"/><path fill="#322A15" d="M144.03 45.16c-.03.05-.079.109-.109.158-1.975 2.998-6.9 7.195-10.517 3.912-.55-.501-1.366.314-.816.816 4.109 3.725 9.623-.266 12.13-3.863.108-.148.206-.295.304-.442.393-.63-.599-1.2-.992-.58Z"/><path fill="#00B8E5" d="M105.754 158.655c7.421-3.794 15.353-8.089 22.342-11.962.108-.422.551-.59.895-.491a1095.693 1095.693 0 0 0 19.432-11.048c-2.034-.55-4.128-1.514-6.251-2.801-10.567-6.428-21.664-21.181-27.699-36.053a38.27 38.27 0 0 1-.403-1.002c-.531.246-1.072.501-1.612.747.167.285.137.658-.246.835-11.088 5.2-21.684 11.264-32.014 17.83-.364.226-.708.059-.875-.226a444.837 444.837 0 0 0-10.34 6.811 536.599 536.599 0 0 0-6.773 4.679c-11.098 10.409-15.383 27.167-9.77 37.173.068.118.127.245.196.363l.03.059c4.344 7.234 14.095 10.694 30.49 5.131.826-.226 1.76-.531 2.792-.904.167-.059.324-.118.491-.177a75.614 75.614 0 0 0 2.025-.786c4.728-1.947 10.812-4.866 17.29-8.178Z"/><path fill="#072EEC" d="M111.534 95.72c-11.088 5.2-21.684 11.264-32.015 17.83-.364.226-.373.629-.206.924.167.285.51.452.875.226 10.33-6.556 20.926-12.63 32.014-17.83.383-.176.413-.55.246-.835-.167-.295-.531-.491-.914-.314Z"/><path fill="#C9D63E" d="M145.907 33.75c.364-.59.668-1.2.924-1.81.167-.658.383-1.316.649-1.975.373-1.592.413-3.184.049-4.64-.413-1.64-1.288-2.938-2.467-3.714-.069-.04-.128-.089-.197-.128-1.366-.796-3.185-.934-5.131-.384-3.067.875-5.966 3.273-7.559 6.281-2.909 5.475-2.388 10.851 1.239 12.778.806.422 1.877.806 3.145.806 1.367 0 2.959-.452 4.689-1.75 1.464-1.12 3.037-2.85 4.659-5.465Zm-8.67 5.798c-1.071.148-2.133-.049-3.174-.61-2.88-1.532-3.165-6.22-.669-10.919 1.425-2.683 4.001-4.836 6.723-5.602a6.929 6.929 0 0 1 1.544-.256c.118-.01.236-.03.344-.03.825 0 1.563.177 2.162.531.963.56 1.681 1.622 2.025 2.988.57 2.26.039 4.944-1.455 7.362-2.467 4.01-5.013 6.202-7.5 6.536Z"/><path fill="#C9D63E" d="M161.87 29.965c.266-.01.541-.02.806-.04.384-3.538-1.032-6.742-3.303-8.128-1.071-.648-2.368-.796-3.754-.412-2.684.737-5.505 3.361-7.363 6.85-.304.57-.55 1.15-.786 1.73a17.261 17.261 0 0 0-.649 1.976c-.56 2.221-.58 4.364.02 6.054.511 1.455 1.445 2.507 2.713 3.057.659.285 1.514.521 2.516.521 2.408 0 5.642-1.405 9.014-6.969a11.71 11.71 0 0 0 1.366-3.331c-.187.01-.383.02-.57.02-.865.029-.855-1.298-.01-1.328Zm-1.966 3.922c-4.217 6.978-7.952 6.684-9.8 5.897-.914-.393-1.572-1.15-1.956-2.24-.806-2.281-.295-5.593 1.337-8.65 1.661-3.116 4.217-5.534 6.507-6.173a4.216 4.216 0 0 1 1.121-.157c.57 0 1.091.138 1.553.423 2.339 1.415 4.128 6.113 1.238 10.9Z"/><path fill="#C9D63E" d="M173.498 29.464h-.01l-10.812.472c-.265.01-.541.02-.806.04-.855.038-.855 1.365 0 1.326.187-.01.383-.02.57-.02 3.686-.157 7.362-.314 11.048-.481.433-.02.649-.374.639-.708-.01-.334-.216-.639-.629-.629Z"/><path fill="#C6D7E3" d="M321.489 108.38c4.158 2.094 29.508.236 29.695-6.172 3.312 6.988 18.214 3.4 23.944-1.524 6.959-5.986 3.155-15.52-12.758-8.797 8.178-11.126-11.481-10.28-19.069.796.373-3.056-5.043-5.415-4.807-2.477-8.158-7.361-28.967 5.554-8.522 8.915-10.331 3.205-12.267 7.362-8.483 9.259ZM61.817 60.327c5.946 8.187 16.621 6.35 22.371 1.553 4.935-4.129 3.873-11.294-3.175-9.928 3.745-4.226 6.34-9.917 5.387-12.944-1.514-4.797-28.043-3.971-43.318 11.126 4.718-13.17-5.573-18.095-19.01 1.789-2.418-17.918-17.614-7.588-16.258 2.35C5.111 51.145-.364 56.11.747 61.446c1.455 6.95 12.63 12.257 35.582.54-6.91 11.147 13.722 17.27 25.488-1.66Z"/><path fill="#322A15" d="M127.231 181.704c.256-11.628 1.013-23.236 2.143-34.814 0-.03.01-.069.01-.099.029-.334-.158-.53-.403-.599-.344-.098-.787.069-.895.491-.01.04-.029.069-.029.108a490.783 490.783 0 0 0-1.75 24.022 402.775 402.775 0 0 0-.403 10.891c-.01.334.197.54.452.609.384.108.865-.088.875-.609ZM126.523 197.607c-.305.029-.57.236-.56.629.57 18.587 2.506 37.143 7.677 55.062.118.412.501.53.815.442.315-.089.58-.383.462-.786-4.718-16.375-6.733-33.281-7.46-50.256-.059-1.484-.118-2.968-.167-4.442-.02-.482-.413-.688-.767-.649Z"/><path fill="#072EEC" d="m191.348 167.786-5.809 13.357v19.57l4.286 1.189c-.383-1.72.02-3.548.934-5.445.216-.442.098-.973-.246-1.317l-1.209-1.199a.824.824 0 0 1-.256-.875c.276-.914.698-1.985 1.2-2.782.324-.511.54-1.081.56-1.69l.55-20.602v-.137l-.01-.069Z"/></svg>