<svg width="248" height="185" viewBox="0 0 248 185" fill="none" xmlns="http://www.w3.org/2000/svg">
<path d="M247.798 162.281H0V162.405H247.798V162.281Z" fill="#EBEBEB"/>
<path d="M222.969 170.258H215.584V170.382H222.969V170.258Z" fill="#EBEBEB"/>
<path d="M164.152 171.603H159.844V171.727H164.152V171.603Z" fill="#EBEBEB"/>
<path d="M213.492 165.656H196.547V165.78H213.492V165.656Z" fill="#EBEBEB"/>
<path d="M54.3318 168.213H32.9258V168.337H54.3318V168.213Z" fill="#EBEBEB"/>
<path d="M66.4641 168.213H58.7441V168.337H66.4641V168.213Z" fill="#EBEBEB"/>
<path d="M126.255 166.55H79.8301V166.674H126.255V166.55Z" fill="#EBEBEB"/>
<path d="M117.463 140.178H21.7626C21.0125 140.177 20.2934 139.879 19.7631 139.349C19.2327 138.818 18.9344 138.099 18.9336 137.349V2.828C18.9347 2.07812 19.2331 1.35927 19.7634 0.829121C20.2938 0.298968 21.0127 0.000793618 21.7626 0H117.463C118.212 0.00105816 118.931 0.299348 119.461 0.829472C119.991 1.3596 120.29 2.07829 120.291 2.828V137.347C120.29 138.097 119.992 138.817 119.462 139.347C118.932 139.878 118.213 140.177 117.463 140.178ZM21.7636 0.124001C21.0482 0.126111 20.3626 0.411253 19.8567 0.917145C19.3508 1.42304 19.0657 2.10857 19.0636 2.824V137.347C19.0657 138.062 19.3508 138.748 19.8567 139.254C20.3626 139.76 21.0482 140.045 21.7636 140.047H117.464C118.179 140.045 118.865 139.76 119.37 139.254C119.876 138.748 120.161 138.062 120.164 137.347V2.828C120.161 2.11256 119.876 1.42703 119.37 0.921143C118.865 0.415251 118.179 0.130113 117.464 0.128002L21.7636 0.124001Z" fill="#EBEBEB"/>
<path d="M224.659 140.178H128.959C128.209 140.177 127.49 139.879 126.96 139.348C126.43 138.818 126.132 138.099 126.131 137.349V2.828C126.132 2.07821 126.43 1.35936 126.96 0.829182C127.49 0.299001 128.209 0.000794128 128.959 0H224.659C225.409 0.000793618 226.128 0.298968 226.658 0.829121C227.188 1.35927 227.487 2.07812 227.488 2.828V137.347C227.488 138.097 227.19 138.817 226.659 139.348C226.129 139.879 225.409 140.177 224.659 140.178ZM128.959 0.124001C128.243 0.126111 127.558 0.411253 127.052 0.917145C126.546 1.42304 126.261 2.10857 126.259 2.824V137.347C126.261 138.062 126.546 138.748 127.052 139.254C127.558 139.76 128.243 140.045 128.959 140.047H224.659C225.375 140.046 226.062 139.762 226.569 139.256C227.076 138.75 227.362 138.063 227.364 137.347V2.828C227.362 2.1117 227.076 1.42542 226.569 0.919384C226.062 0.41335 225.375 0.128793 224.659 0.128002L128.959 0.124001Z" fill="#EBEBEB"/>
<path d="M106.292 162.28H115.521L115.521 98.908H106.292V162.28Z" fill="#E6E6E6"/>
<path d="M109.542 162.28H106.293V150.24H112.948L109.542 162.28Z" fill="#F0F0F0"/>
<path d="M203.886 162.28H213.115V98.908H203.886V162.28Z" fill="#E6E6E6"/>
<path d="M106.294 158.993H206.723V98.908L106.294 98.908L106.294 158.993Z" fill="#F0F0F0"/>
<path d="M203.476 162.28H206.725V150.24H200.066L203.476 162.28Z" fill="#F0F0F0"/>
<path d="M173.611 103.883V153.587H203.382V103.883H173.611Z" fill="#E6E6E6"/>
<path d="M185.552 105.631H191.442C193.935 105.656 196.347 104.75 198.206 103.089H178.789C180.648 104.75 183.06 105.656 185.552 105.631Z" fill="#F0F0F0"/>
<path d="M141.621 103.883V153.587H171.392V103.883H141.621Z" fill="#E6E6E6"/>
<path d="M153.262 105.631H159.152C161.644 105.656 164.056 104.75 165.915 103.089H146.498C148.357 104.75 150.769 105.656 153.262 105.631Z" fill="#F0F0F0"/>
<path d="M109.633 103.883V153.587H139.404V103.883H109.633Z" fill="#E6E6E6"/>
<path d="M121.274 105.631H127.164C129.656 105.656 132.069 104.75 133.928 103.089H114.51C116.369 104.75 118.781 105.656 121.274 105.631Z" fill="#F0F0F0"/>
<path d="M34.6823 162.28H97.6523L97.6523 20.728H34.6823L34.6823 162.28Z" fill="#F0F0F0"/>
<path d="M34.6813 162.28H96.3223L96.3223 20.728H34.6813L34.6813 162.28Z" fill="#F5F5F5"/>
<path d="M92.5664 159.068L92.5664 23.94L38.4374 23.94L38.4374 159.068H92.5664Z" fill="#F0F0F0"/>
<path d="M87.2478 49.071C87.2478 47.1331 86.8661 45.2141 86.1245 43.4237C85.3829 41.6333 84.2959 40.0065 82.9256 38.6362C81.5553 37.2659 79.9285 36.1789 78.1381 35.4373C76.3477 34.6957 74.4287 34.314 72.4908 34.314H58.5148C54.601 34.314 50.8475 35.8687 48.08 38.6362C45.3126 41.4037 43.7578 45.1572 43.7578 49.071H87.2478Z" fill="#FAFAFA"/>
<path d="M87.248 150.669V118.387H43.758V150.669H87.248Z" fill="#F5F5F5"/>
<path d="M87.2475 58.173H68.0645V114.222H87.2475V58.173Z" fill="#F5F5F5"/>
<path d="M62.9408 58.173H43.7578V114.222H62.9408V58.173Z" fill="#F5F5F5"/>
<path d="M50.7147 85.945H42.8577C42.5346 85.9442 42.225 85.8155 41.9966 85.5871C41.7682 85.3586 41.6395 85.049 41.6387 84.726C41.6397 84.403 41.7685 84.0936 41.9969 83.8652C42.2253 83.6368 42.5347 83.508 42.8577 83.507H50.7147C51.0377 83.508 51.3471 83.6368 51.5755 83.8652C51.8038 84.0936 51.9326 84.403 51.9337 84.726C51.9329 85.049 51.8042 85.3586 51.5758 85.5871C51.3473 85.8155 51.0377 85.9442 50.7147 85.945Z" fill="#E0E0E0"/>
<path d="M39.4121 159.068L39.4121 23.94H38.4381L38.4381 159.068H39.4121Z" fill="#F0F0F0"/>
<path d="M137.481 83.372L204.26 83.372V20.728L137.481 20.728V83.372Z" fill="#E6E6E6"/>
<path d="M135.797 83.372L202.576 83.372V20.728L135.797 20.728V83.372Z" fill="#F5F5F5"/>
<path d="M131.899 86.998L204.26 86.998V83.372L131.899 83.372V86.998Z" fill="#E6E6E6"/>
<path d="M130.005 86.998L198.639 86.998V83.372L130.005 83.372V86.998Z" fill="#F5F5F5"/>
<path d="M199.555 80.114V23.987L138.819 23.987V80.114H199.555Z" fill="white"/>
<path d="M170.869 80.114V23.987H167.502V80.114H170.869Z" fill="#F5F5F5"/>
<path d="M140.092 80.114V23.987H138.819V80.114H140.092Z" fill="#E6E6E6"/>
<path d="M172.143 80.114V23.987H170.87V80.114H172.143Z" fill="#E6E6E6"/>
<path d="M146.459 85.033C145.231 72.308 144.376 51.659 145.04 44.753C145.052 44.6343 145.088 44.5194 145.148 44.416C145.207 44.3126 145.287 44.2229 145.384 44.153C145.512 44.059 145.665 44.003 145.823 43.9914C145.982 43.9797 146.141 44.0129 146.282 44.0871C146.422 44.1614 146.539 44.2736 146.619 44.4112C146.699 44.5487 146.739 44.706 146.734 44.865C146.617 48.287 146.482 56.84 147.211 71.595C147.574 78.94 148.097 83.97 147.738 85.031L146.459 85.033Z" fill="#E6E6E6"/>
<path d="M141.881 55.704C138.381 51.821 131.242 49.06 123.964 49.074C121.107 49.08 132.657 53.591 137.464 58.574C141.305 62.712 144.467 67.4321 146.833 72.559C145.905 64.954 145.378 59.585 141.881 55.704Z" fill="#E6E6E6"/>
<path d="M148.813 56.886C151.713 52.842 158.42 49.732 165.673 49.38C168.52 49.242 157.687 54.317 153.644 59.519C150.419 63.8669 147.968 68.7382 146.397 73.919C146.185 66.306 145.909 60.931 148.813 56.886Z" fill="#E6E6E6"/>
<path d="M141.725 41.522C138.764 38.234 132.716 35.896 126.553 35.908C124.134 35.908 133.914 39.734 137.981 43.949C141.234 47.4528 143.912 51.4497 145.915 55.791C145.133 49.357 144.684 44.81 141.725 41.522Z" fill="#E6E6E6"/>
<path d="M147.594 46.385C150.053 42.96 155.73 40.327 161.871 40.029C164.282 39.912 155.109 44.209 151.685 48.614C148.953 52.2975 146.877 56.4247 145.548 60.814C145.37 54.362 145.135 49.808 147.594 46.385Z" fill="#E6E6E6"/>
<path d="M146.953 98.908C145.107 98.908 143.332 98.2022 141.99 96.9353C140.648 95.6684 139.842 93.9364 139.736 92.094L139.098 81.031H154.808L154.17 92.094C154.064 93.9364 153.257 95.6684 151.915 96.9353C150.574 98.2022 148.798 98.908 146.953 98.908Z" fill="#E6E6E6"/>
<path d="M155.825 83.546H138.084L137.576 78.946H156.337L155.825 83.546Z" fill="#E6E6E6"/>
<path d="M123.9 184.664C176.969 184.664 219.991 182.151 219.991 179.052C219.991 175.953 176.969 173.44 123.9 173.44C70.83 173.44 27.8086 175.953 27.8086 179.052C27.8086 182.151 70.83 184.664 123.9 184.664Z" fill="#F5F5F5"/>
<path d="M125.838 173.689L121.7 174.155L120.174 164.771L124.312 164.305L125.838 173.689Z" fill="#FFC3BD"/>
<path d="M144.364 174.593H140.232L139.203 165.024H143.335L144.364 174.593Z" fill="#FFC3BD"/>
<path d="M139.892 174.112H144.929C145.011 174.112 145.091 174.14 145.155 174.191C145.219 174.242 145.263 174.314 145.281 174.394L146.097 178.067C146.116 178.156 146.115 178.249 146.093 178.338C146.072 178.427 146.03 178.51 145.972 178.58C145.914 178.651 145.84 178.708 145.757 178.746C145.674 178.784 145.584 178.804 145.492 178.802C143.871 178.774 142.692 178.679 140.648 178.679C139.392 178.679 135.604 178.809 133.87 178.809C132.17 178.809 131.909 177.094 132.619 176.939C135.803 176.239 138.202 175.282 139.219 174.366C139.404 174.201 139.644 174.11 139.892 174.112Z" fill="#263238"/>
<path d="M121.632 173.446L126.116 172.938C126.198 172.928 126.28 172.947 126.35 172.991C126.419 173.034 126.471 173.1 126.498 173.178L127.723 176.735C127.754 176.821 127.765 176.913 127.755 177.004C127.745 177.095 127.714 177.182 127.665 177.259C127.616 177.336 127.55 177.401 127.472 177.449C127.394 177.497 127.306 177.526 127.215 177.535C125.595 177.691 123.247 177.861 121.215 178.092C118.838 178.362 118.442 178.998 115.638 178.933C113.938 178.893 113.512 177.168 114.225 177.033C117.473 176.402 118.101 175.911 120.682 173.885C120.952 173.653 121.281 173.501 121.632 173.446Z" fill="#263238"/>
<path d="M125.281 53.177C123.893 54.323 122.527 55.319 121.114 56.339C119.701 57.359 118.258 58.306 116.773 59.225C115.288 60.144 113.764 61.025 112.166 61.825C110.533 62.6713 108.832 63.3811 107.081 63.947C106.618 64.095 106.167 64.217 105.647 64.347C105.139 64.4572 104.625 64.5397 104.107 64.594C103.176 64.694 102.3 64.739 101.427 64.779C99.6871 64.859 97.9801 64.857 96.2751 64.845C92.8651 64.804 89.4841 64.64 86.0881 64.34L86.0371 61.24C89.3721 60.811 92.7221 60.44 96.0371 60.067C97.6941 59.887 99.3471 59.685 100.962 59.474C101.762 59.365 102.562 59.237 103.3 59.1C103.617 59.044 103.931 58.9702 104.24 58.879C104.531 58.779 104.888 58.665 105.218 58.532C106.635 57.9566 108.011 57.2836 109.335 56.518C110.706 55.731 112.078 54.886 113.426 53.988C114.774 53.09 116.116 52.16 117.446 51.211C118.776 50.262 120.105 49.257 121.353 48.311L125.281 53.177Z" fill="#FFC3BD"/>
<path d="M129.322 49.645C128.728 53.551 120.504 59.526 120.504 59.526L114.604 52.203C117.188 49.4447 119.929 46.8368 122.812 44.392C125.467 42.222 129.968 45.395 129.322 49.645Z" fill="#FF5050"/>
<path d="M87.1753 61.567L84.8293 59.897L84.5723 65.173C84.9269 65.1739 85.2763 65.088 85.5901 64.9227C85.9039 64.7575 86.1724 64.5179 86.3723 64.225L87.1753 61.567Z" fill="#FFC3BD"/>
<path d="M82.7105 58.361L82.2305 63.532L84.5745 65.173L84.8315 59.897L82.7105 58.361Z" fill="#FFC3BD"/>
<path opacity="0.2" d="M120.176 164.774L120.962 169.611L125.101 169.145L124.315 164.308L120.176 164.774Z" fill="black"/>
<path opacity="0.2" d="M143.337 165.025H139.203L139.735 169.957H143.869L143.337 165.025Z" fill="black"/>
<path d="M143.396 44.517C143.704 44.586 143.995 44.7159 144.252 44.899C144.508 45.0821 144.726 45.3147 144.892 45.5831C145.057 45.8516 145.167 46.1504 145.216 46.4621C145.264 46.7738 145.25 47.092 145.173 47.398C144.277 51.1195 143.601 54.8907 143.149 58.692C142.758 61.892 142.524 64.949 142.378 67.72C142.035 74.215 142.178 79.166 141.984 80.844C138.753 80.62 126.577 79.773 119.938 79.309C117.697 61.765 120.323 50.569 121.798 46.02C122.024 45.3112 122.447 44.6811 123.017 44.2031C123.587 43.7251 124.281 43.4188 125.018 43.32C125.864 43.209 126.876 43.102 127.944 43.039C128.318 43.015 128.697 43.002 129.083 42.994C132.217 43.0311 135.347 43.2488 138.456 43.646C139.046 43.716 139.642 43.803 140.222 43.896C141.381 44.09 142.483 44.313 143.396 44.517Z" fill="#B51717"/>
<path d="M138.264 33.033C137.464 36.007 136.486 41.491 138.456 43.651C133.346 47.088 130.084 51.927 129.143 50.876C128.65 50.326 128.436 43.961 129.084 42.997C132.503 42.429 132.59 39.928 132.168 37.544L138.264 33.033Z" fill="#FFC3BD"/>
<path d="M138.06 42.418C138.06 42.418 129.733 46.103 128.629 54.343C130.923 51.687 135.99 48.797 135.99 48.797L133.755 48.155C135.176 47.6156 136.648 47.2196 138.148 46.973C137.9 45.835 139.222 43.565 139.222 43.565L138.06 42.418Z" fill="#FF5050"/>
<path d="M130.549 42.285C130.549 42.285 131.659 46.991 128.632 54.343C128.035 51.7769 127.216 49.2675 126.186 46.843L128.225 47.398C128.225 47.398 128.125 46.449 126.474 45.187C127.162 44.1877 128.02 43.3168 129.009 42.614L130.549 42.285Z" fill="#FF5050"/>
<path opacity="0.2" d="M135.78 34.874L132.172 37.542C132.279 38.0972 132.337 38.6607 132.345 39.226C133.645 39.126 135.505 37.843 135.736 36.508C135.849 35.9705 135.864 35.4168 135.78 34.874Z" fill="black"/>
<path d="M127.683 24.421C125.668 24.508 124.556 27.982 126.601 30.843C128.646 33.704 130.398 24.304 127.683 24.421Z" fill="#263238"/>
<path d="M137.621 27.478C137.86 31.572 138.208 33.955 136.406 36.288C133.696 39.797 128.456 38.539 126.999 34.599C125.688 31.053 125.517 24.954 129.299 22.859C130.131 22.3926 131.069 22.1467 132.022 22.1447C132.976 22.1426 133.915 22.3845 134.748 22.8474C135.582 23.3103 136.284 23.9787 136.787 24.7892C137.29 25.5997 137.577 26.5253 137.621 27.478Z" fill="#FFC3BD"/>
<path d="M138.223 30.624C137.128 29.9822 136.172 29.1291 135.41 28.1143C134.648 27.0995 134.096 25.9433 133.786 24.713C132.586 24.997 126.605 27.749 124.766 24.713C122.927 21.677 125.241 19.896 128.682 21.765C127.16 19.079 128.544 17.765 133.326 17.649C138.108 17.533 137.465 20.305 137.465 20.305C137.465 20.305 141.085 18.729 142.365 21.505C143.848 24.695 141.112 30.142 138.223 30.624Z" fill="#263238"/>
<path d="M136.646 19.572C136.69 19.572 138.457 19.997 140.493 17.948C140.128 19.696 136.966 20.86 136.966 20.86L136.646 19.572Z" fill="#263238"/>
<path d="M139.022 25.561C137.115 24.902 134.806 27.727 135.659 31.138C136.512 34.549 141.591 26.449 139.022 25.561Z" fill="#263238"/>
<path d="M140.101 30.883C139.926 31.8997 139.356 32.8058 138.515 33.403C137.394 34.185 136.384 33.291 136.315 31.997C136.257 30.833 136.769 29.023 138.076 28.756C138.363 28.7024 138.658 28.7213 138.936 28.8111C139.214 28.9008 139.465 29.0585 139.666 29.2698C139.867 29.4812 140.012 29.7394 140.088 30.0212C140.164 30.3029 140.169 30.5992 140.101 30.883Z" fill="#FFC3BD"/>
<path d="M126.151 125.863C127.144 113.777 134.428 80.32 134.428 80.32L119.934 79.309C119.934 79.309 114.345 112.52 113.917 125.124C113.471 138.229 118.742 167.355 118.742 167.355L125.693 166.564C125.693 166.564 125.154 137.999 126.151 125.863Z" fill="#FF5050"/>
<path opacity="0.5" d="M126.151 125.863C127.144 113.777 134.428 80.32 134.428 80.32L119.934 79.309C119.934 79.309 114.345 112.52 113.917 125.124C113.471 138.229 118.742 167.355 118.742 167.355L125.693 166.564C125.693 166.564 125.154 137.999 126.151 125.863Z" fill="white"/>
<path opacity="0.2" d="M128.969 91.65C126.047 95.386 125.995 108.507 127.125 118.201C128.202 111.208 129.899 102.327 131.386 94.924L128.969 91.65Z" fill="black"/>
<path d="M127.756 79.854C127.756 79.854 129.32 115.229 131.065 127.209C132.975 140.328 137.826 169.001 137.826 169.001H145.394C145.394 169.001 144.149 141.995 143.15 129.106C142.013 114.425 141.982 80.846 141.982 80.846L127.756 79.854Z" fill="#FF5050"/>
<path opacity="0.5" d="M127.756 79.854C127.756 79.854 129.32 115.229 131.065 127.209C132.975 140.328 137.826 169.001 137.826 169.001H145.394C145.394 169.001 144.149 141.995 143.15 129.106C142.013 114.425 141.982 80.846 141.982 80.846L127.756 79.854Z" fill="white"/>
<path d="M136.915 169.162H145.826V166.5L135.865 166.327L136.915 169.162Z" fill="#FF5050"/>
<path d="M118.439 168.138L126.723 167.199L126.423 164.522L117.146 165.431L118.439 168.138Z" fill="#FF5050"/>
<path d="M131.592 29.355C131.632 29.686 131.492 29.975 131.272 30.001C131.052 30.027 130.848 29.78 130.809 29.449C130.77 29.118 130.909 28.829 131.129 28.803C131.349 28.777 131.553 29.024 131.592 29.355Z" fill="#263238"/>
<path d="M127.853 29.804C127.893 30.135 127.753 30.424 127.533 30.45C127.313 30.476 127.109 30.229 127.069 29.898C127.029 29.567 127.169 29.278 127.389 29.252C127.609 29.226 127.813 29.477 127.853 29.804Z" fill="#263238"/>
<path d="M129.062 29.826C128.789 30.8847 128.372 31.9009 127.822 32.846C128.068 32.9804 128.339 33.0596 128.618 33.0781C128.898 33.0966 129.177 33.0539 129.438 32.953L129.062 29.826Z" fill="#ED847E"/>
<path d="M132.609 28.006C132.575 28.0165 132.538 28.0173 132.502 28.0083C132.467 27.9993 132.435 27.9809 132.409 27.955C132.244 27.7731 132.038 27.633 131.808 27.5461C131.578 27.4592 131.331 27.428 131.086 27.455C131.036 27.4636 130.983 27.4521 130.941 27.4231C130.898 27.394 130.868 27.3495 130.857 27.299C130.852 27.2737 130.852 27.2476 130.857 27.2222C130.862 27.1969 130.872 27.1728 130.887 27.1515C130.902 27.1301 130.92 27.1119 130.942 27.0979C130.964 27.0839 130.988 27.0744 131.013 27.07C131.322 27.03 131.635 27.0648 131.928 27.1713C132.22 27.2778 132.482 27.4529 132.692 27.682C132.728 27.7192 132.748 27.7689 132.748 27.8205C132.748 27.8721 132.728 27.9217 132.692 27.959C132.669 27.9813 132.641 27.9975 132.609 28.006Z" fill="#263238"/>
<path d="M131.174 34.273C131.646 34.1737 132.087 33.9623 132.46 33.6567C132.833 33.3511 133.127 32.9601 133.317 32.517C133.326 32.4905 133.324 32.4613 133.312 32.436C133.3 32.4107 133.278 32.3913 133.252 32.382C133.225 32.3727 133.196 32.3743 133.171 32.3865C133.145 32.3987 133.126 32.4205 133.117 32.447C132.935 32.8546 132.659 33.2138 132.313 33.4955C131.967 33.7773 131.559 33.9737 131.123 34.069C131.109 34.0721 131.096 34.0778 131.085 34.0858C131.074 34.0938 131.064 34.1039 131.057 34.1156C131.05 34.1273 131.045 34.1403 131.042 34.154C131.04 34.1676 131.041 34.1815 131.044 34.195C131.047 34.2084 131.052 34.2212 131.06 34.2324C131.068 34.2437 131.079 34.2532 131.09 34.2606C131.102 34.2679 131.115 34.2729 131.129 34.2752C131.142 34.2775 131.156 34.2771 131.17 34.274L131.174 34.273Z" fill="#263238"/>
<path d="M126.095 28.71C126.056 28.7231 126.014 28.7231 125.974 28.71C125.926 28.6921 125.886 28.6562 125.864 28.6098C125.841 28.5634 125.838 28.5101 125.853 28.461C125.947 28.1644 126.111 27.8948 126.331 27.6751C126.552 27.4554 126.822 27.292 127.118 27.199C127.169 27.1876 127.221 27.1961 127.265 27.2225C127.31 27.249 127.342 27.2914 127.355 27.341C127.367 27.3911 127.359 27.4436 127.332 27.4877C127.306 27.5318 127.264 27.5641 127.214 27.578C126.981 27.6558 126.769 27.788 126.597 27.9636C126.425 28.1392 126.297 28.3532 126.223 28.588C126.213 28.6168 126.196 28.6428 126.174 28.6639C126.151 28.6851 126.125 28.7008 126.095 28.71Z" fill="#263238"/>
<path d="M138.532 174.834C138.249 174.856 137.967 174.782 137.732 174.623C137.658 174.56 137.602 174.48 137.567 174.389C137.532 174.299 137.52 174.202 137.532 174.106C137.531 174.049 137.547 173.993 137.577 173.944C137.606 173.895 137.649 173.855 137.7 173.829C138.159 173.593 139.49 174.413 139.64 174.507C139.656 174.517 139.669 174.532 139.677 174.55C139.685 174.568 139.688 174.588 139.685 174.607C139.681 174.626 139.673 174.644 139.66 174.658C139.646 174.672 139.629 174.682 139.611 174.687C139.258 174.776 138.896 174.825 138.532 174.834ZM137.918 173.979C137.874 173.977 137.831 173.985 137.791 174.003C137.77 174.014 137.754 174.031 137.743 174.051C137.732 174.072 137.727 174.095 137.729 174.118C137.72 174.184 137.727 174.25 137.75 174.312C137.774 174.374 137.812 174.429 137.862 174.473C138.323 174.684 138.848 174.71 139.329 174.547C138.898 174.268 138.417 174.075 137.913 173.979H137.918Z" fill="#407BFF"/>
<path d="M139.584 174.689C139.567 174.689 139.551 174.685 139.537 174.677C139.11 174.445 138.283 173.539 138.37 173.077C138.384 173.005 138.423 172.94 138.479 172.893C138.536 172.846 138.607 172.82 138.681 172.82C138.755 172.811 138.831 172.817 138.902 172.839C138.974 172.861 139.041 172.897 139.098 172.946C139.578 173.339 139.677 174.531 139.68 174.581C139.681 174.599 139.677 174.616 139.67 174.632C139.662 174.648 139.65 174.661 139.636 174.671C139.62 174.682 139.602 174.688 139.584 174.689ZM138.75 173.014H138.705C138.578 173.03 138.567 173.088 138.562 173.114C138.51 173.386 139.037 174.07 139.462 174.393C139.434 173.92 139.263 173.467 138.974 173.093C138.911 173.041 138.831 173.013 138.75 173.014Z" fill="#407BFF"/>
<path d="M121.295 174.057L121.279 174.064C120.632 174.271 119.474 174.564 118.979 174.218C118.906 174.167 118.846 174.1 118.805 174.021C118.764 173.942 118.743 173.855 118.743 173.766C118.739 173.712 118.749 173.659 118.772 173.61C118.795 173.562 118.83 173.52 118.874 173.489C119.339 173.162 121.086 173.805 121.284 173.88C121.301 173.887 121.316 173.899 121.326 173.914C121.337 173.929 121.343 173.947 121.344 173.966C121.345 173.984 121.341 174.002 121.333 174.019C121.324 174.035 121.311 174.049 121.295 174.058V174.057ZM119.012 173.633L118.989 173.647C118.971 173.659 118.957 173.676 118.948 173.695C118.939 173.715 118.936 173.737 118.939 173.758C118.938 173.817 118.951 173.875 118.977 173.927C119.004 173.979 119.043 174.024 119.091 174.058C119.699 174.248 120.355 174.212 120.939 173.958C120.334 173.689 119.671 173.578 119.011 173.633H119.012Z" fill="#407BFF"/>
<path d="M121.295 174.057C121.271 174.069 121.244 174.071 121.219 174.063C120.699 173.897 119.619 173.12 119.639 172.648C119.644 172.537 119.707 172.392 119.971 172.335C120.066 172.314 120.165 172.312 120.261 172.33C120.357 172.349 120.448 172.386 120.529 172.441C120.953 172.846 121.238 173.374 121.345 173.951C121.348 173.968 121.347 173.985 121.342 174.001C121.337 174.018 121.327 174.032 121.315 174.044C121.309 174.049 121.302 174.053 121.295 174.057ZM119.904 172.567C119.837 172.603 119.835 172.645 119.834 172.661C119.82 172.945 120.566 173.567 121.107 173.813C121.007 173.352 120.768 172.933 120.422 172.613C120.363 172.572 120.296 172.544 120.225 172.53C120.155 172.517 120.082 172.518 120.012 172.534C119.975 172.54 119.938 172.551 119.904 172.567Z" fill="#407BFF"/>
<path d="M146.882 50.477C146.777 52.091 146.587 53.594 146.39 55.146C146.193 56.698 145.928 58.219 145.637 59.754C145.061 62.8892 144.211 65.9677 143.096 68.954L142.605 70.111L142.481 70.4L142.45 70.472L142.399 70.582L142.255 70.867C142.065 71.2133 141.836 71.5373 141.574 71.833C141.143 72.3181 140.639 72.7331 140.08 73.063C139.628 73.3324 139.153 73.5629 138.661 73.752C137.023 74.3428 135.311 74.7003 133.573 74.814C130.419 75.0497 127.247 74.9313 124.119 74.461L124.232 71.361L126.418 71.114C127.151 71.027 127.88 70.914 128.605 70.814C130.052 70.601 131.484 70.363 132.849 70.046C134.112 69.789 135.339 69.3821 136.505 68.834C136.82 68.7019 137.095 68.4916 137.305 68.223C137.318 68.152 137.16 68.463 137.346 67.966L137.673 67.01C138.474 64.2693 139.087 61.4772 139.507 58.653C139.742 57.215 139.943 55.764 140.137 54.309C140.331 52.854 140.491 51.369 140.644 49.974L146.882 50.477Z" fill="#FFC3BD"/>
<path d="M147.243 47.481C149.266 50.874 147.543 61.538 147.543 61.538L136.943 59.579C136.943 59.579 136.369 53.479 138.387 48.785C140.578 43.676 144.792 43.37 147.243 47.481Z" fill="#FF5050"/>
<path d="M121.264 80.952L115.639 54.788C115.369 53.6707 114.743 52.6715 113.856 51.941C112.968 51.2104 111.867 50.7882 110.719 50.738H89.166C90.3145 50.788 91.4156 51.2101 92.3033 51.9407C93.1909 52.6712 93.817 53.6705 94.087 54.788L99.712 80.952C99.982 82.0693 100.608 83.0685 101.495 83.799C102.383 84.5295 103.484 84.9517 104.632 85.002H126.184C125.036 84.9517 123.935 84.5295 123.047 83.799C122.16 83.0685 121.534 82.0693 121.264 80.952Z" fill="#263238"/>
<path opacity="0.7" d="M121.264 80.952L115.639 54.788C115.369 53.6707 114.743 52.6715 113.856 51.941C112.968 51.2104 111.867 50.7882 110.719 50.738H89.166C90.3145 50.788 91.4156 51.2101 92.3033 51.9407C93.1909 52.6712 93.817 53.6705 94.087 54.788L99.712 80.952C99.982 82.0693 100.608 83.0685 101.495 83.799C102.383 84.5295 103.484 84.9517 104.632 85.002H126.184C125.036 84.9517 123.935 84.5295 123.047 83.799C122.16 83.0685 121.534 82.0693 121.264 80.952Z" fill="#B51717"/>
<path d="M89.1653 50.738H110.717C109.614 50.7586 108.556 51.1816 107.742 51.9274C106.929 52.6732 106.416 53.6905 106.299 54.788L100.708 115.588C100.592 116.685 100.079 117.703 99.265 118.448C98.4515 119.194 97.3937 119.617 96.2903 119.638H82.8383C82.3201 119.648 81.8059 119.546 81.33 119.341C80.8541 119.136 80.4276 118.831 80.079 118.448C79.7303 118.064 79.4677 117.611 79.3086 117.118C79.1494 116.624 79.0975 116.103 79.1563 115.588L84.7483 54.788C84.8646 53.6906 85.3776 52.6735 86.191 51.9277C87.0043 51.182 88.062 50.7589 89.1653 50.738Z" fill="#FF5050"/>
<path d="M92.6088 115.587C92.55 116.102 92.6019 116.623 92.7611 117.117C92.9202 117.61 93.1829 118.063 93.5315 118.447C93.8801 118.83 94.3066 119.135 94.7825 119.34C95.2584 119.545 95.7726 119.647 96.2908 119.637H74.7388C74.2206 119.647 73.7063 119.546 73.2303 119.34C72.7544 119.135 72.3278 118.831 71.9791 118.447C71.6304 118.064 71.3678 117.61 71.2087 117.117C71.0497 116.623 70.9979 116.102 71.0568 115.587H92.6088Z" fill="#263238"/>
<path opacity="0.7" d="M92.6088 115.587C92.55 116.102 92.6019 116.623 92.7611 117.117C92.9202 117.61 93.1829 118.063 93.5315 118.447C93.8801 118.83 94.3066 119.135 94.7825 119.34C95.2584 119.545 95.7726 119.647 96.2908 119.637H74.7388C74.2206 119.647 73.7063 119.546 73.2303 119.34C72.7544 119.135 72.3278 118.831 71.9791 118.447C71.6304 118.064 71.3678 117.61 71.2087 117.117C71.0497 116.623 70.9979 116.102 71.0568 115.587H92.6088Z" fill="#8A1F21"/>
<g opacity="0.5">
<path opacity="0.5" d="M102.565 57.55H87.9807C87.8681 57.5515 87.7564 57.5291 87.6531 57.4842C87.5499 57.4393 87.4573 57.3729 87.3817 57.2895C87.306 57.2061 87.2489 57.1075 87.2143 57.0003C87.1796 56.8932 87.1682 56.7799 87.1807 56.668C87.2066 56.4292 87.3185 56.2081 87.4955 56.0458C87.6725 55.8835 87.9026 55.7911 88.1427 55.786H102.725C102.837 55.7844 102.949 55.8068 103.052 55.8518C103.155 55.8967 103.248 55.963 103.324 56.0464C103.399 56.1299 103.456 56.2284 103.491 56.3356C103.526 56.4427 103.537 56.556 103.525 56.668C103.499 56.9064 103.387 57.1273 103.211 57.2895C103.034 57.4518 102.804 57.5443 102.565 57.55Z" fill="white"/>
<path opacity="0.5" d="M102.131 62.321H87.5471C87.4345 62.3225 87.3228 62.3001 87.2196 62.2552C87.1163 62.2102 87.0237 62.1439 86.9481 62.0605C86.8724 61.9771 86.8154 61.8785 86.7807 61.7713C86.7461 61.6642 86.7346 61.5509 86.7471 61.4389C86.773 61.2002 86.8849 60.979 87.062 60.8167C87.239 60.6544 87.469 60.5621 87.7091 60.557H102.293C102.406 60.5554 102.517 60.5778 102.621 60.6227C102.724 60.6677 102.816 60.734 102.892 60.8174C102.968 60.9009 103.025 60.9994 103.059 61.1066C103.094 61.2137 103.106 61.327 103.093 61.4389C103.067 61.6778 102.956 61.8991 102.778 62.0614C102.601 62.2238 102.371 62.316 102.131 62.321Z" fill="white"/>
<path opacity="0.5" d="M98.1205 67.0919H87.1115C86.9989 67.0935 86.8873 67.0711 86.784 67.0262C86.6807 66.9812 86.5882 66.9149 86.5125 66.8315C86.4369 66.748 86.3798 66.6495 86.3452 66.5423C86.3105 66.4352 86.299 66.3219 86.3115 66.2099C86.3375 65.9712 86.4494 65.75 86.6264 65.5877C86.8034 65.4254 87.0334 65.3331 87.2735 65.328H98.2825C98.3952 65.3264 98.5068 65.3488 98.6101 65.3937C98.7134 65.4386 98.8059 65.505 98.8816 65.5884C98.9572 65.6719 99.0143 65.7704 99.0489 65.8776C99.0836 65.9847 99.095 66.098 99.0825 66.2099C99.0566 66.4487 98.9447 66.6699 98.7677 66.8322C98.5907 66.9945 98.3606 67.0868 98.1205 67.0919Z" fill="white"/>
<path opacity="0.5" d="M90.4129 71.862H86.6799C86.5673 71.8635 86.4557 71.8411 86.3524 71.7962C86.2491 71.7513 86.1566 71.6849 86.0809 71.6015C86.0052 71.5181 85.9482 71.4195 85.9135 71.3124C85.8789 71.2052 85.8674 71.0919 85.8799 70.98C85.9056 70.7413 86.0173 70.5202 86.1942 70.3578C86.371 70.1955 86.6009 70.1032 86.8409 70.098H90.5749C90.6875 70.0964 90.7992 70.1189 90.9024 70.1638C91.0057 70.2087 91.0983 70.2751 91.1739 70.3585C91.2496 70.4419 91.3066 70.5404 91.3413 70.6476C91.3759 70.7548 91.3874 70.8681 91.3749 70.98C91.349 71.2187 91.2371 71.4399 91.06 71.6022C90.883 71.7645 90.653 71.8568 90.4129 71.862Z" fill="white"/>
<path opacity="0.5" d="M100.828 76.633H86.2404C86.1278 76.6345 86.0162 76.6121 85.9129 76.5672C85.8096 76.5223 85.7171 76.4559 85.6414 76.3725C85.5658 76.2891 85.5087 76.1905 85.4741 76.0834C85.4394 75.9762 85.428 75.8629 85.4404 75.751C85.4664 75.5122 85.5783 75.291 85.7553 75.1288C85.9323 74.9665 86.1623 74.8741 86.4025 74.869H100.986C101.099 74.8674 101.211 74.8899 101.314 74.9348C101.417 74.9797 101.51 75.046 101.585 75.1295C101.661 75.2129 101.718 75.3114 101.753 75.4186C101.787 75.5257 101.799 75.6391 101.786 75.751C101.761 75.9891 101.649 76.2097 101.473 76.3719C101.297 76.5341 101.068 76.6269 100.828 76.633Z" fill="white"/>
<path opacity="0.5" d="M94.6508 81.404H85.8107C85.6981 81.4055 85.5865 81.3831 85.4832 81.3382C85.3799 81.2933 85.2874 81.2269 85.2117 81.1435C85.1361 81.0601 85.079 80.9615 85.0444 80.8544C85.0097 80.7472 84.9983 80.6339 85.0108 80.522C85.0365 80.2833 85.1482 80.0622 85.325 79.8998C85.5019 79.7375 85.7318 79.6451 85.9718 79.64H94.8118C94.9244 79.6384 95.036 79.6609 95.1393 79.7058C95.2426 79.7507 95.3351 79.817 95.4108 79.9005C95.4864 79.9839 95.5435 80.0824 95.5781 80.1896C95.6128 80.2967 95.6243 80.41 95.6118 80.522C95.5859 80.7606 95.4741 80.9816 95.2973 81.1439C95.1205 81.3061 94.8907 81.3986 94.6508 81.404Z" fill="white"/>
<path opacity="0.5" d="M99.9612 86.1739H85.3772C85.2646 86.1755 85.1529 86.1531 85.0496 86.1082C84.9463 86.0633 84.8538 85.9969 84.7782 85.9135C84.7025 85.83 84.6454 85.7315 84.6108 85.6243C84.5761 85.5172 84.5647 85.4039 84.5772 85.292C84.6031 85.0532 84.715 84.832 84.892 84.6697C85.069 84.5074 85.2991 84.4151 85.5392 84.41H100.124C100.237 84.4084 100.348 84.4308 100.452 84.4758C100.555 84.5207 100.648 84.587 100.723 84.6704C100.799 84.7539 100.856 84.8524 100.891 84.9596C100.925 85.0667 100.937 85.18 100.924 85.292C100.898 85.5309 100.786 85.7522 100.609 85.9145C100.432 86.0768 100.201 86.169 99.9612 86.1739Z" fill="white"/>
<path opacity="0.5" d="M95.9526 90.945H84.9436C84.831 90.9465 84.7193 90.9241 84.616 90.8792C84.5128 90.8343 84.4202 90.7679 84.3446 90.6845C84.2689 90.6011 84.2118 90.5025 84.1772 90.3954C84.1425 90.2882 84.1311 90.1749 84.1436 90.063C84.1695 89.8242 84.2814 89.6031 84.4584 89.4408C84.6355 89.2785 84.8655 89.1861 85.1056 89.181H96.1146C96.2272 89.1794 96.3388 89.2019 96.4421 89.2468C96.5454 89.2917 96.6379 89.3581 96.7136 89.4415C96.7893 89.5249 96.8463 89.6234 96.881 89.7306C96.9156 89.8378 96.9271 89.9511 96.9146 90.063C96.8886 90.3017 96.7767 90.5229 96.5997 90.6852C96.4227 90.8475 96.1927 90.9398 95.9526 90.945Z" fill="white"/>
<path opacity="0.5" d="M88.244 95.7149H84.508C84.3954 95.7165 84.2838 95.6941 84.1805 95.6492C84.0772 95.6042 83.9847 95.5379 83.909 95.4545C83.8334 95.371 83.7763 95.2725 83.7417 95.1653C83.707 95.0582 83.6955 94.9449 83.708 94.8329C83.734 94.5942 83.8459 94.373 84.0229 94.2107C84.1999 94.0484 84.4299 93.9561 84.67 93.9509H88.408C88.5206 93.9494 88.6323 93.9718 88.7356 94.0167C88.8388 94.0616 88.9314 94.128 89.007 94.2114C89.0827 94.2948 89.1398 94.3934 89.1744 94.5006C89.2091 94.6077 89.2205 94.721 89.208 94.8329C89.182 95.072 89.0699 95.2935 88.8924 95.4558C88.715 95.6181 88.4845 95.7103 88.244 95.7149Z" fill="white"/>
<path opacity="0.5" d="M98.6584 100.487H84.0744C83.9618 100.489 83.8502 100.466 83.7469 100.421C83.6436 100.376 83.5511 100.31 83.4754 100.226C83.3998 100.143 83.3427 100.045 83.3081 99.9374C83.2734 99.8302 83.2619 99.7169 83.2744 99.605C83.3004 99.3662 83.4123 99.1451 83.5893 98.9828C83.7663 98.8205 83.9963 98.7281 84.2364 98.723H98.8204C98.933 98.7214 99.0447 98.7439 99.148 98.7888C99.2512 98.8337 99.3438 98.9 99.4194 98.9835C99.4951 99.0669 99.5522 99.1654 99.5868 99.2726C99.6215 99.3798 99.6329 99.4931 99.6204 99.605C99.5945 99.8437 99.4826 100.065 99.3056 100.227C99.1286 100.389 98.8985 100.482 98.6584 100.487Z" fill="white"/>
<path opacity="0.5" d="M92.4828 105.257H83.6428C83.5302 105.259 83.4185 105.236 83.3153 105.191C83.212 105.146 83.1194 105.08 83.0438 104.997C82.9681 104.913 82.9111 104.815 82.8764 104.707C82.8418 104.6 82.8303 104.487 82.8428 104.375C82.8685 104.136 82.9804 103.915 83.1574 103.753C83.3345 103.59 83.5646 103.498 83.8048 103.493H92.6438C92.7564 103.491 92.8681 103.514 92.9713 103.559C93.0746 103.604 93.1672 103.67 93.2428 103.753C93.3185 103.837 93.3755 103.935 93.4102 104.043C93.4448 104.15 93.4563 104.263 93.4438 104.375C93.4179 104.614 93.3061 104.835 93.1293 104.997C92.9525 105.159 92.7227 105.252 92.4828 105.257Z" fill="white"/>
<path opacity="0.5" d="M97.7912 110.028H83.2072C83.0946 110.03 82.983 110.007 82.8797 109.962C82.7764 109.917 82.6839 109.851 82.6082 109.768C82.5326 109.684 82.4755 109.586 82.4409 109.478C82.4062 109.371 82.3948 109.258 82.4072 109.146C82.4332 108.907 82.5451 108.686 82.7221 108.524C82.8991 108.361 83.1291 108.269 83.3693 108.264H97.9513C98.0639 108.262 98.1755 108.285 98.2788 108.33C98.3821 108.375 98.4746 108.441 98.5503 108.524C98.6259 108.608 98.683 108.706 98.7176 108.814C98.7523 108.921 98.7637 109.034 98.7512 109.146C98.7254 109.384 98.6137 109.605 98.4371 109.768C98.2605 109.93 98.031 110.022 97.7912 110.028Z" fill="white"/>
</g>
<path d="M125.504 71.699L122.338 68.948L120.854 74.012C120.854 74.012 124.07 75.756 125.184 74.155L125.504 71.699Z" fill="#FFC3BD"/>
<path d="M118.887 68.75L117.857 72.994L120.849 74.014L122.333 68.949L118.887 68.75Z" fill="#FFC3BD"/>
</svg>
