<svg xmlns="http://www.w3.org/2000/svg" xmlns:xlink="http://www.w3.org/1999/xlink" viewBox="0 0 106 106"><defs><style>.cls-1{isolation:isolate;}.cls-2{fill:#b8e0f4;}.cls-3{fill:#f7f7f7;}.cls-22,.cls-4{fill:#a2a09e;}.cls-5{fill:#5d381f;}.cls-10,.cls-11,.cls-12,.cls-13,.cls-15,.cls-17,.cls-18,.cls-19,.cls-20,.cls-23,.cls-26,.cls-27,.cls-28,.cls-31,.cls-32,.cls-36,.cls-37,.cls-38,.cls-40,.cls-41,.cls-6,.cls-7{mix-blend-mode:multiply;}.cls-6{fill:url(#linear-gradient);}.cls-7{fill:url(#linear-gradient-2);}.cls-8{fill:#293442;}.cls-9{fill:#a9571f;}.cls-10{fill:url(#linear-gradient-3);}.cls-11{fill:url(#linear-gradient-4);}.cls-12{fill:url(#linear-gradient-5);}.cls-13{fill:url(#radial-gradient);}.cls-14{fill:url(#radial-gradient-2);}.cls-15{fill:url(#linear-gradient-6);}.cls-16{fill:#3a3937;}.cls-17{fill:url(#linear-gradient-7);}.cls-18{fill:url(#linear-gradient-8);}.cls-19{fill:url(#linear-gradient-10);}.cls-20{fill:url(#linear-gradient-11);}.cls-21{fill:#fff;}.cls-22,.cls-29{opacity:0.5;}.cls-23{fill:url(#radial-gradient-3);}.cls-24{fill:url(#radial-gradient-4);}.cls-25{fill:#4d4c4c;}.cls-26{fill:url(#linear-gradient-12);}.cls-27{fill:url(#linear-gradient-13);}.cls-28{fill:url(#linear-gradient-14);}.cls-29{fill:#f9f7f3;}.cls-29,.cls-33,.cls-34{mix-blend-mode:soft-light;}.cls-30{fill:#61beb2;}.cls-31{fill:url(#radial-gradient-5);}.cls-32{fill:url(#linear-gradient-15);}.cls-33,.cls-35{fill:#f6f1ef;}.cls-33{opacity:0.3;}.cls-34{opacity:0.4;}.cls-36{fill:url(#linear-gradient-16);}.cls-37{fill:url(#linear-gradient-17);}.cls-38{fill:url(#radial-gradient-6);}.cls-39{fill:url(#radial-gradient-7);}.cls-40{fill:url(#linear-gradient-18);}.cls-41{fill:url(#linear-gradient-19);}</style><linearGradient id="linear-gradient" x1="55.44" y1="39.35" x2="42.7" y2="43.32" gradientUnits="userSpaceOnUse"><stop offset="0.26" stop-color="#fff" stop-opacity="0"/><stop offset="0.43" stop-color="#f9eeec" stop-opacity="0.21"/><stop offset="0.82" stop-color="#e9c5bc" stop-opacity="0.75"/><stop offset="1" stop-color="#e1b1a5"/></linearGradient><linearGradient id="linear-gradient-2" x1="51.28" y1="43.83" x2="53.58" y2="46.31" xlink:href="#linear-gradient"/><linearGradient id="linear-gradient-3" x1="82.05" y1="-5.82" x2="80.85" y2="-5.92" gradientTransform="translate(-30.97 28.53) rotate(3.14)" gradientUnits="userSpaceOnUse"><stop offset="0.26" stop-color="#fff" stop-opacity="0"/><stop offset="0.41" stop-color="#fffefe" stop-opacity="0.01"/><stop offset="0.52" stop-color="#fdfbfa" stop-opacity="0.05"/><stop offset="0.61" stop-color="#fbf6f4" stop-opacity="0.12"/><stop offset="0.69" stop-color="#f9eeec" stop-opacity="0.21"/><stop offset="0.76" stop-color="#f5e5e1" stop-opacity="0.33"/><stop offset="0.83" stop-color="#f0d9d3" stop-opacity="0.49"/><stop offset="0.9" stop-color="#ebcbc3" stop-opacity="0.66"/><stop offset="0.96" stop-color="#e5bcb1" stop-opacity="0.86"/><stop offset="1" stop-color="#e1b1a5"/></linearGradient><linearGradient id="linear-gradient-4" x1="39.93" y1="31.41" x2="44.04" y2="30.87" xlink:href="#linear-gradient"/><linearGradient id="linear-gradient-5" x1="81.47" y1="-5.62" x2="81.45" y2="-5.2" gradientTransform="translate(-30.97 28.53) rotate(3.14)" xlink:href="#linear-gradient"/><radialGradient id="radial-gradient" cx="82.56" cy="-8.43" r="11.48" gradientTransform="translate(-30.97 28.53) rotate(3.14)" xlink:href="#linear-gradient-3"/><radialGradient id="radial-gradient-2" cx="70.86" cy="-8.55" r="11.48" gradientTransform="translate(-30.97 28.53) rotate(3.14)" gradientUnits="userSpaceOnUse"><stop offset="0.65" stop-color="#fff" stop-opacity="0"/><stop offset="0.78" stop-color="#fff" stop-opacity="0.01"/><stop offset="0.83" stop-color="#fff" stop-opacity="0.03"/><stop offset="0.86" stop-color="#fff" stop-opacity="0.08"/><stop offset="0.89" stop-color="#fff" stop-opacity="0.15"/><stop offset="0.91" stop-color="#fff" stop-opacity="0.23"/><stop offset="0.93" stop-color="#fff" stop-opacity="0.34"/><stop offset="0.95" stop-color="#fff" stop-opacity="0.47"/><stop offset="0.97" stop-color="#fff" stop-opacity="0.61"/><stop offset="0.98" stop-color="#fff" stop-opacity="0.78"/><stop offset="1" stop-color="#fff" stop-opacity="0.96"/><stop offset="1" stop-color="#fff"/></radialGradient><linearGradient id="linear-gradient-6" x1="74.04" y1="0.44" x2="76.3" y2="-2.21" gradientTransform="translate(-30.97 28.53) rotate(3.14)" xlink:href="#linear-gradient"/><linearGradient id="linear-gradient-7" x1="75.09" y1="-3.63" x2="77.91" y2="-3.63" gradientTransform="translate(-30.97 28.53) rotate(3.14)" xlink:href="#linear-gradient"/><linearGradient id="linear-gradient-8" x1="86.42" y1="0.38" x2="72.64" y2="-10.04" gradientTransform="translate(-30.97 28.53) rotate(3.14)" xlink:href="#linear-gradient"/><linearGradient id="linear-gradient-10" x1="75.3" y1="-5.04" x2="77.73" y2="-5.04" gradientTransform="translate(-30.97 28.53) rotate(3.14)" xlink:href="#linear-gradient"/><linearGradient id="linear-gradient-11" x1="73.82" y1="-2.32" x2="78.56" y2="-3.07" gradientTransform="translate(-30.97 28.53) rotate(3.14)" xlink:href="#linear-gradient"/><radialGradient id="radial-gradient-3" cx="77.08" cy="-9.58" r="7.89" gradientTransform="translate(-30.97 28.53) rotate(3.14)" xlink:href="#linear-gradient-3"/><radialGradient id="radial-gradient-4" cx="75.15" cy="-7.75" r="7.89" xlink:href="#radial-gradient-2"/><linearGradient id="linear-gradient-12" x1="77.13" y1="-8.35" x2="71.18" y2="-11.65" gradientTransform="translate(-30.97 28.53) rotate(3.14)" xlink:href="#linear-gradient"/><linearGradient id="linear-gradient-13" x1="76.85" y1="-8.5" x2="71.21" y2="-11.64" gradientTransform="translate(-30.97 28.53) rotate(3.14)" xlink:href="#linear-gradient"/><linearGradient id="linear-gradient-14" x1="71.28" y1="-10.45" x2="82.42" y2="-6.67" gradientTransform="translate(-30.97 28.53) rotate(3.14)" xlink:href="#linear-gradient"/><radialGradient id="radial-gradient-5" cx="60.65" cy="47.24" r="26.96" gradientTransform="translate(112.8 122.86) rotate(-173.27) scale(1 1.46)" gradientUnits="userSpaceOnUse"><stop offset="0.26" stop-color="#fff" stop-opacity="0"/><stop offset="0.43" stop-color="#fbfdfd" stop-opacity="0.02"/><stop offset="0.55" stop-color="#edf8f8" stop-opacity="0.07"/><stop offset="0.65" stop-color="#d5efee" stop-opacity="0.17"/><stop offset="0.74" stop-color="#b3e3e1" stop-opacity="0.3"/><stop offset="0.83" stop-color="#87d2cf" stop-opacity="0.47"/><stop offset="0.91" stop-color="#51beb9" stop-opacity="0.68"/><stop offset="0.98" stop-color="#13a7a0" stop-opacity="0.93"/><stop offset="1" stop-color="#00a099"/></radialGradient><linearGradient id="linear-gradient-15" x1="40.65" y1="38.48" x2="42.95" y2="33.13" xlink:href="#linear-gradient"/><linearGradient id="linear-gradient-16" x1="59.78" y1="36.84" x2="56.97" y2="43.9" gradientUnits="userSpaceOnUse"><stop offset="0" stop-color="#fff" stop-opacity="0"/><stop offset="0.15" stop-color="#fdf9f4" stop-opacity="0.12"/><stop offset="0.46" stop-color="#f7ead6" stop-opacity="0.43"/><stop offset="0.93" stop-color="#eed1a8" stop-opacity="0.92"/><stop offset="1" stop-color="#eccda0"/></linearGradient><linearGradient id="linear-gradient-17" x1="28.06" y1="43.7" x2="43.2" y2="38.64" xlink:href="#linear-gradient"/><radialGradient id="radial-gradient-6" cx="41.86" cy="36.06" r="2.75" gradientTransform="translate(0 -9.53) scale(1 1.26)" gradientUnits="userSpaceOnUse"><stop offset="0" stop-color="#fff" stop-opacity="0"/><stop offset="0.11" stop-color="#fefdfd" stop-opacity="0.02"/><stop offset="0.25" stop-color="#fcf8f7" stop-opacity="0.08"/><stop offset="0.39" stop-color="#f9f0ee" stop-opacity="0.19"/><stop offset="0.54" stop-color="#f5e5e1" stop-opacity="0.33"/><stop offset="0.69" stop-color="#efd7d0" stop-opacity="0.52"/><stop offset="0.85" stop-color="#e9c5bc" stop-opacity="0.74"/><stop offset="1" stop-color="#e1b1a5"/></radialGradient><radialGradient id="radial-gradient-7" cx="39.23" cy="40.24" r="4.31" gradientTransform="translate(0 -32.29) scale(1 1.8)" xlink:href="#radial-gradient-2"/><linearGradient id="linear-gradient-18" x1="41.03" y1="37.07" x2="41.14" y2="37.35" xlink:href="#linear-gradient"/><linearGradient id="linear-gradient-19" x1="41.52" y1="38.05" x2="41.21" y2="37.4" xlink:href="#linear-gradient"/></defs><title>webIcons</title><g class="cls-1"><g id="Icon_Cam_1" data-name="Icon Cam 1"><rect x="8.46" y="46.38" width="8.06" height="0.17"/><rect x="9.88" y="47.17" width="6.65" height="0.17"/><rect x="7.47" y="47.96" width="9.06" height="0.17"/><rect x="9.04" y="48.75" width="7.48" height="0.17"/><rect x="8.08" y="49.53" width="8.44" height="0.17"/><rect x="10.8" y="50.32" width="5.73" height="0.17"/><rect x="11.76" y="51.11" width="4.76" height="0.17"/><circle class="cls-2" cx="21.89" cy="48.16" r="6.21"/><path class="cls-3" d="M88,73.59A12.27,12.27,0,0,0,73.87,63.26c-1.47.2-1.55.16-2.21-1.1l0-.06A.77.77,0,0,1,72,60.89c.8-.47,1.6-1,2.37-1.47l.88-.56a2.15,2.15,0,0,0,1-1,8.85,8.85,0,0,0,0-6.25.7.7,0,0,0-.08-.14l-.06-.07-1.4-2L68,40.05a1.08,1.08,0,0,0-1.57-.45c-.57.29-.49.72-.3,1.35.28.93.57,1.85.85,2.78.47,1.55.94,3.09,1.42,4.64.65,2.12.62,2.21-1.24,3.37l0,0a.64.64,0,0,1-1.07-.31c-.24-.5-.51-1-.77-1.48l-.41-.79a2.37,2.37,0,0,0-.85-1l-1.45-.87-4.44-2.65a2,2,0,0,0-1.38-.31A2.09,2.09,0,0,0,55,46a2.14,2.14,0,0,0,1,2.3l.77.47c1.2.74,2.44,1.5,3.69,2.18A3.82,3.82,0,0,1,62,52.88a7.51,7.51,0,0,0,.5.92l.23.37-.43-.09-2.21-.43-5.13-1a3,3,0,0,0-2.44.46l-.57.39c-.61.42-1.24.86-1.9,1.23a1.94,1.94,0,0,0-1,1.88c0,1.09,0,2.2,0,3.28v.49c0,.83-.17,1.33-.52,1.6a2,2,0,0,1-1.7.13l-5.54-1.23L30,58.38a2.86,2.86,0,0,1-1.6-1c-.72-.81-1.54-1.65-2.5-2.59a1.79,1.79,0,0,0-1.63-.4,1.74,1.74,0,0,0-1.3.93,2.91,2.91,0,0,0,.89,3.42l1.33,1c.7.51,1.42,1,2.11,1.59a1.52,1.52,0,0,0,1.31.29c6.23-1.09,11.9,1.64,15.19,7.3a1.12,1.12,0,0,0,1.14.66c1.53,0,3.08,0,4.58,0h4.36a5.35,5.35,0,0,1,4.73,2.56c.14.21.21.26.24.27a1.41,1.41,0,0,0,.2-.35c.46-1,.94-1.94,1.4-2.89l.49-1a1.72,1.72,0,0,1,.59-.77l2.15-1.34L67,64l0,0a.69.69,0,0,1,.37-.14.52.52,0,0,1,.35.16A1.46,1.46,0,0,1,68.29,65a1.41,1.41,0,0,1-.51,1A11.87,11.87,0,0,0,63.7,77.49,12.3,12.3,0,0,0,88,73.59Zm-6,6.89a7.48,7.48,0,0,1-5.91,3,8.83,8.83,0,0,1-2.48-.37,7.76,7.76,0,0,1-5.72-6.59,1.84,1.84,0,0,1,0-.33v-.83a7.94,7.94,0,0,1,2-5.34c.18-.21.4-.42.65-.39s.41.28.55.55c1.14,2.24,2.21,4.29,3.28,6.27a2,2,0,0,0,2.2,1.07,2.11,2.11,0,0,0,1.75-1.83A2.63,2.63,0,0,0,77.87,74L75,68.51c-.21-.41-.31-.7-.18-.91s.42-.25.85-.23A7.79,7.79,0,0,1,83,72,7.55,7.55,0,0,1,82,80.48Z"/><path class="cls-3" d="M41.63,80.9a2.33,2.33,0,0,1,.54,0,2.73,2.73,0,0,1-.22.46,12.3,12.3,0,1,1-13.3-18,11.48,11.48,0,0,1,2.54-.27A12.38,12.38,0,0,1,42,69.42a2.26,2.26,0,0,1,.21.45,1.4,1.4,0,0,1-.46,0H39.55a.48.48,0,0,0-.12,0,4.94,4.94,0,0,1-3.73-1.09,7.7,7.7,0,0,0-8.91-.11,8,8,0,0,0,2.83,14.53,7.77,7.77,0,0,0,7-1.89,1.62,1.62,0,0,1,1.22-.47c.82,0,1.66,0,2.48,0Z"/><path d="M75.85,88.05A12.54,12.54,0,0,1,63.34,77.56,12.22,12.22,0,0,1,67.53,65.8a1,1,0,0,0,.39-.77,1.09,1.09,0,0,0-.38-.78c-.08-.08-.1-.07-.25,0l-.05,0-3.35,2.09-2.15,1.34a1.4,1.4,0,0,0-.45.61l-.49,1c-.47.94-.94,1.92-1.4,2.88-.14.28-.26.55-.51.57s-.43-.22-.58-.45A5,5,0,0,0,53.9,70h-9a1.47,1.47,0,0,1-1.44-.84A13.9,13.9,0,0,0,28.69,62a1.83,1.83,0,0,1-1.6-.36c-.7-.54-1.41-1.07-2.11-1.58l-1.33-1a3.27,3.27,0,0,1-1-3.86,2.09,2.09,0,0,1,1.57-1.15,2.17,2.17,0,0,1,2,.49c1,.95,1.79,1.8,2.52,2.61a2.53,2.53,0,0,0,1.4.85L41.31,60.5l5.54,1.24c.7.15,1.15.13,1.39-.06s.37-.61.37-1.31v-.5c0-1.07,0-2.18,0-3.27a2.31,2.31,0,0,1,1.23-2.2c.64-.37,1.27-.8,1.87-1.22l.57-.39a3.47,3.47,0,0,1,2.73-.52c1.68.35,3.35.67,5.12,1l1.81.35c-.11-.2-.21-.4-.3-.59a3.46,3.46,0,0,0-1.39-1.73c-1.26-.69-2.5-1.45-3.7-2.19l-.77-.47A2.51,2.51,0,0,1,56.71,44a2.32,2.32,0,0,1,1.63.36L62.78,47l1.45.87a2.83,2.83,0,0,1,1,1.14c.14.26.28.52.41.79.26.48.53,1,.78,1.49q.12.26.21.27s.14,0,.32-.11l0,0c.86-.53,1.29-.8,1.41-1.13s0-.83-.32-1.81c-.48-1.55-.95-3.09-1.42-4.64-.29-.93-.57-1.85-.85-2.78-.17-.53-.41-1.34.48-1.79a1.44,1.44,0,0,1,2,.57L75,49.25l1.4,2,0,.06a1.4,1.4,0,0,1,.15.24,9.29,9.29,0,0,1,0,6.51,2.5,2.5,0,0,1-1.13,1.14l-.87.55c-.78.5-1.58,1-2.39,1.49-.35.2-.38.32-.18.71l0,0c.29.57.43.85.63,1a2.53,2.53,0,0,0,1.19,0A12.65,12.65,0,0,1,86,82.91a12.51,12.51,0,0,1-8.3,5A14.48,14.48,0,0,1,75.85,88.05Zm-8.4-24.23a.5.5,0,0,1,.35.16A1.42,1.42,0,0,1,68.29,65a1.41,1.41,0,0,1-.51,1A11.89,11.89,0,0,0,63.7,77.49,12.3,12.3,0,1,0,73.88,63.26c-1.47.2-1.56.16-2.21-1.1l0-.06A.76.76,0,0,1,72,60.9c.8-.48,1.6-1,2.38-1.48l.87-.56a2.1,2.1,0,0,0,1-1,8.91,8.91,0,0,0,0-6.25.8.8,0,0,0-.09-.14l-.06-.07-1.4-2q-3.3-4.71-6.63-9.41a1.08,1.08,0,0,0-1.57-.45c-.57.29-.49.73-.3,1.35.29.93.57,1.85.85,2.78.47,1.55,1,3.09,1.42,4.64.65,2.12.62,2.21-1.24,3.37l0,0a.8.8,0,0,1-.62.16.76.76,0,0,1-.44-.47c-.25-.5-.52-1-.77-1.48l-.42-.78a2.34,2.34,0,0,0-.85-1l-1.45-.87-4.44-2.65a1.94,1.94,0,0,0-1.38-.31,2.13,2.13,0,0,0-.76,4l.77.47c1.2.74,2.44,1.5,3.69,2.19A3.76,3.76,0,0,1,62,52.88a7.51,7.51,0,0,0,.5.92l.23.37-.43-.09-2.21-.43-5.13-1a3,3,0,0,0-2.44.46l-.57.39c-.61.42-1.24.86-1.89,1.23a1.94,1.94,0,0,0-1,1.88c0,1.09,0,2.2,0,3.28v.49c0,.83-.17,1.33-.52,1.6a2,2,0,0,1-1.7.13l-5.54-1.23L30,58.38a2.89,2.89,0,0,1-1.6-1c-.72-.81-1.54-1.65-2.5-2.59a1.78,1.78,0,0,0-1.63-.4,1.74,1.74,0,0,0-1.3.93,2.9,2.9,0,0,0,.9,3.42l1.32,1c.7.51,1.42,1,2.11,1.59a1.54,1.54,0,0,0,1.32.29A14.25,14.25,0,0,1,43.81,69a1.12,1.12,0,0,0,1.14.66c1.53,0,3.08,0,4.58,0H53.9a5.37,5.37,0,0,1,4.73,2.56c.13.21.2.26.23.27a1.41,1.41,0,0,0,.2-.35c.46-1,.94-1.94,1.4-2.88l.49-1a1.72,1.72,0,0,1,.59-.77l2.15-1.34L67,64l0,0A.62.62,0,0,1,67.45,63.82Zm8.61,19.63a8.83,8.83,0,0,1-2.48-.37,7.76,7.76,0,0,1-5.72-6.59,1.84,1.84,0,0,1,0-.33v-.83a7.94,7.94,0,0,1,2-5.34c.18-.21.4-.42.65-.39s.41.28.55.55c1.14,2.24,2.21,4.29,3.28,6.27a2,2,0,0,0,2.2,1.07,2.11,2.11,0,0,0,1.75-1.83A2.63,2.63,0,0,0,77.87,74L75,68.51c-.21-.41-.31-.7-.18-.91s.43-.25.85-.23A7.78,7.78,0,0,1,83,72a8.07,8.07,0,0,1-7,11.49ZM70.47,70s-.11,0-.32.26a7.49,7.49,0,0,0-2,5.1v.83a1.24,1.24,0,0,0,0,.27,7.32,7.32,0,0,0,5.46,6.29,7.63,7.63,0,0,0,9-10.6,7.45,7.45,0,0,0-7-4.38c-.46,0-.52.05-.52.06s0,.09.19.54c1,2,2.08,4,2.87,5.47a3.05,3.05,0,0,1,.47,1.91,2.49,2.49,0,0,1-2,2.13A2.41,2.41,0,0,1,74,76.59c-1.07-2-2.14-4-3.28-6.27-.16-.31-.24-.34-.26-.35Z"/><path d="M31.19,88.09a12.35,12.35,0,0,1-2.33-.23A12.68,12.68,0,1,1,42.29,69.24c.2.37.33.62.21.82s-.4.22-.79.23H39.47a5.39,5.39,0,0,1-4-1.16A7.32,7.32,0,0,0,27,69,7.64,7.64,0,0,0,29.7,82.89a7.42,7.42,0,0,0,6.63-1.81,2,2,0,0,1,1.47-.56h3.84c.45,0,.74,0,.86.22s0,.44-.22.83A12.75,12.75,0,0,1,31.19,88.09Zm0-25a11.48,11.48,0,0,0-2.54.27A12.31,12.31,0,1,0,42,81.4a2.65,2.65,0,0,0,.21-.46,2.28,2.28,0,0,0-.53,0H40.27c-.81,0-1.65,0-2.48,0a1.65,1.65,0,0,0-1.22.47,7.79,7.79,0,0,1-6.94,1.9,8,8,0,0,1-2.84-14.54,7.7,7.7,0,0,1,8.91.11,4.94,4.94,0,0,0,3.73,1.09h2.28a1.4,1.4,0,0,0,.46,0,2.26,2.26,0,0,0-.21-.45A12.38,12.38,0,0,0,31.19,63.1Z"/><path d="M42.58,79.3c-3.84,0-7.68,0-11.52,0A3.9,3.9,0,0,1,30,71.65a6.32,6.32,0,0,1,1.94-.22q10.69,0,21.39,0c2.45,0,4,1,4.51,3a3.86,3.86,0,0,1-3.63,4.88C50.32,79.33,46.45,79.3,42.58,79.3Z"/><path d="M47.51,58.48c0,2-.24,2.19-2.2,1.75L30.7,57a1.88,1.88,0,0,1-1.14-.52,1.08,1.08,0,0,1-.28-1.24,1,1,0,0,1,1.08-.53l4.2.33,7,.54c1.42.11,2.85.2,4.27.33a1.78,1.78,0,0,1,1.71,1.86Z"/><polygon class="cls-2" points="50.25 57.55 50.25 62.91 49.06 64.36 42.56 62.91 46.41 67.55 55.45 67.55 57.95 68.7 60.3 65.94 66.21 62.91 63.06 55.89 55.45 54.67 50.25 57.55"/><path d="M22.14,54.47h-.51l-.11,0h0l-.4,0c-.2,0-.4-.06-.6-.1a6.42,6.42,0,0,1-2.33-1.07,5.72,5.72,0,0,1-1-1,5.93,5.93,0,0,1-1-1.57,6.4,6.4,0,0,1-.44-1.41,5.63,5.63,0,0,1-.09-.79v0a.27.27,0,0,0,0-.13V48a.3.3,0,0,0,0-.13v0c0-.11,0-.23,0-.36a5.21,5.21,0,0,1,.09-.57,6.12,6.12,0,0,1,.45-1.35,6.42,6.42,0,0,1,1.44-2,6.35,6.35,0,0,1,1.46-1A6.7,6.7,0,0,1,20.5,42c.22,0,.44-.08.65-.11h0l.3,0h1l.49.07a5.62,5.62,0,0,1,1.07.28,6.32,6.32,0,0,1,4,4.41,5.81,5.81,0,0,1,.17,1.09v0h0v.88s0,.06,0,.1c0,.21-.05.4-.08.58a6.21,6.21,0,0,1-.76,2A6.58,6.58,0,0,1,26,53a6.49,6.49,0,0,1-1.57,1,6.86,6.86,0,0,1-1.24.39l-.49.08-.25,0h-.26Zm0-.17,0,.08Zm-.45,0h.73l.24,0,.48-.08a5.77,5.77,0,0,0,1.2-.38,5.84,5.84,0,0,0,1.52-.94,6.23,6.23,0,0,0,1.35-1.59,6.08,6.08,0,0,0,.74-2c0-.18.06-.37.08-.57v-.08a.31.31,0,0,1,0-.1v-.76s0,0,0-.05a4.79,4.79,0,0,0-.16-1A6.13,6.13,0,0,0,24,42.38a5.88,5.88,0,0,0-1-.27l-.47-.06h-1l-.28,0h0c-.21,0-.42.06-.63.11a6.14,6.14,0,0,0-1.4.5,5.84,5.84,0,0,0-1.42,1,6.05,6.05,0,0,0-1.4,1.92,6.51,6.51,0,0,0-.44,1.31l-.09.56c0,.13,0,.24,0,.35v0a.81.81,0,0,1,0,.16v.36a.76.76,0,0,1,0,.15v0a7.4,7.4,0,0,0,.1.77,6,6,0,0,0,.42,1.37,6.33,6.33,0,0,0,1,1.53,6.24,6.24,0,0,0,1,.92,6.13,6.13,0,0,0,2.26,1,5.86,5.86,0,0,0,.58.1l.39,0h.17Z"/><path d="M21.46,46.75v-1.4s0-.05,0-.07a0,0,0,0,1,0,0h.73c.08,0,.08,0,.08.08v2.54c0,.13,0,.1.09.2l.55.55,1.25,1.25a.08.08,0,0,0,0,0s0,0,0,.06l0,0-.48.48,0,0h0s0,0,0-.05l-1.79-1.79-.21-.21a.45.45,0,0,1-.14-.33C21.47,47.67,21.46,47.21,21.46,46.75Z"/><polygon points="25.74 54.39 24.16 54.39 19.83 54.39 18.51 56.32 27.64 56.32 25.74 54.39"/><rect x="21.63" y="41.94" width="0.53" height="1.82"/><rect x="21.63" y="52.56" width="0.53" height="1.82"/><rect x="16.32" y="47.25" width="0.53" height="1.82" transform="translate(-31.58 64.74) rotate(-90)"/><rect x="26.93" y="47.25" width="0.53" height="1.82" transform="translate(-20.96 75.36) rotate(-90)"/></g><g id="visLines"><path class="cls-4" d="M49.43,31.56l.18.17a3.68,3.68,0,0,0,1.18-1.15l-.21-.14"/><path class="cls-5" d="M42.41,34.64s2.87,5.23,4.45,7.7c0,0,5.41,1.85,9.09,2.77a5,5,0,0,1,1.55-.45,2.81,2.81,0,0,1,1.71.94c.27.35-.29,1.8-.1,1.83.4.07,0-.88-.23-.87,0,0,0-.69-1.13-1.06s-1.64-.23-1.54,0-.77.15-.56.55A59.44,59.44,0,0,1,46,44.86s-4.52-5.38-5.76-8.74"/><path class="cls-6" d="M42.41,34.64s2.87,5.23,4.45,7.7c0,0,5.41,1.85,9.09,2.77a5,5,0,0,1,1.55-.45,2.81,2.81,0,0,1,1.71.94c.27.35-.42,1.43-.6,1.53s-.27-.3-.27-.3a.88.88,0,0,0-.59-1.33c-1.14-.37-1.09.89-1,1.11s0,.64-1.11-.57A59.44,59.44,0,0,1,46,44.86s-4.52-5.38-5.76-8.74"/><path class="cls-7" d="M42.41,34.64s2.87,5.23,4.45,7.7c0,0,5.41,1.85,9.09,2.77a5,5,0,0,1,1.55-.45,2.81,2.81,0,0,1,1.71.94c.27.35-.42,1.43-.6,1.53s-.27-.3-.27-.3a.88.88,0,0,0-.59-1.33c-1.14-.37-1.09.89-1,1.11s0,.64-1.11-.57A59.44,59.44,0,0,1,46,44.86s-4.52-5.38-5.76-8.74"/><path d="M49.8,77.47a34.2,34.2,0,0,0,4.56,2.3l-.42.57-6.48-1.41a7.35,7.35,0,0,1,1-1.86Z"/><path class="cls-5" d="M49,76.63s-.54.89-.19,1.14S50,76.84,50,76.84"/><path class="cls-8" d="M35.61,50.21a5.86,5.86,0,0,0,2,4.63C39.72,56.47,50,62,51.79,62c0,0-2.37,8.36-3.78,14.81l2.64.8s6.86-12.87,7.58-18c0,0-7-7.77-14-10.3C44.45,49.32,35.61,50.21,35.61,50.21Z"/><path class="cls-9" d="M44.65,35.4s.84.26.11.32"/><path class="cls-9" d="M44.7,36.24s.84.26.11.32"/><path class="cls-5" d="M43.19,29.31S42,32,41.59,32.55c0,0,2.15,1.62,2.15,1.62l1.08-2.81Z"/><path class="cls-5" d="M50.45,25.71a3.74,3.74,0,0,0,1,2.23l-1.64.47"/><path class="cls-10" d="M50.45,25.71a3.74,3.74,0,0,0,1,2.23l-1.64.47"/><path class="cls-11" d="M44.38,32.49l.44-1.13-1.63-2.05s-.09.21-.24.53A7.71,7.71,0,0,0,44.38,32.49Z"/><path class="cls-12" d="M50.45,25.71a3.74,3.74,0,0,0,1,2.23l-1.64.47"/><path class="cls-5" d="M50.9,23.41a10.93,10.93,0,0,1-3.17,8.13c-3.55,3.37-5.18-2.95-5.55-5.15S47.46,23,50.9,23.41Z"/><path class="cls-13" d="M50.9,23.41a10.93,10.93,0,0,1-3.17,8.13c-3.55,3.37-5.18-2.95-5.55-5.15S47.46,23,50.9,23.41Z"/><path class="cls-14" d="M50.9,23.41a10.93,10.93,0,0,1-3.17,8.13c-3.55,3.37-5.18-2.95-5.55-5.15S47.46,23,50.9,23.41Z"/><path class="cls-15" d="M46.34,32.43l-1.59-3.85-.63.24,2,3.67Z"/><path class="cls-16" d="M44.26,28.66l2.08,3.89s0,0,.23-.06l-1.68-4.07Z"/><path class="cls-17" d="M46.94,30a5.67,5.67,0,0,1-2.58-2.06l-.09.05A5.68,5.68,0,0,0,47,30.31"/><path class="cls-18" d="M50.9,23.41c-3.44-.44-9.1.78-8.72,3a16.79,16.79,0,0,0,1,3.53,12.12,12.12,0,0,0,2.18-1.19s.28-3.64.32-4.14A21.82,21.82,0,0,1,50.91,24,5.84,5.84,0,0,0,50.9,23.41Z"/><path class="cls-18" d="M50.9,23.41c-3.44-.44-9.1.78-8.72,3a16.79,16.79,0,0,0,1,3.53,12.12,12.12,0,0,0,2.18-1.19s.28-3.64.32-4.14A21.82,21.82,0,0,1,50.91,24,5.84,5.84,0,0,0,50.9,23.41Z"/><polygon class="cls-19" points="46.89 27.96 44.56 27.13 44.52 27.23 46.9 28.26 46.89 27.96"/><path class="cls-20" d="M46.63,27.51a11.75,11.75,0,0,0,.19,4.72,4.28,4.28,0,0,0,.91-.69,9.8,9.8,0,0,0,2.43-3.69C49.35,27.78,48.15,27.67,46.63,27.51Z"/><path class="cls-21" d="M46.81,27.43a11.66,11.66,0,0,0,.26,5,4.83,4.83,0,0,0,4.45-4.58S49.74,27.73,46.81,27.43Z"/><path class="cls-22" d="M51.45,27.84A4.8,4.8,0,0,1,47,32.3l0,.13a4.83,4.83,0,0,0,4.45-4.58Z"/><path class="cls-21" d="M46.83,29.76a5.76,5.76,0,0,1-2.58-2.06l-.09.05a5.62,5.62,0,0,0,2.69,2.37"/><polygon class="cls-21" points="46.91 27.89 44.58 27.05 44.53 27.16 46.91 28.18 46.91 27.89"/><path class="cls-8" d="M45.09,28.38s.27-3.64.32-4.14a20.46,20.46,0,0,1,6.43-.48,6.3,6.3,0,1,0-9.08,5.88A14.34,14.34,0,0,0,45.09,28.38Z"/><path class="cls-23" d="M45.09,28.38s.27-3.64.32-4.14a20.46,20.46,0,0,1,6.43-.48,6.3,6.3,0,1,0-9.08,5.88A14.34,14.34,0,0,0,45.09,28.38Z"/><path class="cls-24" d="M45.09,28.38s.27-3.64.32-4.14a20.46,20.46,0,0,1,6.43-.48,6.3,6.3,0,1,0-9.08,5.88A14.34,14.34,0,0,0,45.09,28.38Z"/><path class="cls-25" d="M42.54,29.64l.17.15,2.39-1.26.42-4.22a24.85,24.85,0,0,1,6.39-.47l.08-.2s-4.1-.59-6.74.56l-.45,4.15Z"/><path class="cls-26" d="M42.91,21.68a.84.84,0,0,1-.89.79.84.84,0,1,1,.89-.79Z"/><path class="cls-27" d="M41.32,21.66a.79.79,0,0,1,1.58.06s0,0,0,0a.84.84,0,1,0-1.1.75A.78.78,0,0,1,41.32,21.66Z"/><path class="cls-28" d="M50.23,24.39l0,.45-5.11.3,0,.17,5,0L50,27.41l.23.07a18.83,18.83,0,0,0,.66-3.08Z"/><path class="cls-25" d="M50.39,24.31l-.19,3,.23.07a18.36,18.36,0,0,0,.67-3.08Z"/><polygon class="cls-25" points="50.62 24.74 45.26 25.05 45.3 25.23 50.54 25.18 50.62 24.74"/><path class="cls-29" d="M47.54,26.93c0,.15-.33.26-.72.23s-.69-.16-.69-.31.33-.25.72-.23S47.55,26.78,47.54,26.93Z"/><path class="cls-30" d="M37.73,35.78s1.54-2.86,2.72-3.65,4,2.07,4.3,2.86a21,21,0,0,1-.15,5.78c-.25,1.09-1.19,2.57-1.14,3.11s1,5.44,1,5.44-5.73.69-9.28,1.28C35.17,50.6,37.39,37.31,37.73,35.78Z"/><path class="cls-31" d="M37.73,35.78s1.54-2.86,2.72-3.65,4,2.07,4.3,2.86a21,21,0,0,1-.15,5.78c-.25,1.09-1.19,2.57-1.14,3.11s1,5.44,1,5.44-5.73.69-9.28,1.28C35.17,50.6,37.39,37.31,37.73,35.78Z"/><path class="cls-32" d="M41.37,32.06l-.08.17A22.83,22.83,0,0,0,44,35.46a9.5,9.5,0,0,0,.28-1.18A7.39,7.39,0,0,0,41.37,32.06Z"/><path class="cls-21" d="M41.48,31.82l-.19.38a22.12,22.12,0,0,0,2.64,3,8.47,8.47,0,0,0,.29-1.17C44.23,33.75,41.48,31.82,41.48,31.82Z"/><path class="cls-33" d="M41.83,51c1,3.31-1.48,1.63-1.48,1.63s1.93.71,1.48-1.63"/><g class="cls-34"><polygon class="cls-35" points="43.3 53.28 43.5 53.41 43.5 53.41 43.3 53.28"/><polygon class="cls-35" points="43.92 53.67 44.35 53.93 44.33 53.95 43.92 53.68 43.92 53.67"/><polygon class="cls-35" points="44.77 54.19 45.19 54.45 45.17 54.48 44.75 54.22 44.77 54.19"/><polygon class="cls-35" points="45.61 54.71 46.03 54.97 46 55.02 45.58 54.75 45.61 54.71"/><polygon class="cls-35" points="46.45 55.24 46.87 55.5 46.83 55.56 46.41 55.29 46.45 55.24"/><polygon class="cls-35" points="47.29 55.76 47.71 56.03 47.66 56.1 47.25 55.83 47.29 55.76"/><polygon class="cls-35" points="48.13 56.3 48.55 56.56 48.5 56.64 48.08 56.37 48.13 56.3"/><polygon class="cls-35" points="48.96 56.83 49.38 57.1 49.33 57.18 48.91 56.91 48.96 56.83"/><polygon class="cls-35" points="49.8 57.37 50.21 57.64 50.16 57.73 49.74 57.45 49.8 57.37"/><polygon class="cls-35" points="50.63 57.91 51.05 58.18 50.98 58.27 50.57 58 50.63 57.91"/><polygon class="cls-35" points="51.46 58.45 51.87 58.73 51.81 58.83 51.4 58.55 51.46 58.45"/><polygon class="cls-35" points="52.29 59 52.7 59.28 52.63 59.38 52.22 59.1 52.29 59"/><rect class="cls-35" x="53.22" y="59.5" width="0.13" height="0.5" transform="translate(-26.11 70.03) rotate(-55.65)"/><rect class="cls-35" x="54.03" y="60.07" width="0.13" height="0.5" transform="translate(-26.36 69.86) rotate(-54.88)"/><polygon class="cls-35" points="54.74 60.7 54.94 60.84 54.98 60.87 54.96 60.92 54.89 61.15 54.75 61.1 54.83 60.88 54.85 60.95 54.66 60.81 54.74 60.7"/><polygon class="cls-35" points="54.74 61.6 54.59 62.05 54.45 62 54.6 61.55 54.74 61.6"/><polygon class="cls-35" points="54.44 62.5 54.29 62.95 54.14 62.9 54.29 62.45 54.44 62.5"/><polygon class="cls-35" points="54.14 63.4 53.98 63.85 53.84 63.8 53.99 63.35 54.14 63.4"/><polygon class="cls-35" points="53.83 64.3 53.68 64.75 53.54 64.7 53.69 64.25 53.83 64.3"/><polygon class="cls-35" points="53.52 65.2 53.37 65.65 53.24 65.61 53.39 65.16 53.52 65.2"/><polygon class="cls-35" points="53.21 66.1 53.05 66.55 52.93 66.51 53.09 66.06 53.21 66.1"/><polygon class="cls-35" points="52.9 67 52.74 67.45 52.63 67.41 52.78 66.96 52.9 67"/><polygon class="cls-35" points="52.59 67.89 52.43 68.34 52.32 68.31 52.48 67.86 52.59 67.89"/><polygon class="cls-35" points="52.27 68.79 52.11 69.24 52.02 69.21 52.17 68.76 52.27 68.79"/><polygon class="cls-35" points="51.95 69.69 51.8 70.14 51.71 70.11 51.86 69.66 51.95 69.69"/><polygon class="cls-35" points="51.63 70.59 51.47 71.03 51.39 71.01 51.55 70.56 51.63 70.59"/><polygon class="cls-35" points="51.31 71.48 51.15 71.93 51.08 71.91 51.24 71.45 51.31 71.48"/><polygon class="cls-35" points="50.98 72.38 50.81 72.82 50.77 72.8 50.93 72.36 50.98 72.38"/><polygon class="cls-35" points="50.64 73.26 50.47 73.71 50.45 73.7 50.61 73.25 50.64 73.26"/><polygon class="cls-35" points="50.29 74.15 50.2 74.38 50.29 74.15 50.29 74.15"/></g><path class="cls-36" d="M56.59,44a5.68,5.68,0,0,0-2.28.84l-1.55-.4a7.45,7.45,0,0,0-.25,1.83l1.32.07c1.7,1.93,1.94,1.26,1.78.9a1.47,1.47,0,1,1,2.54.46s.61,1,.89.82,1.08-2.37.67-2.94A4,4,0,0,0,56.59,44Z"/><path class="cls-37" d="M43.46,43.88a18.91,18.91,0,0,1,1-2.78c-.75-1.27-1.54-2.67-2.14-3.74l.28-.09s-1-3.14-2-3.14-1.77,1.55-1.8,2.15a11.55,11.55,0,0,0,.64,2.39l.36-.17A43.1,43.1,0,0,0,43.47,44,.31.31,0,0,0,43.46,43.88Z"/><path class="cls-5" d="M41.49,35s2.86,5.24,4.44,7.71c0,0,5.41,1.85,9.09,2.76,0,0,1-1.24,1.58-1.24A5.3,5.3,0,0,1,59,45.39a4.25,4.25,0,0,1-.2,2.42c-.17.1-.07-.52-.07-.52a1.7,1.7,0,0,0-1.65-2,1.46,1.46,0,0,0-1.64,1.34c.1.22.35,1.08-.72-.13A59.44,59.44,0,0,1,45,45.27s-4.52-5.39-5.75-8.75"/><path class="cls-30" d="M39.59,38.18a29.13,29.13,0,0,1,3.18-1.41s-1-3.13-2-3.13S39,35.19,38.94,35.78A11.38,11.38,0,0,0,39.59,38.18Z"/><path class="cls-38" d="M39.59,38.18a29.13,29.13,0,0,1,3.18-1.41s-1-3.13-2-3.13S39,35.19,38.94,35.78A11.38,11.38,0,0,0,39.59,38.18Z"/><path class="cls-39" d="M39.59,38.18a29.13,29.13,0,0,1,3.18-1.41s-1-3.13-2-3.13S39,35.19,38.94,35.78A11.38,11.38,0,0,0,39.59,38.18Z"/><path class="cls-40" d="M39.59,38.18a29.13,29.13,0,0,1,3.18-1.41s-1-3.13-2-3.13S39,35.19,38.94,35.78A11.38,11.38,0,0,0,39.59,38.18Z"/><path class="cls-41" d="M39.94,38a24,24,0,0,1,2.57-1.13l.08.13a9,9,0,0,0-2.32,1.6Z"/><path class="cls-21" d="M39.46,38.08l.1.22s2.12-1.07,3.27-1.48l0-.16A19.24,19.24,0,0,0,39.46,38.08Z"/><path d="M53.25,44.29A7.06,7.06,0,0,0,53,46.64l.38,0s2.16,2.69,2.31,1.2A1.91,1.91,0,0,1,56,45.74a1.61,1.61,0,0,1,2.59,1.78,5.52,5.52,0,0,1-.24.54c-.09.13.26.63.46.63s1.71-1.71,1.28-3.12-2.79-1.82-3.35-1.81a17.76,17.76,0,0,0-2.62.76Z"/><path d="M56.76,44v.13c.54,0,2.56.38,2.93,1.57s-.86,2.62-1,2.71a.9.9,0,0,1-.32-.38,5.13,5.13,0,0,0,.24-.53A1.58,1.58,0,0,0,58.41,46a1.73,1.73,0,0,0-1.4-.68A1.42,1.42,0,0,0,56,45.7a1.92,1.92,0,0,0-.34,2c0,.27-.14.27-.17.27-.39,0-1.26-.9-1.72-1.47l0-.06h-.29a6.76,6.76,0,0,1,.19-1.86l.71.18h.08a14.29,14.29,0,0,1,2.37-.69l0-.13m0,0h0a15.54,15.54,0,0,0-2.42.69l-.84-.21a6.65,6.65,0,0,0-.21,2.17l.35,0s1.22,1.52,1.82,1.52c.16,0,.28-.12.31-.42a1.76,1.76,0,0,1,.3-1.91,1.32,1.32,0,0,1,1-.38,1.46,1.46,0,0,1,1.43,2,4.57,4.57,0,0,1-.22.5c-.08.12.24.58.42.58s1.59-1.58,1.18-2.88S57.31,44,56.76,44Z"/></g></g></svg>