<svg xmlns="http://www.w3.org/2000/svg" viewBox="0 0 106 106"><defs><style>.cls-1{fill:#936d35;}.cls-1,.cls-2,.cls-3{stroke:#1d1d1b;stroke-miterlimit:10;}.cls-2{fill:#f4deb8;}.cls-3{fill:none;}</style></defs><title>webIcons</title><g id="moneyFlop"><path class="cls-1" d="M97.5,34.7l-2.73-.93c-.57-.19-1.13-.38-1.7-.55l-1.33-.44-1.34-.41-2.69-.8-1.13-.32a174.11,174.11,0,0,0-18.93-4.33L67,26.8l-1.06-.17c-.75-.12-1.5-.24-2.26-.34L63,26.18c-.92-.13-1.85-.26-2.78-.36-1.31-.17-2.64-.33-4-.46-2.82,19.69-3.16,38.3-6.66,56.86l6.7,1.58.42.1,12.09,2.85,7.08,1.67.42.1c4.35-18.42,13-36.1,21.87-53.6ZM75.13,81.24a7.44,7.44,0,0,0-4.77,2.47h0c-.45-.12-10.88-2.83-13.59-2.53a7.4,7.4,0,0,0-3.6-5.12C53.72,72.85,58,33,58,33a12.22,12.22,0,0,0,7.37-2.48c.54.08,18.83,2.71,21.07,4.16a9.1,9.1,0,0,0,4.29,5.24S76.69,75.35,75.13,81.24Z"/><path class="cls-2" d="M90.7,39.89s-14,35.46-15.57,41.35a7.44,7.44,0,0,0-4.77,2.47h0c-.45-.12-10.88-2.83-13.59-2.53a7.4,7.4,0,0,0-3.6-5.12C53.72,72.85,58,33,58,33a12.22,12.22,0,0,0,7.37-2.48c.54.08,18.83,2.71,21.07,4.16A9.1,9.1,0,0,0,90.7,39.89Z"/><line class="cls-3" x1="75.12" y1="81.25" x2="75.13" y2="81.24"/><path class="cls-3" d="M65.34,30.49h0"/><path d="M70.35,58.58l.21,0h.06l.06,0a1.27,1.27,0,0,0,.18.11l.27.15.15.1.15.1.25.16.2.14.09.07.09.07.19.16.23.2a2.18,2.18,0,0,1,.21.22,2.23,2.23,0,0,1,.37.5,1.7,1.7,0,0,1,.2.6.34.34,0,0,0,0,.17c0,.05,0,.11.08.17a.48.48,0,0,1,0,.35c0,.07-.09.18-.17.32a1.61,1.61,0,0,1-.34.35,3.7,3.7,0,0,1-.43.25A4.07,4.07,0,0,1,72,63l-.37.13a.94.94,0,0,1-.31.07l-.36,0h-.33a1.06,1.06,0,0,0-.27,0l-.43,0-.45,0h-.64l-.64,0h-.55l.06.13a.19.19,0,0,0,.05.09l.1.14a.1.1,0,0,1,0,.14.29.29,0,0,1-.16.09l0,0a.65.65,0,0,0,.19,0,1.2,1.2,0,0,0,.19,0,1.53,1.53,0,0,1,.56.09,4.12,4.12,0,0,1,.52.24l.37.16a1,1,0,0,0,.42.06.54.54,0,0,1,.43.14.71.71,0,0,1,.18.43.33.33,0,0,0,.26.32,1.13,1.13,0,0,1,.24.08l.24.09.16,0,.16,0,.1,0c.05,0,.07,0,.06,0a.28.28,0,0,0,.1.2l.16.13.14.13a.58.58,0,0,0,.15.11.39.39,0,0,1,.21.32c0,.13,0,.25,0,.38s0,.09-.06.14a.44.44,0,0,0-.12.15,1.3,1.3,0,0,0-.44-.36l-.46-.21c-.21-.08-.42-.16-.63-.22l-.63-.21a.66.66,0,0,0-.36,0,1.74,1.74,0,0,1-.56,0L68.8,66,68,65.76c-.26-.08-.52-.15-.79-.21a3.2,3.2,0,0,0-.54-.08,3.29,3.29,0,0,1-.54,0c-.24,0-.49,0-.73-.09l-.73-.1-.59-.1-.59-.08-.17,0-.16.07c-.09,0-.15,0-.2,0a.56.56,0,0,1-.11-.17c0-.13-.08-.26-.13-.39s-.08-.26-.13-.39a1.58,1.58,0,0,1,0-.38,1.18,1.18,0,0,1,.09-.38,1.13,1.13,0,0,1,.19-.32.53.53,0,0,1,.26-.19,1.47,1.47,0,0,1,.68-.08l.77.13.77.15c.26.06.51.13.77.21l.76.23a.44.44,0,0,1,.15,0,.34.34,0,0,1,0-.38,1.38,1.38,0,0,1,.34-.47.17.17,0,0,0,0-.24,2.46,2.46,0,0,0-.49-.57c-.19-.16-.39-.31-.6-.47l-1-.7c-.32-.22-.63-.46-.94-.71a1.12,1.12,0,0,1-.28-.25l-.23-.31a.42.42,0,0,1-.09-.31.88.88,0,0,1,.1-.35.89.89,0,0,1,.22-.29.63.63,0,0,1,.3-.16.14.14,0,0,1,.13,0,.28.28,0,0,1,.12.12.23.23,0,0,1-.06.36l-.08,0L64.4,59a.31.31,0,0,0-.19.23.33.33,0,0,0,.09.28,3.13,3.13,0,0,0,.93.75,1,1,0,0,1,.22.14l.19.15.68.56c.23.18.46.37.68.57a2.9,2.9,0,0,1,.36.34q.15.2.33.39a1.58,1.58,0,0,1,.44-.27,2.81,2.81,0,0,1,.49-.16,3.82,3.82,0,0,1,.51-.11l.51-.1a5.42,5.42,0,0,1,.55-.07c.22,0,.44,0,.67,0h.66l.56,0,.47,0,.47,0a1.55,1.55,0,0,0-.11-.59,1.75,1.75,0,0,0-.3-.48l-.26-.28-.16-.2L72,59.86a2.55,2.55,0,0,0-.3-.24l-.37-.28-.18-.1L71,59.15l-.42-.21a1.75,1.75,0,0,1-.29-.18L70,58.57c.06-.09.11-.11.16-.08A.46.46,0,0,0,70.35,58.58Zm-2.84,4.88a.21.21,0,0,0,0-.12.39.39,0,0,1,0-.13l-.17.1c-.06,0-.1.06-.11.1a.11.11,0,0,0,0,.13.27.27,0,0,0,.12.09.57.57,0,0,1,.13.08l0-.12A.31.31,0,0,0,67.51,63.46Z"/><path d="M71.83,54.36s0,0,0,0a.18.18,0,0,0,.07.09l.31.29a3,3,0,0,1,.31.31l.11.1.12.11.24.34a1.18,1.18,0,0,1,.19.39l.08.14a.24.24,0,0,1,.06.14,1.55,1.55,0,0,1,0,.22c0,.07,0,.14,0,.21a1.14,1.14,0,0,1-.08.33l0,.11,0,.1a1,1,0,0,1,0,.2,1.09,1.09,0,0,0,0,.13,2.62,2.62,0,0,1,0,.27,2.64,2.64,0,0,0,0,.28,1.83,1.83,0,0,1,0,.19.24.24,0,0,0,0,.12.15.15,0,0,1-.07.1v0a.27.27,0,0,1-.08.23A1,1,0,0,0,73,59l0,0,0,0a.21.21,0,0,1-.08.1l-.11,0s-.06,0-.1,0,0-.08,0-.11l.17-.18a.67.67,0,0,0,.12-.2l.08-.14a.43.43,0,0,0,0-.25.69.69,0,0,0-.1-.19.1.1,0,0,1,0-.08.72.72,0,0,0-.14-.36,1.6,1.6,0,0,0-.26-.26l-.15-.11a.53.53,0,0,0-.17-.08l-.38-.08a1.2,1.2,0,0,0-.42,0,3.39,3.39,0,0,0-.57.18.94.94,0,0,0-.22.12,1.28,1.28,0,0,1-.21.14,2.29,2.29,0,0,0-.29.18l-.26.18-.12.08-.13.08a2.3,2.3,0,0,1-.37.16,1.43,1.43,0,0,1-.38.07.79.79,0,0,1-.59-.14.52.52,0,0,1-.1-.11.83.83,0,0,0-.07-.13.37.37,0,0,1,0-.11.37.37,0,0,0,0-.11.8.8,0,0,1-.08-.47.67.67,0,0,1,.3-.47l.1,0,.13,0h.11a.06.06,0,0,1,0,.07s0,.07.07.11l.17.09.15.11a.31.31,0,0,1,.07.09.22.22,0,0,0,.05.08c.07.07.13.11.19.1a.66.66,0,0,0,.26-.1,1.42,1.42,0,0,0,.38-.26l.37-.3a2.43,2.43,0,0,1,.3-.26c.11-.08.23-.15.35-.22l.19-.12.2-.1.15-.09.16-.08a.51.51,0,0,1,.26-.09h.37a.3.3,0,0,1,.12,0,.62.62,0,0,1,.31.13,1.41,1.41,0,0,1,.37.45l.09.18.06.1v-.13a.56.56,0,0,0,0-.3c0-.09-.08-.17-.13-.26a3,3,0,0,0-.47-.72l-.57-.6-.06-.06-.1-.06s0-.05,0-.06S71.8,54.38,71.83,54.36Z"/><path d="M68.75,52.18l.85.28.85.28a.77.77,0,0,1-.07-.17l-.06-.15c0-.09-.09-.18-.13-.27a2.72,2.72,0,0,0-.11-.25.41.41,0,0,1,0-.22c0-.09.07-.18.1-.28a1.06,1.06,0,0,1,.17-.26,1.19,1.19,0,0,1,.34-.27l.39-.17.14,0a.35.35,0,0,1,.14,0,.82.82,0,0,1,.31,0h.09l.09,0,.58.15.14,0a.41.41,0,0,1,.16,0l.24.07.23.08a.39.39,0,0,1,.11.06.24.24,0,0,0,.08.06l.18.1a.54.54,0,0,1,.16.1l.17.16.15.17s0,0,.06.11l0,.08s0,0,.07,0a.29.29,0,0,0,.08-.08s0-.07,0-.09a1.24,1.24,0,0,0,0-.41,2.14,2.14,0,0,0-.24-.53,2.71,2.71,0,0,0-.36-.46,5.19,5.19,0,0,0-.66-.67,2.61,2.61,0,0,0-.31-.27l-.32-.25h0s0,0,0,0,0-.07,0-.08,0,0,0-.07l.77.57.55.45a1.45,1.45,0,0,1,.31.3c.06.1.12.2.17.3l.17.31.09.15a1.07,1.07,0,0,1,.07.15.27.27,0,0,1,0,.12.71.71,0,0,0,0,.14,1.36,1.36,0,0,1,0,.2.52.52,0,0,1-.11.33l-.23.27a.47.47,0,0,1-.28.17l-.31,0a2,2,0,0,1-.52,0,2.32,2.32,0,0,1-.38-.06l-.38-.09-.39-.11L71.55,52l-.16,0-.18,0-.76-.19-.17,0c0,.05,0,.1,0,.14l0,.12a1.46,1.46,0,0,0,.16.36c.06.11.12.22.19.33a.35.35,0,0,0,.28.18l.28.06.27.08.25,0,.25.07.79.24.29.07a.37.37,0,0,1,.16.1s.07.09.06.18a.17.17,0,0,0,.06.06l.08.06.15.1.17.1,0,0a.34.34,0,0,1,.24.41c0,.09,0,.18,0,.27a.45.45,0,0,0,0,.25.24.24,0,0,1,0,.14l-.15,0-.16,0L73.24,55l-.52-.09-.42-.07a3.25,3.25,0,0,1-.42-.11l-.46-.12L71,54.47l-.38-.12c-.13,0-.25-.08-.37-.12l-.44-.15-.43-.15-.21-.07a1.17,1.17,0,0,1-.2-.06l-.3-.12-.29-.13-.1,0a1.63,1.63,0,0,0-.25-.1l-.24-.1-.14-.1-.15-.09L67.3,53l-.15-.14L67,52.73l-.16-.17-.11-.09-.08-.1a.4.4,0,0,1-.07-.3.47.47,0,0,1,.14-.29.39.39,0,0,1,.1-.08l.1,0,.18-.06.2-.05.22,0,.22,0a1,1,0,0,1,.37,0,1.34,1.34,0,0,1,.61.37A.29.29,0,0,1,68.75,52.18Zm0,0a.32.32,0,0,0-.13-.15,1.63,1.63,0,0,0-.27-.15L68,51.78a1,1,0,0,0-.29,0l.49.25A2.13,2.13,0,0,0,68.71,52.19Z"/><path d="M74.11,48.91a1.42,1.42,0,0,1,.15-.37.88.88,0,0,1,.24-.28.29.29,0,0,1,.23,0,.74.74,0,0,1,.27.1.47.47,0,0,0,.14.14l.13.09a.35.35,0,0,1,0,.53l-.15.16L75,49.4a.33.33,0,0,0-.15.13.33.33,0,0,1-.1.12.6.6,0,0,1-.23,0l-.18,0-.16-.09a.28.28,0,0,1-.13-.2.59.59,0,0,1,0-.26Z"/><path class="cls-1" d="M7.69,34.92c8.89,17.5,17.51,35.18,21.87,53.6l.42-.1,7.07-1.67L49.14,83.9l.42-.1,6.71-1.58c-3.51-18.56-3.84-37.17-6.66-56.86-1.32.13-2.64.29-4,.46-.92.1-1.85.23-2.78.36l-.68.11c-.75.1-1.5.22-2.25.34l-1.07.17-.69.12a174.11,174.11,0,0,0-18.93,4.33l-1.13.32-2.69.8-1.33.41-1.34.44c-.56.17-1.13.36-1.69.55l-2.73.93Zm7.44,5a9.16,9.16,0,0,0,4.3-5.24C21.66,33.2,40,30.57,40.49,30.49A12.22,12.22,0,0,0,47.87,33s4.25,39.88,4.8,43.09a7.42,7.42,0,0,0-3.59,5.12c-2.71-.3-13.14,2.41-13.59,2.53h0a7.46,7.46,0,0,0-4.77-2.47C29.15,75.35,15.13,39.89,15.13,39.89Z"/><path class="cls-2" d="M15.13,39.89s14,35.46,15.58,41.35a7.46,7.46,0,0,1,4.77,2.47h0c.45-.12,10.88-2.83,13.59-2.53a7.42,7.42,0,0,1,3.59-5.12C52.12,72.85,47.87,33,47.87,33a12.22,12.22,0,0,1-7.38-2.48c-.53.08-18.83,2.71-21.06,4.16A9.16,9.16,0,0,1,15.13,39.89Z"/><path d="M35.77,58.29H36l.07,0,.19.06.3.1.17.06.17.06.28.11.22.1.1,0,.1.05.22.12.27.15a2.2,2.2,0,0,1,.25.17,2.35,2.35,0,0,1,.47.41,1.59,1.59,0,0,1,.32.55.53.53,0,0,0,.08.15l.12.16a.48.48,0,0,1,.09.33c0,.08-.05.2-.1.35a1.36,1.36,0,0,1-.26.41,2.37,2.37,0,0,1-.37.34,2.94,2.94,0,0,1-.39.26l-.33.21a1.4,1.4,0,0,1-.3.14l-.34.09-.33.06a1.09,1.09,0,0,0-.25.07l-.42.14-.42.13q-.31.08-.63.12l-.63.11-.26,0-.29,0,.08.12.08.08.12.12a.1.1,0,0,1,0,.14.24.24,0,0,1-.14.12h0a.61.61,0,0,0,.19,0l.18,0a1.37,1.37,0,0,1,.57,0,5.05,5.05,0,0,1,.56.12l.4.08a1,1,0,0,0,.41,0,.54.54,0,0,1,.46,0,.73.73,0,0,1,.27.38.31.31,0,0,0,.31.26,1.15,1.15,0,0,1,.26,0l.25,0h.43s.07,0,.07,0a.26.26,0,0,0,.13.17l.19.1.16.09a.53.53,0,0,0,.17.08.42.42,0,0,1,.28.27c0,.12.07.24.11.36a.15.15,0,0,1,0,.15.56.56,0,0,0-.09.17,1.34,1.34,0,0,0-.5-.26l-.49-.11c-.22,0-.44-.06-.66-.08l-.66-.07a.65.65,0,0,0-.37,0,1.51,1.51,0,0,1-.55.09,5.33,5.33,0,0,1-.56,0L35,65.8a7.38,7.38,0,0,0-.82,0,2.32,2.32,0,0,0-.53,0,5,5,0,0,1-.54.06l-.74.07-.74,0L31,66c-.2,0-.4,0-.6,0l-.16.06-.14.11c-.08.06-.14.07-.19,0a.43.43,0,0,1-.15-.15l-.21-.35c-.06-.12-.13-.24-.2-.36a1.09,1.09,0,0,1-.12-.36,1,1,0,0,1,0-.39,1.3,1.3,0,0,1,.11-.35.52.52,0,0,1,.22-.24,1.48,1.48,0,0,1,.65-.22l.78,0h.78l.8,0,.79.07.15,0a.3.3,0,0,1-.11-.17.31.31,0,0,1,0-.19,1.29,1.29,0,0,1,.24-.54.17.17,0,0,0,0-.23,2.64,2.64,0,0,0-.61-.46L32.37,62l-1.08-.49c-.36-.15-.72-.32-1.08-.49a1.55,1.55,0,0,1-.32-.2l-.29-.25a.4.4,0,0,1-.15-.29.89.89,0,0,1,0-.36,1,1,0,0,1,.16-.33.72.72,0,0,1,.25-.22.2.2,0,0,1,.15,0,.5.5,0,0,1,.14.1.22.22,0,0,1,0,.36.23.23,0,0,1-.07.07L30,60a.33.33,0,0,0-.14.26.37.37,0,0,0,.15.25,2.89,2.89,0,0,0,1.08.54,1.09,1.09,0,0,1,.23.09l.22.12.79.4.78.41a3,3,0,0,1,.42.27l.41.3a1.53,1.53,0,0,1,.37-.35,2.82,2.82,0,0,1,.44-.26c.15-.08.31-.15.48-.22l.48-.2a4.38,4.38,0,0,1,.52-.18l.65-.17.65-.15.53-.15.45-.13.46-.12a1.69,1.69,0,0,0-.23-.56,1.48,1.48,0,0,0-.39-.4l-.31-.23-.2-.16a1.91,1.91,0,0,0-.21-.14,2.44,2.44,0,0,0-.34-.18l-.42-.19-.2-.06a.81.81,0,0,0-.21-.05l-.45-.12-.32-.11-.33-.13c0-.1.09-.13.14-.11A.53.53,0,0,0,35.77,58.29ZM34,63.66a.19.19,0,0,0,0-.11,1,1,0,0,1-.08-.11l-.14.13a.15.15,0,0,0-.09.12s0,.08.06.12a.26.26,0,0,0,.13.06l.15.05a.69.69,0,0,0,0-.13A.29.29,0,0,0,34,63.66Z"/><path d="M36.34,53.86s0,0,0,0a.27.27,0,0,0,.08.07l.37.22a3.28,3.28,0,0,1,.37.24l.13.07a.38.38,0,0,1,.13.09c.11.08.21.18.32.27a1.52,1.52,0,0,1,.26.35l.11.12a.38.38,0,0,1,.09.13.76.76,0,0,1,0,.21,1.55,1.55,0,0,0,0,.21,1.28,1.28,0,0,1,0,.34.31.31,0,0,0,0,.1.93.93,0,0,1,0,.1.8.8,0,0,1,.05.19s0,0,0,.13a1.78,1.78,0,0,1,0,.26,2.7,2.7,0,0,0,0,.28.8.8,0,0,1,0,.19.6.6,0,0,1,0,.12.11.11,0,0,1,0,.11v0a.29.29,0,0,1,0,.24,1.51,1.51,0,0,0-.11.22l0,0s0,0,0,0a.16.16,0,0,1,0,.1l-.1.07s-.06,0-.11,0-.05-.08,0-.11a2.39,2.39,0,0,0,.13-.21.57.57,0,0,0,.07-.22s0-.08,0-.15a.4.4,0,0,0,0-.25.73.73,0,0,0-.14-.16.08.08,0,0,1,0-.07.63.63,0,0,0-.22-.32,1.1,1.1,0,0,0-.31-.2l-.17-.08a.39.39,0,0,0-.18,0,2.54,2.54,0,0,0-.39,0,1,1,0,0,0-.4.09,3.56,3.56,0,0,0-.53.3.69.69,0,0,0-.18.16,1.07,1.07,0,0,1-.19.18,2.5,2.5,0,0,0-.23.23l-.23.23s0,0-.1.11l-.11.1a2,2,0,0,1-.32.24,1.5,1.5,0,0,1-.36.15.76.76,0,0,1-.61,0,.5.5,0,0,1-.12-.08l-.09-.12a.73.73,0,0,1-.08-.09.36.36,0,0,0-.07-.1A.83.83,0,0,1,33,57.5a.64.64,0,0,1,.19-.53l.09-.06.12-.06a.22.22,0,0,1,.11,0,.07.07,0,0,1,0,.06s0,.07.09.09l.18.06.17.07a.27.27,0,0,1,.08.07l.08.07a.21.21,0,0,0,.2.06.92.92,0,0,0,.24-.15,1.93,1.93,0,0,0,.31-.33c.09-.13.19-.25.29-.38a2.6,2.6,0,0,1,.25-.31l.29-.29.17-.16.17-.13a.71.71,0,0,1,.13-.12l.13-.12a.6.6,0,0,1,.24-.14l.25,0,.11,0h.12a.74.74,0,0,1,.34.07,1.64,1.64,0,0,1,.26.16,1.75,1.75,0,0,1,.19.2l.13.16.08.09,0-.13a.62.62,0,0,0-.1-.29l-.18-.22a3.2,3.2,0,0,0-.61-.61l-.69-.47-.07,0-.11,0s0-.06,0-.07S36.31,53.88,36.34,53.86Z"/><path d="M32.87,52.37l.89.1c.3,0,.59.07.89.09a.65.65,0,0,1-.1-.15l-.09-.14a2,2,0,0,1-.18-.23l-.16-.23a.28.28,0,0,1,0-.2c0-.1,0-.2,0-.3a1.21,1.21,0,0,1,.11-.3,1.29,1.29,0,0,1,.28-.33l.34-.25.13-.07.13-.06a1.25,1.25,0,0,1,.31-.07h.17l.6,0h.31l.25,0a1,1,0,0,1,.24,0,.21.21,0,0,1,.12,0,.31.31,0,0,0,.1,0l.19,0a.51.51,0,0,1,.17.07,1.32,1.32,0,0,1,.2.12l.19.13s0,.05.08.1a.16.16,0,0,1,0,.07s0,0,.08,0a.29.29,0,0,0,.06-.1.13.13,0,0,0,0-.09,1.74,1.74,0,0,0-.14-.4,2.06,2.06,0,0,0-.35-.47,3.19,3.19,0,0,0-.44-.37,6.36,6.36,0,0,0-.79-.52,2.37,2.37,0,0,0-.35-.19l-.37-.19h0s0,0,0,0,0-.07,0-.08,0,0,0-.07l.86.4c.22.1.43.21.63.32a1.4,1.4,0,0,1,.37.23l.23.25.23.28.12.12a1.47,1.47,0,0,1,.1.13.21.21,0,0,1,0,.12.93.93,0,0,0,0,.13,1,1,0,0,1,0,.2.58.58,0,0,1-.05.35l-.17.31a.47.47,0,0,1-.23.23l-.29.1a3.36,3.36,0,0,1-.52.08h-.78l-.4,0-.4,0h-.34l-.79,0h-.16a.54.54,0,0,0,.07.13.37.37,0,0,1,0,.11,2.62,2.62,0,0,0,.23.32l.26.28a.37.37,0,0,0,.31.12H36a1.15,1.15,0,0,1,.26,0l.81.07h.3a.48.48,0,0,1,.18.06.24.24,0,0,1,.1.16.1.1,0,0,0,.07,0l.09,0,.17.07.18.06a.05.05,0,0,0,0,0,.34.34,0,0,1,.32.35c0,.09,0,.18,0,.27a.52.52,0,0,0,.11.24.33.33,0,0,1,0,.14l-.16,0h-.17a4.41,4.41,0,0,1-.52,0l-.53,0-.43,0a3.17,3.17,0,0,1-.43,0l-.47,0-.48,0-.4,0-.38,0-.46,0L33.82,54l-.22,0-.22,0-.31,0-.31-.06h-.11l-.26,0-.25,0L32,53.64l-.16-.06-.18-.09-.18-.1-.19-.12-.2-.13a.67.67,0,0,1-.12-.06l-.1-.08a.42.42,0,0,1-.14-.28.46.46,0,0,1,.09-.32.18.18,0,0,1,.08-.09l.09-.07.16-.09a.76.76,0,0,0,.18-.09l.21-.1.21-.09a1,1,0,0,1,.37,0,1.43,1.43,0,0,1,.67.24A.29.29,0,0,1,32.87,52.37Zm0,0a.41.41,0,0,0-.15-.11,1.32,1.32,0,0,0-.3-.09,1.86,1.86,0,0,0-.34,0,1.14,1.14,0,0,0-.28,0l.53.15A1.6,1.6,0,0,0,32.83,52.38Z"/><path d="M37.44,48.05a1.14,1.14,0,0,1,.06-.39.79.79,0,0,1,.18-.32.28.28,0,0,1,.21-.09,1,1,0,0,1,.29,0,.66.66,0,0,0,.16.11.34.34,0,0,1,.15.06.34.34,0,0,1,.15.51l-.12.19-.1.17c-.07.07-.11.12-.11.16a.31.31,0,0,1-.08.14.63.63,0,0,1-.23,0h-.19a.38.38,0,0,1-.17,0,.3.3,0,0,1-.17-.16.77.77,0,0,1,0-.27Z"/><path class="cls-1" d="M78.28,26.86l-2.85-.41q-.89-.14-1.77-.24L72.27,26l-1.39-.16q-1.39-.16-2.79-.3l-1.17-.11a174.32,174.32,0,0,0-19.4-.8h-.7l-1.08,0c-.76,0-1.52,0-2.28.08l-.69,0c-.93,0-1.87.08-2.8.15-1.32.07-2.65.16-4,.27.82,19.87,3.89,38.23,3.83,57.12l6.88.33.43,0,12.41.6,7.26.35.43,0C68.16,64.75,73.41,45.79,79,27ZM64.78,76.7A7.51,7.51,0,0,0,60.54,80h0c-.46,0-11.21-.79-13.82,0a7.42,7.42,0,0,0-4.47-4.38c0-3.26-3.14-43.24-3.14-43.24a12.25,12.25,0,0,0,6.8-3.79c.54,0,19-.77,21.47.25a9.1,9.1,0,0,0,5.18,4.36S65.24,70.63,64.78,76.7Z"/><path class="cls-2" d="M72.55,33.2s-7.31,37.43-7.77,43.5A7.51,7.51,0,0,0,60.54,80h0c-.46,0-11.21-.79-13.82,0a7.42,7.42,0,0,0-4.47-4.38c0-3.26-3.14-43.24-3.14-43.24a12.25,12.25,0,0,0,6.8-3.79c.54,0,19-.77,21.47.25A9.1,9.1,0,0,0,72.55,33.2Z"/><path d="M56,55.3h.27l.06,0,.2.07.29.1.17.06.16.08.28.11.22.11.1,0,.1.06.22.12a2.26,2.26,0,0,1,.26.16,2.2,2.2,0,0,1,.25.17,2.37,2.37,0,0,1,.46.43,1.62,1.62,0,0,1,.3.55.48.48,0,0,0,.08.16l.11.15a.52.52,0,0,1,.09.34,2.93,2.93,0,0,1-.12.34,1.13,1.13,0,0,1-.27.41,2.91,2.91,0,0,1-.37.33,4.37,4.37,0,0,1-.4.25l-.34.2a1.42,1.42,0,0,1-.3.13l-.34.08-.33.05-.26.06-.42.14-.43.12-.63.1-.63.09-.26,0-.29,0,.08.12a.27.27,0,0,0,.07.08l.12.12a.11.11,0,0,1,0,.15.36.36,0,0,1-.14.11l0,0h.19l.19,0a1.37,1.37,0,0,1,.57,0,3.39,3.39,0,0,1,.55.13,2.88,2.88,0,0,0,.4.09,1,1,0,0,0,.41,0,.51.51,0,0,1,.46.06.7.7,0,0,1,.25.39.33.33,0,0,0,.32.26l.25,0,.25,0a.43.43,0,0,0,.16,0h.27s.07,0,.07,0a.25.25,0,0,0,.12.17l.19.1.16.1a.91.91,0,0,0,.17.09.4.4,0,0,1,.27.27c0,.12.06.24.1.36a.15.15,0,0,1,0,.15.56.56,0,0,0-.09.17,1.2,1.2,0,0,0-.49-.27L58.57,63l-.66-.1-.65-.08a.65.65,0,0,0-.37,0,1.53,1.53,0,0,1-.55.08l-.56,0-.81-.1a5.66,5.66,0,0,0-.82-.06,2.44,2.44,0,0,0-.54,0,4.93,4.93,0,0,1-.54,0l-.74.05-.74,0H51l-.6,0a.29.29,0,0,0-.16.06.71.71,0,0,0-.14.1c-.08,0-.15.07-.2,0a.41.41,0,0,1-.14-.15c-.06-.12-.13-.24-.2-.36l-.19-.36a.89.89,0,0,1-.11-.37,1.2,1.2,0,0,1,0-.38,1.33,1.33,0,0,1,.13-.35.49.49,0,0,1,.22-.23,1.42,1.42,0,0,1,.66-.21l.78,0,.78,0c.27,0,.53,0,.8.06l.79.08.15,0a.3.3,0,0,1-.11-.17.31.31,0,0,1,0-.19,1.46,1.46,0,0,1,.25-.54.16.16,0,0,0,0-.23,2.4,2.4,0,0,0-.59-.47c-.22-.12-.44-.24-.67-.35l-1.07-.51-1.06-.53a1.32,1.32,0,0,1-.32-.2l-.28-.26a.41.41,0,0,1-.15-.29.89.89,0,0,1,0-.36.87.87,0,0,1,.17-.33.61.61,0,0,1,.25-.21.2.2,0,0,1,.15,0,.45.45,0,0,1,.13.1.24.24,0,0,1,0,.37l-.07.06a.27.27,0,0,0-.08.07.33.33,0,0,0-.14.25.34.34,0,0,0,.14.26,2.94,2.94,0,0,0,1.06.57.67.67,0,0,1,.23.1l.22.12.77.42.78.43a2.29,2.29,0,0,1,.41.28l.4.31a1.75,1.75,0,0,1,.38-.34,4,4,0,0,1,.45-.25c.15-.07.31-.14.48-.2l.49-.19a4.19,4.19,0,0,1,.53-.17l.65-.15.65-.13c.21,0,.39-.09.54-.14l.45-.12.46-.11a1.49,1.49,0,0,0-.21-.56,1.38,1.38,0,0,0-.39-.41l-.3-.24L58,56.4l-.21-.15a2.22,2.22,0,0,0-.33-.18l-.42-.2-.19-.08-.21,0-.45-.13a1.75,1.75,0,0,1-.32-.12l-.32-.13c0-.1.09-.14.14-.11A.89.89,0,0,0,56,55.3ZM54,60.61a.21.21,0,0,0,0-.11.44.44,0,0,1-.08-.11l-.14.12a.21.21,0,0,0-.1.12.14.14,0,0,0,0,.13.3.3,0,0,0,.14.06l.14,0a.35.35,0,0,0,0-.13A.28.28,0,0,0,54,60.61Z"/><path d="M56.63,50.88s0,0,.06,0a.16.16,0,0,0,.07.07l.37.23.36.25a.57.57,0,0,0,.13.08.51.51,0,0,1,.13.09,3.84,3.84,0,0,1,.3.28,1.52,1.52,0,0,1,.26.35l.1.12a.24.24,0,0,1,.09.14,1.52,1.52,0,0,1,0,.21.76.76,0,0,0,0,.21,1.27,1.27,0,0,1,0,.34.31.31,0,0,0,.05.1.93.93,0,0,0,0,.1,1.18,1.18,0,0,1,0,.19s0,0,0,.13l0,.26,0,.28a.92.92,0,0,1,0,.2.36.36,0,0,0,0,.11s0,.07,0,.12v0a.3.3,0,0,1,0,.25,1.13,1.13,0,0,0-.12.21l0,0a.05.05,0,0,0,0,0,.17.17,0,0,1-.06.1l-.1.07s-.06,0-.11,0-.05-.07,0-.11l.14-.2a.58.58,0,0,0,.08-.22l.05-.15a.49.49,0,0,0,0-.25,1.15,1.15,0,0,0-.14-.17s-.05,0-.05-.07a.61.61,0,0,0-.2-.32,1.69,1.69,0,0,0-.31-.21l-.17-.09a.58.58,0,0,0-.18,0h-.39a1.19,1.19,0,0,0-.4.08,3.48,3.48,0,0,0-.54.28l-.19.16a1,1,0,0,1-.18.18l-.25.22c-.08.08-.15.16-.23.23l-.1.1-.12.1a1.94,1.94,0,0,1-.32.23,1.78,1.78,0,0,1-.37.14.8.8,0,0,1-.61,0,.48.48,0,0,1-.11-.09l-.09-.12a.36.36,0,0,1-.07-.1l-.07-.1a.76.76,0,0,1-.17-.44.69.69,0,0,1,.21-.52l.09-.07.13-.05h.1s0,0,0,.07,0,.06.09.08l.18.07.17.08a.27.27,0,0,1,.08.07.23.23,0,0,0,.07.07.27.27,0,0,0,.2.07.88.88,0,0,0,.24-.15,1.67,1.67,0,0,0,.33-.32c.09-.12.19-.25.3-.37a2.51,2.51,0,0,1,.26-.31l.29-.28.17-.15.17-.13.14-.12.14-.11a.47.47,0,0,1,.24-.13l.25,0,.11,0h.12a.74.74,0,0,1,.34.08,1.56,1.56,0,0,1,.25.17.89.89,0,0,1,.19.2,1.62,1.62,0,0,0,.12.16l.08.09,0-.12a.67.67,0,0,0-.1-.3L58,52.19a3,3,0,0,0-.6-.63l-.67-.49-.07,0L56.58,51s0,0,0-.06S56.6,50.9,56.63,50.88Z"/><path d="M53.21,49.3c.29,0,.59.07.88.12l.89.12a1,1,0,0,1-.1-.16s-.05-.09-.09-.14-.11-.15-.17-.23l-.16-.24a.37.37,0,0,1,0-.2c0-.1,0-.2,0-.3a.81.81,0,0,1,.12-.29,1.17,1.17,0,0,1,.29-.33l.35-.24.13-.06.13-.06a.85.85,0,0,1,.31-.06H56l.6,0h.31l.25,0a.67.67,0,0,1,.24,0,.18.18,0,0,1,.11,0l.1,0,.19.06a.51.51,0,0,1,.17.07,1,1,0,0,1,.2.13l.18.14a.22.22,0,0,1,.08.1.16.16,0,0,1,0,.07.06.06,0,0,0,.08,0,.17.17,0,0,0,.06-.09s0-.07,0-.09a1.33,1.33,0,0,0-.13-.4,2,2,0,0,0-.33-.48,4,4,0,0,0-.43-.39,7.06,7.06,0,0,0-.78-.53,2.5,2.5,0,0,0-.35-.21,3.13,3.13,0,0,1-.36-.19h0s0,0,0,0,0-.08,0-.09,0,0,0-.06c.36.16.64.3.86.41l.62.34a1.48,1.48,0,0,1,.36.24,2.88,2.88,0,0,1,.22.27l.23.27.11.13.1.13a.31.31,0,0,1,0,.12l0,.13a.72.72,0,0,1,0,.21.49.49,0,0,1,0,.34l-.17.31a.51.51,0,0,1-.25.22l-.29.09a2.52,2.52,0,0,1-.52.07h-.39l-.39,0-.4,0-.4,0h-.34l-.79,0h-.16l.07.12a1.17,1.17,0,0,0,0,.11,1.72,1.72,0,0,0,.22.33l.25.29a.37.37,0,0,0,.31.13,2.61,2.61,0,0,1,.28,0,2.58,2.58,0,0,0,.29,0h.25a1.14,1.14,0,0,1,.26,0l.82.09.29,0a.38.38,0,0,1,.18.06A.26.26,0,0,1,58,50s0,0,.06,0l.1,0,.16.07.18.07,0,0a.34.34,0,0,1,.31.36c0,.09,0,.18,0,.26a.4.4,0,0,0,.09.25s0,.06,0,.14l-.16,0H57.18a3.11,3.11,0,0,1-.43,0l-.48,0-.47,0-.4,0A2.63,2.63,0,0,1,55,51L54.56,51l-.45-.07a.83.83,0,0,0-.22,0l-.22,0-.31-.06-.31-.07H53l-.27-.06a1.14,1.14,0,0,1-.25-.06l-.16-.06-.16-.06-.17-.1-.18-.1-.19-.12L51.38,50,51.26,50l-.11-.09a.45.45,0,0,1-.12-.28.46.46,0,0,1,.09-.32l.08-.09.09-.06.17-.09.19-.08.21-.1.2-.08a.87.87,0,0,1,.38,0,1.31,1.31,0,0,1,.66.25A.3.3,0,0,1,53.21,49.3Zm0,0a.32.32,0,0,0-.15-.12l-.3-.1a1.86,1.86,0,0,0-.34,0,.82.82,0,0,0-.28,0l.52.16A1.92,1.92,0,0,0,53.17,49.31Z"/><path d="M57.88,45.1a2,2,0,0,1,.07-.39,1.35,1.35,0,0,1,.19-.32.29.29,0,0,1,.22-.07,1,1,0,0,1,.29,0,.33.33,0,0,0,.16.11l.14.07a.34.34,0,0,1,.14.51l-.12.19a.94.94,0,0,0-.11.17c-.08.06-.12.12-.12.15a.31.31,0,0,1-.08.14.63.63,0,0,1-.23,0l-.19,0a.38.38,0,0,1-.17-.06.25.25,0,0,1-.16-.16.59.59,0,0,1,0-.27Z"/></g></svg>