<svg width="729" height="96" viewBox="0 0 729 96" fill="none" xmlns="http://www.w3.org/2000/svg">
<path d="M14.08 95.4L8.32 87.6C12.4 85.28 15.16 83.12 16.6 81.12C18.04 79.12 18.76 77.04 18.76 74.88C18.76 72.56 18.16 70.36 16.96 68.28C15.76 66.12 14.28 63.96 12.52 61.8C10.76 59.64 8.96 57.36 7.12 54.96C5.36 52.48 3.88 49.8 2.68 46.92C1.48 43.96 0.88 40.72 0.88 37.2C0.88 30.56 2.56 24.76 5.92 19.8C9.36 14.76 13.68 10.16 18.88 5.99999L40.84 20.64C36.52 23.36 32.96 26.36 30.16 29.64C27.36 32.92 25.96 36.52 25.96 40.44C25.96 43.08 26.56 45.56 27.76 47.88C29.04 50.2 30.44 52.48 31.96 54.72C33.56 56.88 34.96 59.08 36.16 61.32C37.44 63.56 38.08 65.96 38.08 68.52C38.08 74.84 35.88 80.2 31.48 84.6C27.16 88.92 21.36 92.52 14.08 95.4ZM51.5997 91.8L45.4797 8.04L71.1597 4.08L66.7197 53.52H67.7997C70.9997 45.6 74.7997 39.24 79.1997 34.44C83.6797 29.64 88.3997 27.24 93.3597 27.24C94.7997 27.24 96.2397 27.48 97.6797 27.96C99.5197 30.2 101.08 33.28 102.36 37.2C103.64 41.04 104.68 45.32 105.48 50.04C106.28 54.76 106.88 59.6 107.28 64.56C107.68 69.44 107.96 74.12 108.12 78.6C108.28 83 108.36 86.8 108.36 90L86.7597 91.8C86.7597 84.04 86.6797 77.32 86.5197 71.64C86.3597 65.96 86.1197 60.76 85.7997 56.04C85.5597 51.24 85.1997 46.4 84.7197 41.52C83.1997 42.08 81.4397 43.12 79.4397 44.64C77.5197 46.16 75.5597 48.64 73.5597 52.08C71.5597 55.52 69.6797 60.36 67.9197 66.6C66.1597 72.76 64.6797 80.8 63.4797 90.72L51.5997 91.8ZM133.564 91.8L110.884 32.4L135.604 28.68L143.044 75.36H144.004L160.204 32.76L168.844 35.4L179.884 75.72H180.844L193.324 29.52L203.044 32.16L183.964 90.24L174.244 91.8L156.724 63.72L145.444 90.24L133.564 91.8ZM213.259 92.76C212.779 92.76 212.259 92.76 211.699 92.76C211.219 92.76 210.739 92.72 210.259 92.64C207.539 90.8 205.339 88.08 203.659 84.48C202.059 80.8 201.259 77 201.259 73.08C201.259 69.8 202.019 67.08 203.539 64.92C205.059 62.76 207.779 61.16 211.699 60.12C215.699 59 221.299 58.44 228.499 58.44C230.259 58.44 232.139 58.52 234.139 58.68C236.139 58.76 238.259 58.96 240.499 59.28L240.259 56.64C239.939 53.36 238.379 50.8 235.579 48.96C232.859 47.12 229.619 46.2 225.859 46.2C223.779 46.2 221.579 46.52 219.259 47.16C217.019 47.8 214.779 48.8 212.539 50.16L207.259 32.76C209.899 31.64 213.259 30.68 217.339 29.88C221.499 29 225.779 28.56 230.179 28.56C236.019 28.56 241.099 29.4 245.419 31.08C249.819 32.76 253.219 35.4 255.619 39C258.099 42.52 259.339 47.2 259.339 53.04C259.339 53.76 259.299 54.6 259.219 55.56C259.219 56.52 259.179 57.2 259.099 57.6L255.739 90.72L243.859 91.8L242.059 74.4H241.099C238.459 80 234.739 84.48 229.939 87.84C225.219 91.12 219.659 92.76 213.259 92.76ZM222.259 79.32C224.019 79 226.099 78.44 228.499 77.64C230.979 76.76 233.339 75.32 235.579 73.32C237.899 71.24 239.699 68.24 240.979 64.32C239.939 64.32 238.899 64.32 237.859 64.32C236.819 64.24 235.739 64.2 234.619 64.2C232.139 64.2 229.899 64.24 227.899 64.32C225.899 64.4 223.819 64.64 221.659 65.04C221.339 65.76 220.979 66.64 220.579 67.68C220.179 68.72 219.979 70.04 219.979 71.64C219.979 73 220.219 74.48 220.699 76.08C221.179 77.6 221.699 78.68 222.259 79.32ZM270.989 91.8L264.869 32.28L290.549 28.32L288.149 47.52H288.989C292.029 40.88 295.629 35.68 299.789 31.92C304.029 28.08 308.589 25.96 313.469 25.56L310.109 51.12C308.829 50.96 307.589 50.84 306.389 50.76C305.269 50.6 304.149 50.52 303.029 50.52C299.589 50.52 296.629 51.28 294.149 52.8C291.749 54.32 289.749 57.04 288.149 60.96C286.629 64.8 285.429 70.2 284.549 77.16L282.869 90.72L270.989 91.8ZM323.876 22.32C320.836 22.32 318.196 21.24 315.956 19.08C313.796 16.84 312.716 14.2 312.716 11.16C312.716 8.12 313.796 5.51999 315.956 3.35999C318.196 1.11999 320.836 -7.15256e-06 323.876 -7.15256e-06C326.916 -7.15256e-06 329.516 1.11999 331.676 3.35999C333.916 5.51999 335.036 8.12 335.036 11.16C335.036 14.2 333.916 16.84 331.676 19.08C329.516 21.24 326.916 22.32 323.876 22.32ZM318.356 91.8L312.236 32.4L337.916 28.44L330.236 90.72L318.356 91.8Z" fill="#131C33"/>
<path d="M355.258 91.68L348.418 14.4C350.898 13.6 354.018 12.8 357.778 12C361.618 11.12 365.818 10.4 370.378 9.83999C374.938 9.28 379.538 9 384.178 9C388.658 9 393.018 9.44 397.258 10.32C401.578 11.2 405.418 12.68 408.778 14.76C410.218 19.08 410.938 23.2 410.938 27.12C410.938 33.6 409.058 39.28 405.298 44.16C401.618 48.96 396.698 53 390.538 56.28C384.378 59.48 377.578 61.92 370.138 63.6L367.258 90.48L355.258 91.68ZM370.978 55.44C376.418 52.48 380.578 48.72 383.458 44.16C386.338 39.52 387.778 35 387.778 30.6C387.778 27.8 387.138 25.2 385.858 22.8C384.658 20.32 382.778 18.32 380.218 16.8C379.418 16.8 378.538 16.88 377.578 17.04C376.698 17.2 375.818 17.4 374.938 17.64L370.978 55.44ZM464.087 91.92L461.327 60.48L436.007 62.52L433.127 90.48L421.127 91.68L414.287 12L441.647 10.2L437.087 53.28L460.727 53.52L457.247 12.24L484.607 10.44L476.087 90.72L464.087 91.92ZM521.153 92.88C514.833 92.88 509.473 92.12 505.073 90.6C500.673 89.16 497.113 87.32 494.393 85.08C493.673 81.56 493.153 78.16 492.833 74.88C492.513 71.52 492.353 68.28 492.353 65.16C492.353 58.04 493.073 51.4 494.513 45.24C495.953 39.08 497.873 33.52 500.273 28.56C502.753 23.52 505.473 19.2 508.433 15.6C511.393 12 514.353 9.2 517.313 7.19999C523.313 9.67999 528.753 13.68 533.633 19.2C538.593 24.72 542.513 31.4 545.393 39.24C548.353 47 549.833 55.64 549.833 65.16C549.833 71.24 549.073 76.36 547.553 80.52C546.033 84.6 543.193 87.68 539.033 89.76C534.953 91.84 528.993 92.88 521.153 92.88ZM514.193 81.24C517.553 81.24 520.913 81 524.273 80.52C527.633 80.04 530.593 79.36 533.153 78.48C534.033 74.8 534.593 71.56 534.833 68.76C535.153 65.96 535.313 62.96 535.313 59.76C535.313 53.44 534.793 47.64 533.753 42.36C532.713 37.08 531.193 32.32 529.193 28.08C523.993 32.88 519.553 38.2 515.873 44.04C512.193 49.8 509.353 55.8 507.353 62.04C505.433 68.28 504.473 74.4 504.473 80.4C505.913 80.72 507.433 80.96 509.033 81.12C510.713 81.2 512.433 81.24 514.193 81.24ZM607.297 91.8L568.417 27.48H567.457L567.817 90L555.817 90.6L559.057 12L588.097 10.2L609.097 70.08H610.057L611.257 11.4L623.257 10.8L618.097 90L607.297 91.8ZM636.503 91.08L630.863 12L683.783 10.32L683.423 18.36L658.103 21.36L654.983 46.2L680.543 45.96L681.143 56.76L654.023 54.72L650.783 81.48L683.903 77.64L683.423 90L636.503 91.08ZM701.839 95.4L696.079 87.6C700.159 85.28 702.919 83.12 704.359 81.12C705.799 79.12 706.519 77.04 706.519 74.88C706.519 72.56 705.919 70.36 704.719 68.28C703.519 66.12 702.039 63.96 700.279 61.8C698.519 59.64 696.719 57.36 694.879 54.96C693.119 52.48 691.639 49.8 690.439 46.92C689.239 43.96 688.639 40.72 688.639 37.2C688.639 30.56 690.319 24.76 693.679 19.8C697.119 14.76 701.439 10.16 706.639 5.99999L728.599 20.64C724.279 23.36 720.719 26.36 717.919 29.64C715.119 32.92 713.719 36.52 713.719 40.44C713.719 43.08 714.319 45.56 715.519 47.88C716.799 50.2 718.199 52.48 719.719 54.72C721.319 56.88 722.719 59.08 723.919 61.32C725.199 63.56 725.839 65.96 725.839 68.52C725.839 74.84 723.639 80.2 719.239 84.6C714.919 88.92 709.119 92.52 701.839 95.4Z" fill="#EBBD0E"/>
</svg>
