<svg width="24" height="24" xmlns="http://www.w3.org/2000/svg" fill-rule="evenodd" clip-rule="evenodd"><path d="M6.72 20.492c1.532.956 3.342 1.508 5.28 1.508 1.934 0 3.741-.55 5.272-1.503l1.24 1.582c-1.876 1.215-4.112 1.921-6.512 1.921-2.403 0-4.642-.708-6.52-1.926l1.24-1.582zm-5.317-1.33h-1.403c0-1.104.895-2 2-2h2c.53 0 1.039.211 1.414.586s.586.884.586 1.414h-1.403c-.196-.606-.755-.726-1.597-.726s-1.4.115-1.597.726zm10.559-11.162c-3.037 0-5.5 2.462-5.5 5.5 0 3.037 2.463 5.5 5.5 5.5s5.5-2.463 5.5-5.5c0-3.038-2.463-5.5-5.5-5.5zm7.441 11h-1.403c0-1.105.895-2 2-2h2c.53 0 1.039.211 1.414.586s.586.883.586 1.414h-1.403c-.196-.606-.755-.726-1.597-.726s-1.4.115-1.597.726zm-7.441-9.5c2.346 0 4 1.654 4 4s-1.654 4-4 4-4-1.654-4-4 1.654-4 4-4zm-8.962 2.662c1.242 0 2.25 1.008 2.25 2.25s-1.008 2.25-2.25 2.25-2.25-1.008-2.25-2.25 1.008-2.25 2.25-2.25zm18-.162c1.242 0 2.25 1.008 2.25 2.25s-1.008 2.25-2.25 2.25-2.25-1.008-2.25-2.25 1.008-2.25 2.25-2.25zm-8.75-1.5v.509c.362.01.768.073 1.221.21l-.181.824c-.384-.135-.808-.257-1.221-.232-.745.043-.81.688-.291.958.856.402 1.972.7 1.972 1.772.001.859-.672 1.316-1.5 1.432v.527h-.5v-.499c-.518-.009-1.053-.133-1.5-.364l.227-.822c.478.186 1.114.383 1.613.27.574-.13.692-.721.057-1.005-.466-.217-1.889-.403-1.889-1.621 0-.682.519-1.292 1.492-1.425v-.534h.5zm-9.25 3.012c.497 0 .9.403.9.9s-.403.9-.9.9-.9-.403-.9-.9.403-.9.9-.9zm18-.162c.497 0 .9.403.9.9s-.403.9-.9.9-.9-.403-.9-.9.403-.9.9-.9zm-13-12.666v2.149c-2.938 1.285-5.141 3.942-5.798 7.158l-2.034-.003c.732-4.328 3.785-7.872 7.832-9.304zm8 0c4.047 1.432 7.1 4.976 7.832 9.304l-2.034.003c-.657-3.216-2.86-5.873-5.798-7.158v-2.149zm-5.597 6.316h-1.403c0-1.105.895-2 2-2h2c.53 0 1.039.211 1.414.586s.586.883.586 1.414h-1.403c-.196-.606-.755-.726-1.597-.726s-1.4.115-1.597.726zm1.597-7c1.242 0 2.25 1.008 2.25 2.25s-1.008 2.25-2.25 2.25-2.25-1.008-2.25-2.25 1.008-2.25 2.25-2.25zm0 1.35c.497 0 .9.403.9.9s-.403.9-.9.9-.9-.403-.9-.9.403-.9.9-.9z"/></svg>