<svg xmlns="http://www.w3.org/2000/svg" width="776" height="582" fill="none"><path fill="#56DB96" d="M0 0h776v582H0z"/><path fill="#C5D6EC" d="M297.396 327.372a800.067 800.067 0 0 0 2.642 7.447c.278-.115.555-.23.833-.335 2.431-.977 4.709-1.915 6.518-2.958-.382-1.129-.775-2.278-1.177-3.455a920.033 920.033 0 0 1-1.522-4.47c-2.058 1.32-4.575 2.565-7.294 3.771ZM289.384 335.01a87.831 87.831 0 0 0-1.618-3.608 162.37 162.37 0 0 0-3.34 1.416c1.579.68 3.235 1.417 4.958 2.192ZM296.363 324.405l.718 2.067c2.737-1.215 5.264-2.479 7.294-3.79a406.53 406.53 0 0 1-2.547-7.725 398.8 398.8 0 0 1-7.408 3.886c.632 1.8 1.283 3.676 1.943 5.562ZM288.236 330.167c.556-.23 1.12-.46 1.695-.689 2.105-.862 4.24-1.733 6.279-2.623-.249-.708-.498-1.417-.747-2.134a1482.77 1482.77 0 0 0-1.905-5.447c-.842.431-1.684.862-2.546 1.292-1.895.967-3.828 1.953-5.762 2.958.507 1.474 1.417 3.369 2.441 5.504.172.373.364.756.545 1.139ZM301.234 340.562c-.469-1.091-1.062-2.632-1.742-4.48a67.788 67.788 0 0 0-3.963 1.761c1.857.881 3.772 1.79 5.705 2.719ZM287.347 330.54c-.172-.364-.354-.737-.526-1.091-1.005-2.087-1.905-3.953-2.441-5.466a316.95 316.95 0 0 0-9.505 5.131c2.307.746 5.14 1.847 8.337 3.197 1.292-.584 2.68-1.168 4.135-1.771ZM290.295 330.368c-.555.23-1.101.45-1.647.67a78.208 78.208 0 0 1 2.011 4.556c1.225.565 2.479 1.139 3.761 1.733 1.522-.776 3.13-1.474 4.748-2.144a717.402 717.402 0 0 1-2.632-7.419 339.794 339.794 0 0 1-6.241 2.604ZM300.373 335.728c.948 2.565 1.733 4.556 2.211 5.494l2.843 1.379c1.685-.881 3.321-1.58 4.891-2.097-.718-2.373-1.617-5.092-2.623-8.04-1.837 1.043-4.087 1.962-6.48 2.92-.268.105-.555.229-.842.344ZM306.518 343.117c1.723.843 3.455 1.685 5.178 2.527-.249-1.206-.622-2.632-1.091-4.24a31.399 31.399 0 0 0-4.087 1.713Z"/><path fill="#C5D6EC" d="m264.039 386.219.976-.555 2.125-1.206c.383-.211.775-.44 1.197-.68l1.876-1.062c.392-.22.804-.45 1.225-.689l.297-.173c1.474-.832 3.082-1.742 4.786-2.708l.038-.029c2.709-1.532 5.657-3.207 8.729-4.939l.68-.383c2.833-1.608 5.753-3.254 8.662-4.901l1.273-.718c.996-.564 1.991-1.12 2.968-1.684l.708-.402c.689-.383 1.369-.776 2.039-1.159l.028-.019 22.274-12.606a.263.263 0 0 0-.01-.469c-.105-.057-.22-.105-.325-.162a.451.451 0 0 1-.029.335.473.473 0 0 1-.43.268.577.577 0 0 1-.211-.048l-5.37-2.642c-18.148-8.931-40.737-20.043-47.217-20.599a2.834 2.834 0 0 0-1.704.422l-22.59 13.391a.473.473 0 0 1-.651-.173.485.485 0 0 1 .173-.66l22.608-13.382a3.855 3.855 0 0 1 2.278-.555c.833.077 1.905.307 3.188.67 3.541-2.019 7.045-3.886 10.481-5.666-.029-.125-.067-.249-.096-.364a.482.482 0 0 1 .364-.574.489.489 0 0 1 .574.363l.029.115c1.886-.976 3.762-1.933 5.609-2.881 3.819-1.943 7.447-3.8 10.95-5.705-.029-.095-.067-.191-.096-.287a.481.481 0 1 1 .919-.287c.01.038.029.077.039.115.076-.038.153-.086.229-.124a.484.484 0 0 1 .651.191.484.484 0 0 1-.191.651c-.125.067-.259.143-.393.21 1.436 4.509 2.958 8.96 4.442 13.286 1.656 4.843 3.178 9.275 4.259 12.884.641 2.163 1.13 4.029 1.398 5.513 1.751.862 3.493 1.713 5.216 2.565l2.173 1.063c-2.067-6.901-4.03-14.004-5.934-20.895-2.843-10.29-5.294-19.182-7.17-23.949a.485.485 0 0 1 .268-.622.483.483 0 0 1 .622.268c1.896 4.824 4.356 13.726 7.198 24.044 1.972 7.16 4.021 14.568 6.174 21.718l2.029.996a.494.494 0 0 1 .211.211c-.01-.02-.01-.048-.019-.067l-14.415-47.027c-.622-.842-1.551-1.024-2.575-1.014-16.789 8.203-38.594 20.244-61.614 33.223a1.365 1.365 0 0 0-.622 1.628l1.225 3.627-37.732 22.609c-2.105 1.263-1.742 4.412.594 5.159l52.348 16.818c1.072.402 2.259.287 3.264-.278ZM260 359.418c1.761-.584 3.733-.507 4.068.517.344 1.024-.355 2.192-2.106 2.776-1.761.584-3.963.411-4.298-.613-.345-1.034.574-2.096 2.336-2.68Z"/><path fill="#841DBB" d="m323.356 351.378-2.03-.995c-2.153-7.151-4.202-14.559-6.173-21.719-2.843-10.318-5.303-19.23-7.198-24.044a.468.468 0 0 0-.622-.268.476.476 0 0 0-.268.622c1.876 4.776 4.326 13.659 7.169 23.949 1.905 6.882 3.867 13.994 5.934 20.895l-2.172-1.063c-1.723-.852-3.465-1.703-5.217-2.565-.268-1.484-.747-3.35-1.398-5.513-1.081-3.618-2.594-8.05-4.259-12.884-1.484-4.317-3.006-8.777-4.441-13.286.134-.067.258-.143.392-.21a.485.485 0 0 0 .192-.651.484.484 0 0 0-.651-.191c-.077.038-.153.086-.23.124-.01-.038-.029-.077-.038-.115a.485.485 0 0 0-.603-.316.484.484 0 0 0-.316.603c.028.096.067.192.095.287-3.503 1.905-7.131 3.753-10.95 5.705a829.207 829.207 0 0 0-5.609 2.881l-.028-.115a.49.49 0 0 0-.575-.363.48.48 0 0 0-.363.574c.028.115.067.239.095.364-3.446 1.79-6.939 3.647-10.481 5.666-1.273-.363-2.345-.603-3.187-.67-.776-.067-1.56.125-2.278.555l-22.609 13.382a.483.483 0 0 0-.172.66c.134.23.43.307.651.173l22.627-13.43c.546-.325 1.139-.469 1.704-.421 6.48.555 29.07 11.668 47.218 20.599l5.37 2.641a.552.552 0 0 0 .21.048.471.471 0 0 0 .46-.603c-.01-.028-.02-.067-.039-.095a.497.497 0 0 0-.21-.211Zm-13.027-10.883a32.651 32.651 0 0 0-4.892 2.096 401.14 401.14 0 0 1-2.842-1.378c-.489-.929-1.274-2.92-2.212-5.494l.862-.345c2.393-.967 4.633-1.886 6.48-2.919.986 2.948 1.886 5.666 2.604 8.04Zm-9.094.067a917.003 917.003 0 0 0-5.714-2.719 74.313 74.313 0 0 1 3.963-1.761c.689 1.848 1.282 3.389 1.751 4.48Zm-6.824-3.235c-1.283-.594-2.527-1.178-3.762-1.733a81.302 81.302 0 0 0-2.01-4.556c.545-.22 1.091-.44 1.646-.67 2.087-.852 4.202-1.713 6.231-2.594.938 2.68 1.838 5.226 2.633 7.418-1.608.661-3.216 1.359-4.738 2.135Zm-5.026-2.317a332.235 332.235 0 0 0-4.958-2.192c1.053-.459 2.173-.938 3.341-1.416a124.057 124.057 0 0 1 1.617 3.608Zm17.134 8.108a29.854 29.854 0 0 1 4.087-1.704c.469 1.608.842 3.034 1.091 4.24-1.723-.852-3.455-1.694-5.178-2.536Zm.881-11.582c-1.81 1.043-4.097 1.971-6.519 2.957-.277.115-.555.221-.833.335a540.526 540.526 0 0 1-2.641-7.446c2.718-1.207 5.235-2.46 7.284-3.772.507 1.503 1.024 2.996 1.522 4.47a408.69 408.69 0 0 1 1.187 3.456Zm-3.025-8.864c-2.02 1.321-4.547 2.575-7.294 3.791l-.718-2.068c-.66-1.886-1.311-3.771-1.952-5.571a344.126 344.126 0 0 0 7.408-3.886 455.438 455.438 0 0 0 2.556 7.734Zm-13.362-2.096c.861-.44 1.703-.871 2.546-1.292a1165.74 1165.74 0 0 1 1.905 5.446c.248.718.497 1.426.746 2.135-2.039.89-4.173 1.761-6.279 2.622-.574.23-1.139.46-1.694.689-.182-.382-.373-.765-.546-1.139-1.024-2.124-1.933-4.02-2.441-5.503a850.025 850.025 0 0 1 5.763-2.958Zm-6.624 3.398c.536 1.512 1.436 3.379 2.441 5.465.172.355.344.718.526 1.092a117.86 117.86 0 0 0-4.125 1.77c-3.197-1.349-6.03-2.45-8.337-3.197a302.653 302.653 0 0 1 9.495-5.13Z"/><path fill="#fff" d="M261.961 362.711c1.761-.584 2.451-1.742 2.106-2.776-.345-1.024-2.316-1.101-4.068-.517-1.761.584-2.68 1.647-2.336 2.68.335 1.025 2.537 1.187 4.298.613Z"/><path fill="#007E05" d="M479.482 199.885c-6.643 5.447-12.779 9.419-18.742 12.156 6.365.288 10.29 7.782 11.113 15.66 4.288-9.629 11.343-12.137 17.373-6.758.038-8.595-.46-16.741-6.155-22.245a.427.427 0 0 1-.134-.287 14.112 14.112 0 0 1-3.503.699c.038.029.086.057.115.096a.493.493 0 0 1-.067.679Zm2.766 6.892c.862 1.455-.057 3.886-2.508 5.293-2.45 1.407-4.901 1.627-5.743.163-.842-1.465.412-3.877 2.9-5.207 2.279-1.216 4.604-1.522 5.351-.249ZM470.789 241.867c-.45 10.031 2.604 16.196 9.61 19.402 8.567-5.102 15.057-8.519 20.407-10.73.785-.373 1.092-.842 1.206-1.081a.242.242 0 0 0-.009-.22.335.335 0 0 0-.23-.192c-6.901-1.799-10.605-5.877-11.936-13.132-3.723 9.447-16.616 9.868-18.741 2.546a41.674 41.674 0 0 0-.307 3.407Zm13.573 5.849c2.967-1.245 5.839-1.139 6.413.239.575 1.378-1.359 3.494-4.326 4.738-2.968 1.244-5.839 1.139-6.413-.239-.575-1.379 1.359-3.494 4.326-4.738Z"/><path fill="#007E05" d="M478.342 238.976c1.503.326 3.437-.22 5.169-1.455 1.895-1.349 3.159-3.254 3.379-5.101.909-7.428-.354-8.376-3.925-9.036a4.188 4.188 0 0 0-.765-.067c-1.264 0-2.364.565-3.102 1.082-1.799 1.253-3.149 3.407-3.522 5.609-.565 3.292.239 8.423 2.766 8.968Z"/><path fill="#007E05" d="M490.172 221.364c-.134 6.404 0 10.587.459 13.573 1.13 7.37 4.633 11.438 11.381 13.19.373.096.689.354.852.708.153.326.163.709.01 1.034-.201.44-.661 1.063-1.685 1.551-5.379 2.22-11.888 5.657-20.522 10.806l-.211.125-.229-.096c-7.466-3.302-10.864-9.983-10.405-20.417.058-1.493.23-3.091.527-4.872.277-1.1.957-4.891.622-8.337-.603-7.896-4.681-16.042-11.094-15.64a.474.474 0 0 1-.392-.785c-.02-.029-.058-.048-.067-.076a.48.48 0 0 1 .239-.632c6.097-2.709 12.376-6.739 19.21-12.338a12.74 12.74 0 0 1-3.168-.297l-5.427 3.656c-1.56 3.092-4.7 4.949-8.059 5.428l-9.275 6.25c8.021 1.407 11.17 3.101 13.534 6.796 6.968 10.874-13.018 28.074 12.797 44.327l29.252-16.655c-28.993-9.792-2.154-37.071-22.379-51.889-.718.527-1.512.977-2.345 1.321 5.992 5.83 6.442 14.329 6.375 23.269Z"/><path fill="#0E2722" d="M459.418 212.118c.019.038.048.048.067.077a.48.48 0 0 0-.115.335c.019.258.23.459.508.449 6.413-.402 10.49 7.744 11.093 15.641.335 3.446-.344 7.236-.622 8.337-.287 1.78-.459 3.379-.526 4.872-.469 10.433 2.938 17.114 10.404 20.416l.23.096.211-.124c8.633-5.15 15.142-8.586 20.522-10.807 1.024-.488 1.483-1.12 1.684-1.55a1.222 1.222 0 0 0-.009-1.034 1.323 1.323 0 0 0-.852-.709c-6.748-1.761-10.252-5.829-11.381-13.189-.46-2.987-.603-7.17-.46-13.573.058-8.931-.382-17.43-6.374-23.279-.288.125-.575.23-.871.335a.466.466 0 0 0 .134.287c5.695 5.495 6.192 13.65 6.154 22.245-6.04-5.37-13.094-2.871-17.373 6.758-.823-7.878-4.747-15.382-11.112-15.66 5.963-2.737 12.098-6.709 18.741-12.156a.482.482 0 0 0 .067-.67c-.029-.038-.076-.067-.115-.096-.191.01-.373.029-.564.029-6.825 5.6-13.114 9.629-19.211 12.338-.23.106-.335.393-.23.632Zm16.148 17.89c.373-2.202 1.723-4.346 3.522-5.609.747-.517 1.838-1.082 3.102-1.082.248 0 .507.019.765.067 3.571.651 4.844 1.598 3.925 9.036-.22 1.838-1.484 3.742-3.379 5.102-1.733 1.234-3.666 1.78-5.169 1.454-2.517-.545-3.321-5.676-2.766-8.968Zm14.271 5.905c1.331 7.265 5.035 11.343 11.936 13.133a.381.381 0 0 1 .23.191.247.247 0 0 1 .01.221c-.115.239-.421.698-1.206 1.081-5.351 2.211-11.841 5.619-20.407 10.73-6.997-3.197-10.051-9.371-9.611-19.402.048-1.072.144-2.201.307-3.407 2.125 7.322 15.018 6.901 18.741-2.547Z"/><path fill="#0E2722" d="M486.448 252.693c2.967-1.244 4.9-3.369 4.326-4.738-.574-1.369-3.446-1.484-6.413-.239-2.967 1.244-4.901 3.369-4.326 4.738.574 1.368 3.445 1.483 6.413.239ZM473.996 212.233c.842 1.464 3.302 1.244 5.743-.163 2.441-1.407 3.359-3.838 2.508-5.293-.747-1.263-3.073-.957-5.351.258-2.489 1.321-3.743 3.733-2.9 5.198Z"/><path fill="#E19615" d="M439.671 195.827c.172 2.881 1.445 5.36 3.398 6.643 3.704 2.431 7.255 3.187 9.045 1.914 1.359-.957 1.694-3.034.967-6.001-1.733-4.365-4.298-8.845-7.38-13.209h-.048a4.034 4.034 0 0 0-.584-.039c-.957 0-1.837.354-2.603 1.063-1.915 1.761-3.044 5.628-2.795 9.629Z"/><path fill="#E19615" d="M257.693 275.742a6.034 6.034 0 0 0 2.862-.393c.009-.21.009-.402.038-.622 1.292-15.621 2.747-29.854 4.633-40.249 2.728-14.368 11.285-19.019 24.121-16.502l23.499 5.063c2.268-3.819 4.766-7.58 7.504-11.39 7.81-12.788 19.067-23.068 31.596-29.902 5.877-8.27 11.994-10.51 19.125-8.27 7.686-6.586 15.018-7.179 21.029-3.475h.01a14.95 14.95 0 0 1 1.502 1.034 21.21 21.21 0 0 1 2.412 2.182c13.736 2.364 26.084 10.079 34.267 24.38 6.49 13.027 15.641 17.363 23.021 8.011 2.431 2.02 5.762 2.757 8.892 2.297 3.36-.488 6.499-2.335 8.059-5.427.852-1.684 1.235-3.723.938-6.116 1.091 1.235 2.69 2.058 4.499 2.46 1.005.229 2.077.325 3.168.296l.565-.028a14.112 14.112 0 0 0 3.503-.699c.297-.096.584-.211.871-.335a11.667 11.667 0 0 0 2.345-1.321c2.116-1.56 3.609-3.867 3.762-6.949 9.036 5.781 19.89-6.059 13.152-21.173-20.991-51.496-108.621-94.617-197.505-35.128-40.488 30.706-61.508 67.873-70.285 132.387-.575 4.279-.106 8.232 1.158 11.764 4.968-3.025 14.568-2.623 21.259-1.895Zm236.165-112.708c1.215-1.187 2.833-1.541 4.642-1.043a.475.475 0 0 1 .335.583.48.48 0 0 1-.593.335c-1.494-.411-2.747-.143-3.724.804-2.163 2.097-2.804 7.466-1.522 12.769 1.35 5.571 4.413 9.333 8.175 10.051a.476.476 0 0 1-.087.947c-.028 0-.057 0-.086-.009-4.144-.795-7.485-4.815-8.93-10.769-1.379-5.685-.642-11.313 1.79-13.668Zm-60.781-36.737a.473.473 0 0 1 .603-.296c11.802 4.039 25.997 14.463 37.962 27.892 11.553 12.96 18.76 26.217 18.818 34.592a.475.475 0 0 1-.479.479.48.48 0 0 1-.478-.479c-.039-5.331-3.121-12.606-8.127-20.33a.409.409 0 0 1-.21-.019c-2.413-.785-4.461-.316-5.925 1.349-2.671 3.073-2.862 9.4-.431 14.406 2.938 6.03 7.916 9.026 13.333 8.011a.478.478 0 0 1 .173.938c-.766.144-1.513.211-2.231.211-5.762 0-9.983-4.326-12.137-8.749-2.594-5.322-2.345-12.108.565-15.448 1.532-1.752 3.676-2.393 6.097-1.857-10.883-16.272-30.007-34.2-47.256-40.106-.229-.067-.363-.345-.277-.594Zm-10.098 13.372a.478.478 0 0 1 .641-.22c16.722 8.098 32.085 25.7 40.919 40.785.01.01.019.01.029.02.105.086.172.21.182.335 3.168 5.465 5.485 10.586 6.681 14.788a.48.48 0 0 1-.325.593c-.048.01-.087.02-.134.02a.472.472 0 0 1-.46-.345c-1.187-4.183-3.503-9.285-6.671-14.731-1.082-.804-2.623-1.512-4.068-.641-2.049 1.234-3.58 5.561-2.374 12.443 1.053 3.867 3.532 7.074 6.633 8.509 1.694.795 3.369.919 4.594.354a.47.47 0 0 1 .632.23.469.469 0 0 1-.229.632c-.632.287-1.35.44-2.116.44-1.034 0-2.163-.268-3.283-.785-3.35-1.56-6.03-4.987-7.16-9.169-1.148-6.481-.038-11.755 2.805-13.478 1.072-.641 2.307-.689 3.589-.181-8.854-14.607-23.623-31.195-39.656-38.958a.466.466 0 0 1-.229-.641Zm-10.28 15.277a.477.477 0 0 1 .641-.22c14.07 6.93 33.76 26.006 40.651 43.36 1.072 4.336-.134 6.231-1.321 7.073-.737.527-1.684.776-2.776.776-2.067 0-4.661-.919-7.341-2.68-2.202-1.446-3.637-4.202-3.829-7.39-.258-4.269.986-8.442 3.101-10.395.919-.852 2.001-1.292 3.169-1.321-8.979-12.338-21.987-23.613-32.066-28.581a.44.44 0 0 1-.229-.622Z"/><path fill="#0E2722" d="M412.91 155.587c10.088 4.968 23.087 16.243 32.065 28.581-1.168.02-2.249.469-3.168 1.321-2.116 1.953-3.36 6.126-3.101 10.395.191 3.178 1.627 5.944 3.828 7.39 2.69 1.761 5.274 2.68 7.342 2.68 1.091 0 2.039-.259 2.776-.776 1.187-.842 2.383-2.737 1.321-7.073-6.892-17.354-26.581-36.43-40.652-43.36a.478.478 0 0 0-.641.22c-.115.239 0 .507.23.622Zm32.735 29.577h.048c3.082 4.365 5.647 8.844 7.38 13.209.727 2.967.392 5.044-.967 6.001-1.79 1.264-5.341.508-9.045-1.914-1.953-1.283-3.226-3.762-3.398-6.643-.24-3.991.88-7.868 2.795-9.629.765-.708 1.646-1.062 2.603-1.062.192 0 .393.009.584.038ZM423.198 140.311c16.033 7.762 30.802 24.35 39.656 38.957-1.282-.508-2.517-.469-3.589.182-2.843 1.713-3.953 6.987-2.805 13.477 1.13 4.183 3.81 7.609 7.16 9.169 1.12.527 2.249.785 3.283.785.766 0 1.484-.143 2.115-.44a.475.475 0 1 0-.402-.861c-1.225.564-2.9.44-4.594-.355-3.101-1.445-5.58-4.642-6.633-8.509-1.216-6.882.316-11.208 2.373-12.443 1.446-.871 2.987-.163 4.068.641 3.169 5.446 5.476 10.548 6.672 14.731a.47.47 0 0 0 .459.345c.039 0 .087-.01.134-.019a.473.473 0 0 0 .326-.594c-1.197-4.202-3.513-9.323-6.681-14.788a.457.457 0 0 0-.182-.335c-.01-.01-.019-.01-.029-.02-8.835-15.094-24.197-32.687-40.919-40.785a.48.48 0 0 0-.642.22.484.484 0 0 0 .23.642ZM433.372 126.91c17.249 5.906 36.373 23.834 47.256 40.106-2.431-.536-4.565.095-6.097 1.857-2.91 3.34-3.159 10.127-.565 15.449 2.154 4.422 6.375 8.748 12.137 8.748.718 0 1.465-.067 2.231-.21a.478.478 0 0 0 .382-.556.481.481 0 0 0-.555-.382c-5.417 1.014-10.404-1.982-13.333-8.012-2.431-5.006-2.25-11.333.431-14.406 1.454-1.675 3.503-2.144 5.924-1.349a.539.539 0 0 0 .211.019c5.006 7.724 8.088 14.999 8.127 20.33 0 .259.22.479.478.479a.48.48 0 0 0 .479-.479c-.058-8.375-7.275-21.632-18.818-34.592-11.965-13.429-26.16-23.853-37.962-27.892a.47.47 0 0 0-.603.297c-.105.229.029.507.277.593ZM500.998 187.48c.029.01.058.01.086.01a.477.477 0 0 0 .087-.948c-3.772-.718-6.825-4.479-8.175-10.05-1.282-5.293-.641-10.663 1.522-12.769.977-.948 2.23-1.216 3.724-.804a.49.49 0 0 0 .593-.335.472.472 0 0 0-.335-.584c-1.819-.498-3.427-.143-4.642 1.043-2.432 2.355-3.169 7.983-1.79 13.679 1.445 5.944 4.786 9.964 8.93 10.758Z"/><path fill="#FE9CE5" d="M401.489 221.891a95.924 95.924 0 0 1-.546-6.164c-.842.43-1.79.66-2.833.66-4.949 0-8.49-3.542-8.863-8.72-.01.555-.048 1.12-.144 1.685-.421 2.603-1.675 4.92-3.522 6.518-1.551 1.34-3.379 2.039-5.227 2.039-.392 0-.775-.029-1.167-.096-2.594-.421-4.537-1.771-5.6-3.905-.938-1.886-1.196-4.365-.746-7.169 1.005-6.232 4.46-9.342 9.495-8.529 2.24.364 4.183 1.733 5.456 3.858.804 1.34 1.282 2.881 1.416 4.498.058-5.609 2.709-8.921 7.677-9.581 1.244-.163 2.412-.01 3.455.431-.009-.498-.009-.977-.019-1.484 0-.316-.21-.613-.517-.68-1.713-.392-7.025.23-12.95.843-.316.028-.642.067-.967.095-3.006.307-6.126.584-8.988.718-.172.01-.316-.134-.325-.306-.039-3.857-.919-6.576-3.475-7.016-3.417 5.58-3.8 20.043-4.288 34.181a.903.903 0 0 1-.91.785c-1.387-.029-2.785-.058-4.173-.106l-.967-.028a319.528 319.528 0 0 1-6.106-.259 77.048 77.048 0 0 1-3.36 6.71c4.269-.488 12.52-1.158 21.134-1.742 6.796-.459 13.813-.871 19.249-1.11 4.355-.182 7.706-.259 9.132-.163-.565-1.302-.986-3.302-1.312-5.762h-.009a.75.75 0 0 0 0-.201Z"/><path fill="#FE9CE5" d="M382.184 199.158a8.891 8.891 0 0 0-1.388-.115c-4.958 0-6.518 4.815-7.007 7.858-.421 2.604-.191 4.882.661 6.595.928 1.876 2.575 3.015 4.891 3.389 1.962.316 3.953-.297 5.619-1.733 1.684-1.445 2.823-3.56 3.206-5.944.383-2.383-.038-4.738-1.177-6.643-1.149-1.885-2.843-3.091-4.805-3.407Z"/><path fill="#0E2722" d="M324.39 219.995c-.411.412-.181 1.13.402 1.207a362.558 362.558 0 0 0 31.865 2.957c2.039.096 4.068.192 6.107.259 1.282-6.394 1.723-12.578 2.106-18.091.957-13.487 1.713-24.226 13.199-29.979a132.552 132.552 0 0 1-3.465-1.005c-13.257 9.199-14.099 18.943-15.066 30.218-.459 5.399-.938 10.989-2.795 17.009a.483.483 0 0 1-.459.335.711.711 0 0 1-.144-.019.484.484 0 0 1-.316-.603c1.828-5.925 2.297-11.457 2.757-16.808.967-11.342 1.819-21.173 14.855-30.486-.497-.153-.995-.297-1.512-.45a.48.48 0 0 1 .268-.919c.804.23 1.579.469 2.355.699.325.096.651.191.966.287 2.594-2.938 5.619-5.906 8.615-6.088a.48.48 0 0 1 .057.958c-2.546.162-5.274 2.756-7.667 5.436.958.278 1.896.536 2.805.766 4.03-3.924 8.059-5.733 12.769-5.666-6.011-3.705-13.343-3.111-21.03 3.474-7.13-2.24-13.247 0-19.124 8.27-2.469 3.475-4.891 8.012-7.332 13.736-3.8 7.265-11.467 15.717-20.216 24.503Zm7.639.852a.496.496 0 0 1-.278.087.478.478 0 0 1-.277-.872c3.924-2.794 5.513-6.7 7.351-11.227 1.072-2.642 2.182-5.36 3.857-8.079a.48.48 0 0 1 .814.507c-1.637 2.652-2.728 5.332-3.791 7.936-1.809 4.47-3.522 8.691-7.676 11.648Zm36.459-47.169a.484.484 0 0 1 .651.191.485.485 0 0 1-.192.651c-5.341 2.91-9.218 8.011-11.85 15.611-.871 2.499-1.541 5.217-2.048 8.29-1.388 8.298-2.776 16.329-4.614 23.307a.479.479 0 0 1-.459.354c-.038 0-.077-.009-.125-.019a.476.476 0 0 1-.344-.584c1.828-6.939 3.216-14.941 4.594-23.221.527-3.13 1.206-5.896 2.087-8.442 2.709-7.83 6.738-13.114 12.3-16.138Zm-16.981 16.827c2.872-8.05 5.791-13.295 8.912-16.043a.484.484 0 0 1 .679.048.484.484 0 0 1-.048.68c-2.957 2.594-5.867 7.858-8.643 15.64-1.618 4.518-2.986 9.419-4.212 14.99-.832 3.819-3.082 12.989-5.886 15.544a.482.482 0 0 1-.326.125.504.504 0 0 1-.354-.153.484.484 0 0 1 .029-.68c1.809-1.637 3.896-7.265 5.599-15.037 1.235-5.619 2.623-10.558 4.25-15.114Z"/><path fill="#0E2722" d="M383.83 176.482c.124-.009.249-.019.373-.019.048-.009.105-.009.153-.009 2.738-.039 5.657.861 8.433 2.67.239.153.459.316.689.479.019.009.029.019.048.028 5.198 3.686 7.83 8.835 7.428 14.588a.48.48 0 0 1-.479.44h-.038a.472.472 0 0 1-.44-.507c.325-4.595-1.427-8.797-4.978-12.089 1.541 3.158 2.307 7.265 2.25 12.271 0 .258-.22.469-.479.469h-.01a.468.468 0 0 1-.469-.488c.067-6.079-1.072-10.769-3.388-13.947-.211-.153-.421-.306-.651-.449-2.144-1.398-4.365-2.212-6.499-2.441 5.006 4.221 6.758 8.308 7.533 16.98a.475.475 0 0 1-.431.517h-.048a.485.485 0 0 1-.478-.44c-.804-8.912-2.652-12.798-8.175-17.134-1.273.038-2.507.278-3.646.775a8.907 8.907 0 0 0-1.532.872c5.954 2.89 8.452 10.509 7.868 17.037 5.925-.612 11.237-1.234 12.951-.842.306.067.517.364.517.68.009.497.009.985.019 1.483a5.973 5.973 0 0 1 1.646 1.034c1.953 1.713 3.121 4.815 3.121 8.289 0 4.432-1.57 7.667-4.174 8.988.144 2.182.326 4.24.546 6.164.009.067.009.134.019.201h.01l12.232-2.345c-3.704-2.441-5.992-5.877-8.078-10.529.124-.574.172-1.263.182-1.991 2.354 5.676 4.824 9.649 9.284 12.262l2.135-.412c.775-.153 1.11-1.072.603-1.675-10.501-12.405-13.008-28.103-16.665-36.44a.188.188 0 0 1-.095-.057c-6.615-5.647-11.18-6.892-17.287-4.413Z"/><path fill="#0E2722" d="M393.612 171.055c-4.939-.479-9.074 1.062-13.171 4.891a32.54 32.54 0 0 0 1.522.297c6.681-3.188 11.64-2.527 18.225 2.651-.019-.048-.048-.086-.067-.124-1.225-2.135-2.604-3.992-4.097-5.542a20.301 20.301 0 0 0-2.412-2.173ZM368.811 223.767c.488-14.138.871-28.601 4.288-34.181 2.556.44 3.437 3.159 3.475 7.016.009.172.153.316.325.306 2.862-.134 5.983-.411 8.988-.717.833-8.338-3.216-14.521-7.772-16.483-.814.699-1.532 1.551-2.154 2.536 4.537 3.552 6.815 7.782 6.768 12.578a.479.479 0 0 1-.479.469h-.01a.468.468 0 0 1-.469-.488c.048-4.442-2.077-8.376-6.288-11.716-.862 1.617-1.513 3.532-1.905 5.762a.491.491 0 0 1-.555.392.49.49 0 0 1-.393-.555c.91-5.197 2.968-8.165 5.054-9.878.01-.009.019-.019.029-.019a10.523 10.523 0 0 1 2.422-1.484c.258-.114.536-.191.804-.277a43.45 43.45 0 0 1-1.427-.316c-11.974 5.389-12.73 16.119-13.687 29.672-.393 5.495-.823 11.649-2.096 18.053 1.387.048 2.785.076 4.173.105a.886.886 0 0 0 .909-.775Z"/><path fill="#4166FF" d="M381.964 176.253a31.355 31.355 0 0 1-1.522-.297c4.107-3.829 8.232-5.38 13.171-4.891a14.849 14.849 0 0 0-1.503-1.034h-.009c-4.71-.067-8.739 1.742-12.769 5.666a78.162 78.162 0 0 1-2.805-.765c2.393-2.681 5.112-5.274 7.667-5.437a.48.48 0 0 0-.057-.957c-2.996.191-6.03 3.149-8.615 6.087-.325-.095-.641-.191-.966-.287-.766-.23-1.551-.469-2.355-.699a.48.48 0 0 0-.268.919c.517.153 1.014.297 1.512.45-13.027 9.323-13.879 19.144-14.855 30.486-.46 5.351-.929 10.893-2.757 16.808a.493.493 0 0 0 .316.603.491.491 0 0 0 .603-.315c1.857-6.021 2.336-11.611 2.795-17.01.967-11.275 1.809-21.029 15.066-30.218 1.177.354 2.336.699 3.465 1.005-11.486 5.753-12.242 16.493-13.2 29.979-.382 5.514-.823 11.697-2.105 18.091l.966.029c1.273-6.404 1.704-12.559 2.097-18.053.966-13.553 1.723-24.283 13.687-29.672.479.115.957.22 1.427.316-.268.095-.537.162-.805.277a10.54 10.54 0 0 0-2.421 1.484c-.01.009-.019.009-.029.019-2.096 1.713-4.144 4.68-5.054 9.878a.478.478 0 0 0 .393.555.484.484 0 0 0 .555-.392c.392-2.231 1.043-4.145 1.905-5.763 4.211 3.341 6.336 7.275 6.288 11.716 0 .268.211.479.469.489h.01a.478.478 0 0 0 .478-.47c.058-4.795-2.23-9.026-6.767-12.577.622-.986 1.34-1.838 2.154-2.536 4.556 1.962 8.614 8.145 7.772 16.482.326-.028.651-.067.967-.095.574-6.528-1.914-14.148-7.868-17.038a9.67 9.67 0 0 1 1.531-.871c1.139-.498 2.374-.737 3.647-.776 5.533 4.336 7.37 8.223 8.175 17.134.019.249.229.44.478.44h.048a.474.474 0 0 0 .431-.517c-.785-8.672-2.527-12.759-7.533-16.98 2.134.239 4.364 1.043 6.499 2.441.22.143.431.297.651.45 2.316 3.177 3.465 7.868 3.388 13.946 0 .268.211.478.469.488h.01a.478.478 0 0 0 .478-.469c.058-5.006-.708-9.103-2.249-12.271 3.551 3.302 5.303 7.495 4.977 12.089a.473.473 0 0 0 .441.507h.038a.48.48 0 0 0 .479-.44c.411-5.753-2.231-10.902-7.428-14.587-.019-.01-.029-.02-.048-.029-.23-.163-.45-.326-.689-.479-2.776-1.809-5.695-2.708-8.433-2.67a.416.416 0 0 0-.153.009c-.125 0-.249.01-.373.02 6.106-2.48 10.682-1.235 17.296 4.422a.198.198 0 0 0 .096.057 24.063 24.063 0 0 0-1.025-2.058c-6.585-5.216-11.553-5.877-18.234-2.689Z"/><path fill="#4166FF" d="M356.187 189.816c-.881 2.555-1.57 5.312-2.087 8.442-1.378 8.28-2.766 16.282-4.594 23.221a.476.476 0 0 0 .345.584c.038.01.086.019.124.019a.478.478 0 0 0 .459-.354c1.838-6.978 3.236-15.009 4.614-23.307.517-3.073 1.187-5.791 2.048-8.289 2.633-7.6 6.509-12.702 11.85-15.612a.485.485 0 0 0 .192-.651.484.484 0 0 0-.651-.191c-5.561 3.024-9.591 8.308-12.3 16.138ZM341.629 221.335c.096.106.22.154.354.154.115 0 .23-.039.326-.125 2.804-2.546 5.054-11.716 5.886-15.544 1.216-5.571 2.594-10.482 4.212-14.99 2.785-7.782 5.686-13.046 8.643-15.64a.483.483 0 0 0 .048-.68.483.483 0 0 0-.679-.048c-3.121 2.738-6.04 7.993-8.912 16.043-1.627 4.556-3.015 9.495-4.24 15.114-1.694 7.772-3.79 13.4-5.599 15.037a.483.483 0 0 0-.039.679ZM343.343 200.603a.483.483 0 0 0-.661.153c-1.675 2.719-2.785 5.447-3.857 8.079-1.838 4.527-3.427 8.433-7.351 11.228a.477.477 0 0 0-.115.67.471.471 0 0 0 .392.201.496.496 0 0 0 .278-.087c4.154-2.957 5.867-7.178 7.686-11.648 1.053-2.604 2.154-5.294 3.79-7.935a.486.486 0 0 0-.162-.661ZM405.856 207.227c-.01.727-.058 1.416-.182 1.991 2.086 4.652 4.374 8.088 8.078 10.529l1.388-.259c-4.46-2.613-6.93-6.585-9.284-12.261Z"/><path fill="#E9570F" d="M357.574 284.73c4.125-1.991 4.968-6.031 0-9.017 4.834-2.814 3.541-8.519-1.273-6.949-2.91 1.991-5.561 2.45-8.548 2.469h-.009a.715.715 0 0 1-.718-.708.73.73 0 0 1 .708-.727c2.403-.02 4.48-.316 6.681-1.551 11.965-7.217 9.869-27.529-1.799-35.397a16.428 16.428 0 0 0-2.709-1.454 18.74 18.74 0 0 0-3.446-1.092l-33.626-7.255-23.498-5.064c-12.846-2.517-21.393 2.135-24.121 16.502-1.886 10.395-3.341 24.628-4.633 40.25-.029.21-.029.411-.038.622-.173 2.967.928 5.274 3.962 7.935 8.108 6.241 16.895 11.218 26.112 14.817a97.404 97.404 0 0 0 4.241 1.551c.717.248 1.483-.23 1.598-.986l5.609-37.388c17.784 4.48 38.364 9.917 44.116 9.476 1.111 5.341 2.47 11.017 4.001 16.904a26.047 26.047 0 0 1 8.079-2.642 6.578 6.578 0 0 0-.689-.296Z"/><path fill="#DDF869" d="M379.512 282.011c2.355-3.771 2.326-7.093-1.215-9.725a.587.587 0 0 1 .067-.976c4.69-2.699 5.915-9.141.182-10.328a.569.569 0 0 1-.307-.938c10.539-11.592 12.271-23.03-3.8-30.917-8.614.584-16.865 1.254-21.134 1.742-1.158.134-2.048.249-2.546.354a7.665 7.665 0 0 0-.843.172 16.04 16.04 0 0 1 2.709 1.455c11.668 7.868 13.765 28.18 1.8 35.397-2.202 1.235-4.279 1.531-6.681 1.55a.712.712 0 0 0-.709.728c0 .392.326.708.718.708h.01c2.986-.019 5.638-.478 8.547-2.469 4.805-1.57 6.098 4.135 1.273 6.949 4.968 2.986 4.126 7.026 0 9.016.24.087.479.192.699.297a26.748 26.748 0 0 1 4.834-.287h.01s7.628-.479 18.684-.852c-.488-.344-1.082-.593-1.809-.708-.527-.096-.776-.718-.489-1.168Z"/><path fill="#E9570F" d="M398.599 282.825c5.398-3.417 6.164-9.706-.804-11.678 6.279-1.665 7.954-9.399-.642-10.337 8.672-6.863 10.788-26.955-3.465-32.793-5.436.239-12.453.65-19.249 1.11 16.071 7.887 14.339 19.325 3.8 30.917a.569.569 0 0 0 .307.938c5.733 1.187 4.508 7.629-.182 10.328a.587.587 0 0 0-.067.976c3.541 2.632 3.57 5.954 1.216 9.725-.288.45-.039 1.072.488 1.158.727.115 1.321.364 1.809.709 3.34-.115 6.997-.221 10.854-.297.326-.01.641-.01.967-.019a599.12 599.12 0 0 1 6.174-.086c-.307-.268-.699-.489-1.206-.651Z"/><path fill="#DDF869" d="M393.689 228.017c14.253 5.838 12.137 25.93 3.465 32.793 8.596.938 6.921 8.672.642 10.337 6.968 1.972 6.202 8.261.804 11.678.507.153.9.373 1.206.651 2.058-.02 4.144-.039 6.25-.039 3.609-9.897 5.427-19.201 5.303-27.834 10.816-4.021 16.052-24.437-8.146-27.711a3.777 3.777 0 0 0-.392-.038c-1.426-.096-4.776-.019-9.132.163Z"/><path fill="#FE9CE5" d="M264.519 283.284c-3.035-2.661-4.135-4.967-3.963-7.935a6.022 6.022 0 0 1-2.862.393c-6.691-.728-16.291-1.13-21.259 1.895-1.656 1.015-2.805 2.403-3.14 4.288-4.24 1.532-8.538 3.408-13.592 9.562-5.991 6.356-5.293 16.761-1.177 15.468-1.79 7.093.871 11.276 6.308 9.4-.89 4.279 1.685 6.48 3.159 6.681 6.47.871 7.801-5.676 10.471-12.443.603-1.532 1.455-2.968 2.604-4.154 1.751-1.81 3.905-3.159 6.413-4.088-4.097 6.72-.163 11.678 6.949 7.045 5.351-3.723 13.42-4.968 23.336-5.102 8.567-.239 12.214-2.517 12.855-6.202v-.01c-9.208-3.579-17.995-8.557-26.102-14.798Zm-3.59 10.711c1.704-.402 3.322-.785 4.987-1.579a.481.481 0 0 1 .412.871c-1.762.842-3.494 1.254-5.179 1.656-3.608.852-7.332 1.742-12.079 6.825a.466.466 0 0 1-.354.153.482.482 0 0 1-.326-.125.482.482 0 0 1-.019-.679c4.939-5.313 8.816-6.232 12.558-7.122ZM234.903 280.7c2.001-.546 3.954-1.426 5.801-2.604a.48.48 0 0 1 .66.144.48.48 0 0 1-.143.661c-1.934 1.234-3.972 2.153-6.069 2.727a.534.534 0 0 1-.124.02.48.48 0 0 1-.46-.355.489.489 0 0 1 .335-.593Zm-18.32 20.56a.434.434 0 0 1-.268.077.5.5 0 0 1-.402-.211.476.476 0 0 1 .134-.66c1.646-1.101 2.613-3.36 2.967-6.911a.483.483 0 0 1 .527-.431.484.484 0 0 1 .431.527c-.393 3.857-1.494 6.346-3.389 7.609Zm3.025 11.687c-.039.01-.077.02-.115.02a.47.47 0 0 1-.46-.364.477.477 0 0 1 .345-.584c2.556-.661 4.02-3.58 4.346-6.183.373-3.016-.632-5.667-2.566-6.854a157.532 157.532 0 0 0-2.01 6.691.48.48 0 0 1-.459.354.482.482 0 0 1-.46-.613c.967-3.455 1.848-6.317 2.709-8.748.9-2.537 2.948-4.614 6.26-6.346 5.896-3.082 12.099-5.466 17.076-7.39a.481.481 0 1 1 .345.9c-4.958 1.905-11.132 4.279-16.98 7.342-3.13 1.636-4.978 3.484-5.811 5.819-.124.345-.239.689-.363 1.053 2.89 1.608 3.551 5.131 3.197 7.906-.441 3.571-2.432 6.318-5.054 6.997Zm9.792-8.318c2.469 1.589 3.369 4.748 2.402 8.481-.813 3.14-3.044 6.538-5.571 6.681h-.028a.488.488 0 0 1-.479-.45.481.481 0 0 1 .45-.507c1.761-.096 3.867-2.766 4.7-5.963.852-3.264.134-6.002-1.905-7.37-1.311 2.766-2.412 6.049-3.379 10.05a.48.48 0 0 1-.469.364c-.038 0-.076 0-.115-.01a.476.476 0 0 1-.354-.574c3.848-16.062 10.223-21.068 23.039-26.208a.477.477 0 0 1 .623.268.477.477 0 0 1-.268.622c-9.141 3.666-14.789 7.122-18.646 14.616Zm31.252.986a.482.482 0 1 1-.9-.344c.124-.316.268-.91-.105-1.379-.364-.449-1.484-1.129-4.997-.612-3.8.967-5.619 3.101-6.901 5.063a.484.484 0 0 1-.402.22.48.48 0 0 1-.402-.737c1.378-2.115 3.35-4.422 7.514-5.475 3.082-.459 5.063-.134 5.925.948.507.613.603 1.455.268 2.316Z"/><path fill="#E9570F" d="M248.064 290.013a.476.476 0 0 0 .268-.622.476.476 0 0 0-.622-.268c-12.827 5.14-19.192 10.146-23.04 26.208a.476.476 0 0 0 .354.574c.039.01.077.01.115.01a.48.48 0 0 0 .469-.364c.957-4.001 2.058-7.294 3.379-10.05 2.039 1.368 2.757 4.106 1.905 7.37-.833 3.197-2.939 5.867-4.7 5.963a.47.47 0 0 0-.45.507c.01.259.22.45.479.45h.029c2.527-.134 4.757-3.541 5.57-6.681.967-3.733.067-6.901-2.402-8.48 3.838-7.495 9.485-10.951 18.646-14.617ZM219.531 293.124a.477.477 0 0 0-.527.431c-.354 3.551-1.321 5.81-2.967 6.911a.476.476 0 0 0-.134.66.487.487 0 0 0 .402.211.54.54 0 0 0 .268-.077c1.895-1.263 3.006-3.752 3.388-7.609a.476.476 0 0 0-.43-.527Z"/><path fill="#E9570F" d="M221.465 298.044c.124-.364.248-.708.363-1.053.833-2.335 2.671-4.183 5.81-5.819 5.849-3.054 12.023-5.428 16.981-7.342a.481.481 0 1 0-.345-.9c-4.987 1.915-11.189 4.298-17.076 7.39-3.312 1.732-5.36 3.809-6.26 6.346-.861 2.421-1.752 5.283-2.709 8.748a.486.486 0 0 0 .46.613c.21 0 .402-.134.459-.354a156.08 156.08 0 0 1 2.01-6.691c1.934 1.187 2.948 3.838 2.565 6.854-.325 2.603-1.799 5.532-4.345 6.183a.476.476 0 0 0-.345.584c.058.22.249.364.46.364.038 0 .076 0 .115-.02 2.622-.679 4.613-3.426 5.063-6.997.345-2.775-.316-6.298-3.206-7.906ZM248.369 301.107a.483.483 0 0 0 .019.68.48.48 0 0 0 .325.124.482.482 0 0 0 .355-.153c4.738-5.083 8.471-5.963 12.079-6.825 1.685-.402 3.417-.813 5.179-1.656a.49.49 0 0 0 .229-.641.482.482 0 0 0-.641-.23c-1.665.795-3.283 1.178-4.987 1.58-3.742.899-7.619 1.818-12.558 7.121ZM254.467 302.342c-4.164 1.052-6.135 3.359-7.514 5.475a.47.47 0 0 0 .144.66.504.504 0 0 0 .258.077.485.485 0 0 0 .402-.22c1.273-1.963 3.102-4.097 6.902-5.064 3.503-.517 4.632.163 4.996.613.373.469.23 1.072.105 1.378a.482.482 0 0 0 .9.345c.335-.862.239-1.704-.249-2.326-.88-1.072-2.862-1.398-5.944-.938ZM235.027 281.638c.038 0 .086-.01.124-.019a21.905 21.905 0 0 0 6.069-2.728.478.478 0 0 0-.517-.804c-1.848 1.187-3.8 2.067-5.801 2.603a.475.475 0 0 0-.335.584c.058.23.259.364.46.364Z"/><path fill="#FE9CE5" d="M469.135 296.723c3.331-2.029 7.973-2.996 13.946-2.852h.009c1.666 0 3.264.277 4.805.545 5.073.881 9.859 1.723 17.967-6.604 5.35-5.753 9.658-7.17 13.17-4.336.201.162.24.469.077.67a.475.475 0 0 1-.67.076c-3.092-2.488-6.863-1.139-11.879 4.26-8.461 8.7-13.726 7.782-18.818 6.891-1.503-.258-3.053-.536-4.652-.536h-.009c-5.667-.143-10.079.737-13.238 2.613 3.877 4.059 7.983 8.787 11.879 13.497 18.693-3.733 37.674-13.841 37.856-26.888 5.542-6.413 4.422-10.739-1.541-11.706 1.043-3.293-1.359-4.948-6.557-5.274-1.799-5.351-7.523-3.628-13.687.163-5.657 3.474-8.816 8.107-16.588 10.433 5.647-5.714-.125-10.73-8.921-3.034-2.135 1.866-6.614 3.867-8.404 4.307-11.142 2.144-17.966 3.934-21.948 6.069 9.686 1.081 17.382 2.833 20.79 5.59 1.971 1.675 4.154 3.771 6.413 6.116Zm13.965-12.941c6.767-.9 12.836-6.356 17.727-10.759 3.762-3.388 6.738-6.068 9.256-6.212.306 0 .488.192.507.45a.48.48 0 0 1-.45.507c-2.182.125-5.188 2.834-8.672 5.964-4.881 4.393-10.921 9.82-17.803 10.931a23.087 23.087 0 0 1 2.287 5.302c7.667-.698 12.893-2.776 16.349-6.509a179.58 179.58 0 0 0 4.834-4.565c4.278-4.135 7.37-7.122 9.504-6.806a.478.478 0 0 1 .402.546.484.484 0 0 1-.545.402c-1.666-.249-4.92 2.9-8.701 6.547-1.531 1.484-3.12 3.015-4.834 4.556-3.57 3.857-8.94 6.03-16.76 6.758.086.325.172.66.239.995a.473.473 0 0 1-.373.565c-.029.01-.067.01-.096.01a.48.48 0 0 1-.469-.383c-.076-.374-.172-.737-.268-1.111-.382.029-.765.058-1.158.086h-.028a.488.488 0 0 1-.479-.449.475.475 0 0 1 .45-.508c.325-.019.632-.048.947-.067a22.42 22.42 0 0 0-4.852-8.586.482.482 0 0 1 .038-.679.474.474 0 0 1 .679.038 24.198 24.198 0 0 1 2.269 2.977Zm-19.345-4.059c1.752-.325 3.609-.344 5.571-.373 3.063-.038 6.528-.086 10.634-1.263a.48.48 0 0 1 .594.325.48.48 0 0 1-.326.594c-2.517.727-4.795 1.033-6.882 1.167 1.446 4.231-1.081 8.309-3.513 11.429a.47.47 0 0 1-.373.182.44.44 0 0 1-.297-.105.476.476 0 0 1-.086-.67c3.475-4.47 4.461-7.715 3.264-10.788a84.09 84.09 0 0 1-3.015.077c-1.924.028-3.733.048-5.408.354-.029.01-.057.009-.086.009a.472.472 0 0 1-.469-.392.488.488 0 0 1 .392-.546Z"/><path fill="#E9570F" d="M463.84 280.671c.029 0 .058 0 .087-.01 1.675-.306 3.484-.335 5.408-.354a82.872 82.872 0 0 0 3.015-.076c1.196 3.072.21 6.317-3.264 10.787a.474.474 0 0 0 .086.67.473.473 0 0 0 .67-.076c2.431-3.121 4.958-7.198 3.513-11.429 2.086-.144 4.355-.44 6.882-1.168a.478.478 0 0 0 .325-.593.472.472 0 0 0-.593-.326c-4.106 1.178-7.571 1.225-10.634 1.264-1.963.028-3.819.048-5.571.373a.477.477 0 0 0-.383.555c.029.22.23.383.459.383ZM483.071 294.828c1.608 0 3.159.268 4.662.536 5.092.89 10.356 1.809 18.818-6.892 5.015-5.389 8.787-6.748 11.878-4.259a.474.474 0 0 0 .67-.077.474.474 0 0 0-.076-.67c-3.513-2.833-7.83-1.407-13.171 4.336-8.098 8.328-12.893 7.495-17.966 6.605-1.541-.268-3.14-.546-4.805-.546h-.01c-5.963-.143-10.615.814-13.946 2.853.23.239.459.469.689.718 3.178-1.867 7.591-2.748 13.257-2.604Z"/><path fill="#E9570F" d="M480.151 280.776a.493.493 0 0 0-.039.68 22.279 22.279 0 0 1 4.853 8.586c-.316.019-.622.048-.947.067a.48.48 0 0 0 .028.957h.029c.392-.019.775-.057 1.158-.086.096.364.192.727.268 1.11a.48.48 0 0 0 .469.383c.029 0 .067 0 .096-.01a.485.485 0 0 0 .373-.564c-.067-.335-.153-.661-.239-.996 7.82-.737 13.199-2.91 16.76-6.757 1.704-1.541 3.293-3.073 4.834-4.557 3.771-3.646 7.026-6.796 8.701-6.547a.482.482 0 0 0 .545-.402.482.482 0 0 0-.402-.545c-2.125-.316-5.226 2.67-9.505 6.805-1.531 1.474-3.11 3.006-4.833 4.566-3.456 3.723-8.682 5.81-16.349 6.509a23.515 23.515 0 0 0-2.288-5.303c6.883-1.101 12.922-6.528 17.804-10.931 3.484-3.13 6.49-5.839 8.672-5.963a.474.474 0 0 0 .45-.507c-.01-.259-.201-.46-.507-.45-2.518.143-5.495 2.814-9.256 6.212-4.882 4.403-10.951 9.859-17.727 10.758a24.141 24.141 0 0 0-2.278-2.967.465.465 0 0 0-.67-.048Z"/><path fill="#841DBB" d="M342.317 376.561c10.71 9.764 23.699 16.1 37.464 19.087a48.873 48.873 0 0 0 3.187-3.092c10.51-14.521 14.769-32.104 14.779-52.186a78.2 78.2 0 0 0-.699-10.5c12.319 4.489 24.906 6.672 43.916 2.039-1.771 20.35 19.114 33.731 22.034 35.492l10.519-9.447.718-.641 7.868-7.064.718-.642 17.057-15.324c-1.809-2.47-9.467-12.836-18.177-23.355-3.896-4.71-8.002-9.438-11.879-13.497l-.689-.717c-2.259-2.336-4.441-4.442-6.442-6.136-3.407-2.747-11.112-4.508-20.789-5.59-10.577-1.177-23.518-1.56-35.847-1.551-2.106 0-4.192.01-6.25.039-2.096.019-4.164.048-6.174.086 1.867 11.591 3.111 25.537 3.896 43.791a.488.488 0 0 1-.46.498h-.019a.476.476 0 0 1-.478-.46c-.795-18.292-2.03-32.238-3.906-43.81a756.97 756.97 0 0 0-10.854.297c-11.065.373-18.684.852-18.684.852h-.01a27.545 27.545 0 0 0-4.834.287 25.764 25.764 0 0 0-8.078 2.642c-16.157 8.394-21.68 32.553-4.777 43.092-3.838 12.539-4.852 24.542-2.392 35.894-2.786.22-5.629 1.244-8.519 2.824 2.488 1.78 5.015 4.297 7.801 7.092Z"/><path fill="#DDF869" d="M285.613 397.103c-.191.124-.392.258-.584.382a.777.777 0 0 0 .584-.382ZM289.154 435.37c-1.636-1.129-3.761-1.273-5.293-.363-1.78 1.053-2.584 3.35-2.268 6.48a.352.352 0 0 1-.02.172 950.06 950.06 0 0 1 2.633 3.963c8.298 12.52 17.707 26.705 22.666 26.705.268 0 .478.211.478.479s-.21.478-.478.478c-5.475 0-14.626-13.793-23.461-27.136-2.776-4.183-5.389-8.126-7.868-11.629a.477.477 0 0 1 .115-.67.476.476 0 0 1 .67.114 264.053 264.053 0 0 1 4.25 6.193c.01-3.713 1.704-5.322 2.805-5.972 1.847-1.092 4.383-.938 6.307.392 1.206.766 2.853 1.465 4.968.747a165.134 165.134 0 0 1-12.462-13.286c-6.05-6.547-7.878-12.874-7.045-17.488-6.844 5.322-12.463 10.778-16.301 16.54-.345.508-.249.919.01 1.695 1.024 2.909 4.489 7.035 8.059 12.165a.539.539 0 0 0 .861.058l4.518-5.217c4.289 4.671 1.417 8.94 5.361 15.516 4.01 8.222 21.096 28.285 25.307 30.237.757.565 5.016-.679 4.93-2.086 6.911-.594 11.046-7.505 1.771-13.257-3.255-2.02-4.777-4.882-6.222-8.443-1.292-3.206-1.34-6.097-.096-8.71a163.103 163.103 0 0 1-7.906-7.006c-2.125.88-4.202.66-6.289-.671Zm-17.545-6.805a.47.47 0 0 1-.287.096.484.484 0 0 1-.383-.192c-1.847-2.421-3.053-4.489-4.116-6.327-1.1-1.905-2.058-3.551-3.417-5.006a.482.482 0 0 1 .019-.679.482.482 0 0 1 .68.019c1.436 1.531 2.422 3.225 3.551 5.178 1.043 1.809 2.23 3.848 4.049 6.222a.507.507 0 0 1-.096.689Z"/><path fill="#0E2722" d="M289.682 434.576c-1.924-1.33-4.461-1.484-6.308-.392-1.091.651-2.786 2.259-2.805 5.972a283.301 283.301 0 0 0-4.25-6.193.476.476 0 0 0-.67-.114.477.477 0 0 0-.115.67c2.48 3.503 5.102 7.446 7.868 11.629 8.845 13.343 17.986 27.136 23.461 27.136.268 0 .479-.21.479-.478a.475.475 0 0 0-.479-.479c-4.968 0-14.367-14.185-22.666-26.705-.9-1.35-1.771-2.671-2.632-3.963.009-.057.019-.105.019-.172-.316-3.13.488-5.427 2.268-6.48 1.532-.91 3.657-.766 5.294.364 2.086 1.33 4.163 1.55 6.26.679-.259-.239-.517-.488-.776-.727-2.096.718-3.742.019-4.948-.747ZM267.658 421.664c-1.13-1.953-2.116-3.647-3.551-5.179a.483.483 0 0 0-.68-.019.483.483 0 0 0-.019.68c1.359 1.455 2.316 3.101 3.417 5.006 1.063 1.828 2.259 3.905 4.116 6.327a.486.486 0 0 0 .383.191.474.474 0 0 0 .373-.765c-1.809-2.384-2.996-4.432-4.039-6.241Z"/><path fill="#E19615" d="M461.257 372.293a56.576 56.576 0 0 1-5.14 4.891c-21.307 17.784-50.204 24.149-76.335 18.473-13.755-2.996-26.744-9.323-37.464-19.086-2.786-2.804-5.313-5.312-7.801-7.093-1.742-1.254-3.465-2.144-5.236-2.517-6.26-1.311-11.917 2.546-11.333 9.036-7.811-3.13-17.401 1.349-16.167 10.806-5.743-3.407-17.277 1.206-16.052 9.792a.796.796 0 0 1-.114.517.764.764 0 0 1-.584.383c-.077.01-.154.029-.23.019-4.958-.766-8.787 2.183-9.658 7.045-.833 4.614.995 10.941 7.045 17.488a168.693 168.693 0 0 0 12.462 13.285c.259.24.517.488.776.728a166.502 166.502 0 0 0 7.906 7.006c37.665 31.252 98.13 52.693 170.119-.469 12.645-9.332 23.107-19.574 30.831-31.309-13.429-9.878-28.131-24.111-43.025-38.995Zm-167.2 60.733a.48.48 0 0 1 .306-.604c.737-.239 1.254-.871 1.522-1.856.967-3.513-1.283-10.434-4.614-14.243-3.187-3.638-6.872-5.82-9.859-5.849-1.588.01-2.852.556-3.886 1.685a.491.491 0 0 1-.679.038.491.491 0 0 1-.039-.679c1.216-1.34 2.748-2.03 4.604-2.001 3.255.029 7.208 2.336 10.577 6.174 3.58 4.078 5.877 11.285 4.825 15.123-.355 1.302-1.101 2.173-2.145 2.518-.047.019-.095.019-.153.019a.453.453 0 0 1-.459-.325Zm61.642 21.747a.471.471 0 0 1-.622.258c-31.405-12.587-54.301-30.582-68.103-53.506a.473.473 0 0 1-.536.191.48.48 0 0 1-.307-.603c.067-.22.163-.411.24-.622-.192-.325-.383-.641-.565-.957a.475.475 0 0 1 .182-.651.475.475 0 0 1 .651.182c.076.134.153.258.229.383 1.101-2.01 2.795-3.283 4.92-3.618 3.81-.594 8.395 1.809 11.4 5.972 3.695 5.112 6.366 13.037 4.231 16.933-.794 1.455-2.192 2.211-4.049 2.211h-.067c13.257 13.496 30.697 24.619 52.138 33.204a.473.473 0 0 1 .258.623Zm6.557-16.99c-.029 0-.058 0-.086-.01-16.78-2.977-35.081-15.353-47.333-28.706a.471.471 0 0 1-.344-.392c-6.203-6.834-10.807-13.898-12.798-20.063a.49.49 0 0 1 .306-.603.488.488 0 0 1 .603.307c1.953 6.087 6.509 13.056 12.635 19.794 2.422-.038 4.135-1.388 4.767-3.781 1.302-4.996-2.575-12.768-12.529-17.956a.478.478 0 0 1-.202-.642.479.479 0 0 1 .642-.201c7.868 4.107 14.855 11.965 13.008 19.048-.661 2.527-2.441 4.126-4.853 4.441 12.099 12.97 29.912 24.906 46.27 27.807a.477.477 0 0 1 .383.555.488.488 0 0 1-.469.402Zm9.217-19.565a.48.48 0 0 1-.469.373c-.038 0-.067 0-.105-.009-27.117-6.011-49.429-29.989-53.296-40.623-.009-.019-.009-.048-.009-.067a.327.327 0 0 1-.019-.096c0-.038.009-.067.019-.105.009-.019 0-.048.009-.067 0-.01.01-.01.01-.019 0-.01.01-.019.01-.019.44-1.091 1.273-1.876 2.412-2.269 2.019-.689 4.9-.115 7.695 1.551a21.574 21.574 0 0 1 7.447 7.418c3.695 6.116 1.781 9.237.795 10.299a4.499 4.499 0 0 1-3.283 1.426h-.067c9.868 9.247 23.718 18.378 38.478 21.642a.467.467 0 0 1 .373.565Z"/><path fill="#E19615" d="M303.026 419.979c1.694.086 2.881-.479 3.551-1.704 1.714-3.13-.201-10.414-4.173-15.908-2.757-3.819-7.064-6.107-10.472-5.58-2.019.315-3.551 1.569-4.498 3.637 4.192 7.073 9.246 13.678 15.152 19.794a.453.453 0 0 1 .44-.239ZM335.29 393.925c1.752-1.867 1.417-5.294-.918-9.151a20.714 20.714 0 0 0-7.122-7.093c-2.556-1.522-5.13-2.067-6.892-1.464a2.922 2.922 0 0 0-1.78 1.598c1.637 4.336 6.203 10.587 12.711 16.914 1.341.622 2.958.296 4.001-.804Z"/><path fill="#0E2722" d="M355.43 454.15c-21.44-8.585-38.88-19.708-52.137-33.204h.067c1.857 0 3.254-.756 4.049-2.211 2.125-3.896-.546-11.821-4.231-16.933-3.006-4.163-7.581-6.556-11.4-5.973-2.125.326-3.819 1.599-4.92 3.619-.077-.125-.153-.259-.23-.383a.483.483 0 0 0-.651-.182.484.484 0 0 0-.181.651c.181.325.373.641.564.957-.086.201-.172.402-.239.622a.479.479 0 0 0 .306.603.467.467 0 0 0 .536-.191c13.793 22.934 36.689 40.929 68.104 53.506a.468.468 0 0 0 .622-.258.458.458 0 0 0-.259-.623Zm-63.499-57.373c3.408-.526 7.715 1.771 10.472 5.58 3.972 5.495 5.877 12.788 4.173 15.909-.67 1.225-1.857 1.799-3.551 1.704a.437.437 0 0 0-.431.239c-5.906-6.126-10.969-12.731-15.152-19.795.938-2.067 2.479-3.321 4.489-3.637ZM296.802 430.814c1.053-3.838-1.244-11.046-4.824-15.123-3.369-3.838-7.322-6.145-10.577-6.174-1.857-.029-3.388.66-4.604 2a.475.475 0 0 0 .038.68.484.484 0 0 0 .68-.038c1.024-1.13 2.297-1.675 3.886-1.685 2.987.019 6.672 2.211 9.859 5.849 3.341 3.809 5.58 10.73 4.614 14.242-.268.996-.785 1.618-1.522 1.857a.475.475 0 0 0 .153.929c.048 0 .096-.01.153-.019 1.043-.335 1.79-1.206 2.144-2.518ZM362.332 436.835c-16.348-2.9-34.171-14.836-46.27-27.806 2.412-.316 4.193-1.914 4.853-4.441 1.847-7.084-5.14-14.942-13.008-19.048a.47.47 0 0 0-.641.201.47.47 0 0 0 .201.641c9.945 5.188 13.831 12.96 12.529 17.957-.622 2.393-2.345 3.752-4.767 3.781-6.126-6.739-10.682-13.717-12.634-19.795a.476.476 0 0 0-.603-.306.475.475 0 0 0-.307.603c1.982 6.164 6.595 13.228 12.798 20.062a.484.484 0 0 0 .344.393c12.252 13.352 30.563 25.729 47.333 28.706a.473.473 0 0 0 .555-.383.476.476 0 0 0-.383-.565ZM371.109 417.644c-14.759-3.264-28.61-12.406-38.478-21.642h.067a4.521 4.521 0 0 0 3.283-1.426c.995-1.053 2.9-4.174-.794-10.3a21.59 21.59 0 0 0-7.447-7.418c-2.795-1.665-5.667-2.24-7.696-1.55-1.139.392-1.972 1.177-2.412 2.268 0 .01-.01.019-.01.019 0 .01-.009.01-.009.019-.01.019-.01.048-.01.067-.009.039-.019.067-.019.106 0 .038.01.067.019.095 0 .019 0 .048.01.067 3.857 10.635 26.169 34.612 53.295 40.623a.482.482 0 0 0 .575-.364.49.49 0 0 0-.374-.564Zm-52.52-39.829c.345-.765.938-1.311 1.78-1.598 1.762-.603 4.336-.058 6.892 1.464a20.703 20.703 0 0 1 7.121 7.093c2.326 3.857 2.671 7.275.919 9.151-1.043 1.11-2.661 1.426-3.991.813-6.518-6.336-11.084-12.587-12.721-16.923Z"/><path fill="#4166FF" d="M396.569 327.391c.01.258.22.459.479.459h.019a.486.486 0 0 0 .46-.497c-.785-18.254-2.03-32.2-3.896-43.791-.326.009-.641.009-.967.019 1.876 11.572 3.111 25.518 3.905 43.81Z"/><path fill="#DDF869" d="M567.321 362.376c-2.891-5.829-5.897-11.314-14.396.163-9.476 10.433-15.315 12.481-23.03 1.311l-24.743-34.296-5.274 4.729-17.057 15.324c2.575 2.221 4.422 4.135 6.068 5.839 1.608 1.656 2.996 3.092 4.7 4.441.335.278.536.68.527 1.12a1.4 1.4 0 0 1-.537 1.11c-1.234.958-1.837 2.02-2.412 3.044-.775 1.359-1.512 2.642-3.503 3.427l-.239.096-.211-.144c-5.245-3.58-9.744-7.054-13.697-10.586l-10.519 9.447-3.494 3.14 1.742 1.742c14.903 14.884 29.606 29.117 43.035 38.986 6.298 4.623 12.309 8.289 17.937 10.605.575.23 1.225.086 1.656-.344l12.329-12.358a.54.54 0 0 0-.125-.852l-6.001-3.407c3.302-3.704 6.126-1.857 12.194-6.241 5.533-3.991 13.736-13.266 27.73-34.209-.728-1.101-1.57-1.934-2.68-2.087Zm-38.134 43.8c-4.442 4.327-8.079 8.328-11.458 12.606a.5.5 0 0 1-.373.182.489.489 0 0 1-.297-.105.475.475 0 0 1-.076-.67c3.398-4.317 7.073-8.347 11.543-12.702a.482.482 0 0 1 .68.01c.191.191.172.488-.019.679Zm37.004-41.819c-2.508 1.809-6.25 7.227-10.998 14.071-3.12 4.499-6.547 9.447-10.299 14.357a.46.46 0 0 1-.163.221 176.94 176.94 0 0 1-3.8 4.795.476.476 0 0 1-.373.172.536.536 0 0 1-.306-.105.482.482 0 0 1-.067-.67 177.444 177.444 0 0 0 2.9-3.647c-.862.22-1.637.326-2.317.326-2.067 0-3.34-.843-4.01-1.494-1.541-1.493-2.049-3.981-1.273-6.192.689-2.221.919-5.533-5.045-8.481a18.683 18.683 0 0 1-3.503-2.23c-3.934-3.188-4.795-6.452-4.824-8.634-.038-3.168 1.598-5.714 3.149-7.035a.493.493 0 0 1 .68.047.484.484 0 0 1-.048.68c-1.378 1.177-2.843 3.456-2.814 6.298.038 2.824 1.579 5.562 4.47 7.897a18.317 18.317 0 0 0 3.321 2.115c4.968 2.451 6.777 5.61 5.533 9.639-.661 1.876-.24 3.963 1.033 5.198 1.455 1.407 3.82 1.598 6.682.545 3.742-4.9 7.169-9.849 10.289-14.348 4.796-6.92 8.586-12.395 11.218-14.3a.486.486 0 0 1 .67.105.485.485 0 0 1-.105.67Z"/><path fill="#DDF869" d="M490.334 364.683c.594-1.053 1.273-2.24 2.652-3.322a.446.446 0 0 0 .172-.363.464.464 0 0 0-.163-.355c-1.752-1.397-3.159-2.852-4.786-4.537-1.656-1.713-3.513-3.627-6.107-5.857l-7.868 7.063c3.848 3.437 8.213 6.816 13.305 10.29 1.513-.67 2.106-1.713 2.795-2.919Z"/><path fill="#0E2722" d="M565.627 363.572c-2.642 1.915-6.432 7.38-11.218 14.301-3.12 4.498-6.547 9.447-10.29 14.348-2.861 1.053-5.226.871-6.681-.546-1.273-1.244-1.694-3.321-1.033-5.197 1.254-4.03-.556-7.179-5.533-9.639a17.717 17.717 0 0 1-3.321-2.116c-2.891-2.345-4.432-5.073-4.47-7.896-.039-2.843 1.426-5.112 2.814-6.299a.482.482 0 0 0 .048-.679.484.484 0 0 0-.68-.048c-1.551 1.321-3.187 3.867-3.149 7.035.029 2.173.89 5.437 4.824 8.634a18.6 18.6 0 0 0 3.503 2.23c5.964 2.948 5.734 6.26 5.045 8.481-.776 2.201-.259 4.69 1.273 6.193.679.66 1.943 1.493 4.01 1.493.68 0 1.455-.105 2.317-.325a174.102 174.102 0 0 1-2.901 3.646.466.466 0 0 0 .067.67.46.46 0 0 0 .307.106.49.49 0 0 0 .373-.173 176.94 176.94 0 0 0 3.8-4.795.458.458 0 0 0 .163-.22c3.752-4.91 7.179-9.859 10.299-14.358 4.748-6.844 8.49-12.261 10.998-14.07a.484.484 0 0 0 .105-.67.485.485 0 0 0-.67-.106ZM528.526 405.487c-4.47 4.355-8.136 8.385-11.544 12.702a.483.483 0 0 0 .077.67.487.487 0 0 0 .297.105.486.486 0 0 0 .373-.182c3.379-4.278 7.016-8.289 11.457-12.606a.481.481 0 0 0 .01-.679.47.47 0 0 0-.67-.01ZM488.21 356.106c1.627 1.685 3.035 3.14 4.786 4.537a.464.464 0 0 1 .163.355.446.446 0 0 1-.172.363c-1.379 1.082-2.058 2.269-2.652 3.322-.689 1.206-1.282 2.249-2.795 2.919-5.092-3.474-9.457-6.853-13.305-10.29l-.717.642c3.953 3.532 8.451 7.006 13.697 10.586l.21.144.24-.096c1.991-.785 2.728-2.067 3.503-3.427.574-1.024 1.177-2.086 2.412-3.043a1.4 1.4 0 0 0 .536-1.111 1.41 1.41 0 0 0-.526-1.12c-1.704-1.349-3.092-2.785-4.7-4.441-1.646-1.704-3.494-3.618-6.069-5.839l-.718.642c2.594 2.23 4.451 4.144 6.107 5.857Z"/><path fill="#FE9CE5" d="M404.16 206.739c0-3.207-1.043-6.031-2.795-7.562a5.142 5.142 0 0 0-3.475-1.302c-.277 0-.574.019-.871.058-4.546.603-6.853 3.57-6.853 8.806 0 5.197 3.197 8.691 7.945 8.691 3.675 0 6.049-3.417 6.049-8.691Z"/><path fill="#4166FF" d="M396.887 196.985c-4.978.66-7.629 3.972-7.677 9.581-.134-1.617-.613-3.158-1.417-4.498-1.273-2.125-3.216-3.494-5.456-3.858-5.025-.813-8.49 2.297-9.495 8.529-.45 2.804-.191 5.283.747 7.169 1.062 2.134 2.996 3.484 5.599 3.905.393.067.776.096 1.168.096 1.847 0 3.676-.708 5.226-2.039 1.857-1.598 3.111-3.915 3.523-6.518.086-.565.134-1.13.143-1.685.374 5.178 3.915 8.72 8.864 8.72 1.043 0 1.991-.23 2.833-.66 2.603-1.321 4.173-4.566 4.173-8.988 0-3.475-1.167-6.576-3.12-8.29a6.105 6.105 0 0 0-1.646-1.033c-1.053-.45-2.221-.594-3.465-.431Zm-8.73 12.214c-.383 2.383-1.522 4.489-3.207 5.944-1.665 1.426-3.656 2.038-5.618 1.732-2.317-.373-3.953-1.512-4.891-3.388-.852-1.704-1.072-3.982-.661-6.595.488-3.044 2.049-7.859 7.007-7.859.44 0 .9.039 1.388.115 1.962.316 3.666 1.522 4.786 3.398 1.158 1.915 1.579 4.279 1.196 6.653Zm9.945 6.231c-4.747 0-7.944-3.494-7.944-8.691 0-5.236 2.306-8.194 6.853-8.806.297-.039.584-.058.871-.058 1.321 0 2.489.431 3.475 1.302 1.751 1.531 2.795 4.365 2.795 7.562.009 5.274-2.365 8.691-6.05 8.691Z"/></svg>